<?xml version="1.0" encoding="utf-8"?>
<svg version="1.1" xmlns:xlink="http://www.w3.org/1999/xlink" width="16px" height="18px" xmlns="http://www.w3.org/2000/svg">
  <g transform="matrix(1 0 0 1 -268 -21 )">
    <path d="M 14.8571428571429 1.49804941482445  L 14.8571428571429 5.99219765929779  C 15.1726190476191 5.99219765929779  15.4419642857143 6.13849154746424  15.6651785714286 6.43107932379714  C 15.8883928571429 6.72366710013004  16 7.07672301690507  16 7.49024707412224  C 16 7.9037711313394  15.8883928571429 8.25682704811443  15.6651785714286 8.54941482444733  C 15.4419642857143 8.84200260078023  15.1726190476191 8.98829648894669  14.8571428571429 8.98829648894669  L 14.8571428571429 13.48244473342  C 14.8571428571429 13.888166449935  14.7440476190476 14.2392717815345  14.5178571428571 14.5357607282185  C 14.2916666666667 14.8322496749025  14.0238095238095 14.9804941482445  13.7142857142857 14.9804941482445  C 11.2321428571428 12.2730819245774  8.81547619047619 10.7906371911573  6.46428571428572 10.5331599479844  C 6.11904761904762 10.6814044213264  5.84821428571428 10.9388816644994  5.65178571428572 11.3055916775033  C 5.45535714285715 11.6723016905071  5.36309523809523 12.0643693107932  5.375 12.4817945383615  C 5.38690476190477 12.8992197659298  5.50595238095238 13.260078023407  5.73214285714285 13.5643693107932  C 5.61309523809523 13.8218465539662  5.54464285714285 14.0773732119636  5.52678571428572 14.3309492847854  C 5.50892857142857 14.5845253576073  5.52678571428572 14.8107932379714  5.58035714285715 15.0097529258778  C 5.63392857142857 15.2087126137841  5.73363095238094 15.4232769830949  5.87946428571428 15.6534460338101  C 6.02529761904762 15.8836150845254  6.16815476190477 16.0786736020806  6.30803571428572 16.2386215864759  C 6.44791666666666 16.3985695708713  6.63095238095238 16.5955786736021  6.85714285714285 16.8296488946684  C 6.68452380952381 17.2821846553966  6.35267857142857 17.6059817945384  5.86160714285715 17.8010403120936  C 5.37053571428572 17.9960988296489  4.86904761904762 18.0409622886866  4.35714285714285 17.9356306892068  C 3.84523809523809 17.8302990897269  3.45238095238094 17.6137841352406  3.17857142857143 17.2860858257477  C 3.13690476190477 17.1066319895969  3.04910714285715 16.7652795838752  2.91517857142857 16.2620286085826  C 2.78125 15.75877763329  2.68601190476191 15.3901170351105  2.62946428571428 15.1560468140442  C 2.57291666666666 14.9219765929779  2.50446428571428 14.5747724317295  2.42410714285715 14.1144343302991  C 2.34375 13.6540962288687  2.29910714285715 13.260078023407  2.29017857142857 12.9323797139142  C 2.28125 12.6046814044213  2.29166666666666 12.2204161248374  2.32142857142857 11.7795838751625  C 2.35119047619049 11.3387516254876  2.41666666666666 10.9076723016905  2.51785714285715 10.4863459037711  L 1.42857142857143 10.4863459037711  C 1.03571428571428 10.4863459037711  0.699404761904775 10.3029908972692  0.419642857142848 9.93628088426528  C 0.139880952380943 9.56957087126138  0 9.12873862158648  0 8.61378413524057  L 0 6.3667100130039  C 0 5.851755526658  0.139880952380943 5.4109232769831  0.419642857142848 5.04421326397919  C 0.699404761904775 4.67750325097529  1.03571428571428 4.49414824447334  1.42857142857143 4.49414824447334  L 5.71428571428572 4.49414824447334  C 8.30357142857143 4.49414824447334  10.9702380952381 2.99609882964889  13.7142857142857 0  C 14.0238095238095 0  14.2916666666667 0.148244473342001  14.5178571428571 0.444733420026008  C 14.7440476190476 0.741222366710012  14.8571428571429 1.09232769830949  14.8571428571429 1.49804941482445  Z M 6.85714285714285 9.0702210663199  C 9.10119047619049 9.39791937581274  11.3869047619048 10.7282184655397  13.7142857142857 13.0611183355006  L 13.7142857142857 1.89596879063719  C 11.3690476190476 4.25227568270481  9.08333333333334 5.59037711313394  6.85714285714285 5.91027308192458  L 6.85714285714285 9.0702210663199  Z " fill-rule="nonzero" fill="#ffffff" stroke="none" transform="matrix(1 0 0 1 268 21 )" />
  </g>
</svg>