<?xml version="1.0" encoding="utf-8"?>
<svg version="1.1" xmlns:xlink="http://www.w3.org/1999/xlink" width="12px" height="11px" xmlns="http://www.w3.org/2000/svg">
  <g transform="matrix(1 0 0 1 -64 -25 )">
    <path d="M 2.19642857142857 8.4375  C 2.44642857142857 8.72916666666667  2.57142857142857 9.08333333333333  2.57142857142857 9.5  C 2.57142857142857 9.91666666666667  2.44642857142857 10.2708333333333  2.19642857142857 10.5625  C 1.94642857142857 10.8541666666667  1.64285714285714 11  1.28571428571429 11  C 0.928571428571429 11  0.625 10.8541666666667  0.375 10.5625  C 0.125 10.2708333333333  0 9.91666666666667  0 9.5  C 0 9.08333333333333  0.125 8.72916666666667  0.375 8.4375  C 0.625 8.14583333333333  0.928571428571429 8  1.28571428571429 8  C 1.64285714285714 8  1.94642857142857 8.14583333333333  2.19642857142857 8.4375  Z M 2.19642857142857 4.4375  C 2.44642857142857 4.72916666666667  2.57142857142857 5.08333333333333  2.57142857142857 5.5  C 2.57142857142857 5.91666666666667  2.44642857142857 6.27083333333333  2.19642857142857 6.5625  C 1.94642857142857 6.85416666666667  1.64285714285714 7  1.28571428571429 7  C 0.928571428571429 7  0.625 6.85416666666667  0.375 6.5625  C 0.125 6.27083333333333  0 5.91666666666667  0 5.5  C 0 5.08333333333333  0.125 4.72916666666667  0.375 4.4375  C 0.625 4.14583333333333  0.928571428571429 4  1.28571428571429 4  C 1.64285714285714 4  1.94642857142857 4.14583333333333  2.19642857142857 4.4375  Z M 11.9363839285714 8.57421875  C 11.9787946428571 8.62369791666667  12 8.68229166666667  12 8.75  L 12 10.25  C 12 10.3177083333333  11.9787946428571 10.3763020833333  11.9363839285714 10.42578125  C 11.8939732142857 10.4752604166667  11.84375 10.5  11.7857142857143 10.5  L 3.64285714285714 10.5  C 3.58482142857143 10.5  3.53459821428571 10.4752604166667  3.4921875 10.42578125  C 3.44977678571429 10.3763020833333  3.42857142857143 10.3177083333333  3.42857142857143 10.25  L 3.42857142857143 8.75  C 3.42857142857143 8.68229166666667  3.44977678571429 8.62369791666667  3.4921875 8.57421875  C 3.53459821428571 8.52473958333333  3.58482142857143 8.5  3.64285714285714 8.5  L 11.7857142857143 8.5  C 11.84375 8.5  11.8939732142857 8.52473958333333  11.9363839285714 8.57421875  Z M 2.19642857142857 0.4375  C 2.44642857142857 0.729166666666667  2.57142857142857 1.08333333333333  2.57142857142857 1.5  C 2.57142857142857 1.91666666666667  2.44642857142857 2.27083333333333  2.19642857142857 2.5625  C 1.94642857142857 2.85416666666667  1.64285714285714 3  1.28571428571429 3  C 0.928571428571429 3  0.625 2.85416666666667  0.375 2.5625  C 0.125 2.27083333333333  0 1.91666666666667  0 1.5  C 0 1.08333333333333  0.125 0.729166666666667  0.375 0.4375  C 0.625 0.145833333333333  0.928571428571429 0  1.28571428571429 0  C 1.64285714285714 0  1.94642857142857 0.145833333333333  2.19642857142857 0.4375  Z M 11.9363839285714 4.57421875  C 11.9787946428571 4.62369791666667  12 4.68229166666667  12 4.75  L 12 6.25  C 12 6.31770833333333  11.9787946428571 6.37630208333333  11.9363839285714 6.42578125  C 11.8939732142857 6.47526041666667  11.84375 6.5  11.7857142857143 6.5  L 3.64285714285714 6.5  C 3.58482142857143 6.5  3.53459821428571 6.47526041666667  3.4921875 6.42578125  C 3.44977678571429 6.37630208333333  3.42857142857143 6.31770833333333  3.42857142857143 6.25  L 3.42857142857143 4.75  C 3.42857142857143 4.68229166666667  3.44977678571429 4.62369791666667  3.4921875 4.57421875  C 3.53459821428571 4.52473958333333  3.58482142857143 4.5  3.64285714285714 4.5  L 11.7857142857143 4.5  C 11.84375 4.5  11.8939732142857 4.52473958333333  11.9363839285714 4.57421875  Z M 11.9363839285714 0.57421875  C 11.9787946428571 0.623697916666666  12 0.682291666666667  12 0.750000000000001  L 12 2.25  C 12 2.31770833333333  11.9787946428571 2.37630208333333  11.9363839285714 2.42578125  C 11.8939732142857 2.47526041666667  11.84375 2.5  11.7857142857143 2.5  L 3.64285714285714 2.5  C 3.58482142857143 2.5  3.53459821428571 2.47526041666667  3.4921875 2.42578125  C 3.44977678571429 2.37630208333333  3.42857142857143 2.31770833333333  3.42857142857143 2.25  L 3.42857142857143 0.750000000000001  C 3.42857142857143 0.682291666666667  3.44977678571429 0.623697916666666  3.4921875 0.57421875  C 3.53459821428571 0.524739583333332  3.58482142857143 0.5  3.64285714285714 0.5  L 11.7857142857143 0.5  C 11.84375 0.5  11.8939732142857 0.524739583333332  11.9363839285714 0.57421875  Z " fill-rule="nonzero" fill="#ffffff" stroke="none" transform="matrix(1 0 0 1 64 25 )" />
  </g>
</svg>