<?xml version="1.0" encoding="utf-8"?>
<svg version="1.1" xmlns:xlink="http://www.w3.org/1999/xlink" width="11px" height="16px" xmlns="http://www.w3.org/2000/svg">
  <g transform="matrix(1 0 0 1 -142 -1082 )">
    <path d="M 10.5410415375077 11.8518518518519  C 10.7415375077496 11.8518518518519  10.8799752014879 11.9104938271605  10.9563546187229 12.0277777777778  C 11.0327340359578 12.145061728395  11.0088654680719 12.2530864197531  10.8847489150651 12.3518518518519  L 5.87234965902044 15.9074074074074  C 5.77687538747676 15.9691358024691  5.66707997520152 16  5.54296342219467 16  C 5.4092994420335 16  5.29473031618105 15.9691358024691  5.19925604463731 15.9074074074074  L 0.115251084934926 12.3518518518519  C -0.00886546807191735 12.2530864197531  -0.0327340359578443 12.145061728395  0.0436453812771447 12.0277777777778  C 0.129572225666493 11.9104938271605  0.268009919404847 11.8518518518519  0.458958462492262 11.8518518518519  L 3.66689398636083 11.8518518518519  L 3.66689398636083 0.296296296296284  C 3.66689398636083 0.209876543209909  3.70985740855551 0.138888888888852  3.79578425294483 0.0833333333333606  C 3.88171109733418 0.027777777777787  3.99150650960945 0  4.12517048977062 0  L 6.87482951022938 0  C 7.00849349039055 0  7.11828890266583 0.027777777777787  7.20421574705517 0.0833333333333606  C 7.29014259144449 0.138888888888852  7.33310601363917 0.209876543209909  7.33310601363917 0.296296296296284  L 7.33310601363917 11.8518518518519  L 10.5410415375077 11.8518518518519  Z " fill-rule="nonzero" fill="#aeaeae" stroke="none" transform="matrix(1 0 0 1 142 1082 )" />
  </g>
</svg>