<?xml version="1.0" encoding="utf-8"?>
<svg version="1.1" xmlns:xlink="http://www.w3.org/1999/xlink" width="13px" height="18px" xmlns="http://www.w3.org/2000/svg">
  <g transform="matrix(1 0 0 1 -10 -15 )">
    <path d="M 8.7978515625 8.12109375  C 9.4326171875 7.53515625  9.75 6.828125  9.75 6  C 9.75 5.171875  9.4326171875 4.46484375  8.7978515625 3.87890625  C 8.1630859375 3.29296875  7.39713541666667 3  6.5 3  C 5.60286458333333 3  4.8369140625 3.29296875  4.2021484375 3.87890625  C 3.5673828125 4.46484375  3.25 5.171875  3.25 6  C 3.25 6.828125  3.5673828125 7.53515625  4.2021484375 8.12109375  C 4.8369140625 8.70703125  5.60286458333333 9  6.5 9  C 7.39713541666667 9  8.1630859375 8.70703125  8.7978515625 8.12109375  Z M 11.095703125 1.7578125  C 12.365234375 2.9296875  13 4.34375  13 6  C 13 6.8515625  12.8603515625 7.55078125  12.5810546875 8.09765625  L 7.9599609375 17.16796875  C 7.82454427083333 17.42578125  7.62353515625 17.62890625  7.35693359375 17.77734375  C 7.09033203125 17.92578125  6.8046875 18  6.5 18  C 6.1953125 18  5.90966796875 17.92578125  5.64306640625 17.77734375  C 5.37646484375 17.62890625  5.1796875 17.42578125  5.052734375 17.16796875  L 0.4189453125 8.09765625  C 0.1396484375 7.55078125  0 6.8515625  0 6  C 0 4.34375  0.634765625 2.9296875  1.904296875 1.7578125  C 3.173828125 0.585937500000001  4.70572916666667 0  6.5 0  C 8.29427083333333 0  9.826171875 0.585937500000001  11.095703125 1.7578125  Z " fill-rule="nonzero" fill="#ffffff" stroke="none" transform="matrix(1 0 0 1 10 15 )" />
  </g>
</svg>