<?xml version="1.0" encoding="utf-8"?>
<svg version="1.1" xmlns:xlink="http://www.w3.org/1999/xlink" width="23px" height="21px" xmlns="http://www.w3.org/2000/svg">
  <g transform="matrix(1 0 0 1 -19 -732 )">
    <path d="M 19.7029634734666 11.9976617303196  C 19.7124741557546 12.0194855806703  19.7172294968987 12.0522213561964  19.7172294968987 12.0958690568978  L 19.7172294968987 19.9524551831644  C 19.7172294968987 20.2361652377241  19.6268780151619 20.4816835541699  19.4461750516885 20.6890101325019  C 19.265472088215 20.896336710834  19.0514817367333 21  18.8042039972433 21  L 13.3260509993108 21  L 13.3260509993108 14.7147310989867  L 9.67394900068916 14.7147310989867  L 9.67394900068916 21  L 4.19579600275677 21  C 3.94851826326672 21  3.73452791178499 20.896336710834  3.5538249483115 20.6890101325019  C 3.37312198483806 20.4816835541699  3.28277050310132 20.2361652377241  3.28277050310132 19.9524551831644  L 3.28277050310132 12.0958690568978  C 3.28277050310132 12.0849571317225  3.28514817367335 12.0685892439595  3.28990351481735 12.0467653936088  C 3.29465885596139 12.024941543258  3.29703652653342 12.0085736554949  3.29703652653342 11.9976617303196  L 11.5 4.2392829306313  L 19.7029634734666 11.9976617303196  Z M 22.9984148862853 10.5818394388153  C 23.0079255685734 10.7291504286828  22.9746381805651 10.8573655494933  22.8985527222605 10.9664848012471  L 22.0140592694693 12.1777084957131  C 21.9379738111647 12.2759158222914  21.8381116471399 12.3359314107561  21.7144727773949 12.3577552611068  L 21.6716747070986 12.3577552611068  C 21.5480358373536 12.3577552611068  21.4481736733287 12.319563522993  21.3720882150241 12.2431800467654  L 11.5 2.79890880748249  L 1.62791178497585 12.2431800467654  C 1.51378359751897 12.3304754481684  1.39965541006202 12.3686671862822  1.28552722260511 12.3577552611068  C 1.16188835286007 12.3359314107561  1.06202618883529 12.2759158222914  0.985940730530672 12.1777084957131  L 0.10144727773951 10.9664848012471  C 0.0253618194348917 10.8573655494933  -0.00792556857339832 10.7291504286828  0.00158511371469672 10.5818394388153  C 0.0110957960027633 10.4345284489478  0.0634045485871866 10.3172252533125  0.158511371467966 10.2299298519096  L 10.4157822191592 0.425565081839437  C 10.7201240523777 0.14185502727986  11.0815299793246 0  11.5 0  C 11.9184700206754 0  12.2798759476223 0.14185502727986  12.5842177808408 0.425565081839437  L 16.065127498277 3.76461418550272  L 16.065127498277 0.572876071706958  C 16.065127498277 0.420109119251748  16.1079255685734 0.294621979734984  16.1935217091661 0.196414653156637  C 16.2791178497588 0.0982073265783754  16.3884906960717 0.0491036632890882  16.5216402481047 0.0491036632890882  L 19.260716747071 0.0491036632890882  C 19.393866299104 0.0491036632890882  19.503239145417 0.0982073265783754  19.5888352860096 0.196414653156637  C 19.6744314266024 0.294621979734984  19.7172294968987 0.420109119251748  19.7172294968987 0.572876071706958  L 19.7172294968987 7.25097427903347  L 22.841488628532 10.2299298519096  C 22.9365954514128 10.3172252533125  22.9889042039972 10.4345284489478  22.9984148862853 10.5818394388153  Z " fill-rule="nonzero" fill="#0099ff" stroke="none" transform="matrix(1 0 0 1 19 732 )" />
  </g>
</svg>