<?xml version="1.0" encoding="utf-8"?>
<svg version="1.1" xmlns:xlink="http://www.w3.org/1999/xlink" width="21px" height="22px" xmlns="http://www.w3.org/2000/svg">
  <g transform="matrix(1 0 0 1 -323 -732 )">
    <path d="M 20.9477982954546 16.8079427083333  C 20.9825994318182 17.2901475694444  21 17.7842881944444  21 18.2903645833333  C 21 19.4361979166667  20.6370738636363 20.3409288194444  19.9112215909091 21.0045572916667  C 19.1853693181819 21.6681857638889  18.2208806818181 22  17.0177556818182 22  L 3.98224431818181 22  C 2.77911931818181 22  1.81463068181819 21.6681857638889  1.08877840909088 21.0045572916667  C 0.362926136363626 20.3409288194444  0 19.4361979166667  0 18.2903645833333  C 0 17.7842881944444  0.017400568181813 17.2901475694444  0.0522017045454959 16.8079427083333  C 0.0870028409090651 16.3257378472222  0.156605113636374 15.8053385416667  0.261008522727252 15.2467447916667  C 0.365411931818187 14.6881510416667  0.497159090909065 14.1701388888889  0.65625 13.6927083333333  C 0.815340909090935 13.2152777777778  1.02911931818181 12.7497829861111  1.29758522727275 12.2962239583333  C 1.56605113636363 11.8426649305556  1.87428977272725 11.4559461805556  2.22230113636363 11.1360677083333  C 2.5703125 10.8161892361111  2.99538352272725 10.5607638888889  3.4975142045455 10.3697916666667  C 3.99964488636363 10.1788194444444  4.55397727272725 10.0833333333333  5.16051136363637 10.0833333333333  C 5.25 10.0833333333333  5.45880681818181 10.1859809027778  5.78693181818181 10.3912760416667  C 6.11505681818181 10.5965711805556  6.48544034090907 10.8257378472222  6.89808238636363 11.0787760416667  C 7.31072443181819 11.3318142361111  7.84765625 11.5609809027778  8.50887784090912 11.7662760416667  C 9.17009943181819 11.9715711805556  9.83380681818181 12.07421875  10.5 12.07421875  C 11.1661931818181 12.07421875  11.8299005681818 11.9715711805556  12.4911221590909 11.7662760416667  C 13.15234375 11.5609809027778  13.6892755681819 11.3318142361111  14.1019176136364 11.0787760416667  C 14.5145596590909 10.8257378472222  14.8849431818182 10.5965711805556  15.2130681818182 10.3912760416667  C 15.5411931818182 10.1859809027778  15.75 10.0833333333333  15.8394886363636 10.0833333333333  C 16.4460227272727 10.0833333333333  17.0003551136364 10.1788194444444  17.5024857954546 10.3697916666667  C 18.0046164772727 10.5607638888889  18.4296874999999 10.8161892361111  18.7776988636364 11.1360677083333  C 19.1257102272727 11.4559461805556  19.4339488636364 11.8426649305556  19.7024147727272 12.2962239583333  C 19.9708806818182 12.7497829861111  20.1846590909091 13.2152777777778  20.34375 13.6927083333333  C 20.5028409090909 14.1701388888889  20.6345880681818 14.6881510416667  20.7389914772728 15.2467447916667  C 20.8433948863636 15.8053385416667  20.9129971590909 16.3257378472222  20.9477982954546 16.8079427083333  Z M 14.5493607954545 1.611328125  C 15.66796875 2.685546875  16.2272727272727 3.98177083333331  16.2272727272727 5.5  C 16.2272727272727 7.01822916666666  15.66796875 8.314453125  14.5493607954545 9.388671875  C 13.4307528409091 10.462890625  12.0809659090909 11  10.5 11  C 8.91903409090912 11  7.56924715909088 10.462890625  6.4506392045455 9.388671875  C 5.33203125 8.314453125  4.77272727272725 7.01822916666666  4.77272727272725 5.5  C 4.77272727272725 3.98177083333331  5.33203125 2.685546875  6.4506392045455 1.611328125  C 7.56924715909088 0.537109375  8.91903409090912 0  10.5 0  C 12.0809659090909 0  13.4307528409091 0.537109375  14.5493607954545 1.611328125  Z " fill-rule="nonzero" fill="#0099ff" stroke="none" transform="matrix(1 0 0 1 323 732 )" />
  </g>
</svg>