<?xml version="1.0" encoding="utf-8"?>
<svg version="1.1" xmlns:xlink="http://www.w3.org/1999/xlink" width="22px" height="22px" xmlns="http://www.w3.org/2000/svg">
  <g transform="matrix(1 0 0 1 -94 -732 )">
    <path d="M 9.65144230769231 12.59375  C 9.9863782051282 12.9895833333333  10.1538461538462 13.4583333333333  10.1538461538462 14  L 10.1538461538462 20  C 10.1538461538462 20.5416666666667  9.9863782051282 21.0104166666667  9.65144230769231 21.40625  C 9.31650641025641 21.8020833333333  8.9198717948718 22  8.46153846153846 22  L 1.69230769230769 22  C 1.23397435897436 22  0.837339743589744 21.8020833333333  0.502403846153846 21.40625  C 0.167467948717949 21.0104166666667  0 20.5416666666667  0 20  L 0 14  C 0 13.4583333333333  0.167467948717949 12.9895833333333  0.502403846153846 12.59375  C 0.837339743589744 12.1979166666667  1.23397435897436 12  1.69230769230769 12  L 8.46153846153846 12  C 8.9198717948718 12  9.31650641025641 12.1979166666667  9.65144230769231 12.59375  Z M 9.65144230769231 0.59375  C 9.9863782051282 0.989583333333332  10.1538461538462 1.45833333333333  10.1538461538462 2  L 10.1538461538462 8  C 10.1538461538462 8.54166666666666  9.9863782051282 9.01041666666667  9.65144230769231 9.40625  C 9.31650641025641 9.80208333333333  8.9198717948718 10  8.46153846153846 10  L 1.69230769230769 10  C 1.23397435897436 10  0.837339743589744 9.80208333333333  0.502403846153846 9.40625  C 0.167467948717949 9.01041666666667  0 8.54166666666666  0 8  L 0 2  C 0 1.45833333333333  0.167467948717949 0.989583333333332  0.502403846153846 0.59375  C 0.837339743589744 0.197916666666665  1.23397435897436 0  1.69230769230769 0  L 8.46153846153846 0  C 8.9198717948718 0  9.31650641025641 0.197916666666665  9.65144230769231 0.59375  Z M 21.4975961538462 12.59375  C 21.8325320512821 12.9895833333333  22 13.4583333333333  22 14  L 22 20  C 22 20.5416666666667  21.8325320512821 21.0104166666667  21.4975961538462 21.40625  C 21.1626602564103 21.8020833333333  20.7660256410256 22  20.3076923076923 22  L 13.5384615384615 22  C 13.0801282051282 22  12.6834935897436 21.8020833333333  12.3485576923077 21.40625  C 12.0136217948718 21.0104166666667  11.8461538461538 20.5416666666667  11.8461538461538 20  L 11.8461538461538 14  C 11.8461538461538 13.4583333333333  12.0136217948718 12.9895833333333  12.3485576923077 12.59375  C 12.6834935897436 12.1979166666667  13.0801282051282 12  13.5384615384615 12  L 20.3076923076923 12  C 20.7660256410256 12  21.1626602564103 12.1979166666667  21.4975961538462 12.59375  Z M 21.4975961538462 0.59375  C 21.8325320512821 0.989583333333332  22 1.45833333333333  22 2  L 22 8  C 22 8.54166666666666  21.8325320512821 9.01041666666667  21.4975961538462 9.40625  C 21.1626602564103 9.80208333333333  20.7660256410256 10  20.3076923076923 10  L 13.5384615384615 10  C 13.0801282051282 10  12.6834935897436 9.80208333333333  12.3485576923077 9.40625  C 12.0136217948718 9.01041666666667  11.8461538461538 8.54166666666666  11.8461538461538 8  L 11.8461538461538 2  C 11.8461538461538 1.45833333333333  12.0136217948718 0.989583333333332  12.3485576923077 0.59375  C 12.6834935897436 0.197916666666665  13.0801282051282 0  13.5384615384615 0  L 20.3076923076923 0  C 20.7660256410256 0  21.1626602564103 0.197916666666665  21.4975961538462 0.59375  Z " fill-rule="nonzero" fill="#0099ff" stroke="none" transform="matrix(1 0 0 1 94 732 )" />
  </g>
</svg>