<?xml version="1.0" encoding="utf-8"?>
<svg version="1.1" xmlns:xlink="http://www.w3.org/1999/xlink" width="20px" height="12px" xmlns="http://www.w3.org/2000/svg">
  <g transform="matrix(1 0 0 1 -338 -13 )">
    <path d="M 13.3333333333333 9.59999999999999  L 2.22222222222223 9.59999999999999  L 2.22222222222223 2.40000000000001  L 13.3333333333333 2.40000000000001  L 13.3333333333333 9.59999999999999  Z M 18.8888888888889 1.5  L 18.8888888888889 3  C 19.1956018518518 3  19.4574652777778 3.1171875  19.6744791666667 3.3515625  C 19.8914930555555 3.5859375  20 3.86875000000001  20 4.19999999999999  L 20 7.80000000000001  C 20 8.13124999999999  19.8914930555555 8.4140625  19.6744791666667 8.6484375  C 19.4574652777778 8.8828125  19.1956018518518 9  18.8888888888889 9  L 18.8888888888889 10.5  C 18.8888888888889 10.9125  18.7528935185186 11.265625  18.4809027777778 11.559375  C 18.2089120370371 11.853125  17.8819444444445 12  17.5 12  L 1.38888888888886 12  C 1.00694444444446 12  0.679976851851848 11.853125  0.407986111111143 11.559375  C 0.135995370370381 11.265625  0 10.9125  0 10.5  L 0 1.5  C 0 1.08750000000001  0.135995370370381 0.734375  0.407986111111143 0.440625000000011  C 0.679976851851848 0.146874999999994  1.00694444444446 0  1.38888888888886 0  L 17.5 0  C 17.8819444444445 0  18.2089120370371 0.146874999999994  18.4809027777778 0.440625000000011  C 18.7528935185186 0.734375  18.8888888888889 1.08750000000001  18.8888888888889 1.5  Z M 17.7777777777778 7.80000000000001  L 18.8888888888889 7.80000000000001  L 18.8888888888889 4.19999999999999  L 17.7777777777778 4.19999999999999  L 17.7777777777778 1.5  C 17.7777777777778 1.41249999999999  17.7517361111111 1.34062499999999  17.6996527777778 1.28437500000001  C 17.6475694444445 1.22812500000001  17.5810185185186 1.19999999999999  17.5 1.19999999999999  L 1.38888888888886 1.19999999999999  C 1.30787037037038 1.19999999999999  1.24131944444446 1.22812500000001  1.18923611111114 1.28437500000001  C 1.13715277777777 1.34062499999999  1.11111111111114 1.41249999999999  1.11111111111114 1.5  L 1.11111111111114 10.5  C 1.11111111111114 10.5875  1.13715277777777 10.659375  1.18923611111114 10.715625  C 1.24131944444446 10.771875  1.30787037037038 10.8  1.38888888888886 10.8  L 17.5 10.8  C 17.5810185185186 10.8  17.6475694444445 10.771875  17.6996527777778 10.715625  C 17.7517361111111 10.659375  17.7777777777778 10.5875  17.7777777777778 10.5  L 17.7777777777778 7.80000000000001  Z " fill-rule="nonzero" fill="#333333" stroke="none" transform="matrix(1 0 0 1 338 13 )" />
  </g>
</svg>