<?xml version="1.0" encoding="utf-8"?>
<svg version="1.1" xmlns:xlink="http://www.w3.org/1999/xlink" width="32px" height="26px" xmlns="http://www.w3.org/2000/svg">
  <g transform="matrix(1 0 0 1 -172 -722 )">
    <path d="M 2 11.1428571428571  L 30 11.1428571428571  C 30.5520833333333 11.1428571428571  31.0234375 11.32421875  31.4140625 11.6869419642857  C 31.8046875 12.0496651785714  32 12.4873511904762  32 13  C 32 13.5126488095238  31.8046875 13.9503348214286  31.4140625 14.3130580357143  C 31.0234375 14.67578125  30.5520833333333 14.8571428571429  30 14.8571428571429  L 29.765625 14.8571428571429  L 27.96875 24.4620535714286  C 27.8854166666667 24.906994047619  27.65625 25.2745535714286  27.28125 25.5647321428571  C 26.90625 25.8549107142857  26.4791666666667 26  26 26  L 6 26  C 5.52083333333333 26  5.09375 25.8549107142857  4.71875 25.5647321428571  C 4.34375 25.2745535714286  4.11458333333333 24.906994047619  4.03125 24.4620535714286  L 2.234375 14.8571428571429  L 2 14.8571428571429  C 1.44791666666667 14.8571428571429  0.9765625 14.67578125  0.5859375 14.3130580357143  C 0.1953125 13.9503348214286  0 13.5126488095238  0 13  C 0 12.4873511904762  0.1953125 12.0496651785714  0.5859375 11.6869419642857  C 0.9765625 11.32421875  1.44791666666667 11.1428571428571  2 11.1428571428571  Z M 7.5 22.75  L 7.578125 22.75  C 7.84895833333333 22.7306547619048  8.07552083333333 22.621837797619  8.2578125 22.4235491071429  C 8.44010416666667 22.2252604166667  8.52083333333333 22.0003720238095  8.5 21.7488839285714  L 8 15.7131696428571  C 7.97916666666667 15.461681547619  7.86197916666667 15.2513020833333  7.6484375 15.08203125  C 7.43489583333333 14.9127604166667  7.19270833333333 14.8377976190476  6.921875 14.8571428571429  C 6.65104166666667 14.8764880952381  6.42447916666667 14.9853050595238  6.2421875 15.18359375  C 6.05989583333333 15.3818824404762  5.97916666666667 15.6067708333333  6 15.8582589285714  L 6.5 21.8939732142857  C 6.52083333333333 22.1357886904762  6.62760416666667 22.3389136904762  6.8203125 22.5033482142857  C 7.01302083333333 22.6677827380952  7.23958333333333 22.75  7.5 22.75  Z M 13.703125 22.4743303571429  C 13.9010416666667 22.2905505952381  14 22.0729166666667  14 21.8214285714286  L 14 15.7857142857143  C 14 15.5342261904762  13.9010416666667 15.3165922619048  13.703125 15.1328125  C 13.5052083333333 14.9490327380952  13.2708333333333 14.8571428571429  13 14.8571428571429  C 12.7291666666667 14.8571428571429  12.4947916666667 14.9490327380952  12.296875 15.1328125  C 12.0989583333333 15.3165922619048  12 15.5342261904762  12 15.7857142857143  L 12 21.8214285714286  C 12 22.0729166666667  12.0989583333333 22.2905505952381  12.296875 22.4743303571429  C 12.4947916666667 22.6581101190476  12.7291666666667 22.75  13 22.75  C 13.2708333333333 22.75  13.5052083333333 22.6581101190476  13.703125 22.4743303571429  Z M 19.703125 22.4743303571429  C 19.9010416666667 22.2905505952381  20 22.0729166666667  20 21.8214285714286  L 20 15.7857142857143  C 20 15.5342261904762  19.9010416666667 15.3165922619048  19.703125 15.1328125  C 19.5052083333333 14.9490327380952  19.2708333333333 14.8571428571429  19 14.8571428571429  C 18.7291666666667 14.8571428571429  18.4947916666667 14.9490327380952  18.296875 15.1328125  C 18.0989583333333 15.3165922619048  18 15.5342261904762  18 15.7857142857143  L 18 21.8214285714286  C 18 22.0729166666667  18.0989583333333 22.2905505952381  18.296875 22.4743303571429  C 18.4947916666667 22.6581101190476  18.7291666666667 22.75  19 22.75  C 19.2708333333333 22.75  19.5052083333333 22.6581101190476  19.703125 22.4743303571429  Z M 25.1796875 22.5033482142857  C 25.3723958333333 22.3389136904762  25.4791666666667 22.1357886904762  25.5 21.8939732142857  L 26 15.8582589285714  C 26.0208333333333 15.6067708333333  25.9401041666667 15.3818824404762  25.7578125 15.18359375  C 25.5755208333333 14.9853050595238  25.3489583333333 14.8764880952381  25.078125 14.8571428571429  C 24.8072916666667 14.8377976190476  24.5651041666667 14.9127604166667  24.3515625 15.08203125  C 24.1380208333333 15.2513020833333  24.0208333333333 15.461681547619  24 15.7131696428571  L 23.5 21.7488839285714  C 23.4791666666667 22.0003720238095  23.5598958333333 22.2252604166667  23.7421875 22.4235491071429  C 23.9244791666667 22.621837797619  24.1510416666667 22.7306547619048  24.421875 22.75  L 24.5 22.75  C 24.7604166666667 22.75  24.9869791666667 22.6677827380952  25.1796875 22.5033482142857  Z M 8.1484375 3.19196428571428  C 7.7890625 3.46279761904762  7.55208333333333 3.8110119047619  7.4375 4.23660714285714  L 5.984375 10.2142857142857  L 3.921875 10.2142857142857  L 5.5 3.81584821428572  C 5.69791666666667 2.96465773809524  6.16145833333333 2.27064732142857  6.890625 1.73381696428572  C 7.61979166666667 1.19698660714286  8.453125 0.928571428571428  9.390625 0.928571428571428  L 12 0.928571428571428  C 12 0.677083333333332  12.0989583333333 0.459449404761901  12.296875 0.275669642857144  C 12.4947916666667 0.0918898809523832  12.7291666666667 0  13 0  L 19 0  C 19.2708333333333 0  19.5052083333333 0.0918898809523832  19.703125 0.275669642857144  C 19.9010416666667 0.459449404761901  20 0.677083333333332  20 0.928571428571428  L 22.609375 0.928571428571428  C 23.546875 0.928571428571428  24.3802083333333 1.19698660714286  25.109375 1.73381696428572  C 25.8385416666667 2.27064732142857  26.3020833333333 2.96465773809524  26.5 3.81584821428572  L 28.078125 10.2142857142857  L 26.015625 10.2142857142857  L 24.5625 4.23660714285714  C 24.4479166666667 3.8110119047619  24.2109375 3.46279761904762  23.8515625 3.19196428571428  C 23.4921875 2.92113095238095  23.078125 2.78571428571428  22.609375 2.78571428571428  L 20 2.78571428571428  C 20 3.03720238095238  19.9010416666667 3.25483630952381  19.703125 3.43861607142857  C 19.5052083333333 3.62239583333333  19.2708333333333 3.71428571428572  19 3.71428571428572  L 13 3.71428571428572  C 12.7291666666667 3.71428571428572  12.4947916666667 3.62239583333333  12.296875 3.43861607142857  C 12.0989583333333 3.25483630952381  12 3.03720238095238  12 2.78571428571428  L 9.390625 2.78571428571428  C 8.921875 2.78571428571428  8.5078125 2.92113095238095  8.1484375 3.19196428571428  Z " fill-rule="nonzero" fill="#0099ff" stroke="none" transform="matrix(1 0 0 1 172 722 )" />
  </g>
</svg>