<?xml version="1.0" encoding="utf-8"?>
<svg version="1.1" xmlns:xlink="http://www.w3.org/1999/xlink" width="20px" height="20px" xmlns="http://www.w3.org/2000/svg">
  <defs>
    <mask fill="white" id="clip143">
      <path d="M 20 2.85359801488834  C 20 3.0686517783292  19.8777348777349 3.25475599669148  19.6332046332046 3.41191066997519  L 9.38223938223938 10  L 19.6332046332046 16.5880893300248  C 19.8777348777349 16.7452440033085  20 16.9313482216708  20 17.1464019851117  C 20 17.3614557485525  19.8777348777349 17.5475599669148  19.6332046332046 17.7047146401985  L 16.4285714285714 19.7642679900744  C 16.1840411840412 19.9214226633582  15.8944658944659 20  15.5598455598456 20  C 15.2252252252252 20  14.9356499356499 19.9214226633582  14.6911196911197 19.7642679900744  L 0.366795366795367 10.5583126550868  C 0.122265122265123 10.4011579818031  0 10.2150537634409  0 10  C 0 9.78494623655914  0.122265122265123 9.59884201819686  0.366795366795367 9.44168734491316  L 14.6911196911197 0.235732009925556  C 14.9356499356499 0.0785773366418496  15.2252252252252 0  15.5598455598456 0  C 15.8944658944659 0  16.1840411840412 0.0785773366418496  16.4285714285714 0.235732009925556  L 19.6332046332046 2.29528535980149  C 19.8777348777349 2.45244003308519  20 2.63854425144747  20 2.85359801488834  Z " fill-rule="evenodd" />
    </mask>
  </defs>
  <g transform="matrix(1 0 0 1 -206 0 )">
    <path d="M 20 2.85359801488834  C 20 3.0686517783292  19.8777348777349 3.25475599669148  19.6332046332046 3.41191066997519  L 9.38223938223938 10  L 19.6332046332046 16.5880893300248  C 19.8777348777349 16.7452440033085  20 16.9313482216708  20 17.1464019851117  C 20 17.3614557485525  19.8777348777349 17.5475599669148  19.6332046332046 17.7047146401985  L 16.4285714285714 19.7642679900744  C 16.1840411840412 19.9214226633582  15.8944658944659 20  15.5598455598456 20  C 15.2252252252252 20  14.9356499356499 19.9214226633582  14.6911196911197 19.7642679900744  L 0.366795366795367 10.5583126550868  C 0.122265122265123 10.4011579818031  0 10.2150537634409  0 10  C 0 9.78494623655914  0.122265122265123 9.59884201819686  0.366795366795367 9.44168734491316  L 14.6911196911197 0.235732009925556  C 14.9356499356499 0.0785773366418496  15.2252252252252 0  15.5598455598456 0  C 15.8944658944659 0  16.1840411840412 0.0785773366418496  16.4285714285714 0.235732009925556  L 19.6332046332046 2.29528535980149  C 19.8777348777349 2.45244003308519  20 2.63854425144747  20 2.85359801488834  Z " fill-rule="nonzero" fill="#aeaeae" stroke="none" transform="matrix(1 0 0 1 206 0 )" />
    <path d="M 20 2.85359801488834  C 20 3.0686517783292  19.8777348777349 3.25475599669148  19.6332046332046 3.41191066997519  L 9.38223938223938 10  L 19.6332046332046 16.5880893300248  C 19.8777348777349 16.7452440033085  20 16.9313482216708  20 17.1464019851117  C 20 17.3614557485525  19.8777348777349 17.5475599669148  19.6332046332046 17.7047146401985  L 16.4285714285714 19.7642679900744  C 16.1840411840412 19.9214226633582  15.8944658944659 20  15.5598455598456 20  C 15.2252252252252 20  14.9356499356499 19.9214226633582  14.6911196911197 19.7642679900744  L 0.366795366795367 10.5583126550868  C 0.122265122265123 10.4011579818031  0 10.2150537634409  0 10  C 0 9.78494623655914  0.122265122265123 9.59884201819686  0.366795366795367 9.44168734491316  L 14.6911196911197 0.235732009925556  C 14.9356499356499 0.0785773366418496  15.2252252252252 0  15.5598455598456 0  C 15.8944658944659 0  16.1840411840412 0.0785773366418496  16.4285714285714 0.235732009925556  L 19.6332046332046 2.29528535980149  C 19.8777348777349 2.45244003308519  20 2.63854425144747  20 2.85359801488834  Z " stroke-width="2" stroke="#ffffff" fill="none" transform="matrix(1 0 0 1 206 0 )" mask="url(#clip143)" />
  </g>
</svg>