<?xml version="1.0" encoding="utf-8"?>
<svg version="1.1" xmlns:xlink="http://www.w3.org/1999/xlink" width="17px" height="14px" xmlns="http://www.w3.org/2000/svg">
  <defs>
    <mask fill="white" id="clip146">
      <path d="M 16.6929032258064 1.93265993265993  C 16.8976344086022 2.15263748597082  17 2.41975308641975  17 2.73400673400673  C 17 3.04826038159371  16.8976344086022 3.31537598204265  16.6929032258064 3.53535353535353  L 8.75225806451613 12.0673400673401  L 7.26064516129032 13.6700336700337  C 7.05591397849462 13.8900112233446  6.80731182795699 14  6.51483870967742 14  C 6.22236559139785 14  5.97376344086022 13.8900112233446  5.76903225806452 13.6700336700337  L 4.27741935483871 12.0673400673401  L 0.30709677419355 7.8013468013468  C 0.102365591397851 7.58136924803591  0 7.31425364758698  0 7  C 0 6.68574635241302  0.102365591397851 6.41863075196408  0.30709677419355 6.1986531986532  L 1.79870967741935 4.5959595959596  C 2.00344086021505 4.37598204264871  2.25204301075269 4.26599326599326  2.54451612903226 4.26599326599327  C 2.83698924731183 4.26599326599326  3.08559139784946 4.37598204264871  3.29032258064516 4.5959595959596  L 6.51483870967742 8.07239057239057  L 13.7096774193548 0.32996632996633  C 13.9144086021505 0.109988776655443  14.1630107526882 0  14.4554838709677 0  C 14.7479569892473 0  14.9965591397849 0.109988776655443  15.2012903225806 0.32996632996633  L 16.6929032258064 1.93265993265993  Z " fill-rule="evenodd" />
    </mask>
  </defs>
  <g transform="matrix(1 0 0 1 -9 -4 )">
    <path d="M 16.6929032258064 1.93265993265993  C 16.8976344086022 2.15263748597082  17 2.41975308641975  17 2.73400673400673  C 17 3.04826038159371  16.8976344086022 3.31537598204265  16.6929032258064 3.53535353535353  L 8.75225806451613 12.0673400673401  L 7.26064516129032 13.6700336700337  C 7.05591397849462 13.8900112233446  6.80731182795699 14  6.51483870967742 14  C 6.22236559139785 14  5.97376344086022 13.8900112233446  5.76903225806452 13.6700336700337  L 4.27741935483871 12.0673400673401  L 0.30709677419355 7.8013468013468  C 0.102365591397851 7.58136924803591  0 7.31425364758698  0 7  C 0 6.68574635241302  0.102365591397851 6.41863075196408  0.30709677419355 6.1986531986532  L 1.79870967741935 4.5959595959596  C 2.00344086021505 4.37598204264871  2.25204301075269 4.26599326599326  2.54451612903226 4.26599326599327  C 2.83698924731183 4.26599326599326  3.08559139784946 4.37598204264871  3.29032258064516 4.5959595959596  L 6.51483870967742 8.07239057239057  L 13.7096774193548 0.32996632996633  C 13.9144086021505 0.109988776655443  14.1630107526882 0  14.4554838709677 0  C 14.7479569892473 0  14.9965591397849 0.109988776655443  15.2012903225806 0.32996632996633  L 16.6929032258064 1.93265993265993  Z " fill-rule="nonzero" fill="#ffffff" stroke="none" transform="matrix(1 0 0 1 9 4 )" />
    <path d="M 16.6929032258064 1.93265993265993  C 16.8976344086022 2.15263748597082  17 2.41975308641975  17 2.73400673400673  C 17 3.04826038159371  16.8976344086022 3.31537598204265  16.6929032258064 3.53535353535353  L 8.75225806451613 12.0673400673401  L 7.26064516129032 13.6700336700337  C 7.05591397849462 13.8900112233446  6.80731182795699 14  6.51483870967742 14  C 6.22236559139785 14  5.97376344086022 13.8900112233446  5.76903225806452 13.6700336700337  L 4.27741935483871 12.0673400673401  L 0.30709677419355 7.8013468013468  C 0.102365591397851 7.58136924803591  0 7.31425364758698  0 7  C 0 6.68574635241302  0.102365591397851 6.41863075196408  0.30709677419355 6.1986531986532  L 1.79870967741935 4.5959595959596  C 2.00344086021505 4.37598204264871  2.25204301075269 4.26599326599326  2.54451612903226 4.26599326599327  C 2.83698924731183 4.26599326599326  3.08559139784946 4.37598204264871  3.29032258064516 4.5959595959596  L 6.51483870967742 8.07239057239057  L 13.7096774193548 0.32996632996633  C 13.9144086021505 0.109988776655443  14.1630107526882 0  14.4554838709677 0  C 14.7479569892473 0  14.9965591397849 0.109988776655443  15.2012903225806 0.32996632996633  L 16.6929032258064 1.93265993265993  Z " stroke-width="2" stroke="#0099ff" fill="none" transform="matrix(1 0 0 1 9 4 )" mask="url(#clip146)" />
  </g>
</svg>