<?xml version="1.0" encoding="utf-8"?>
<svg version="1.1" xmlns:xlink="http://www.w3.org/1999/xlink" width="14px" height="14px" xmlns="http://www.w3.org/2000/svg">
  <defs>
    <mask fill="white" id="clip149">
      <path d="M 13.6700336700337 10.4646464646465  C 13.8900112233446 10.6846240179573  14 10.9517396184063  14 11.2659932659933  C 14 11.5802469135803  13.8900112233446 11.8473625140292  13.6700336700337 12.0673400673401  L 12.0673400673401 13.6700336700337  C 11.8473625140292 13.8900112233446  11.5802469135802 14  11.2659932659933 14  C 10.9517396184063 14  10.6846240179574 13.8900112233446  10.4646464646465 13.6700336700337  L 7 10.2053872053872  L 3.53535353535354 13.6700336700337  C 3.31537598204265 13.8900112233446  3.04826038159371 14  2.73400673400673 14  C 2.41975308641975 14  2.15263748597082 13.8900112233446  1.93265993265993 13.6700336700337  L 0.32996632996633 12.0673400673401  C 0.109988776655443 11.8473625140292  0 11.5802469135803  0 11.2659932659933  C 0 10.9517396184063  0.109988776655443 10.6846240179573  0.32996632996633 10.4646464646465  L 3.7946127946128 7  L 0.32996632996633 3.53535353535354  C 0.109988776655443 3.31537598204265  0 3.04826038159371  0 2.73400673400673  C 0 2.41975308641975  0.109988776655443 2.15263748597081  0.32996632996633 1.93265993265993  L 1.93265993265993 0.329966329966332  C 2.15263748597082 0.109988776655442  2.41975308641975 0  2.73400673400673 0  C 3.04826038159371 0  3.31537598204265 0.109988776655442  3.53535353535354 0.329966329966332  L 7 3.7946127946128  L 10.4646464646465 0.329966329966332  C 10.6846240179574 0.109988776655442  10.9517396184063 0  11.2659932659933 0  C 11.5802469135802 0  11.8473625140292 0.109988776655442  12.0673400673401 0.329966329966332  L 13.6700336700337 1.93265993265993  C 13.8900112233446 2.15263748597081  14 2.41975308641975  14 2.73400673400673  C 14 3.04826038159371  13.8900112233446 3.31537598204265  13.6700336700337 3.53535353535354  L 10.2053872053872 7  L 13.6700336700337 10.4646464646465  Z " fill-rule="evenodd" />
    </mask>
  </defs>
  <g transform="matrix(1 0 0 1 -36 -4 )">
    <path d="M 13.6700336700337 10.4646464646465  C 13.8900112233446 10.6846240179573  14 10.9517396184063  14 11.2659932659933  C 14 11.5802469135803  13.8900112233446 11.8473625140292  13.6700336700337 12.0673400673401  L 12.0673400673401 13.6700336700337  C 11.8473625140292 13.8900112233446  11.5802469135802 14  11.2659932659933 14  C 10.9517396184063 14  10.6846240179574 13.8900112233446  10.4646464646465 13.6700336700337  L 7 10.2053872053872  L 3.53535353535354 13.6700336700337  C 3.31537598204265 13.8900112233446  3.04826038159371 14  2.73400673400673 14  C 2.41975308641975 14  2.15263748597082 13.8900112233446  1.93265993265993 13.6700336700337  L 0.32996632996633 12.0673400673401  C 0.109988776655443 11.8473625140292  0 11.5802469135803  0 11.2659932659933  C 0 10.9517396184063  0.109988776655443 10.6846240179573  0.32996632996633 10.4646464646465  L 3.7946127946128 7  L 0.32996632996633 3.53535353535354  C 0.109988776655443 3.31537598204265  0 3.04826038159371  0 2.73400673400673  C 0 2.41975308641975  0.109988776655443 2.15263748597081  0.32996632996633 1.93265993265993  L 1.93265993265993 0.329966329966332  C 2.15263748597082 0.109988776655442  2.41975308641975 0  2.73400673400673 0  C 3.04826038159371 0  3.31537598204265 0.109988776655442  3.53535353535354 0.329966329966332  L 7 3.7946127946128  L 10.4646464646465 0.329966329966332  C 10.6846240179574 0.109988776655442  10.9517396184063 0  11.2659932659933 0  C 11.5802469135802 0  11.8473625140292 0.109988776655442  12.0673400673401 0.329966329966332  L 13.6700336700337 1.93265993265993  C 13.8900112233446 2.15263748597081  14 2.41975308641975  14 2.73400673400673  C 14 3.04826038159371  13.8900112233446 3.31537598204265  13.6700336700337 3.53535353535354  L 10.2053872053872 7  L 13.6700336700337 10.4646464646465  Z " fill-rule="nonzero" fill="#ffffff" stroke="none" transform="matrix(1 0 0 1 36 4 )" />
    <path d="M 13.6700336700337 10.4646464646465  C 13.8900112233446 10.6846240179573  14 10.9517396184063  14 11.2659932659933  C 14 11.5802469135803  13.8900112233446 11.8473625140292  13.6700336700337 12.0673400673401  L 12.0673400673401 13.6700336700337  C 11.8473625140292 13.8900112233446  11.5802469135802 14  11.2659932659933 14  C 10.9517396184063 14  10.6846240179574 13.8900112233446  10.4646464646465 13.6700336700337  L 7 10.2053872053872  L 3.53535353535354 13.6700336700337  C 3.31537598204265 13.8900112233446  3.04826038159371 14  2.73400673400673 14  C 2.41975308641975 14  2.15263748597082 13.8900112233446  1.93265993265993 13.6700336700337  L 0.32996632996633 12.0673400673401  C 0.109988776655443 11.8473625140292  0 11.5802469135803  0 11.2659932659933  C 0 10.9517396184063  0.109988776655443 10.6846240179573  0.32996632996633 10.4646464646465  L 3.7946127946128 7  L 0.32996632996633 3.53535353535354  C 0.109988776655443 3.31537598204265  0 3.04826038159371  0 2.73400673400673  C 0 2.41975308641975  0.109988776655443 2.15263748597081  0.32996632996633 1.93265993265993  L 1.93265993265993 0.329966329966332  C 2.15263748597082 0.109988776655442  2.41975308641975 0  2.73400673400673 0  C 3.04826038159371 0  3.31537598204265 0.109988776655442  3.53535353535354 0.329966329966332  L 7 3.7946127946128  L 10.4646464646465 0.329966329966332  C 10.6846240179574 0.109988776655442  10.9517396184063 0  11.2659932659933 0  C 11.5802469135802 0  11.8473625140292 0.109988776655442  12.0673400673401 0.329966329966332  L 13.6700336700337 1.93265993265993  C 13.8900112233446 2.15263748597081  14 2.41975308641975  14 2.73400673400673  C 14 3.04826038159371  13.8900112233446 3.31537598204265  13.6700336700337 3.53535353535354  L 10.2053872053872 7  L 13.6700336700337 10.4646464646465  Z " stroke-width="2" stroke="#aeaeae" fill="none" transform="matrix(1 0 0 1 36 4 )" mask="url(#clip149)" />
  </g>
</svg>