<?xml version="1.0" encoding="utf-8"?>
<svg version="1.1" xmlns:xlink="http://www.w3.org/1999/xlink" width="11px" height="20px" xmlns="http://www.w3.org/2000/svg">
  <g transform="matrix(1 0 0 1 -318 -230 )">
    <path d="M 10.8185763888889 7.92067307692309  C 10.939525462963 8.07291666666663  11 8.25320512820508  11 8.46153846153845  L 11 10  C 11 11.7708333333334  10.5305266203704 13.3112980769231  9.59157986111111 14.6213942307692  C 8.65263310185185 15.9314903846154  7.49247685185185 16.6826923076924  6.11111111111111 16.875  L 6.11111111111111 18.4615384615385  L 8.55555555555556 18.4615384615385  C 8.72106481481482 18.4615384615385  8.86429398148148 18.5376602564103  8.98524305555556 18.6899038461539  C 9.10619212962962 18.8421474358975  9.16666666666667 19.0224358974359  9.16666666666667 19.2307692307693  C 9.16666666666667 19.4391025641025  9.10619212962962 19.619391025641  8.98524305555556 19.7716346153846  C 8.86429398148148 19.9238782051282  8.72106481481482 20  8.55555555555556 20  L 2.44444444444444 20  C 2.27893518518518 20  2.13570601851852 19.9238782051282  2.01475694444444 19.7716346153846  C 1.89380787037038 19.619391025641  1.83333333333333 19.4391025641025  1.83333333333333 19.2307692307693  C 1.83333333333333 19.0224358974359  1.89380787037038 18.8421474358975  2.01475694444444 18.6899038461539  C 2.13570601851852 18.5376602564103  2.27893518518518 18.4615384615385  2.44444444444444 18.4615384615385  L 4.88888888888889 18.4615384615385  L 4.88888888888889 16.875  C 3.50752314814815 16.6826923076924  2.34736689814815 15.9314903846154  1.40842013888889 14.6213942307692  C 0.469473379629619 13.3112980769231  0 11.7708333333334  0 10  L 0 8.46153846153845  C 0 8.25320512820508  0.0604745370370381 8.07291666666663  0.181423611111114 7.92067307692309  C 0.302372685185176 7.76842948717945  0.445601851851848 7.69230769230762  0.611111111111114 7.69230769230762  C 0.776620370370381 7.69230769230762  0.919849537037038 7.76842948717945  1.04079861111111 7.92067307692309  C 1.16174768518518 8.07291666666663  1.22222222222223 8.25320512820508  1.22222222222223 8.46153846153845  L 1.22222222222223 10  C 1.22222222222223 11.4823717948718  1.64076967592594 12.7504006410256  2.47786458333333 13.8040865384615  C 3.31495949074073 14.8577724358975  4.32233796296296 15.3846153846154  5.5 15.3846153846154  C 6.67766203703704 15.3846153846154  7.68504050925927 14.8577724358975  8.52213541666667 13.8040865384615  C 9.35923032407406 12.7504006410256  9.77777777777777 11.4823717948718  9.77777777777777 10  L 9.77777777777777 8.46153846153845  C 9.77777777777777 8.25320512820508  9.83825231481482 8.07291666666663  9.95920138888889 7.92067307692309  C 10.080150462963 7.76842948717945  10.2233796296296 7.69230769230762  10.3888888888889 7.69230769230762  C 10.5543981481482 7.69230769230762  10.6976273148148 7.76842948717945  10.8185763888889 7.92067307692309  Z M 7.65798611111111 1.12980769230762  C 8.25636574074073 1.88301282051282  8.55555555555556 2.78846153846155  8.55555555555556 3.84615384615392  L 8.55555555555556 10  C 8.55555555555556 11.0576923076924  8.25636574074073 11.963141025641  7.65798611111111 12.7163461538461  C 7.05960648148148 13.4695512820513  6.34027777777777 13.8461538461539  5.5 13.8461538461539  C 4.65972222222223 13.8461538461539  3.94039351851852 13.4695512820513  3.34201388888889 12.7163461538461  C 2.74363425925927 11.963141025641  2.44444444444444 11.0576923076924  2.44444444444444 10  L 2.44444444444444 3.84615384615392  C 2.44444444444444 2.78846153846155  2.74363425925927 1.88301282051282  3.34201388888889 1.12980769230762  C 3.94039351851852 0.376602564102541  4.65972222222223 0  5.5 0  C 6.34027777777777 0  7.05960648148148 0.376602564102541  7.65798611111111 1.12980769230762  Z " fill-rule="nonzero" fill="#333333" stroke="none" transform="matrix(1 0 0 1 318 230 )" />
  </g>
</svg>