<?xml version="1.0" encoding="utf-8"?>
<svg version="1.1" xmlns:xlink="http://www.w3.org/1999/xlink" width="18px" height="14px" xmlns="http://www.w3.org/2000/svg">
  <defs>
    <mask fill="white" id="clip150">
      <path d="M 5.09803921568627 8.36209813874791  L 0 8.36209813874791  L 9.05882352941177 0  L 18 8.36209813874791  L 12.8235294117647 8.36209813874791  L 12.9411764705882 14  L 5.09803921568627 14  L 5.09803921568627 8.36209813874791  Z " fill-rule="evenodd" />
    </mask>
  </defs>
  <g transform="matrix(1 0 0 1 -22 -139 )">
    <path d="M 5.09803921568627 8.36209813874791  L 0 8.36209813874791  L 9.05882352941177 0  L 18 8.36209813874791  L 12.8235294117647 8.36209813874791  L 12.9411764705882 14  L 5.09803921568627 14  L 5.09803921568627 8.36209813874791  Z " fill-rule="nonzero" fill="#aeaeae" stroke="none" transform="matrix(1 0 0 1 22 139 )" />
    <path d="M 5.09803921568627 8.36209813874791  L 0 8.36209813874791  L 9.05882352941177 0  L 18 8.36209813874791  L 12.8235294117647 8.36209813874791  L 12.9411764705882 14  L 5.09803921568627 14  L 5.09803921568627 8.36209813874791  Z " stroke-width="2" stroke="#000000" fill="none" transform="matrix(1 0 0 1 22 139 )" mask="url(#clip150)" />
  </g>
</svg>