<?xml version="1.0" encoding="utf-8"?>
<svg version="1.1" xmlns:xlink="http://www.w3.org/1999/xlink" width="10px" height="8px" xmlns="http://www.w3.org/2000/svg">
  <g transform="matrix(1 0 0 1 -338 -143 )">
    <path d="M 9.76430976430976 5.97979797979792  C 9.92143658810326 6.10549943883279  10 6.25813692480358  10 6.43771043771051  C 10 6.61728395061732  9.92143658810326 6.76992143658811  9.76430976430976 6.89562289562286  L 8.61952861952861 7.81144781144781  C 8.46240179573513 7.93714927048256  8.27160493827159 8  8.04713804713805 8  C 7.8226711560045 8  7.63187429854096 7.93714927048256  7.47474747474746 7.81144781144781  L 5 5.83164983164988  L 2.52525252525254 7.81144781144781  C 2.36812570145904 7.93714927048256  2.1773288439955 8  1.95286195286195 8  C 1.72839506172841 8  1.53759820426487 7.93714927048256  1.38047138047139 7.81144781144781  L 0.235690235690242 6.89562289562286  C 0.078563411896738 6.76992143658811  0 6.61728395061732  0 6.43771043771051  C 0 6.25813692480358  0.078563411896738 6.10549943883279  0.235690235690242 5.97979797979792  L 2.7104377104377 4  L 0.235690235690242 2.02020202020208  C 0.078563411896738 1.89450056116721  0 1.74186307519642  0 1.56228956228949  C 0 1.38271604938268  0.078563411896738 1.23007856341189  0.235690235690242 1.10437710437714  L 1.38047138047139 0.188552188552194  C 1.53759820426487 0.0628507295174359  1.72839506172841 0  1.95286195286195 0  C 2.1773288439955 0  2.36812570145904 0.0628507295174359  2.52525252525254 0.188552188552194  L 5 2.16835016835012  L 7.47474747474746 0.188552188552194  C 7.63187429854096 0.0628507295174359  7.8226711560045 0  8.04713804713805 0  C 8.27160493827159 0  8.46240179573513 0.0628507295174359  8.61952861952861 0.188552188552194  L 9.76430976430976 1.10437710437714  C 9.92143658810326 1.23007856341189  10 1.38271604938268  10 1.56228956228949  C 10 1.74186307519642  9.92143658810326 1.89450056116721  9.76430976430976 2.02020202020208  L 7.2895622895623 4  L 9.76430976430976 5.97979797979792  Z " fill-rule="nonzero" fill="#333333" stroke="none" transform="matrix(1 0 0 1 338 143 )" />
  </g>
</svg>