<?xml version="1.0" encoding="utf-8"?>
<svg version="1.1" xmlns:xlink="http://www.w3.org/1999/xlink" width="20px" height="20px" xmlns="http://www.w3.org/2000/svg">
  <g transform="matrix(1 0 0 1 -43 -230 )">
    <path d="M 10 18.5416666666666  C 11.1458333333333 18.5416666666666  12.2569444444444 18.3159722222222  13.3333333333333 17.8645833333334  C 12.96875 15.7725694444446  12.3611111111111 13.6111111111112  11.5104166666667 11.3802083333334  L 11.484375 11.3802083333334  L 11.4583333333333 11.3932291666666  C 11.3194444444444 11.4453125  11.1328125 11.5169270833334  10.8984375 11.6080729166666  C 10.6640625 11.69921875  10.2256944444444 11.9118923611112  9.58333333333334 12.24609375  C 8.94097222222223 12.5802951388888  8.34635416666666 12.9361979166666  7.79947916666666 13.3138020833334  C 7.25260416666666 13.69140625  6.68402777777777 14.1883680555554  6.09375 14.8046875  C 5.50347222222223 15.4210069444446  5.05642361111111 16.0633680555554  4.75260416666666 16.7317708333334  L 4.55729166666666 16.5885416666666  C 6.15451388888889 17.890625  7.96875 18.5416666666666  10 18.5416666666666  Z M 10.7552083333333 10.01953125  C 10.8333333333333 9.9978298611112  10.8897569444444 9.9782986111112  10.9244791666667 9.9609375  C 10.7421875 9.53559027777783  10.5121527777778 9.05381944444457  10.234375 8.515625  C 7.53472222222223 9.32291666666663  4.61371527777777 9.7265625  1.47135416666666 9.7265625  C 1.46267361111112 9.7873263888888  1.45833333333334 9.87847222222217  1.45833333333334 10  C 1.45833333333334 11.0763888888888  1.64930555555556 12.1028645833334  2.03125 13.0794270833334  C 2.41319444444444 14.0559895833334  2.95138888888889 14.9305555555554  3.64583333333334 15.703125  C 4.07986111111111 14.9305555555554  4.61588541666666 14.2078993055554  5.25390625 13.53515625  C 5.89192708333334 12.8624131944446  6.51041666666666 12.3220486111112  7.109375 11.9140625  C 7.70833333333334 11.5060763888888  8.27473958333334 11.1545138888888  8.80859375 10.859375  C 9.34244791666666 10.5642361111112  9.77430555555557 10.3559027777778  10.1041666666667 10.234375  L 10.5859375 10.0651041666666  C 10.6206597222222 10.0564236111112  10.6770833333333 10.0412326388888  10.7552083333333 10.01953125  Z M 1.640625 8.2421875  C 4.26215277777777 8.2421875  6.89236111111111 7.89496527777783  9.53125 7.20052083333337  C 8.48958333333334 5.3515625  7.43055555555556 3.7109375  6.35416666666666 2.27864583333337  C 5.15625 2.84288194444457  4.140625 3.6501736111112  3.30729166666666 4.70052083333337  C 2.47395833333334 5.75086805555543  1.91840277777779 6.9314236111112  1.640625 8.2421875  Z M 17.1875 14.6158854166666  C 17.8298611111111 13.6219618055554  18.2465277777778 12.5347222222222  18.4375 11.3541666666666  C 16.6145833333333 10.8333333333334  14.8394097222222 10.7074652777778  13.1119791666667 10.9765625  C 13.8671875 13.0512152777778  14.4227430555556 15.0868055555554  14.7786458333333 17.0833333333334  C 15.7421875 16.4322916666666  16.5451388888889 15.6098090277778  17.1875 14.6158854166666  Z M 7.9296875 1.71875  C 7.93836805555556 1.71006944444457  7.94704861111111 1.70572916666663  7.95572916666666 1.70572916666663  C 7.94704861111111 1.70572916666663  7.93836805555556 1.71006944444457  7.9296875 1.71875  Z M 15.4752604166667 3.82161458333337  L 15.6380208333333 3.59375  C 14.0321180555556 2.1701388888888  12.1527777777778 1.45833333333337  10 1.45833333333337  C 9.34027777777777 1.45833333333337  8.66753472222223 1.5407986111112  7.98177083333334 1.70572916666663  C 9.11892361111111 3.1814236111112  10.1866319444444 4.83940972222217  11.1848958333333 6.6796875  C 11.7838541666667 6.45399305555543  12.3480902777778 6.19140625  12.8776041666667 5.89192708333337  C 13.4071180555556 5.59244791666663  13.8259548611111 5.32552083333337  14.1341145833333 5.09114583333337  C 14.4422743055556 4.85677083333337  14.7265625 4.609375  14.9869791666667 4.34895833333337  C 15.2473958333333 4.08854166666663  15.41015625 3.91276041666663  15.4752604166667 3.82161458333337  Z M 18.4114583333333 9.8828125  L 18.5416666666667 9.90885416666663  C 18.515625 7.89496527777783  17.8689236111111 6.1154513888888  16.6015625 4.5703125  L 16.5885416666667 4.58333333333337  C 16.5104166666667 4.6875  16.4279513888889 4.79383680555543  16.3411458333333 4.90234375  C 16.2543402777778 5.01085069444457  16.0655381944444 5.20399305555543  15.7747395833333 5.48177083333337  C 15.4839409722222 5.7595486111112  15.17578125 6.02213541666663  14.8502604166667 6.26953125  C 14.5247395833333 6.51692708333337  14.0907118055556 6.7990451388888  13.5481770833333 7.11588541666663  C 13.0056423611111 7.43272569444457  12.4348958333333 7.7126736111112  11.8359375 7.95572916666663  C 12.0529513888889 8.4157986111112  12.2439236111111 8.828125  12.4088541666667 9.19270833333337  C 12.4262152777778 9.24479166666663  12.4544270833333 9.32074652777783  12.4934895833333 9.42057291666663  C 12.5325520833333 9.52039930555543  12.5651041666667 9.5920138888888  12.5911458333333 9.63541666666663  C 12.9036458333333 9.5920138888888  13.2269965277778 9.56163194444457  13.5611979166667 9.54427083333337  C 13.8953993055556 9.52690972222217  14.2144097222222 9.51822916666663  14.5182291666667 9.51822916666663  C 14.8220486111111 9.51822916666663  15.1215277777778 9.52473958333337  15.4166666666667 9.53776041666663  C 15.7118055555556 9.55078125  15.9895833333333 9.5681423611112  16.25 9.58984375  C 16.5104166666667 9.6115451388888  16.7556423611111 9.63541666666663  16.9856770833333 9.66145833333337  C 17.2157118055555 9.6875  17.4240451388889 9.71571180555543  17.6106770833333 9.74609375  C 17.7973090277778 9.77647569444457  17.9557291666667 9.8025173611112  18.0859375 9.82421875  C 18.2161458333333 9.8459201388888  18.3246527777778 9.8654513888888  18.4114583333333 9.8828125  Z M 18.6588541666667 4.98046875  C 19.5529513888889 6.51258680555543  20 8.1857638888888  20 10  C 20 11.8142361111112  19.5529513888889 13.4874131944446  18.6588541666667 15.01953125  C 17.7647569444445 16.5516493055554  16.5516493055556 17.7647569444446  15.01953125 18.6588541666666  C 13.4874131944444 19.5529513888888  11.8142361111111 20  10 20  C 8.18576388888889 20  6.51258680555556 19.5529513888888  4.98046875 18.6588541666666  C 3.44835069444443 17.7647569444446  2.23524305555556 16.5516493055554  1.34114583333334 15.01953125  C 0.447048611111121 13.4874131944446  0 11.8142361111112  0 10  C 0 8.1857638888888  0.447048611111121 6.51258680555543  1.34114583333334 4.98046875  C 2.23524305555556 3.44835069444457  3.44835069444443 2.23524305555543  4.98046875 1.34114583333337  C 6.51258680555556 0.4470486111112  8.18576388888889 0  10 0  C 11.8142361111111 0  13.4874131944444 0.4470486111112  15.01953125 1.34114583333337  C 16.5516493055556 2.23524305555543  17.7647569444445 3.44835069444457  18.6588541666667 4.98046875  Z " fill-rule="nonzero" fill="#333333" stroke="none" transform="matrix(1 0 0 1 43 230 )" />
  </g>
</svg>