<?xml version="1.0" encoding="utf-8"?>
<svg version="1.1" xmlns:xlink="http://www.w3.org/1999/xlink" width="15px" height="15px" xmlns="http://www.w3.org/2000/svg">
  <g transform="matrix(1 0 0 1 -69 -7 )">
    <path d="M 76.5 8  C 80.14 8  83 10.86  83 14.5  C 83 18.14  80.14 21  76.5 21  C 72.86 21  70 18.14  70 14.5  C 70 10.86  72.86 8  76.5 8  Z " fill-rule="nonzero" fill="#ffffff" stroke="none" />
    <path d="M 76.5 8  C 80.14 8  83 10.86  83 14.5  C 83 18.14  80.14 21  76.5 21  C 72.86 21  70 18.14  70 14.5  C 70 10.86  72.86 8  76.5 8  Z " stroke-width="2" stroke="#000000" fill="none" />
  </g>
</svg>