<?xml version="1.0" encoding="utf-8"?>
<svg version="1.1" xmlns:xlink="http://www.w3.org/1999/xlink" width="25px" height="20px" xmlns="http://www.w3.org/2000/svg">
  <g transform="matrix(1 0 0 1 -32 -29 )">
    <path d="M 7.60416666666667 4.0625  C 8.09027777777778 4.54861111111111  8.33333333333333 5.13888888888889  8.33333333333333 5.83333333333333  C 8.33333333333333 6.52777777777778  8.09027777777778 7.11805555555556  7.60416666666667 7.60416666666667  C 7.11805555555556 8.09027777777778  6.52777777777778 8.33333333333333  5.83333333333333 8.33333333333333  C 5.13888888888889 8.33333333333333  4.54861111111111 8.09027777777778  4.0625 7.60416666666667  C 3.57638888888889 7.11805555555556  3.33333333333333 6.52777777777778  3.33333333333333 5.83333333333333  C 3.33333333333333 5.13888888888889  3.57638888888889 4.54861111111111  4.0625 4.0625  C 4.54861111111111 3.57638888888889  5.13888888888889 3.33333333333333  5.83333333333333 3.33333333333333  C 6.52777777777778 3.33333333333333  7.11805555555556 3.57638888888889  7.60416666666667 4.0625  Z M 16.25 5.41666666666667  L 21.6666666666667 10.8333333333333  L 21.6666666666667 16.6666666666667  L 3.33333333333333 16.6666666666667  L 3.33333333333333 14.1666666666667  L 7.5 10  L 9.58333333333333 12.0833333333333  L 16.25 5.41666666666667  Z M 23.2096354166667 1.79036458333333  C 23.1271701388889 1.70789930555555  23.0295138888889 1.66666666666667  22.9166666666667 2  L 2.08333333333333 2  C 1.97048611111111 1.66666666666667  1.87282986111111 1.70789930555555  1.79036458333333 1.79036458333333  C 1.70789930555556 1.87282986111111  1.66666666666667 1.97048611111111  2 2.08333333333333  L 2 17.9166666666667  C 1.66666666666667 18.0295138888889  1.70789930555556 18.1271701388889  1.79036458333333 18.2096354166667  C 1.87282986111111 18.2921006944444  1.97048611111111 18.3333333333333  2.08333333333333 18  L 22.9166666666667 18  C 23.0295138888889 18.3333333333333  23.1271701388889 18.2921006944444  23.2096354166667 18.2096354166667  C 23.2921006944444 18.1271701388889  23.3333333333333 18.0295138888889  23 17.9166666666667  L 23 2.08333333333333  C 23.3333333333333 1.97048611111111  23.2921006944444 1.87282986111111  23.2096354166667 1.79036458333333  Z M 24.3880208333333 0.611979166666667  C 24.7960069444444 1.01996527777778  25 1.51041666666667  25 2.08333333333333  L 25 17.9166666666667  C 25 18.4895833333333  24.7960069444444 18.9800347222222  24.3880208333333 19.3880208333333  C 23.9800347222222 19.7960069444444  23.4895833333333 20  22.9166666666667 20  L 2.08333333333333 20  C 1.51041666666667 20  1.01996527777778 19.7960069444444  0.611979166666667 19.3880208333333  C 0.203993055555556 18.9800347222222  0 18.4895833333333  0 17.9166666666667  L 0 2.08333333333333  C 0 1.51041666666667  0.203993055555556 1.01996527777778  0.611979166666667 0.611979166666667  C 1.01996527777778 0.203993055555554  1.51041666666667 0  2.08333333333333 0  L 22.9166666666667 0  C 23.4895833333333 0  23.9800347222222 0.203993055555554  24.3880208333333 0.611979166666667  Z " fill-rule="nonzero" fill="#ffffff" stroke="none" transform="matrix(1 0 0 1 32 29 )" />
  </g>
</svg>