<?xml version="1.0" encoding="utf-8"?>
<svg version="1.1" xmlns:xlink="http://www.w3.org/1999/xlink" width="14px" height="8px" xmlns="http://www.w3.org/2000/svg">
  <g transform="matrix(1 0 0 1 -318 -166 )">
    <path d="M 10.39453125 6.26736111111111  C 11.4388020833333 5.70486111111111  12.3072916666667 4.94907407407407  13 4  C 12.2083333333333 2.90740740740741  11.2161458333333 2.09027777777778  10.0234375 1.54861111111111  C 10.3411458333333 2.03009259259259  10.5 2.55092592592593  10.5 3.11111111111111  C 10.5 3.96759259259259  10.1575520833333 4.70023148148148  9.47265625 5.30902777777778  C 8.78776041666667 5.91782407407407  7.96354166666667 6.22222222222222  7 6.22222222222222  C 6.03645833333333 6.22222222222222  5.21223958333333 5.91782407407407  4.52734375 5.30902777777778  C 3.84244791666667 4.70023148148148  3.5 3.96759259259259  3.5 3.11111111111111  C 3.5 2.55092592592593  3.65885416666667 2.03009259259259  3.9765625 1.54861111111111  C 2.78385416666667 2.09027777777778  1.79166666666667 2.90740740740741  1 4  C 1.69270833333333 4.94907407407407  2.56119791666667 5.70486111111111  3.60546875 6.26736111111111  C 4.64973958333333 6.82986111111111  5.78125 7.11111111111111  7 7.11111111111111  C 8.21875 7.11111111111111  9.35026041666667 6.82986111111111  10.39453125 6.26736111111111  Z M 7.265625 1.56944444444444  C 7.33854166666667 1.50462962962963  7.375 1.42592592592593  7.375 1.33333333333333  C 7.375 1.24074074074074  7.33854166666667 1.16203703703704  7.265625 1.09722222222222  C 7.19270833333333 1.03240740740741  7.10416666666667 0.999999999999999  7 1  C 6.34895833333333 0.999999999999999  5.79036458333333 1.20717592592593  5.32421875 1.62152777777778  C 4.85807291666667 2.03587962962963  4.625 2.53240740740741  4.625 3.11111111111111  C 4.625 3.2037037037037  4.66145833333333 3.28240740740741  4.734375 3.34722222222222  C 4.80729166666667 3.41203703703704  4.89583333333333 3.44444444444444  5 3.44444444444444  C 5.10416666666667 3.44444444444444  5.19270833333333 3.41203703703704  5.265625 3.34722222222222  C 5.33854166666667 3.28240740740741  5.375 3.2037037037037  5.375 3.11111111111111  C 5.375 2.71296296296296  5.53385416666667 2.37268518518519  5.8515625 2.09027777777778  C 6.16927083333333 1.80787037037037  6.55208333333333 1.66666666666667  7 1.66666666666667  C 7.10416666666667 1.66666666666667  7.19270833333333 1.63425925925926  7.265625 1.56944444444444  Z M 13.84375 3.52083333333333  C 13.9479166666667 3.68287037037037  14 3.84259259259259  14 4  C 14 4.15740740740741  13.9479166666667 4.31712962962963  13.84375 4.47916666666667  C 13.1145833333333 5.54398148148148  12.1341145833333 6.39699074074074  10.90234375 7.03819444444444  C 9.67057291666667 7.67939814814815  8.36979166666667 8  7 8  C 5.63020833333333 8  4.32942708333333 7.67824074074074  3.09765625 7.03472222222222  C 1.86588541666667 6.3912037037037  0.885416666666667 5.53935185185185  0.15625 4.47916666666667  C 0.0520833333333333 4.31712962962963  0 4.15740740740741  0 4  C 0 3.84259259259259  0.0520833333333333 3.68287037037037  0.15625 3.52083333333333  C 0.885416666666667 2.46064814814815  1.86588541666667 1.6087962962963  3.09765625 0.965277777777778  C 4.32942708333333 0.321759259259259  5.63020833333333 0  7 0  C 8.36979166666667 0  9.67057291666667 0.321759259259259  10.90234375 0.965277777777778  C 12.1341145833333 1.6087962962963  13.1145833333333 2.46064814814815  13.84375 3.52083333333333  Z " fill-rule="nonzero" fill="#7f7f7f" stroke="none" transform="matrix(1 0 0 1 318 166 )" />
  </g>
</svg>