<?xml version="1.0" encoding="utf-8"?>
<svg version="1.1" xmlns:xlink="http://www.w3.org/1999/xlink" width="16px" height="15px" xmlns="http://www.w3.org/2000/svg">
  <g transform="matrix(1 0 0 1 -45 -743 )">
    <path d="M 0 3.21428571428571  L 8 0  L 16 3.21428571428571  L 16 4.28571428571429  L 14.9333333333333 4.28571428571429  C 14.9333333333333 4.43080357142857  14.8763888888889 4.55636160714286  14.7625 4.66238839285714  C 14.6486111111111 4.76841517857143  14.5138888888889 4.82142857142857  14.3583333333333 5  L 1.64166666666667 5  C 1.48611111111111 4.82142857142857  1.35138888888889 4.76841517857143  1.2375 4.66238839285714  C 1.12361111111111 4.55636160714286  1.06666666666667 4.43080357142857  1.06666666666667 4.28571428571429  L 0 4.28571428571429  L 0 3.21428571428571  Z M 2.13333333333333 11.7857142857143  L 2.13333333333333 5.35714285714286  L 4.26666666666667 5.35714285714286  L 4.26666666666667 11.7857142857143  L 5.33333333333333 11.7857142857143  L 5.33333333333333 5.35714285714286  L 7.46666666666667 5.35714285714286  L 7.46666666666667 11.7857142857143  L 8.53333333333333 11.7857142857143  L 8.53333333333333 5.35714285714286  L 10.6666666666667 5.35714285714286  L 10.6666666666667 11.7857142857143  L 11.7333333333333 11.7857142857143  L 11.7333333333333 5.35714285714286  L 13.8666666666667 5.35714285714286  L 13.8666666666667 11.7857142857143  L 14.3583333333333 11.7857142857143  C 14.5138888888889 11.7857142857143  14.6486111111111 11.8387276785714  14.7625 11.9447544642857  C 14.8763888888889 12.05078125  14.9333333333333 12.1763392857143  14.9333333333333 12.3214285714286  L 14.9333333333333 12.8571428571429  L 1.06666666666667 12.8571428571429  L 1.06666666666667 12.3214285714286  C 1.06666666666667 12.1763392857143  1.12361111111111 12.05078125  1.2375 11.9447544642857  C 1.35138888888889 11.8387276785714  1.48611111111111 11.7857142857143  1.64166666666667 11.7857142857143  L 2.13333333333333 11.7857142857143  Z M 0.575 13.3928571428571  L 15.425 13.3928571428571  C 15.5805555555556 13.3928571428571  15.7152777777778 13.4458705357143  15.8291666666667 13.5518973214286  C 15.9430555555556 13.6579241071429  16 13.7834821428571  16 13.9285714285714  L 16 15  L 0 15  L 0 13.9285714285714  C 0 13.7834821428571  0.0569444444444444 13.6579241071429  0.170833333333333 13.5518973214286  C 0.284722222222222 13.4458705357143  0.419444444444444 13.3928571428571  0.575 13.3928571428571  Z " fill-rule="nonzero" fill="#ffffff" stroke="none" transform="matrix(1 0 0 1 45 743 )" />
  </g>
</svg>