<?xml version="1.0" encoding="utf-8"?>
<svg version="1.1" xmlns:xlink="http://www.w3.org/1999/xlink" width="17px" height="16px" xmlns="http://www.w3.org/2000/svg">
  <g transform="matrix(1 0 0 1 -311 -22 )">
    <path d="M 11.6875 0  L 16.2916666666667 0  C 16.4835069444444 0  16.6495225694444 0.0659722222222214  16.7897135416667 0.197916666666666  C 16.9299045138889 0.329861111111109  17 0.486111111111109  17 0.666666666666666  L 17 5  C 17 5.09722222222222  16.966796875 5.17708333333333  16.900390625 5.23958333333333  C 16.833984375 5.30208333333333  16.7491319444444 5.33333333333333  16.6458333333333 5.33333333333333  L 15.9375 5.33333333333333  C 15.8342013888889 5.33333333333333  15.7493489583333 5.30208333333333  15.6829427083333 5.23958333333333  C 15.6165364583333 5.17708333333333  15.5833333333333 5.09722222222222  15.5833333333333 5  L 15.5833333333333 2.27083333333333  L 11.35546875 6.26041666666667  C 12.28515625 7.34375  12.75 8.59027777777778  12.75 10  C 12.75 10.8125  12.5821397569444 11.5885416666667  12.2464192708333 12.328125  C 11.9106987847222 13.0677083333333  11.4569227430556 13.7065972222222  10.8850911458333 14.2447916666667  C 10.3132595486111 14.7829861111111  9.63444010416667 15.2100694444444  8.8486328125 15.5260416666667  C 8.06282552083333 15.8420138888889  7.23828125 16  6.375 16  C 5.51171875 16  4.68717447916667 15.8420138888889  3.9013671875 15.5260416666667  C 3.11555989583333 15.2100694444444  2.43674045138889 14.7829861111111  1.86490885416667 14.2447916666667  C 1.29307725694444 13.7065972222222  0.839301215277778 13.0677083333333  0.503580729166667 12.328125  C 0.167860243055556 11.5885416666667  0 10.8125  0 10  C 0 9.1875  0.167860243055556 8.41145833333333  0.503580729166667 7.671875  C 0.839301215277778 6.93229166666667  1.29307725694444 6.29340277777778  1.86490885416667 5.75520833333333  C 2.43674045138889 5.21701388888889  3.11555989583333 4.78993055555556  3.9013671875 4.47395833333333  C 4.68717447916667 4.15798611111111  5.51171875 4  6.375 4  C 7.87282986111111 4  9.197265625 4.4375  10.3483072916667 5.3125  L 14.576171875 1.33333333333333  L 11.6875 1.33333333333333  C 11.5842013888889 1.33333333333333  11.4993489583333 1.30208333333333  11.4329427083333 1.23958333333333  C 11.3665364583333 1.17708333333333  11.3333333333333 1.09722222222222  11.3333333333333 1  L 11.3333333333333 0.333333333333334  C 11.3333333333333 0.236111111111109  11.3665364583333 0.15625  11.4329427083333 0.09375  C 11.4993489583333 0.03125  11.5842013888889 0  11.6875 0  Z M 2.8720703125 13.296875  C 3.84233940972222 14.2100694444444  5.00998263888889 14.6666666666667  6.375 14.6666666666667  C 7.74001736111111 14.6666666666667  8.90766059027778 14.2100694444444  9.8779296875 13.296875  C 10.8481987847222 12.3836805555556  11.3333333333333 11.2847222222222  11.3333333333333 10  C 11.3333333333333 8.71527777777778  10.8481987847222 7.61631944444444  9.8779296875 6.703125  C 8.90766059027778 5.78993055555556  7.74001736111111 5.33333333333333  6.375 5.33333333333333  C 5.00998263888889 5.33333333333333  3.84233940972222 5.78993055555556  2.8720703125 6.703125  C 1.90180121527778 7.61631944444444  1.41666666666667 8.71527777777778  1.41666666666667 10  C 1.41666666666667 11.2847222222222  1.90180121527778 12.3836805555556  2.8720703125 13.296875  Z " fill-rule="nonzero" fill="#009900" stroke="none" transform="matrix(1 0 0 1 311 22 )" />
  </g>
</svg>