<?xml version="1.0" encoding="utf-8"?>
<svg version="1.1" xmlns:xlink="http://www.w3.org/1999/xlink" width="18px" height="16px" xmlns="http://www.w3.org/2000/svg">
  <g transform="matrix(1 0 0 1 -17 -17 )">
    <path d="M 5 5.09090909090909  L 5 7.27272727272727  L 13 7.27272727272727  L 13 5.09090909090909  C 13 4.28787878787879  12.609375 3.60227272727273  11.828125 3.03409090909091  C 11.046875 2.46590909090909  10.1041666666667 2.18181818181818  9 2.18181818181818  C 7.89583333333333 2.18181818181818  6.953125 2.46590909090909  6.171875 3.03409090909091  C 5.390625 3.60227272727273  5 4.28787878787879  5 5.09090909090909  Z M 17.5625 7.59090909090909  C 17.8541666666667 7.8030303030303  18 8.06060606060606  18 8.36363636363636  L 18 14.9090909090909  C 18 15.2121212121212  17.8541666666667 15.469696969697  17.5625 15.6818181818182  C 17.2708333333333 15.8939393939394  16.9166666666667 16  16.5 16  L 1.5 16  C 1.08333333333333 16  0.729166666666667 15.8939393939394  0.4375 15.6818181818182  C 0.145833333333333 15.469696969697  0 15.2121212121212  0 14.9090909090909  L 0 8.36363636363636  C 0 8.06060606060606  0.145833333333333 7.8030303030303  0.4375 7.59090909090909  C 0.729166666666667 7.37878787878788  1.08333333333333 7.27272727272727  1.5 7.27272727272727  L 2 7.27272727272727  L 2 5.09090909090909  C 2 3.6969696969697  2.6875 2.5  4.0625 1.5  C 5.4375 0.5  7.08333333333333 0  9 0  C 10.9166666666667 0  12.5625 0.5  13.9375 1.5  C 15.3125 2.5  16 3.6969696969697  16 5.09090909090909  L 16 7.27272727272727  L 16.5 7.27272727272727  C 16.9166666666667 7.27272727272727  17.2708333333333 7.37878787878788  17.5625 7.59090909090909  Z " fill-rule="nonzero" fill="#555555" stroke="none" transform="matrix(1 0 0 1 17 17 )" />
  </g>
</svg>