<?xml version="1.0" encoding="utf-8"?>
<svg version="1.1" xmlns:xlink="http://www.w3.org/1999/xlink" width="21px" height="13px" xmlns="http://www.w3.org/2000/svg">
  <g transform="matrix(1 0 0 1 -18 -19 )">
    <path d="M 9.79372197309417 9.75  L 10.4529147982063 9.75  L 11.8183856502242 8.67897727272727  L 10.0291479820628 7.27556818181818  L 8.66367713004484 8.34659090909091  L 8.66367713004484 8.86363636363637  L 9.79372197309417 8.86363636363637  L 9.79372197309417 9.75  Z M 15.6205156950673 3.40696022727273  C 15.7539237668161 3.30232007575757  15.7578475336323 3.20075757575757  15.6322869955157 3.10227272727273  C 15.5067264573991 3.00378787878788  15.3772421524664 3.00686553030303  15.2438340807175 3.11150568181818  L 11.1238789237668 6.34303977272727  C 10.9904708520179 6.44767992424242  10.9865470852018 6.54924242424242  11.1121076233184 6.64772727272727  C 11.237668161435 6.74621212121212  11.3671524663677 6.74313446969697  11.5005605381166 6.63849431818182  L 15.6205156950673 3.40696022727273  Z M 16.3385650224215 8.31889204545454  C 16.4955156950673 8.36813446969697  16.5739910313901 8.45738636363637  16.5739910313901 8.58664772727273  L 16.5739910313901 10.3409090909091  C 16.5739910313901 11.0733901515152  16.242432735426 11.6996922348485  15.5793161434978 12.2198153409091  C 14.9161995515695 12.7399384469697  14.1177130044843 13  13.1838565022422 13  L 3.39013452914798 13  C 2.45627802690583 13  1.65779147982063 12.7399384469697  0.994674887892377 12.2198153409091  C 0.331558295964126 11.6996922348485  0 11.0733901515152  0 10.3409090909091  L 0 2.65909090909091  C 0 1.92660984848485  0.331558295964126 1.30030776515151  0.994674887892377 0.78018465909091  C 1.65779147982063 0.260061553030302  2.45627802690583 0  3.39013452914798 0  L 13.1838565022422 0  C 13.6782511210762 0  14.137331838565 0.0769412878787872  14.5610986547085 0.230823863636363  C 14.6788116591928 0.273910984848484  14.7494394618834 0.344696969696969  14.7729820627803 0.443181818181818  C 14.7965246636771 0.547821969696969  14.7612107623318 0.637073863636363  14.6670403587444 0.7109375  L 14.0902466367713 1.16335227272727  C 13.9803811659193 1.24952651515151  13.8548206278027 1.27414772727273  13.7135650224215 1.23721590909091  C 13.5330717488789 1.20028409090909  13.3565022421525 1.18181818181818  13.1838565022422 1.18181818181818  L 3.39013452914798 1.18181818181818  C 2.87219730941704 1.18181818181818  2.42881165919283 1.3264678030303  2.05997757847534 1.61576704545455  C 1.69114349775785 1.90506628787879  1.5067264573991 2.25284090909091  1.5067264573991 2.65909090909091  L 1.5067264573991 10.3409090909091  C 1.5067264573991 10.7471590909091  1.69114349775785 11.0949337121212  2.05997757847534 11.3842329545455  C 2.42881165919283 11.6735321969697  2.87219730941704 11.8181818181818  3.39013452914798 11.8181818181818  L 13.1838565022422 11.8181818181818  C 13.7017937219731 11.8181818181818  14.1451793721973 11.6735321969697  14.5140134529148 11.3842329545455  C 14.8828475336323 11.0949337121212  15.067264573991 10.7471590909091  15.067264573991 10.3409090909091  L 15.067264573991 9.17755681818182  C 15.067264573991 9.09753787878788  15.1025784753363 9.02982954545454  15.1732062780269 8.97443181818182  L 15.9265695067265 8.38352272727273  C 16.0442825112108 8.29119318181818  16.1816143497758 8.26964962121212  16.3385650224215 8.31889204545454  Z M 7.53363228699552 7.97727272727273  L 15.4439461883408 1.77272727272727  L 18.8340807174888 4.43181818181818  L 10.9237668161435 10.6363636363636  L 7.53363228699552 10.6363636363636  L 7.53363228699552 7.97727272727273  Z M 21 2.36363636363636  C 21 2.60984848484848  20.890134529148 2.81912878787879  20.6704035874439 2.99147727272727  L 19.5874439461883 3.84090909090909  L 16.1973094170404 1.18181818181818  L 17.280269058296 0.332386363636363  C 17.5 0.160037878787878  17.7668161434978 0.073863636363637  18.0807174887892 0.073863636363637  C 18.3946188340807 0.073863636363637  18.6614349775785 0.160037878787878  18.8811659192825 0.332386363636363  L 20.6704035874439 1.73579545454545  C 20.890134529148 1.90814393939394  21 2.11742424242424  21 2.36363636363636  Z " fill-rule="nonzero" fill="#555555" stroke="none" transform="matrix(1 0 0 1 18 19 )" />
  </g>
</svg>