<?xml version="1.0" encoding="utf-8"?>
<svg version="1.1" xmlns:xlink="http://www.w3.org/1999/xlink" width="30px" height="30px" xmlns="http://www.w3.org/2000/svg">
  <g transform="matrix(1 0 0 1 -27 -37 )">
    <path d="M 29.9254261363636 22.919921875  C 29.9751420454545 23.5774739583333  30 24.2513020833333  30 24.94140625  C 30 26.50390625  29.4815340909091 27.7376302083333  28.4446022727273 28.642578125  C 27.4076704545454 29.5475260416667  26.0298295454546 30  24.3110795454546 30  L 5.68892045454544 30  C 3.97017045454544 30  2.59232954545453 29.5475260416667  1.55539772727272 28.642578125  C 0.518465909090907 27.7376302083333  0 26.50390625  0 24.94140625  C 0 24.2513020833333  0.0248579545454675 23.5774739583333  0.074573863636374 22.919921875  C 0.124289772727252 22.2623697916667  0.223721590909093 21.552734375  0.372869318181813 20.791015625  C 0.522017045454561 20.029296875  0.710227272727252 19.3229166666667  0.9375 18.671875  C 1.16477272727275 18.0208333333333  1.47017045454544 17.3860677083333  1.85369318181819 16.767578125  C 2.23721590909091 16.1490885416667  2.67755681818181 15.6217447916667  3.17471590909091 15.185546875  C 3.671875 14.7493489583333  4.27911931818181 14.4010416666667  4.99644886363637 14.140625  C 5.71377840909091 13.8802083333333  6.50568181818181 13.75  7.37215909090909 13.75  C 7.5 13.75  7.79829545454544 13.8899739583333  8.26704545454544 14.169921875  C 8.73579545454544 14.4498697916667  9.26491477272725 14.7623697916667  9.85440340909091 15.107421875  C 10.4438920454546 15.4524739583333  11.2109375 15.7649739583333  12.1555397727273 16.044921875  C 13.1001420454545 16.3248697916667  14.0482954545454 16.46484375  15 16.46484375  C 15.9517045454546 16.46484375  16.8998579545455 16.3248697916667  17.8444602272727 16.044921875  C 18.7890625 15.7649739583333  19.5561079545454 15.4524739583333  20.1455965909091 15.107421875  C 20.7350852272727 14.7623697916667  21.2642045454546 14.4498697916667  21.7329545454546 14.169921875  C 22.2017045454546 13.8899739583333  22.5 13.75  22.6278409090909 13.75  C 23.4943181818182 13.75  24.2862215909091 13.8802083333333  25.0035511363636 14.140625  C 25.7208806818182 14.4010416666667  26.328125 14.7493489583333  26.8252840909091 15.185546875  C 27.3224431818182 15.6217447916667  27.7627840909091 16.1490885416667  28.1463068181818 16.767578125  C 28.5298295454546 17.3860677083333  28.8352272727273 18.0208333333333  29.0625 18.671875  C 29.2897727272727 19.3229166666667  29.4779829545454 20.029296875  29.6271306818182 20.791015625  C 29.7762784090909 21.552734375  29.8757102272727 22.2623697916667  29.9254261363636 22.919921875  Z M 20.7848011363636 2.197265625  C 22.3828125 3.662109375  23.1818181818182 5.4296875  23.1818181818182 7.5  C 23.1818181818182 9.5703125  22.3828125 11.337890625  20.7848011363636 12.802734375  C 19.1867897727273 14.267578125  17.2585227272727 15  15 15  C 12.7414772727273 15  10.8132102272727 14.267578125  9.21519886363637 12.802734375  C 7.6171875 11.337890625  6.81818181818181 9.5703125  6.81818181818181 7.5  C 6.81818181818181 5.4296875  7.6171875 3.662109375  9.21519886363637 2.197265625  C 10.8132102272727 0.732421875  12.7414772727273 0  15 0  C 17.2585227272727 0  19.1867897727273 0.732421875  20.7848011363636 2.197265625  Z " fill-rule="nonzero" fill="#ffffff" stroke="none" transform="matrix(1 0 0 1 27 37 )" />
  </g>
</svg>