<?xml version="1.0" encoding="utf-8"?>
<svg version="1.1" xmlns:xlink="http://www.w3.org/1999/xlink" width="14px" height="13px" xmlns="http://www.w3.org/2000/svg">
  <g transform="matrix(1 0 0 1 -18 -14 )">
    <path d="M 0 2.78571428571429  L 7 0  L 14 2.78571428571429  L 14 3.71428571428571  L 13.0666666666667 3.71428571428571  C 13.0666666666667 3.84002976190476  13.0168402777778 3.94884672619048  12.9171875 4.04073660714286  C 12.8175347222222 4.13262648809524  12.6996527777778 4.17857142857143  12.5635416666667 4.17857142857143  L 1.43645833333333 4.17857142857143  C 1.30034722222222 4.17857142857143  1.18246527777778 4.13262648809524  1.0828125 4.04073660714286  C 0.983159722222222 3.94884672619048  0.933333333333333 3.84002976190476  0.933333333333333 3.71428571428571  L 0 3.71428571428571  L 0 2.78571428571429  Z M 1.86666666666667 10.2142857142857  L 1.86666666666667 4.64285714285714  L 3.73333333333333 4.64285714285714  L 3.73333333333333 10.2142857142857  L 4.66666666666667 10.2142857142857  L 4.66666666666667 4.64285714285714  L 6.53333333333333 4.64285714285714  L 6.53333333333333 10.2142857142857  L 7.46666666666667 10.2142857142857  L 7.46666666666667 4.64285714285714  L 9.33333333333333 4.64285714285714  L 9.33333333333333 10.2142857142857  L 10.2666666666667 10.2142857142857  L 10.2666666666667 4.64285714285714  L 12.1333333333333 4.64285714285714  L 12.1333333333333 10.2142857142857  L 12.5635416666667 10.2142857142857  C 12.6996527777778 10.2142857142857  12.8175347222222 10.2602306547619  12.9171875 10.3521205357143  C 13.0168402777778 10.4440104166667  13.0666666666667 10.5528273809524  13.0666666666667 10.6785714285714  L 13.0666666666667 11  L 0.933333333333333 11  L 0.933333333333333 10.6785714285714  C 0.933333333333333 10.5528273809524  0.983159722222222 10.4440104166667  1.0828125 10.3521205357143  C 1.18246527777778 10.2602306547619  1.30034722222222 10.2142857142857  1.43645833333333 10.2142857142857  L 1.86666666666667 10.2142857142857  Z M 0.503125 11.6071428571429  L 13.496875 11.6071428571429  C 13.6329861111111 11.6071428571429  13.7508680555556 11.653087797619  13.8505208333333 11.7449776785714  C 13.9501736111111 11.8368675595238  14 11.9456845238095  14 12.0714285714286  L 14 13  L 0 13  L 0 12.0714285714286  C 0 11.9456845238095  0.0498263888888889 11.8368675595238  0.149479166666667 11.7449776785714  C 0.249131944444444 11.653087797619  0.367013888888889 11.6071428571429  0.503125 11.6071428571429  Z " fill-rule="nonzero" fill="#ffffff" stroke="none" transform="matrix(1 0 0 1 18 14 )" />
  </g>
</svg>