<?xml version="1.0" encoding="utf-8"?>
<svg version="1.1" xmlns:xlink="http://www.w3.org/1999/xlink" width="15px" height="15px" xmlns="http://www.w3.org/2000/svg">
  <g transform="matrix(1 0 0 1 -318 -67 )">
    <path d="M 325.5 67  C 329.7 67  333 70.3  333 74.5  C 333 78.7  329.7 82  325.5 82  C 321.3 82  318 78.7  318 74.5  C 318 70.3  321.3 67  325.5 67  Z " fill-rule="nonzero" fill="#ffffff" stroke="none" />
    <path d="M 325.5 67.5  C 329.42 67.5  332.5 70.58  332.5 74.5  C 332.5 78.42  329.42 81.5  325.5 81.5  C 321.58 81.5  318.5 78.42  318.5 74.5  C 318.5 70.58  321.58 67.5  325.5 67.5  Z " stroke-width="1" stroke="#aeaeae" fill="none" />
  </g>
</svg>