<?xml version="1.0" encoding="utf-8"?>
<svg version="1.1" xmlns:xlink="http://www.w3.org/1999/xlink" width="15px" height="15px" xmlns="http://www.w3.org/2000/svg">
  <g transform="matrix(1 0 0 1 -318 -18 )">
    <path d="M 325.5 18  C 329.7 18  333 21.3  333 25.5  C 333 29.7  329.7 33  325.5 33  C 321.3 33  318 29.7  318 25.5  C 318 21.3  321.3 18  325.5 18  Z " fill-rule="nonzero" fill="#ffffff" stroke="none" />
    <path d="M 325.5 18.5  C 329.42 18.5  332.5 21.58  332.5 25.5  C 332.5 29.42  329.42 32.5  325.5 32.5  C 321.58 32.5  318.5 29.42  318.5 25.5  C 318.5 21.58  321.58 18.5  325.5 18.5  Z " stroke-width="1" stroke="#aaaaaa" fill="none" />
  </g>
</svg>