<?xml version="1.0" encoding="utf-8"?>
<svg version="1.1" xmlns:xlink="http://www.w3.org/1999/xlink" width="20px" height="20px" xmlns="http://www.w3.org/2000/svg">
  <g transform="matrix(1 0 0 1 -27 -355 )">
    <path d="M 14.7135416666667 11.69921875  C 14.8177083333333 11.9032118055555  14.8350694444445 12.1137152777778  14.765625 12.3307291666667  C 14.4444444444445 13.3810763888889  13.8454861111111 14.2274305555555  12.96875 14.8697916666666  C 12.0920138888889 15.5121527777778  11.1024305555555 15.8333333333334  10 15.8333333333334  C 8.89756944444444 15.8333333333334  7.90798611111111 15.5121527777778  7.03125 14.8697916666666  C 6.15451388888889 14.2274305555555  5.55555555555556 13.3810763888889  5.234375 12.3307291666667  C 5.16493055555556 12.1137152777778  5.18229166666667 11.9032118055555  5.28645833333333 11.69921875  C 5.390625 11.4952256944445  5.55555555555556 11.3585069444445  5.78125 11.2890625  C 5.99826388888889 11.2196180555555  6.20876736111111 11.2369791666667  6.41276041666667 11.3411458333333  C 6.61675347222223 11.4453125  6.75347222222223 11.6102430555555  6.82291666666667 11.8359375  C 7.03993055555556 12.5303819444445  7.44140625 13.0924479166666  8.02734375 13.5221354166666  C 8.61328125 13.9518229166666  9.27083333333333 14.1666666666666  10 14.1666666666666  C 10.7291666666667 14.1666666666666  11.38671875 13.9518229166666  11.97265625 13.5221354166666  C 12.55859375 13.0924479166666  12.9600694444445 12.5303819444445  13.1770833333333 11.8359375  C 13.2465277777778 11.6102430555555  13.3854166666667 11.4453125  13.59375 11.3411458333333  C 13.8020833333333 11.2369791666667  14.0147569444445 11.2196180555555  14.2317708333333 11.2890625  C 14.4487847222222 11.3585069444445  14.609375 11.4952256944445  14.7135416666667 11.69921875  Z M 7.84505208333333 5.48828125  C 8.17057291666667 5.81380208333331  8.33333333333333 6.20659722222223  8.33333333333333 6.66666666666669  C 8.33333333333333 7.12673611111109  8.17057291666667 7.51953125  7.84505208333333 7.84505208333331  C 7.51953125 8.17057291666669  7.12673611111111 8.33333333333331  6.66666666666667 8.33333333333331  C 6.20659722222223 8.33333333333331  5.81380208333333 8.17057291666669  5.48828125 7.84505208333331  C 5.16276041666667 7.51953125  5 7.12673611111109  5 6.66666666666669  C 5 6.20659722222223  5.16276041666667 5.81380208333331  5.48828125 5.48828125  C 5.81380208333333 5.16276041666669  6.20659722222223 5  6.66666666666667 5  C 7.12673611111111 5  7.51953125 5.16276041666669  7.84505208333333 5.48828125  Z M 14.51171875 5.48828125  C 14.8372395833333 5.81380208333331  15 6.20659722222223  15 6.66666666666669  C 15 7.12673611111109  14.8372395833333 7.51953125  14.51171875 7.84505208333331  C 14.1861979166667 8.17057291666669  13.7934027777778 8.33333333333331  13.3333333333333 8.33333333333331  C 12.8732638888889 8.33333333333331  12.48046875 8.17057291666669  12.1549479166667 7.84505208333331  C 11.8294270833333 7.51953125  11.6666666666667 7.12673611111109  11.6666666666667 6.66666666666669  C 11.6666666666667 6.20659722222223  11.8294270833333 5.81380208333331  12.1549479166667 5.48828125  C 12.48046875 5.16276041666669  12.8732638888889 5  13.3333333333333 5  C 13.7934027777778 5  14.1861979166667 5.16276041666669  14.51171875 5.48828125  Z M 17.6692708333333 13.2356770833334  C 18.1119791666667 12.20703125  18.3333333333333 11.1284722222222  18.3333333333333 10  C 18.3333333333333 8.87152777777777  18.1119791666667 7.79296875  17.6692708333333 6.76432291666669  C 17.2265625 5.73567708333331  16.6341145833333 4.85026041666669  15.8919270833333 4.10807291666669  C 15.1497395833333 3.36588541666669  14.2643229166667 2.7734375  13.2356770833333 2.33072916666669  C 12.20703125 1.88802083333331  11.1284722222222 1.66666666666669  10 1.66666666666669  C 8.87152777777777 1.66666666666669  7.79296875 1.88802083333331  6.76432291666667 2.33072916666669  C 5.73567708333333 2.7734375  4.85026041666667 3.36588541666669  4.10807291666667 4.10807291666669  C 3.36588541666667 4.85026041666669  2.7734375 5.73567708333331  2.33072916666667 6.76432291666669  C 1.88802083333333 7.79296875  1.66666666666667 8.87152777777777  1.66666666666667 10  C 1.66666666666667 11.1284722222222  1.88802083333333 12.20703125  2.33072916666667 13.2356770833334  C 2.7734375 14.2643229166666  3.36588541666667 15.1497395833334  4.10807291666667 15.8919270833334  C 4.85026041666667 16.6341145833334  5.73567708333333 17.2265625  6.76432291666667 17.6692708333334  C 7.79296875 18.1119791666666  8.87152777777777 18.3333333333334  10 18.3333333333334  C 11.1284722222222 18.3333333333334  12.20703125 18.1119791666666  13.2356770833333 17.6692708333334  C 14.2643229166667 17.2265625  15.1497395833333 16.6341145833334  15.8919270833333 15.8919270833334  C 16.6341145833333 15.1497395833334  17.2265625 14.2643229166666  17.6692708333333 13.2356770833334  Z M 18.6588541666667 4.98046875  C 19.5529513888889 6.51258680555554  20 8.18576388888891  20 10  C 20 11.8142361111111  19.5529513888889 13.4874131944445  18.6588541666667 15.01953125  C 17.7647569444445 16.5516493055555  16.5516493055555 17.7647569444445  15.01953125 18.6588541666666  C 13.4874131944445 19.5529513888889  11.8142361111111 20  10 20  C 8.18576388888889 20  6.51258680555556 19.5529513888889  4.98046875 18.6588541666666  C 3.44835069444444 17.7647569444445  2.23524305555556 16.5516493055555  1.34114583333333 15.01953125  C 0.447048611111114 13.4874131944445  0 11.8142361111111  0 10  C 0 8.18576388888891  0.447048611111114 6.51258680555554  1.34114583333333 4.98046875  C 2.23524305555556 3.44835069444446  3.44835069444444 2.23524305555554  4.98046875 1.34114583333331  C 6.51258680555556 0.447048611111086  8.18576388888889 0  10 0  C 11.8142361111111 0  13.4874131944445 0.447048611111086  15.01953125 1.34114583333331  C 16.5516493055555 2.23524305555554  17.7647569444445 3.44835069444446  18.6588541666667 4.98046875  Z " fill-rule="nonzero" fill="#ffffff" stroke="none" transform="matrix(1 0 0 1 27 355 )" />
  </g>
</svg>