<?xml version="1.0" encoding="utf-8"?>
<svg version="1.1" xmlns:xlink="http://www.w3.org/1999/xlink" width="10px" height="15px" xmlns="http://www.w3.org/2000/svg">
  <g transform="matrix(1 0 0 1 -15 -10 )">
    <path d="M 9.87630208333334 12.22265625  C 9.95876736111112 12.37109375  10 12.546875  10 12.75  L 10 14.25  C 10 14.453125  9.95876736111112 14.62890625  9.87630208333334 14.77734375  C 9.79383680555558 14.92578125  9.69618055555558 15  9.58333333333334 15  L 0.416666666666666 15  C 0.30381944444442 15  0.20616319444442 14.92578125  0.123697916666666 14.77734375  C 0.0412326388888768 14.62890625  0 14.453125  0 14.25  L 0 12.75  C 0 12.546875  0.0412326388888768 12.37109375  0.123697916666666 12.22265625  C 0.20616319444442 12.07421875  0.30381944444442 12  0.416666666666666 12  L 9.58333333333334 12  C 9.69618055555558 12  9.79383680555558 12.07421875  9.87630208333334 12.22265625  Z M 9.87630208333334 6.22265625  C 9.95876736111112 6.37109375  10 6.546875  10 6.75  L 10 8.25  C 10 8.453125  9.95876736111112 8.62890625  9.87630208333334 8.77734375  C 9.79383680555558 8.92578125  9.69618055555558 9  9.58333333333334 9  L 0.416666666666666 9  C 0.30381944444442 9  0.20616319444442 8.92578125  0.123697916666666 8.77734375  C 0.0412326388888768 8.62890625  0 8.453125  0 8.25  L 0 6.75  C 0 6.546875  0.0412326388888768 6.37109375  0.123697916666666 6.22265625  C 0.20616319444442 6.07421875  0.30381944444442 6  0.416666666666666 6  L 9.58333333333334 6  C 9.69618055555558 6  9.79383680555558 6.07421875  9.87630208333334 6.22265625  Z M 9.87630208333334 0.22265625  C 9.95876736111112 0.37109375  10 0.546875  10 0.75  L 10 2.25  C 10 2.453125  9.95876736111112 2.62890625  9.87630208333334 2.77734375  C 9.79383680555558 2.92578125  9.69618055555558 3  9.58333333333334 3  L 0.416666666666666 3  C 0.30381944444442 3  0.20616319444442 2.92578125  0.123697916666666 2.77734375  C 0.0412326388888768 2.62890625  0 2.453125  0 2.25  L 0 0.75  C 0 0.546875  0.0412326388888768 0.37109375  0.123697916666666 0.22265625  C 0.20616319444442 0.07421875  0.30381944444442 0  0.416666666666666 0  L 9.58333333333334 0  C 9.69618055555558 0  9.79383680555558 0.07421875  9.87630208333334 0.22265625  Z " fill-rule="nonzero" fill="#5e5e5e" stroke="none" transform="matrix(1 0 0 1 15 10 )" />
  </g>
</svg>