<?xml version="1.0" encoding="utf-8"?>
<svg version="1.1" xmlns:xlink="http://www.w3.org/1999/xlink" width="26px" height="19px" xmlns="http://www.w3.org/2000/svg">
  <g transform="matrix(1 0 0 1 -189 -285 )">
    <path d="M 1 0  L 1 19  L 0 19  L 0 0  L 1 0  Z M 2 0  L 2 18.9865056818182  L 1.36383928571429 18.9865056818182  L 1.36383928571429 0  L 2 0  Z M 3.19196428571429 0  L 3.19196428571429 18.9865056818182  L 3 18.9865056818182  L 3 0  L 3.19196428571429 0  Z M 5.46986607142857 0  L 5.46986607142857 18.9865056818182  L 5 18.9865056818182  L 5 0  L 5.46986607142857 0  Z M 8 0  L 8 18.9865056818182  L 7 18.9865056818182  L 7 0  L 8 0  Z M 10 0  L 10 18.9865056818182  L 9.12611607142857 18.9865056818182  L 9.12611607142857 0  L 10 0  Z M 11 0  L 11 18.9865056818182  L 10 18.9865056818182  L 10 0  L 11 0  Z M 11.4040178571429 0  L 11.4040178571429 18.9865056818182  L 11 18.9865056818182  L 11 0  L 11.4040178571429 0  Z M 13.6819196428571 0  L 13.6819196428571 18.9865056818182  L 13 18.9865056818182  L 13 0  L 13.6819196428571 0  Z M 16 0  L 16 18.9865056818182  L 15 18.9865056818182  L 15 0  L 16 0  Z M 17.7879464285714 0  L 17.7879464285714 18.9865056818182  L 16.8738839285714 18.9865056818182  L 16.8738839285714 0  L 17.7879464285714 0  Z M 19.6160714285714 0  L 19.6160714285714 18.9865056818182  L 18.7020089285714 18.9865056818182  L 18.7020089285714 0  L 19.6160714285714 0  Z M 21 0  L 21 18.9865056818182  L 20 18.9865056818182  L 20 0  L 21 0  Z M 23.7220982142857 0  L 23.7220982142857 18.9865056818182  L 22 18.9865056818182  L 22 0  L 23.7220982142857 0  Z M 24.6361607142857 0  L 24.6361607142857 18.9865056818182  L 24 18.9865056818182  L 24 0  L 24.6361607142857 0  Z M 26 0  L 26 19  L 25 19  L 25 0  L 26 0  Z " fill-rule="nonzero" fill="#0099ff" stroke="none" transform="matrix(1 0 0 1 189 285 )" />
  </g>
</svg>