<?xml version="1.0" encoding="utf-8"?>
<svg version="1.1" xmlns:xlink="http://www.w3.org/1999/xlink" width="288px" height="127px" xmlns="http://www.w3.org/2000/svg">
  <g transform="matrix(1 0 0 1 -37 -95 )">
    <path d="M 11 0  L 11 127  L 0 127  L 0 0  L 11 0  Z M 21 0  L 21 126.909801136364  L 16 126.909801136364  L 16 0  L 21 0  Z M 36 0  L 36 126.909801136364  L 31 126.909801136364  L 31 0  L 36 0  Z M 61 0  L 61 126.909801136364  L 56 126.909801136364  L 56 0  L 61 0  Z M 86 0  L 86 127  L 76 127  L 76 0  L 86 0  Z M 106 0  L 106 126.909801136364  L 101 126.909801136364  L 101 0  L 106 0  Z M 117 0  L 117 126.909801136364  L 112 126.909801136364  L 112 0  L 117 0  Z M 127 0  L 127 126.909801136364  L 122 126.909801136364  L 122 0  L 127 0  Z M 151 0  L 151 126.909801136364  L 142 126.909801136364  L 142 0  L 151 0  Z M 176 0  L 176 126.909801136364  L 166 126.909801136364  L 166 0  L 176 0  Z M 197 0  L 197 127  L 187 127  L 187 0  L 197 0  Z M 217 0  L 217 126.909801136364  L 207 126.909801136364  L 207 0  L 217 0  Z M 232 0  L 232 126.909801136364  L 222 126.909801136364  L 222 0  L 232 0  Z M 262 0  L 262 127  L 247 127  L 247 0  L 262 0  Z M 272 0  L 272 126.909801136364  L 267 126.909801136364  L 267 0  L 272 0  Z M 288 0  L 288 127  L 277 127  L 277 0  L 288 0  Z " fill-rule="nonzero" fill="#555555" stroke="none" transform="matrix(1 0 0 1 37 95 )" />
  </g>
</svg>