<?xml version="1.0" encoding="utf-8"?>
<svg version="1.1" xmlns:xlink="http://www.w3.org/1999/xlink" width="20px" height="20px" xmlns="http://www.w3.org/2000/svg">
  <g transform="matrix(1 0 0 1 -20 -19 )">
    <path d="M 19.9502840909091 15.2799479166667  C 19.983428030303 15.7183159722222  20 16.1675347222222  20 16.6276041666667  C 20 17.6692708333333  19.6543560606061 18.4917534722222  18.9630681818182 19.0950520833333  C 18.2717803030303 19.6983506944444  17.3532196969697 20  16.2073863636364 20  L 3.79261363636364 20  C 2.64678030303033 20  1.72821969696967 19.6983506944444  1.03693181818182 19.0950520833333  C 0.345643939393941 18.4917534722222  0 17.6692708333333  0 16.6276041666667  C 0 16.1675347222222  0.0165719696969582 15.7183159722222  0.0497159090909243 15.2799479166667  C 0.0828598484848371 14.8415798611111  0.14914772727272 14.3684895833333  0.248579545454565 13.8606770833333  C 0.34801136363636 13.3528645833333  0.473484848484837 12.8819444444444  0.625 12.4479166666667  C 0.776515151515163 12.0138888888889  0.98011363636364 11.5907118055556  1.23579545454544 11.1783854166667  C 1.49147727272728 10.7660590277778  1.78503787878788 10.4144965277778  2.11647727272728 10.1236979166667  C 2.44791666666666 9.83289930555557  2.8527462121212 9.60069444444443  3.33096590909092 9.42708333333334  C 3.8091856060606 9.25347222222224  4.3371212121212 9.16666666666666  4.91477272727272 9.16666666666666  C 5 9.16666666666666  5.19886363636364 9.25998263888891  5.51136363636364 9.44661458333334  C 5.82386363636364 9.63324652777776  6.17660984848484 9.84157986111109  6.56960227272728 10.0716145833333  C 6.9625946969697 10.3016493055556  7.47395833333334 10.5099826388889  8.1036931818182 10.6966145833333  C 8.73342803030304 10.8832465277778  9.36553030303033 10.9765625  10 10.9765625  C 10.6344696969697 10.9765625  11.266571969697 10.8832465277778  11.8963068181818 10.6966145833333  C 12.5260416666667 10.5099826388889  13.0374053030303 10.3016493055556  13.4303977272727 10.0716145833333  C 13.8233901515152 9.84157986111109  14.1761363636364 9.63324652777776  14.4886363636364 9.44661458333334  C 14.8011363636364 9.25998263888891  15 9.16666666666666  15.0852272727273 9.16666666666666  C 15.6628787878788 9.16666666666666  16.1908143939394 9.25347222222224  16.6690340909091 9.42708333333334  C 17.1472537878788 9.60069444444443  17.5520833333333 9.83289930555557  17.8835227272727 10.1236979166667  C 18.2149621212121 10.4144965277778  18.5085227272727 10.7660590277778  18.7642045454546 11.1783854166667  C 19.0198863636364 11.5907118055556  19.2234848484848 12.0138888888889  19.375 12.4479166666667  C 19.5265151515152 12.8819444444444  19.6519886363636 13.3528645833333  19.7514204545454 13.8606770833333  C 19.8508522727273 14.3684895833333  19.9171401515152 14.8415798611111  19.9502840909091 15.2799479166667  Z M 13.8565340909091 1.46484375  C 14.921875 2.44140625  15.4545454545454 3.61979166666667  15.4545454545454 5  C 15.4545454545454 6.38020833333334  14.921875 7.55859375  13.8565340909091 8.53515625  C 12.7911931818182 9.51171875  11.5056818181818 10  10 10  C 8.4943181818182 10  7.2088068181818 9.51171875  6.14346590909092 8.53515625  C 5.078125 7.55859375  4.54545454545456 6.38020833333334  4.54545454545456 5  C 4.54545454545456 3.61979166666667  5.078125 2.44140625  6.14346590909092 1.46484375  C 7.2088068181818 0.48828125  8.4943181818182 0  10 0  C 11.5056818181818 0  12.7911931818182 0.48828125  13.8565340909091 1.46484375  Z " fill-rule="nonzero" fill="#ffffff" stroke="none" transform="matrix(1 0 0 1 20 19 )" />
  </g>
</svg>