<?xml version="1.0" encoding="utf-8"?>
<svg version="1.1" xmlns:xlink="http://www.w3.org/1999/xlink" width="90px" height="60px" xmlns="http://www.w3.org/2000/svg">
  <g transform="matrix(1 0 0 1 -232 -387 )">
    <path d="M 27.375 12.1875  C 29.125 13.6458333333333  30 15.4166666666667  30 17.5  C 30 19.5833333333333  29.125 21.3541666666667  27.375 22.8125  C 25.625 24.2708333333333  23.5 25  21 25  C 18.5 25  16.375 24.2708333333333  14.625 22.8125  C 12.875 21.3541666666667  12 19.5833333333333  12 17.5  C 12 15.4166666666667  12.875 13.6458333333333  14.625 12.1875  C 16.375 10.7291666666667  18.5 10  21 10  C 23.5 10  25.625 10.7291666666667  27.375 12.1875  Z M 58.5 16.25  L 78 32.5  L 78 50  L 12 50  L 12 42.5  L 27 30  L 34.5 36.25  L 58.5 16.25  Z M 83.5546875 5.37109375  C 83.2578125 5.12369791666666  82.90625 5  82.5 5  L 7.5 5  C 7.09375 5  6.7421875 5.12369791666666  6.4453125 5.37109375  C 6.1484375 5.61848958333333  6 5.91145833333333  6 6.25  L 6 53.75  C 6 54.0885416666667  6.1484375 54.3815104166667  6.4453125 54.62890625  C 6.7421875 54.8763020833333  7.09375 55  7.5 55  L 82.5 55  C 82.90625 55  83.2578125 54.8763020833333  83.5546875 54.62890625  C 83.8515625 54.3815104166667  84 54.0885416666667  84 53.75  L 84 6.25  C 84 5.91145833333333  83.8515625 5.61848958333333  83.5546875 5.37109375  Z M 87.796875 1.8359375  C 89.265625 3.05989583333333  90 4.53125  90 6.25  L 90 53.75  C 90 55.46875  89.265625 56.9401041666667  87.796875 58.1640625  C 86.328125 59.3880208333333  84.5625 60  82.5 60  L 7.5 60  C 5.4375 60  3.671875 59.3880208333333  2.203125 58.1640625  C 0.734375 56.9401041666667  0 55.46875  0 53.75  L 0 6.25  C 0 4.53125  0.734375 3.05989583333333  2.203125 1.8359375  C 3.671875 0.611979166666661  5.4375 0  7.5 0  L 82.5 0  C 84.5625 0  86.328125 0.611979166666661  87.796875 1.8359375  Z " fill-rule="nonzero" fill="#ffffff" stroke="none" transform="matrix(1 0 0 1 232 387 )" />
  </g>
</svg>