<?xml version="1.0" encoding="utf-8"?>
<svg version="1.1" xmlns:xlink="http://www.w3.org/1999/xlink" width="91px" height="60px" xmlns="http://www.w3.org/2000/svg">
  <g transform="matrix(1 0 0 1 -66 -387 )">
    <path d="M 27.6791666666667 12.1875  C 29.4486111111111 13.6458333333333  30.3333333333333 15.4166666666667  30.3333333333333 17.5  C 30.3333333333333 19.5833333333333  29.4486111111111 21.3541666666667  27.6791666666667 22.8125  C 25.9097222222222 24.2708333333333  23.7611111111111 25  21.2333333333333 25  C 18.7055555555556 25  16.5569444444444 24.2708333333333  14.7875 22.8125  C 13.0180555555556 21.3541666666667  12.1333333333333 19.5833333333333  12.1333333333333 17.5  C 12.1333333333333 15.4166666666667  13.0180555555556 13.6458333333333  14.7875 12.1875  C 16.5569444444444 10.7291666666667  18.7055555555556 10  21.2333333333333 10  C 23.7611111111111 10  25.9097222222222 10.7291666666667  27.6791666666667 12.1875  Z M 59.15 16.25  L 78 32.5  L 78 50  L 12.1333333333333 50  L 12.1333333333333 42.5  L 27.3 30  L 34.8833333333333 36.25  L 59.15 16.25  Z M 84.4830729166667 5.37109375  C 84.1828993055556 5.12369791666666  83.8274305555556 5  83.4166666666667 5  L 7.58333333333333 5  C 7.17256944444445 5  6.81710069444445 5.12369791666666  6.51692708333333 5.37109375  C 6.21675347222222 5.61848958333333  6.06666666666667 5.91145833333333  6 6.25  L 6 53.75  C 6.06666666666667 54.0885416666667  6.21675347222222 54.3815104166667  6.51692708333333 54.62890625  C 6.81710069444445 54.8763020833333  7.17256944444445 55  7.58333333333333 55  L 83.4166666666667 55  C 83.8274305555556 55  84.1828993055556 54.8763020833333  84.4830729166667 54.62890625  C 84.7832465277778 54.3815104166667  84.9333333333333 54.0885416666667  85 53.75  L 85 6.25  C 84.9333333333333 5.91145833333333  84.7832465277778 5.61848958333333  84.4830729166667 5.37109375  Z M 88.7723958333333 1.8359375  C 90.2574652777778 3.05989583333333  91 4.53125  91 6.25  L 91 53.75  C 91 55.46875  90.2574652777778 56.9401041666667  88.7723958333333 58.1640625  C 87.2873263888889 59.3880208333333  85.5020833333333 60  83.4166666666667 60  L 7.58333333333333 60  C 5.49791666666667 60  3.71267361111111 59.3880208333333  2.22760416666667 58.1640625  C 0.742534722222222 56.9401041666667  0 55.46875  0 53.75  L 0 6.25  C 0 4.53125  0.742534722222222 3.05989583333333  2.22760416666667 1.8359375  C 3.71267361111111 0.611979166666661  5.49791666666667 0  7.58333333333333 0  L 83.4166666666667 0  C 85.5020833333333 0  87.2873263888889 0.611979166666661  88.7723958333333 1.8359375  Z " fill-rule="nonzero" fill="#ffffff" stroke="none" transform="matrix(1 0 0 1 66 387 )" />
  </g>
</svg>