<?xml version="1.0" encoding="utf-8"?>
<svg version="1.1" xmlns:xlink="http://www.w3.org/1999/xlink" width="17px" height="20px" xmlns="http://www.w3.org/2000/svg">
  <g transform="matrix(1 0 0 1 -317 -293 )">
    <path d="M 16.9637784090909 15.4971590909091  C 16.9879261363636 15.5634469696969  17 15.6628787878788  17 15.7954545454546  C 17 16.0511363636364  16.9597537878788 16.3849431818182  16.8792613636364 16.796875  C 16.798768939394 17.2088068181818  16.7142518939394 17.5331439393939  16.6257102272727 17.7698863636364  C 16.4566761363636 18.2433712121212  15.9656723484849 18.7452651515152  15.1526988636364 19.2755681818182  C 14.3960700757576 19.7585227272727  13.647490530303 20  12.9069602272727 20  C 12.6896306818182 20  12.4783380681818 19.9834280303031  12.2730823863636 19.9502840909091  C 12.0678267045454 19.9171401515152  11.8364109848484 19.8579545454546  11.5788352272727 19.7727272727273  C 11.321259469697 19.6875  11.1300899621212 19.6188446969697  11.0053267045454 19.5667613636364  C 10.8805634469697 19.5146780303031  10.657196969697 19.4176136363636  10.3352272727273 19.2755681818182  C 10.0132575757576 19.1335227272727  9.81605113636368 19.0482954545454  9.74360795454544 19.0198863636364  C 8.95478219696969 18.6884469696969  8.25047348484844 18.2954545454546  7.63068181818181 17.8409090909091  C 6.60037878787881 17.0928030303031  5.53586647727269 16.0724431818182  4.43714488636363 14.7798295454546  C 3.33842329545456 13.4872159090909  2.47111742424244 12.2348484848485  1.83522727272731 11.0227272727273  C 1.44886363636363 10.2935606060606  1.11482007575756 9.46496212121212  0.833096590909122 8.53693181818181  C 0.808948863636374 8.45170454545456  0.736505681818187 8.21969696969694  0.615767045454561 7.84090909090907  C 0.495028409090878 7.46212121212119  0.412523674242436 7.19933712121212  0.368252840909122 7.05255681818181  C 0.323982007575751 6.9057765151515  0.265625 6.68087121212119  0.193181818181813 6.37784090909093  C 0.120738636363626 6.07481060606062  0.0704308712121247 5.80255681818181  0.0422585227273089 5.56107954545456  C 0.0140861742424363 5.31960227272731  0 5.07102272727269  0 4.81534090909093  C 0 3.94412878787881  0.205255681818187 3.06344696969694  0.615767045454561 2.17329545454544  C 1.06652462121212 1.21685606060606  1.493134469697 0.639204545454561  1.89559659090912 0.440340909090935  C 2.09682765151513 0.336174242424249  2.37251420454544 0.236742424242436  2.72265625 0.142045454545439  C 3.07279829545456 0.0473484848484986  3.35653409090912 0  3.57386363636363 0  C 3.686553030303 0  3.77107007575756 0.014204545454561  3.82741477272731 0.042613636363626  C 3.97230113636363 0.099431818181813  4.18560606060606 0.459280303030312  4.46732954545456 1.12215909090907  C 4.55587121212119 1.30208333333331  4.67660984848487 1.55776515151518  4.82954545454544 1.88920454545456  C 4.98248106060606 2.22064393939394  5.12334280303031 2.52130681818181  5.25213068181819 2.79119318181819  C 5.38091856060606 3.06107954545456  5.50568181818181 3.31439393939394  5.62642045454544 3.55113636363637  C 5.65056818181819 3.58901515151518  5.72099905303031 3.70738636363637  5.83771306818181 3.90625  C 5.95442708333331 4.10511363636363  6.04095643939394 4.27320075757575  6.09730113636363 4.41051136363637  C 6.15364583333331 4.54782196969694  6.18181818181819 4.68276515151518  6.18181818181819 4.81534090909093  C 6.18181818181819 5.00473484848482  6.06711647727269 5.24147727272731  5.83771306818181 5.52556818181819  C 5.60830965909088 5.80965909090907  5.35878314393938 6.07007575757575  5.08913352272731 6.30681818181819  C 4.81948390151513 6.54356060606062  4.56995738636363 6.79450757575756  4.34055397727269 7.05965909090907  C 4.11115056818181 7.32481060606062  3.99644886363637 7.54261363636363  3.99644886363637 7.71306818181819  C 3.99644886363637 7.79829545454544  4.016571969697 7.90482954545456  4.05681818181819 8.03267045454544  C 4.09706439393938 8.16051136363637  4.13127367424244 8.25757575757575  4.15944602272731 8.32386363636363  C 4.18761837121212 8.3901515151515  4.24396306818181 8.50378787878788  4.32848011363637 8.66477272727269  C 4.41299715909088 8.82575757575756  4.45928030303031 8.91571969696969  4.46732954545456 8.93465909090907  C 5.079071969697 10.2320075757576  5.77935606060606 11.3446969696969  6.56818181818181 12.2727272727273  C 7.35700757575756 13.2007575757576  8.30279356060606 14.0246212121212  9.40553977272731 14.7443181818182  C 9.42163825757575 14.7537878787879  9.49810606060601 14.8082386363636  9.63494318181819 14.9076704545454  C 9.77178030303031 15.0071022727273  9.86837121212119 15.0733901515152  9.92471590909088 15.1065340909091  C 9.98106060606062 15.1396780303031  10.0635653409091 15.1799242424242  10.1722301136364 15.2272727272727  C 10.2808948863636 15.2746212121212  10.3714488636364 15.2982954545454  10.4438920454546 15.2982954545454  C 10.5887784090909 15.2982954545454  10.7739109848484 15.1633522727273  10.9992897727273 14.8934659090909  C 11.224668560606 14.6235795454546  11.4379734848484 14.3300189393939  11.6392045454546 14.0127840909091  C 11.8404356060606 13.6955492424242  12.0617897727273 13.4019886363636  12.3032670454546 13.1321022727273  C 12.5447443181818 12.8622159090909  12.7459753787879 12.7272727272727  12.9069602272727 12.7272727272727  C 13.0196496212121 12.7272727272727  13.1343513257576 12.7604166666667  13.2510653409091 12.8267045454546  C 13.3677793560606 12.8929924242424  13.5106534090909 12.9947916666667  13.6796875 13.1321022727273  C 13.8487215909091 13.2694128787879  13.9493371212121 13.3522727272727  13.9815340909091 13.3806818181818  C 14.1827651515151 13.5227272727273  14.3980823863636 13.6695075757576  14.6274857954546 13.8210227272727  C 14.8568892045454 13.9725378787879  15.1124526515151 14.1382575757576  15.3941761363636 14.3181818181818  C 15.6758996212121 14.4981060606061  15.8932291666667 14.6401515151515  16.0461647727273 14.7443181818182  C 16.6096117424242 15.0757575757576  16.9154829545454 15.3267045454546  16.9637784090909 15.4971590909091  Z " fill-rule="nonzero" fill="#5e5e5e" stroke="none" transform="matrix(1 0 0 1 317 293 )" />
  </g>
</svg>