<?xml version="1.0" encoding="utf-8"?>
<svg version="1.1" xmlns:xlink="http://www.w3.org/1999/xlink" width="13px" height="20px" xmlns="http://www.w3.org/2000/svg">
  <g transform="matrix(1 0 0 1 -11 -293 )">
    <path d="M 8.7978515625 9.0234375  C 9.4326171875 8.37239583333337  9.75 7.58680555555554  9.75 6.66666666666663  C 9.75 5.74652777777777  9.4326171875 4.9609375  8.7978515625 4.30989583333337  C 8.1630859375 3.65885416666663  7.39713541666664 3.33333333333337  6.5 3.33333333333337  C 5.60286458333336 3.33333333333337  4.8369140625 3.65885416666663  4.2021484375 4.30989583333337  C 3.5673828125 4.9609375  3.25 5.74652777777777  3.25 6.66666666666663  C 3.25 7.58680555555554  3.5673828125 8.37239583333337  4.2021484375 9.0234375  C 4.8369140625 9.67447916666663  5.60286458333336 10  6.5 10  C 7.39713541666664 10  8.1630859375 9.67447916666663  8.7978515625 9.0234375  Z M 11.095703125 1.953125  C 12.365234375 3.25520833333337  13 4.82638888888886  13 6.66666666666663  C 13 7.61284722222223  12.8603515625 8.38975694444446  12.5810546875 8.99739583333337  L 7.9599609375 19.0755208333334  C 7.82454427083336 19.3619791666666  7.62353515625 19.5876736111111  7.35693359375 19.7526041666666  C 7.09033203125 19.9175347222222  6.8046875 20  6.5 20  C 6.1953125 20  5.90966796875 19.9175347222222  5.64306640625 19.7526041666666  C 5.37646484375 19.5876736111111  5.1796875 19.3619791666666  5.052734375 19.0755208333334  L 0.4189453125 8.99739583333337  C 0.1396484375 8.38975694444446  0 7.61284722222223  0 6.66666666666663  C 0 4.82638888888886  0.634765625 3.25520833333337  1.904296875 1.953125  C 3.173828125 0.651041666666629  4.70572916666664 0  6.5 0  C 8.29427083333336 0  9.826171875 0.651041666666629  11.095703125 1.953125  Z " fill-rule="nonzero" fill="#5e5e5e" stroke="none" transform="matrix(1 0 0 1 11 293 )" />
  </g>
</svg>