<?xml version="1.0" encoding="utf-8"?>
<svg version="1.1" xmlns:xlink="http://www.w3.org/1999/xlink" width="14px" height="9px" xmlns="http://www.w3.org/2000/svg">
  <g transform="matrix(1 0 0 1 -120 -5 )">
    <path d="M 13.8597194388778 7.36082474226804  C 13.9532398129593 7.46391752577319  14 7.58247422680412  14 7.71649484536083  C 14 7.85051546391752  13.9532398129593 7.96907216494845  13.8597194388778 8.07216494845361  L 13.1583166332665 8.84536082474227  C 13.064796259185 8.94845360824742  12.9572478289913 9  12.8356713426854 9  C 12.7140948563794 9  12.6065464261857 8.94845360824742  12.5130260521042 8.84536082474227  L 7 2.7680412371134  L 1.48697394789579 8.84536082474227  C 1.3934535738143 8.94845360824742  1.28590514362057 9  1.16432865731463 9  C 1.04275217100868 9  0.935203740814964 8.94845360824742  0.841683366733467 8.84536082474227  L 0.140280561122244 8.07216494845361  C 0.0467601870407483 7.96907216494845  0 7.85051546391752  0 7.71649484536083  C 0 7.58247422680412  0.0467601870407483 7.46391752577319  0.140280561122244 7.36082474226804  L 6.67735470941884 0.154639175257732  C 6.77087508350033 0.0515463917525761  6.87842351369406 0  7 0  C 7.12157648630595 0  7.22912491649967 0.0515463917525761  7.32264529058116 0.154639175257732  L 13.8597194388778 7.36082474226804  Z " fill-rule="nonzero" fill="#ffffff" stroke="none" transform="matrix(1 0 0 1 120 5 )" />
  </g>
</svg>