<?xml version="1.0" encoding="utf-8"?>
<svg version="1.1" xmlns:xlink="http://www.w3.org/1999/xlink" width="21px" height="19px" xmlns="http://www.w3.org/2000/svg">
  <g transform="matrix(1 0 0 1 -306 -69 )">
    <path d="M 7.50213068181818 7.236328125  C 7.59161931818182 7.310546875  7.63636363636364 7.40538194444444  7.63636363636364 7.52083333333333  L 7.63636363636364 14.6458333333333  C 7.63636363636364 14.7612847222222  7.59161931818182 14.8561197916667  7.50213068181818 14.9303385416667  C 7.41264204545454 15.0045572916667  7.29829545454546 15.0416666666667  7.15909090909091 15.0416666666667  L 6.20454545454546 15.0416666666667  C 6.06534090909091 15.0416666666667  5.95099431818182 15.0045572916667  5.86150568181818 14.9303385416667  C 5.77201704545454 14.8561197916667  5.72727272727273 14.7612847222222  5.72727272727273 14.6458333333333  L 5.72727272727273 7.52083333333333  C 5.72727272727273 7.40538194444444  5.77201704545454 7.310546875  5.86150568181818 7.236328125  C 5.95099431818182 7.162109375  6.06534090909091 7.125  6.20454545454546 7.125  L 7.15909090909091 7.125  C 7.29829545454546 7.125  7.41264204545454 7.162109375  7.50213068181818 7.236328125  Z M 11.3203125 7.236328125  C 11.4098011363636 7.310546875  11.4545454545455 7.40538194444444  11.4545454545455 7.52083333333333  L 11.4545454545455 14.6458333333333  C 11.4545454545455 14.7612847222222  11.4098011363636 14.8561197916667  11.3203125 14.9303385416667  C 11.2308238636364 15.0045572916667  11.1164772727273 15.0416666666667  10.9772727272727 15.0416666666667  L 10.0227272727273 15.0416666666667  C 9.88352272727273 15.0416666666667  9.76917613636364 15.0045572916667  9.6796875 14.9303385416667  C 9.59019886363636 14.8561197916667  9.54545454545454 14.7612847222222  9.54545454545454 14.6458333333333  L 9.54545454545454 7.52083333333333  C 9.54545454545454 7.40538194444444  9.59019886363636 7.310546875  9.6796875 7.236328125  C 9.76917613636364 7.162109375  9.88352272727273 7.125  10.0227272727273 7.125  L 10.9772727272727 7.125  C 11.1164772727273 7.125  11.2308238636364 7.162109375  11.3203125 7.236328125  Z M 15.1384943181818 7.236328125  C 15.2279829545455 7.310546875  15.2727272727273 7.40538194444444  15.2727272727273 7.52083333333333  L 15.2727272727273 14.6458333333333  C 15.2727272727273 14.7612847222222  15.2279829545455 14.8561197916667  15.1384943181818 14.9303385416667  C 15.0490056818182 15.0045572916667  14.9346590909091 15.0416666666667  14.7954545454545 15.0416666666667  L 13.8409090909091 15.0416666666667  C 13.7017045454545 15.0416666666667  13.5873579545455 15.0045572916667  13.4978693181818 14.9303385416667  C 13.4083806818182 14.8561197916667  13.3636363636364 14.7612847222222  13.3636363636364 14.6458333333333  L 13.3636363636364 7.52083333333333  C 13.3636363636364 7.40538194444444  13.4083806818182 7.310546875  13.4978693181818 7.236328125  C 13.5873579545455 7.162109375  13.7017045454545 7.125  13.8409090909091 7.125  L 14.7954545454545 7.125  C 14.9346590909091 7.125  15.0490056818182 7.162109375  15.1384943181818 7.236328125  Z M 17.0774147727273 16.9775390625  C 17.1470170454545 16.8249782986111  17.1818181818182 16.6579861111111  17 16.4765625  L 17 5  L 4 5  L 4 16.4765625  C 3.81818181818182 16.6579861111111  3.85298295454546 16.8249782986111  3.92258522727273 16.9775390625  C 3.9921875 17.1300998263889  4.06427556818182 17.2414279513889  4.13884943181818 17.3115234375  C 4.21342329545455 17.3816189236111  4.265625 17.4166666666667  4.29545454545455 17.4166666666667  L 16.7045454545455 17.4166666666667  C 16.734375 17.4166666666667  16.7865767045455 17.3816189236111  16.8611505681818 17.3115234375  C 16.9357244318182 17.2414279513889  17.0078125 17.1300998263889  17.0774147727273 16.9775390625  Z M 7.88991477272727 1.71940104166667  L 7.15909090909091 3.16666666666667  L 13.8409090909091 3.16666666666667  L 13.125 1.71940104166667  C 13.0553977272727 1.64518229166667  12.9708806818182 1.59982638888889  12.8714488636364 1.58333333333333  L 8.14346590909091 1.58333333333333  C 8.04403409090909 1.59982638888889  7.95951704545455 1.64518229166667  7.88991477272727 1.71940104166667  Z M 20.8657670454545 3.27799479166667  C 20.9552556818182 3.35221354166667  21 3.44704861111111  21 3.5625  L 21 4.35416666666667  C 21 4.46961805555555  20.9552556818182 4.564453125  20.8657670454545 4.638671875  C 20.7762784090909 4.712890625  20.6619318181818 4.75  20.5227272727273 4.75  L 19 4.75  L 19 16.4765625  C 19.0909090909091 17.1610243055556  18.8572443181818 17.7527126736111  18.3899147727273 18.2516276041667  C 17.9225852272727 18.7505425347222  17.3607954545455 19  16.7045454545455 19  L 4.29545454545455 19  C 3.63920454545455 19  3.07741477272727 18.7587890625  2.61008522727273 18.2763671875  C 2.14275568181818 17.7939453125  1.90909090909091 17.2105034722222  2 16.5260416666667  L 2 4.75  L 0.477272727272727 4.75  C 0.338068181818182 4.75  0.223721590909091 4.712890625  0.134232954545455 4.638671875  C 0.0447443181818182 4.564453125  0 4.46961805555555  0 4.35416666666667  L 0 3.5625  C 0 3.44704861111111  0.0447443181818182 3.35221354166667  0.134232954545455 3.27799479166667  C 0.223721590909091 3.20377604166667  0.338068181818182 3.16666666666667  0.477272727272727 3.16666666666667  L 5.0859375 3.16666666666667  L 6.12997159090909 1.10091145833333  C 6.27911931818182 0.795789930555554  6.54758522727273 0.536024305555554  6.93536931818182 0.321614583333334  C 7.32315340909091 0.10720486111111  7.71590909090909 0  8.11363636363636 0  L 12.8863636363636 0  C 13.2840909090909 0  13.6768465909091 0.10720486111111  14.0646306818182 0.321614583333334  C 14.4524147727273 0.536024305555554  14.7208806818182 0.795789930555554  14.8700284090909 1.10091145833333  L 15.9140625 3.16666666666667  L 20.5227272727273 3.16666666666667  C 20.6619318181818 3.16666666666667  20.7762784090909 3.20377604166667  20.8657670454545 3.27799479166667  Z " fill-rule="nonzero" fill="#555555" stroke="none" transform="matrix(1 0 0 1 306 69 )" />
  </g>
</svg>