<?xml version="1.0" encoding="utf-8"?>
<svg version="1.1" xmlns:xlink="http://www.w3.org/1999/xlink" width="35px" height="30px" xmlns="http://www.w3.org/2000/svg">
  <g transform="matrix(1 0 0 1 -96 -743 )">
    <path d="M 2.1875 13  L 32.8125 13  C 33.4163411458333 12.8571428571429  33.931884765625 13.06640625  34.359130859375 13.4849330357143  C 34.786376953125 13.9034598214286  35 14.4084821428571  35 15  C 35 15.5915178571429  34.786376953125 16.0965401785714  34.359130859375 16.5150669642857  C 33.931884765625 16.93359375  33.4163411458333 17.1428571428571  32.8125 17.1428571428571  L 32.55615234375 17.1428571428571  L 30.5908203125 28.2254464285714  C 30.4996744791667 28.7388392857143  30.2490234375 29.1629464285714  29.8388671875 29.4977678571429  C 29.4287109375 29.8325892857143  28.9615885416667 30  28.4375 30  L 6.5625 30  C 6.03841145833333 30  5.5712890625 29.8325892857143  5.1611328125 29.4977678571429  C 4.7509765625 29.1629464285714  4.50032552083333 28.7388392857143  4.4091796875 28.2254464285714  L 2.44384765625 17.1428571428571  L 2.1875 17.1428571428571  C 1.58365885416667 17.1428571428571  1.068115234375 16.93359375  0.640869140625 16.5150669642857  C 0.213623046875 16.0965401785714  0 15.5915178571429  0 15  C 0 14.4084821428571  0.213623046875 13.9034598214286  0.640869140625 13.4849330357143  C 1.068115234375 13.06640625  1.58365885416667 12.8571428571429  2.1875 13  Z M 8.203125 26.25  L 8.28857421875 26.25  C 8.58479817708333 26.2276785714286  8.83260091145833 26.1021205357143  9.031982421875 25.8733258928571  C 9.23136393229167 25.64453125  9.31966145833333 25.3850446428571  9.296875 25.0948660714286  L 8.75 18.1305803571429  C 8.72721354166667 17.8404017857143  8.59903971354167 17.59765625  8.365478515625 17.40234375  C 8.13191731770833 17.20703125  7.86702473958333 17.1205357142857  7.57080078125 17.1428571428571  C 7.27457682291667 17.1651785714286  7.02677408854167 17.2907366071429  6.827392578125 17.51953125  C 6.62801106770833 17.7483258928571  6.53971354166667 18.0078125  6.5625 18.2979910714286  L 7.109375 25.2622767857143  C 7.13216145833333 25.5412946428571  7.24894205729167 25.7756696428571  7.459716796875 25.9654017857143  C 7.67049153645833 26.1551339285714  7.91829427083333 26.25  8.203125 26.25  Z M 14.98779296875 25.9319196428571  C 15.2042643229167 25.7198660714286  15.3125 25.46875  15.3125 25.1785714285714  L 15.3125 18.2142857142857  C 15.3125 17.9241071428571  15.2042643229167 17.6729910714286  14.98779296875 17.4609375  C 14.7713216145833 17.2488839285714  14.5149739583333 17.1428571428571  14.21875 17.1428571428571  C 13.9225260416667 17.1428571428571  13.6661783854167 17.2488839285714  13.44970703125 17.4609375  C 13.2332356770833 17.6729910714286  13.125 17.9241071428571  13.125 18.2142857142857  L 13.125 25.1785714285714  C 13.125 25.46875  13.2332356770833 25.7198660714286  13.44970703125 25.9319196428571  C 13.6661783854167 26.1439732142857  13.9225260416667 26.25  14.21875 26.25  C 14.5149739583333 26.25  14.7713216145833 26.1439732142857  14.98779296875 25.9319196428571  Z M 21.55029296875 25.9319196428571  C 21.7667643229167 25.7198660714286  21.875 25.46875  21.875 25.1785714285714  L 21.875 18.2142857142857  C 21.875 17.9241071428571  21.7667643229167 17.6729910714286  21.55029296875 17.4609375  C 21.3338216145833 17.2488839285714  21.0774739583333 17.1428571428571  20.78125 17.1428571428571  C 20.4850260416667 17.1428571428571  20.2286783854167 17.2488839285714  20.01220703125 17.4609375  C 19.7957356770833 17.6729910714286  19.6875 17.9241071428571  19.6875 18.2142857142857  L 19.6875 25.1785714285714  C 19.6875 25.46875  19.7957356770833 25.7198660714286  20.01220703125 25.9319196428571  C 20.2286783854167 26.1439732142857  20.4850260416667 26.25  20.78125 26.25  C 21.0774739583333 26.25  21.3338216145833 26.1439732142857  21.55029296875 25.9319196428571  Z M 27.540283203125 25.9654017857143  C 27.7510579427083 25.7756696428571  27.8678385416667 25.5412946428571  27.890625 25.2622767857143  L 28.4375 18.2979910714286  C 28.4602864583333 18.0078125  28.3719889322917 17.7483258928571  28.172607421875 17.51953125  C 27.9732259114583 17.2907366071429  27.7254231770833 17.1651785714286  27.42919921875 17.1428571428571  C 27.1329752604167 17.1205357142857  26.8680826822917 17.20703125  26.634521484375 17.40234375  C 26.4009602864583 17.59765625  26.2727864583333 17.8404017857143  26.25 18.1305803571429  L 25.703125 25.0948660714286  C 25.6803385416667 25.3850446428571  25.7686360677083 25.64453125  25.968017578125 25.8733258928571  C 26.1673990885417 26.1021205357143  26.4152018229167 26.2276785714286  26.71142578125 26.25  L 26.796875 26.25  C 27.0817057291667 26.25  27.3295084635417 26.1551339285714  27.540283203125 25.9654017857143  Z M 8.912353515625 3.68303571428571  C 8.519287109375 3.99553571428571  8.26009114583333 4.39732142857142  8.134765625 4.88839285714286  L 6.54541015625 11.7857142857143  L 4.28955078125 11.7857142857143  L 6.015625 4.40290178571429  C 6.23209635416667 3.42075892857143  6.73909505208333 2.61997767857143  7.53662109375 2.00055803571429  C 8.33414713541667 1.38113839285714  9.24560546875 1.07142857142857  10.27099609375 1.07142857142857  L 13.125 1.07142857142857  C 13.125 0.781249999999999  13.2332356770833 0.530133928571425  13.44970703125 0.318080357142858  C 13.6661783854167 0.106026785714288  13.9225260416667 0  14.21875 0  L 20.78125 0  C 21.0774739583333 0  21.3338216145833 0.106026785714288  21.55029296875 0.318080357142858  C 21.7667643229167 0.530133928571425  21.875 0.781249999999999  21.875 1.07142857142857  L 24.72900390625 1.07142857142857  C 25.75439453125 1.07142857142857  26.6658528645833 1.38113839285714  27.46337890625 2.00055803571429  C 28.2609049479167 2.61997767857143  28.7679036458333 3.42075892857143  28.984375 4.40290178571429  L 30.71044921875 11.7857142857143  L 28.45458984375 11.7857142857143  L 26.865234375 4.88839285714286  C 26.7399088541667 4.39732142857142  26.480712890625 3.99553571428571  26.087646484375 3.68303571428571  C 25.694580078125 3.37053571428571  25.24169921875 3.21428571428571  24.72900390625 3.21428571428571  L 21.875 3.21428571428571  C 21.875 3.50446428571428  21.7667643229167 3.75558035714286  21.55029296875 3.96763392857143  C 21.3338216145833 4.1796875  21.0774739583333 4.28571428571429  20.78125 4.28571428571429  L 14.21875 4.28571428571429  C 13.9225260416667 4.28571428571429  13.6661783854167 4.1796875  13.44970703125 3.96763392857143  C 13.2332356770833 3.75558035714286  13.125 3.50446428571428  13.125 3.21428571428571  L 10.27099609375 3.21428571428571  C 9.75830078125 3.21428571428571  9.305419921875 3.37053571428571  8.912353515625 3.68303571428571  Z " fill-rule="nonzero" fill="#ffffff" stroke="none" transform="matrix(1 0 0 1 96 743 )" />
  </g>
</svg>