<?xml version="1.0" encoding="utf-8"?>
<svg version="1.1" xmlns:xlink="http://www.w3.org/1999/xlink" width="18px" height="16px" xmlns="http://www.w3.org/2000/svg">
  <g transform="matrix(1 0 0 1 -44 -742 )">
    <path d="M 13.1986607142857 2.89567068843151  C 13.828125 3.78897563283653  14.1428571428571 4.76176957653182  14.1428571428571 5.81405251951739  C 14.1428571428571 6.86633546250296  13.828125 7.83912940619825  13.1986607142857 8.73243435060327  C 12.5691964285714 9.62573929500828  11.7103794642857 10.3316773125148  10.6222098214286 10.8502484031228  C 9.53404017857143 11.3688194937308  8.35044642857143 11.6281050390348  7.07142857142857 11.6281050390348  C 6.49553571428572 11.6281050390348  5.90625 11.5675419919565  5.30357142857143 11.4464158977999  C 4.47321428571429 12.1126094156612  3.54241071428571 12.5971137922877  2.51116071428571 12.8999290276792  C 2.27008928571429 12.9680624556423  1.98214285714286 13.0286255027206  1.64732142857143 13.0816181689141  L 1.6171875 13.0816181689141  C 1.54352678571429 13.0816181689141  1.47488839285714 13.051336645375  1.41127232142857 12.9907735982967  C 1.34765625 12.9302105512184  1.30915178571429 12.8507215519281  1.29575892857143 12.7523066004258  C 1.2890625 12.7295954577715  1.28571428571429 12.7049917198959  1.28571428571429 12.6784953867991  C 1.28571428571429 12.6519990537024  1.28738839285714 12.6273953158268  1.29073660714286 12.6046841731725  C 1.29408482142857 12.5819730305181  1.30078125 12.5592618878637  1.31082589285714 12.5365507452094  L 1.3359375 12.4797728885735  C 1.3359375 12.4797728885735  1.34765625 12.4589543411403  1.37109375 12.417317246274  C 1.39453125 12.3756801514076  1.40792410714286 12.3567541991956  1.41127232142857 12.360539389638  C 1.41462053571429 12.3643245800804  1.4296875 12.3453986278685  1.45647321428571 12.3037615330021  C 1.48325892857143 12.2621244381358  1.49665178571429 12.245091081145  1.49665178571429 12.2526614620298  C 1.53013392857143 12.2072391767211  1.60714285714286 12.1126094156612  1.72767857142857 11.9687721788502  C 1.84821428571429 11.8249349420393  1.93526785714286 11.7132718239886  1.98883928571429 11.6337828246984  C 2.04241071428571 11.5542938254081  2.11774553571429 11.4445233025787  2.21484375 11.3044712562101  C 2.31194196428571 11.1644192098415  2.39564732142857 11.0186893778093  2.46595982142857 10.8672817601136  C 2.53627232142857 10.7158741424178  2.60491071428571 10.5493257629524  2.671875 10.3676366217175  C 1.84151785714286 9.82256919801278  1.18861607142857 9.15259048970901  0.713169642857143 8.35770049680625  C 0.237723214285714 7.56281050390348  0 6.71492784480719  0 5.81405251951739  C 0 4.76176957653182  0.314732142857143 3.78897563283653  0.944196428571429 2.89567068843151  C 1.57366071428571 2.00236574402649  2.43247767857143 1.29642772651999  3.52064732142857 0.777856635911995  C 4.60881696428571 0.259285545303998  5.79241071428572 0  7.07142857142857 0  C 8.35044642857143 0  9.53404017857143 0.259285545303998  10.6222098214286 0.777856635911995  C 11.7103794642857 1.29642772651999  12.5691964285714 2.00236574402649  13.1986607142857 2.89567068843151  Z M 17.2466517857143 6.10929737402413  C 17.7488839285714 6.91932812869647  18 7.78992193044713  18 8.72107877927608  C 18 9.62952448545067  17.7622767857143 10.4792997397682  17.2868303571429 11.2704045422285  C 16.8113839285714 12.0615093446889  16.1584821428571 12.7295954577715  15.328125 13.2746628814762  C 15.3950892857143 13.4563520227111  15.4637276785714 13.6229004021765  15.5340401785714 13.7743080198722  C 15.6043526785714 13.925715637568  15.6880580357143 14.0714454696002  15.78515625 14.2114975159688  C 15.8822544642857 14.3515495623374  15.9575892857143 14.4613200851668  16.0111607142857 14.5408090844571  C 16.0647321428571 14.6202980837473  16.1517857142857 14.731961201798  16.2723214285714 14.8757984386089  C 16.3928571428571 15.0196356754199  16.4698660714286 15.1142654364798  16.5033482142857 15.1596877217885  C 16.5100446428571 15.1672581026733  16.5234375 15.1842914596641  16.5435267857143 15.2107877927608  C 16.5636160714286 15.2372841258576  16.5786830357143 15.2562100780696  16.5887276785714 15.2675656493967  C 16.5987723214286 15.2789212207239  16.6121651785714 15.2978471729359  16.62890625 15.3243435060326  C 16.6456473214286 15.3508398391294  16.6573660714286 15.3716583865626  16.6640625 15.3867991483322  L 16.6891741071429 15.4435770049681  C 16.6891741071429 15.4435770049681  16.6958705357143 15.4662881476224  16.7092633928571 15.5117104329312  C 16.72265625 15.5571327182399  16.7243303571429 15.5817364561154  16.7142857142857 15.5855216465578  C 16.7042410714286 15.5893068370002  16.7008928571429 15.6139105748758  16.7042410714286 15.6593328601845  C 16.6841517857143 15.7653181925716  16.640625 15.8485923823042  16.5736607142857 15.9091554293825  C 16.5066964285714 15.9697184764608  16.4330357142857 15.9962148095576  16.3526785714286 15.9886444286728  C 16.0178571428571 15.9356517624793  15.7299107142857 15.875088715401  15.4888392857143 15.8069552874379  C 14.4575892857143 15.5041400520464  13.5267857142857 15.0196356754199  12.6964285714286 14.3534421575586  C 12.09375 14.4745682517152  11.5044642857143 14.5351312987935  10.9285714285714 14.5351312987935  C 9.11383928571429 14.5351312987935  7.53348214285714 14.0354861603974  6.1875 13.0361958836054  C 6.57589285714286 13.0664774071445  6.87053571428571 13.0816181689141  7.07142857142857 13.0816181689141  C 8.14955357142857 13.0816181689141  9.18415178571429 12.9112845990064  10.1752232142857 12.5706174591909  C 11.1662946428571 12.2299503193754  12.0502232142857 11.7416607523066  12.8270089285714 11.1057487579844  C 13.6640625 10.4092737165839  14.3069196428571 9.60681334279631  14.7555803571429 8.69836763662172  C 15.2042410714286 7.78992193044713  15.4285714285714 6.82848355807901  15.4285714285714 5.81405251951739  C 15.4285714285714 5.23113319138869  15.3515625 4.65578424414478  15.1975446428571 4.08800567778566  C 16.0613839285714 4.62550272060563  16.7444196428571 5.29926661935179  17.2466517857143 6.10929737402413  Z " fill-rule="nonzero" fill="#ffffff" stroke="none" transform="matrix(1 0 0 1 44 742 )" />
  </g>
</svg>