<?xml version="1.0" encoding="utf-8"?>
<svg version="1.1" xmlns:xlink="http://www.w3.org/1999/xlink" width="50px" height="50px" xmlns="http://www.w3.org/2000/svg">
  <g transform="matrix(1 0 0 1 -26 -622 )">
    <path d="M 26 622  L 76 622  L 76 672  L 26 672  L 26 622  " fill-rule="nonzero" fill="#cccccc" stroke="none" />
    <path d="M 30 626  L 72 626  L 72 668  L 30 668  L 30 626  " fill-rule="nonzero" fill="#ffffff" stroke="none" />
    <path d="M 55.75 637  C 53.65 637  52 635.35  52 633.25  C 52 631.15  53.65 629.5  55.75 629.5  C 57.85 629.5  59.5 631.15  59.5 633.25  C 59.5 635.35  57.85 637  55.75 637  " fill-rule="nonzero" fill="#cccccc" stroke="none" />
    <path d="M 32 667  L 32 645.55  L 41.75 635.8  L 55.4 643.6  L 63.2 641.65  L 71 643.6  L 71 667  L 32 667  " fill-rule="nonzero" fill="#169bd5" stroke="none" />
  </g>
</svg>