<?xml version="1.0" encoding="utf-8"?>
<svg version="1.1" xmlns:xlink="http://www.w3.org/1999/xlink" width="20px" height="20px" xmlns="http://www.w3.org/2000/svg">
  <g transform="matrix(1 0 0 1 -346 -96 )">
    <path d="M 14.12109375 14.12109375  C 14.8198784722222 13.4223090277778  15.3081597222222 12.6041666666667  15.5859375 11.6666666666667  L 14.1666666666667 11.6666666666667  C 13.9409722222222 11.6666666666667  13.7456597222222 11.5842013888889  13.5807291666667 11.4192708333333  C 13.4157986111111 11.2543402777778  13.3333333333333 11.0590277777778  13.3333333333333 10.8333333333333  L 13.3333333333333 9.16666666666667  C 13.3333333333333 8.94097222222222  13.4157986111111 8.74565972222222  13.5807291666667 8.58072916666667  C 13.7456597222222 8.41579861111111  13.9409722222222 8.33333333333333  14.1666666666667 8.33333333333333  L 15.5859375 8.33333333333333  C 15.3081597222222 7.39583333333333  14.8198784722222 6.57769097222222  14.12109375 5.87890625  C 13.4223090277778 5.18012152777778  12.6041666666667 4.69184027777778  11.6666666666667 4.4140625  L 11.6666666666667 5.83333333333333  C 11.6666666666667 6.05902777777778  11.5842013888889 6.25434027777778  11.4192708333333 6.41927083333333  C 11.2543402777778 6.58420138888889  11.0590277777778 6.66666666666667  10.8333333333333 6.66666666666667  L 9.16666666666669 6.66666666666667  C 8.94097222222223 6.66666666666667  8.74565972222223 6.58420138888889  8.58072916666669 6.41927083333333  C 8.41579861111109 6.25434027777778  8.33333333333331 6.05902777777778  8.33333333333331 5.83333333333333  L 8.33333333333331 4.4140625  C 7.39583333333331 4.69184027777778  6.57769097222223 5.18012152777778  5.87890625 5.87890625  C 5.18012152777777 6.57769097222222  4.69184027777777 7.39583333333333  4.4140625 8.33333333333333  L 5.83333333333331 8.33333333333333  C 6.05902777777777 8.33333333333333  6.25434027777777 8.41579861111111  6.41927083333331 8.58072916666667  C 6.58420138888891 8.74565972222222  6.66666666666669 8.94097222222222  6.66666666666669 9.16666666666667  L 6.66666666666669 10.8333333333333  C 6.66666666666669 11.0590277777778  6.58420138888891 11.2543402777778  6.41927083333331 11.4192708333333  C 6.25434027777777 11.5842013888889  6.05902777777777 11.6666666666667  5.83333333333331 11.6666666666667  L 4.4140625 11.6666666666667  C 4.69184027777777 12.6041666666667  5.18012152777777 13.4223090277778  5.87890625 14.12109375  C 6.57769097222223 14.8198784722222  7.39583333333331 15.3081597222222  8.33333333333331 15.5859375  L 8.33333333333331 14.1666666666667  C 8.33333333333331 13.9409722222222  8.41579861111109 13.7456597222222  8.58072916666669 13.5807291666667  C 8.74565972222223 13.4157986111111  8.94097222222223 13.3333333333333  9.16666666666669 13.3333333333333  L 10.8333333333333 13.3333333333333  C 11.0590277777778 13.3333333333333  11.2543402777778 13.4157986111111  11.4192708333333 13.5807291666667  C 11.5842013888889 13.7456597222222  11.6666666666667 13.9409722222222  11.6666666666667 14.1666666666667  L 11.6666666666667 15.5859375  C 12.6041666666667 15.3081597222222  13.4223090277778 14.8198784722222  14.12109375 14.12109375  Z M 19.7526041666667 8.58072916666667  C 19.9175347222222 8.74565972222222  20 8.94097222222222  20 9.16666666666667  L 20 10.8333333333333  C 20 11.0590277777778  19.9175347222222 11.2543402777778  19.7526041666667 11.4192708333333  C 19.5876736111111 11.5842013888889  19.3923611111111 11.6666666666667  19.1666666666667 11.6666666666667  L 17.3046875 11.6666666666667  C 16.9835069444445 13.0642361111111  16.3129340277778 14.2730034722222  15.29296875 15.29296875  C 14.2730034722222 16.3129340277778  13.0642361111111 16.9835069444444  11.6666666666667 17.3046875  L 11.6666666666667 19.1666666666667  C 11.6666666666667 19.3923611111111  11.5842013888889 19.5876736111111  11.4192708333333 19.7526041666667  C 11.2543402777778 19.9175347222222  11.0590277777778 20  10.8333333333333 20  L 9.16666666666669 20  C 8.94097222222223 20  8.74565972222223 19.9175347222222  8.58072916666669 19.7526041666667  C 8.41579861111109 19.5876736111111  8.33333333333331 19.3923611111111  8.33333333333331 19.1666666666667  L 8.33333333333331 17.3046875  C 6.93576388888891 16.9835069444444  5.72699652777777 16.3129340277778  4.70703125 15.29296875  C 3.68706597222223 14.2730034722222  3.01649305555554 13.0642361111111  2.6953125 11.6666666666667  L 0.833333333333314 11.6666666666667  C 0.607638888888914 11.6666666666667  0.412326388888914 11.5842013888889  0.247395833333314 11.4192708333333  C 0.0824652777777715 11.2543402777778  0 11.0590277777778  0 10.8333333333333  L 0 9.16666666666667  C 0 8.94097222222222  0.0824652777777715 8.74565972222222  0.247395833333314 8.58072916666667  C 0.412326388888914 8.41579861111111  0.607638888888914 8.33333333333333  0.833333333333314 8.33333333333333  L 2.6953125 8.33333333333333  C 3.01649305555554 6.93576388888889  3.68706597222223 5.72699652777778  4.70703125 4.70703125  C 5.72699652777777 3.68706597222222  6.93576388888891 3.01649305555555  8.33333333333331 2.6953125  L 8.33333333333331 0.833333333333336  C 8.33333333333331 0.607638888888886  8.41579861111109 0.412326388888886  8.58072916666669 0.247395833333336  C 8.74565972222223 0.0824652777777786  8.94097222222223 0  9.16666666666669 0  L 10.8333333333333 0  C 11.0590277777778 0  11.2543402777778 0.0824652777777786  11.4192708333333 0.247395833333336  C 11.5842013888889 0.412326388888886  11.6666666666667 0.607638888888886  11.6666666666667 0.833333333333336  L 11.6666666666667 2.6953125  C 13.0642361111111 3.01649305555555  14.2730034722222 3.68706597222222  15.29296875 4.70703125  C 16.3129340277778 5.72699652777778  16.9835069444445 6.93576388888889  17.3046875 8.33333333333333  L 19.1666666666667 8.33333333333333  C 19.3923611111111 8.33333333333333  19.5876736111111 8.41579861111111  19.7526041666667 8.58072916666667  Z " fill-rule="nonzero" fill="#0099ff" stroke="none" transform="matrix(1 0 0 1 346 96 )" />
  </g>
</svg>