<?xml version="1.0" encoding="utf-8"?>
<svg version="1.1" xmlns:xlink="http://www.w3.org/1999/xlink" width="17px" height="26px" xmlns="http://www.w3.org/2000/svg">
  <g transform="matrix(1 0 0 1 -254 -160 )">
    <path d="M 11.5048828125 11.73046875  C 12.3349609375 10.8841145833333  12.75 9.8628472222222  12.75 8.66666666666666  C 12.75 7.47048611111111  12.3349609375 6.44921875  11.5048828125 5.60286458333334  C 10.6748046875 4.75651041666666  9.67317708333331 4.33333333333334  8.5 4.33333333333334  C 7.32682291666669 4.33333333333334  6.3251953125 4.75651041666666  5.4951171875 5.60286458333334  C 4.6650390625 6.44921875  4.25 7.47048611111111  4.25 8.66666666666666  C 4.25 9.8628472222222  4.6650390625 10.8841145833333  5.4951171875 11.73046875  C 6.3251953125 12.5768229166667  7.32682291666669 13  8.5 13  C 9.67317708333331 13  10.6748046875 12.5768229166667  11.5048828125 11.73046875  Z M 14.509765625 2.5390625  C 16.169921875 4.23177083333334  17 6.27430555555554  17 8.66666666666666  C 17 9.89670138888889  16.8173828125 10.9066840277778  16.4521484375 11.6966145833333  L 10.4091796875 24.7981770833333  C 10.2320963541667 25.1705729166667  9.96923828125 25.4639756944445  9.62060546875 25.6783854166667  C 9.27197265625 25.8927951388889  8.8984375 26  8.5 26  C 8.1015625 26  7.72802734375 25.8927951388889  7.37939453125 25.6783854166667  C 7.03076171875 25.4639756944445  6.7734375 25.1705729166667  6.607421875 24.7981770833333  L 0.5478515625 11.6966145833333  C 0.1826171875 10.9066840277778  0 9.89670138888889  0 8.66666666666666  C 0 6.27430555555554  0.830078125 4.23177083333334  2.490234375 2.5390625  C 4.150390625 0.846354166666657  6.15364583333331 0  8.5 0  C 10.8463541666667 0  12.849609375 0.846354166666657  14.509765625 2.5390625  Z " fill-rule="nonzero" fill="#ff0000" stroke="none" transform="matrix(1 0 0 1 254 160 )" />
  </g>
</svg>