<?xml version="1.0" encoding="utf-8"?>
<svg version="1.1" xmlns:xlink="http://www.w3.org/1999/xlink" width="15px" height="15px" xmlns="http://www.w3.org/2000/svg">
  <g transform="matrix(1 0 0 1 -170 -23 )">
    <path d="M 8.42075892857143 6.76339285714286  C 8.62165178571428 6.55691964285714  8.72209821428572 6.26395089285714  8.72209821428572 5.88448660714286  C 8.72209821428572 5.39341517857143  8.5546875 5.05580357142857  8.21986607142857 4.87165178571429  C 8.03571428571428 4.77120535714286  7.70926339285714 4.72098214285714  7.24051339285714 4.72098214285714  L 6.2109375 4.72098214285714  L 6.2109375 7.07310267857143  L 7.56696428571429 7.07310267857143  C 7.93526785714286 7.07310267857143  8.21986607142857 6.96986607142857  8.42075892857143 6.76339285714286  Z M 9.08203125 8.13616071428572  C 9.11551339285714 8.19196428571428  9.140625 8.23660714285714  9.15736607142857 8.27008928571428  L 10.8733258928571 11.3922991071429  C 10.91796875 11.4871651785714  10.9151785714286 11.5736607142857  10.8649553571429 11.6517857142857  C 10.8203125 11.7410714285714  10.7449776785714 11.7857142857143  10.6389508928571 11.7857142857143  L 9.36662946428572 11.7857142857143  C 9.25502232142857 11.7857142857143  9.17689732142857 11.73828125  9.13225446428572 11.6434151785714  L 7.50837053571429 8.58816964285714  L 6.2109375 8.58816964285714  L 6.2109375 11.5178571428571  C 6.2109375 11.5959821428571  6.18582589285714 11.66015625  6.13560267857143 11.7103794642857  C 6.08537946428571 11.7606026785714  6.02120535714286 11.7857142857143  5.94308035714286 11.7857142857143  L 4.82142857142857 11.7857142857143  C 4.74330357142857 11.7857142857143  4.67912946428571 11.7606026785714  4.62890625 11.7103794642857  C 4.57868303571429 11.66015625  4.55357142857143 11.5959821428571  4.55357142857143 11.5178571428571  L 4.55357142857143 3.48214285714286  C 4.55357142857143 3.40401785714286  4.57868303571429 3.33984375  4.62890625 3.28962053571429  C 4.67912946428571 3.23939732142857  4.74330357142857 3.21428571428571  4.82142857142857 3.21428571428571  L 7.28236607142857 3.21428571428571  C 7.99665178571429 3.21428571428571  8.52678571428572 3.28125  8.87276785714286 3.41517857142857  C 9.34709821428572 3.58816964285714  9.72098214285714 3.89229910714286  9.99441964285714 4.32756696428571  C 10.2678571428571 4.76283482142857  10.4045758928571 5.26506696428571  10.4045758928571 5.83426339285714  C 10.4045758928571 6.34765625  10.2859933035714 6.80943080357143  10.048828125 7.21958705357143  C 9.81166294642857 7.62974330357143  9.48939732142857 7.93526785714286  9.08203125 8.13616071428572  Z M 9.89397321428572 1.82896205357143  C 9.13504464285714 1.50251116071429  8.33705357142857 1.33928571428571  7.5 1.33928571428571  C 6.66294642857143 1.33928571428571  5.86495535714286 1.50251116071429  5.10602678571429 1.82896205357143  C 4.34709821428571 2.15541294642857  3.69280133928571 2.59347098214286  3.14313616071429 3.14313616071429  C 2.59347098214286 3.69280133928571  2.15541294642857 4.34709821428571  1.82896205357143 5.10602678571429  C 1.50251116071429 5.86495535714286  1.33928571428571 6.66294642857143  1.33928571428571 7.5  C 1.33928571428571 8.33705357142857  1.50251116071429 9.13504464285714  1.82896205357143 9.89397321428572  C 2.15541294642857 10.6529017857143  2.59347098214286 11.3071986607143  3.14313616071429 11.8568638392857  C 3.69280133928571 12.4065290178571  4.34709821428571 12.8445870535714  5.10602678571429 13.1710379464286  C 5.86495535714286 13.4974888392857  6.66294642857143 13.6607142857143  7.5 13.6607142857143  C 8.33705357142857 13.6607142857143  9.13504464285714 13.4974888392857  9.89397321428572 13.1710379464286  C 10.6529017857143 12.8445870535714  11.3071986607143 12.4065290178571  11.8568638392857 11.8568638392857  C 12.4065290178571 11.3071986607143  12.8445870535714 10.6529017857143  13.1710379464286 9.89397321428572  C 13.4974888392857 9.13504464285714  13.6607142857143 8.33705357142857  13.6607142857143 7.5  C 13.6607142857143 6.66294642857143  13.4974888392857 5.86495535714286  13.1710379464286 5.10602678571429  C 12.8445870535714 4.34709821428571  12.4065290178571 3.69280133928571  11.8568638392857 3.14313616071429  C 11.3071986607143 2.59347098214286  10.6529017857143 2.15541294642857  9.89397321428572 1.82896205357143  Z M 14.4056919642857 4.58705357142857  C 14.8018973214286 5.51339285714286  15 6.484375  15 7.5  C 15 8.515625  14.8018973214286 9.48660714285714  14.4056919642857 10.4129464285714  C 14.0094866071429 11.3392857142857  13.4765625 12.1372767857143  12.8069196428571 12.8069196428571  C 12.1372767857143 13.4765625  11.3392857142857 14.0094866071429  10.4129464285714 14.4056919642857  C 9.48660714285714 14.8018973214286  8.515625 15  7.5 15  C 6.484375 15  5.51339285714286 14.8018973214286  4.58705357142857 14.4056919642857  C 3.66071428571429 14.0094866071429  2.86272321428571 13.4765625  2.19308035714286 12.8069196428571  C 1.5234375 12.1372767857143  0.990513392857143 11.3392857142857  0.594308035714286 10.4129464285714  C 0.198102678571429 9.48660714285714  0 8.515625  0 7.5  C 0 6.484375  0.198102678571429 5.51339285714286  0.594308035714286 4.58705357142857  C 0.990513392857143 3.66071428571428  1.5234375 2.86272321428571  2.19308035714286 2.19308035714286  C 2.86272321428571 1.5234375  3.66071428571429 0.990513392857142  4.58705357142857 0.594308035714285  C 5.51339285714286 0.198102678571428  6.484375 0  7.5 0  C 8.515625 0  9.48660714285714 0.198102678571428  10.4129464285714 0.594308035714285  C 11.3392857142857 0.990513392857142  12.1372767857143 1.5234375  12.8069196428571 2.19308035714286  C 13.4765625 2.86272321428571  14.0094866071429 3.66071428571428  14.4056919642857 4.58705357142857  Z " fill-rule="nonzero" fill="#ffffff" stroke="none" transform="matrix(1 0 0 1 170 23 )" />
  </g>
</svg>