<?xml version="1.0" encoding="utf-8"?>
<svg version="1.1" xmlns:xlink="http://www.w3.org/1999/xlink" width="14px" height="12px" xmlns="http://www.w3.org/2000/svg">
  <g transform="matrix(1 0 0 1 -273 -24 )">
    <path d="M 0 2.57142857142857  L 7 0  L 14 2.57142857142857  L 14 3.42857142857143  L 13.0666666666667 3.42857142857143  C 13.0666666666667 3.54464285714286  13.0168402777778 3.64508928571429  12.9171875 3.72991071428571  C 12.8175347222222 3.81473214285714  12.6996527777778 3.85714285714286  12.5635416666667 4  L 1.43645833333333 4  C 1.30034722222222 3.85714285714286  1.18246527777778 3.81473214285714  1.0828125 3.72991071428571  C 0.983159722222222 3.64508928571429  0.933333333333333 3.54464285714286  0.933333333333333 3.42857142857143  L 0 3.42857142857143  L 0 2.57142857142857  Z M 1.86666666666667 9.42857142857143  L 1.86666666666667 4.28571428571428  L 3.73333333333333 4.28571428571428  L 3.73333333333333 9.42857142857143  L 4.66666666666667 9.42857142857143  L 4.66666666666667 4.28571428571428  L 6.53333333333333 4.28571428571428  L 6.53333333333333 9.42857142857143  L 7.46666666666667 9.42857142857143  L 7.46666666666667 4.28571428571428  L 9.33333333333333 4.28571428571428  L 9.33333333333333 9.42857142857143  L 10.2666666666667 9.42857142857143  L 10.2666666666667 4.28571428571428  L 12.1333333333333 4.28571428571428  L 12.1333333333333 9.42857142857143  L 12.5635416666667 9.42857142857143  C 12.6996527777778 9.42857142857143  12.8175347222222 9.47098214285714  12.9171875 9.55580357142857  C 13.0168402777778 9.640625  13.0666666666667 9.74107142857143  13.0666666666667 9.85714285714286  L 13.0666666666667 10.2857142857143  L 0.933333333333333 10.2857142857143  L 0.933333333333333 9.85714285714286  C 0.933333333333333 9.74107142857143  0.983159722222222 9.640625  1.0828125 9.55580357142857  C 1.18246527777778 9.47098214285714  1.30034722222222 9.42857142857143  1.43645833333333 9.42857142857143  L 1.86666666666667 9.42857142857143  Z M 0.503125 10.7142857142857  L 13.496875 10.7142857142857  C 13.6329861111111 10.7142857142857  13.7508680555556 10.7566964285714  13.8505208333333 10.8415178571429  C 13.9501736111111 10.9263392857143  14 11.0267857142857  14 11.1428571428571  L 14 12  L 0 12  L 0 11.1428571428571  C 0 11.0267857142857  0.0498263888888889 10.9263392857143  0.149479166666667 10.8415178571429  C 0.249131944444444 10.7566964285714  0.367013888888889 10.7142857142857  0.503125 10.7142857142857  Z " fill-rule="nonzero" fill="#ffffff" stroke="none" transform="matrix(1 0 0 1 273 24 )" />
  </g>
</svg>