<?xml version="1.0" encoding="utf-8"?>
<svg version="1.1" xmlns:xlink="http://www.w3.org/1999/xlink" width="12px" height="13px" xmlns="http://www.w3.org/2000/svg">
  <g transform="matrix(1 0 0 1 -68 -24 )">
    <path d="M 9.03125 0.493303571428572  L 11.46875 2.75669642857143  C 11.6145833333333 2.89211309523809  11.7395833333333 3.07589285714286  11.84375 3.30803571428571  C 11.9479166666667 3.54017857142857  12 3.75297619047619  12 3.94642857142857  L 12 12.3035714285714  C 12 12.4970238095238  11.9270833333333 12.6614583333333  11.78125 12.796875  C 11.6354166666667 12.9322916666667  11.4583333333333 13  11.25 13  L 0.75 13  C 0.541666666666667 13  0.364583333333333 12.9322916666667  0.21875 12.796875  C 0.0729166666666667 12.6614583333333  0 12.4970238095238  0 12.3035714285714  L 0 0.696428571428572  C 0 0.50297619047619  0.0729166666666667 0.338541666666666  0.21875 0.203125  C 0.364583333333333 0.0677083333333338  0.541666666666667 0  0.75 0  L 7.75 0  C 7.95833333333333 0  8.1875 0.0483630952380958  8.4375 0.145089285714286  C 8.6875 0.241815476190476  8.88541666666667 0.357886904761904  9.03125 0.493303571428572  Z M 8.3203125 1.14620535714286  C 8.2578125 1.08816964285714  8.15104166666667 1.03497023809524  8 0.986607142857142  L 8 3.71428571428571  L 10.9375 3.71428571428571  C 10.8854166666667 3.57403273809524  10.828125 3.47488839285714  10.765625 3.41685267857143  L 8.3203125 1.14620535714286  Z M 1 12  L 11 12  L 11 4.64285714285714  L 7.75 4.64285714285714  C 7.54166666666667 4.64285714285714  7.36458333333333 4.57514880952381  7.21875 4.43973214285714  C 7.07291666666667 4.30431547619048  7 4.13988095238095  7 3.94642857142857  L 7 0.928571428571428  L 1 0.928571428571428  L 1 12  Z M 3 6.26785714285714  L 3 5.80357142857143  C 3 5.73586309523809  3.0234375 5.68024553571429  3.0703125 5.63671875  C 3.1171875 5.59319196428571  3.17708333333333 5.57142857142857  3.25 5.57142857142857  L 8.75 5.57142857142857  C 8.82291666666667 5.57142857142857  8.8828125 5.59319196428571  8.9296875 5.63671875  C 8.9765625 5.68024553571429  9 5.73586309523809  9 5.80357142857143  L 9 6.26785714285714  C 9 6.33556547619048  8.9765625 6.39118303571429  8.9296875 6.43470982142857  C 8.8828125 6.47823660714286  8.82291666666667 6.5  8.75 6.5  L 3.25 6.5  C 3.17708333333333 6.5  3.1171875 6.47823660714286  3.0703125 6.43470982142857  C 3.0234375 6.39118303571429  3 6.33556547619048  3 6.26785714285714  Z M 3.25 7.42857142857143  L 8.75 7.42857142857143  C 8.82291666666667 7.42857142857143  8.8828125 7.45033482142857  8.9296875 7.49386160714286  C 8.9765625 7.53738839285714  9 7.59300595238095  9 7.66071428571429  L 9 8.125  C 9 8.19270833333333  8.9765625 8.24832589285714  8.9296875 8.29185267857143  C 8.8828125 8.33537946428571  8.82291666666667 8.35714285714286  8.75 8.35714285714286  L 3.25 8.35714285714286  C 3.17708333333333 8.35714285714286  3.1171875 8.33537946428571  3.0703125 8.29185267857143  C 3.0234375 8.24832589285714  3 8.19270833333333  3 8.125  L 3 7.66071428571429  C 3 7.59300595238095  3.0234375 7.53738839285714  3.0703125 7.49386160714286  C 3.1171875 7.45033482142857  3.17708333333333 7.42857142857143  3.25 7.42857142857143  Z M 3.25 9.28571428571429  L 8.75 9.28571428571429  C 8.82291666666667 9.28571428571429  8.8828125 9.30747767857143  8.9296875 9.35100446428571  C 8.9765625 9.39453125  9 9.45014880952381  9 9.51785714285714  L 9 9.98214285714286  C 9 10.0498511904762  8.9765625 10.10546875  8.9296875 10.1489955357143  C 8.8828125 10.1925223214286  8.82291666666667 10.2142857142857  8.75 10.2142857142857  L 3.25 10.2142857142857  C 3.17708333333333 10.2142857142857  3.1171875 10.1925223214286  3.0703125 10.1489955357143  C 3.0234375 10.10546875  3 10.0498511904762  3 9.98214285714286  L 3 9.51785714285714  C 3 9.45014880952381  3.0234375 9.39453125  3.0703125 9.35100446428571  C 3.1171875 9.30747767857143  3.17708333333333 9.28571428571429  3.25 9.28571428571429  Z " fill-rule="nonzero" fill="#ffffff" stroke="none" transform="matrix(1 0 0 1 68 24 )" />
  </g>
</svg>