<?xml version="1.0" encoding="utf-8"?>
<svg version="1.1" xmlns:xlink="http://www.w3.org/1999/xlink" width="16px" height="16px" xmlns="http://www.w3.org/2000/svg">
  <g transform="matrix(1 0 0 1 -351 -148 )">
    <path d="M 5.71590909090909 6.09375  C 5.78409090909091 6.15625  5.81818181818182 6.23611111111111  5.81818181818182 6.33333333333333  L 5.81818181818182 12.3333333333333  C 5.81818181818182 12.4305555555556  5.78409090909091 12.5104166666667  5.71590909090909 12.5729166666667  C 5.64772727272727 12.6354166666667  5.56060606060606 12.6666666666667  5.45454545454545 12.6666666666667  L 4.72727272727273 12.6666666666667  C 4.62121212121212 12.6666666666667  4.53409090909091 12.6354166666667  4.46590909090909 12.5729166666667  C 4.39772727272727 12.5104166666667  4.36363636363636 12.4305555555556  4.36363636363636 12.3333333333333  L 4.36363636363636 6.33333333333333  C 4.36363636363636 6.23611111111111  4.39772727272727 6.15625  4.46590909090909 6.09375  C 4.53409090909091 6.03125  4.62121212121212 6  4.72727272727273 6  L 5.45454545454545 6  C 5.56060606060606 6  5.64772727272727 6.03125  5.71590909090909 6.09375  Z M 8.625 6.09375  C 8.69318181818182 6.15625  8.72727272727273 6.23611111111111  8.72727272727273 6.33333333333333  L 8.72727272727273 12.3333333333333  C 8.72727272727273 12.4305555555556  8.69318181818182 12.5104166666667  8.625 12.5729166666667  C 8.55681818181818 12.6354166666667  8.46969696969697 12.6666666666667  8.36363636363636 12.6666666666667  L 7.63636363636364 12.6666666666667  C 7.53030303030303 12.6666666666667  7.44318181818182 12.6354166666667  7.375 12.5729166666667  C 7.30681818181818 12.5104166666667  7.27272727272727 12.4305555555556  7.27272727272727 12.3333333333333  L 7.27272727272727 6.33333333333333  C 7.27272727272727 6.23611111111111  7.30681818181818 6.15625  7.375 6.09375  C 7.44318181818182 6.03125  7.53030303030303 6  7.63636363636364 6  L 8.36363636363636 6  C 8.46969696969697 6  8.55681818181818 6.03125  8.625 6.09375  Z M 11.5340909090909 6.09375  C 11.6022727272727 6.15625  11.6363636363636 6.23611111111111  11.6363636363636 6.33333333333333  L 11.6363636363636 12.3333333333333  C 11.6363636363636 12.4305555555556  11.6022727272727 12.5104166666667  11.5340909090909 12.5729166666667  C 11.4659090909091 12.6354166666667  11.3787878787879 12.6666666666667  11.2727272727273 12.6666666666667  L 10.5454545454545 12.6666666666667  C 10.4393939393939 12.6666666666667  10.3522727272727 12.6354166666667  10.2840909090909 12.5729166666667  C 10.2159090909091 12.5104166666667  10.1818181818182 12.4305555555556  10.1818181818182 12.3333333333333  L 10.1818181818182 6.33333333333333  C 10.1818181818182 6.23611111111111  10.2159090909091 6.15625  10.2840909090909 6.09375  C 10.3522727272727 6.03125  10.4393939393939 6  10.5454545454545 6  L 11.2727272727273 6  C 11.3787878787879 6  11.4659090909091 6.03125  11.5340909090909 6.09375  Z M 13.0113636363636 14.296875  C 13.0643939393939 14.1684027777778  13.0909090909091 14.0277777777778  13.0909090909091 13.875  L 13.0909090909091 4  L 2.90909090909091 4  L 2.90909090909091 13.875  C 2.90909090909091 14.0277777777778  2.93560606060606 14.1684027777778  2.98863636363636 14.296875  C 3.04166666666667 14.4253472222222  3.09659090909091 14.5190972222222  3.15340909090909 14.578125  C 3.21022727272727 14.6371527777778  3.25 14.6666666666667  3.27272727272727 14.6666666666667  L 12.7272727272727 14.6666666666667  C 12.75 14.6666666666667  12.7897727272727 14.6371527777778  12.8465909090909 14.578125  C 12.9034090909091 14.5190972222222  12.9583333333333 14.4253472222222  13.0113636363636 14.296875  Z M 6.01136363636364 1.44791666666667  L 5.45454545454545 2.66666666666667  L 10.5454545454545 2.66666666666667  L 10 1.44791666666667  C 9.9469696969697 1.38541666666667  9.88257575757576 1.34722222222222  9.80681818181818 1.33333333333333  L 6.20454545454545 1.33333333333333  C 6.12878787878788 1.34722222222222  6.06439393939394 1.38541666666667  6.01136363636364 1.44791666666667  Z M 15.8977272727273 2.76041666666667  C 15.9659090909091 2.82291666666667  16 2.90277777777778  16 3  L 16 3.66666666666667  C 16 3.76388888888889  15.9659090909091 3.84375  15.8977272727273 3.90625  C 15.8295454545455 3.96875  15.7424242424242 4  15.6363636363636 4  L 14.5454545454545 4  L 14.5454545454545 13.875  C 14.5454545454545 14.4513888888889  14.3674242424242 14.9496527777778  14.0113636363636 15.3697916666667  C 13.655303030303 15.7899305555556  13.2272727272727 16  12.7272727272727 16  L 3.27272727272727 16  C 2.77272727272727 16  2.34469696969697 15.796875  1.98863636363636 15.390625  C 1.63257575757576 14.984375  1.45454545454545 14.4930555555556  1.45454545454545 13.9166666666667  L 1.45454545454545 4  L 0.363636363636364 4  C 0.257575757575758 4  0.170454545454545 3.96875  0.102272727272727 3.90625  C 0.0340909090909091 3.84375  0 3.76388888888889  0 3.66666666666667  L 0 3  C 0 2.90277777777778  0.0340909090909091 2.82291666666667  0.102272727272727 2.76041666666667  C 0.170454545454545 2.69791666666667  0.257575757575758 2.66666666666667  0.363636363636364 2.66666666666667  L 3.875 2.66666666666667  L 4.67045454545455 0.927083333333334  C 4.78409090909091 0.670138888888888  4.98863636363636 0.451388888888888  5.28409090909091 0.270833333333334  C 5.57954545454546 0.0902777777777768  5.87878787878788 0  6.18181818181818 0  L 9.81818181818182 0  C 10.1212121212121 0  10.4204545454545 0.0902777777777768  10.7159090909091 0.270833333333334  C 11.0113636363636 0.451388888888888  11.2159090909091 0.670138888888888  11.3295454545455 0.927083333333334  L 12.125 2.66666666666667  L 15.6363636363636 2.66666666666667  C 15.7424242424242 2.66666666666667  15.8295454545455 2.69791666666667  15.8977272727273 2.76041666666667  Z " fill-rule="nonzero" fill="#555555" stroke="none" transform="matrix(1 0 0 1 351 148 )" />
  </g>
</svg>