<?xml version="1.0" encoding="utf-8"?>
<svg version="1.1" xmlns:xlink="http://www.w3.org/1999/xlink" width="20px" height="18px" xmlns="http://www.w3.org/2000/svg">
  <g>
    <path d="M 8.77403846153846 10.3039772727273  C 9.07852564102564 10.6278409090909  9.23076923076923 11.0113636363636  9.23076923076923 11.4545454545455  L 9.23076923076923 16.3636363636364  C 9.23076923076923 16.8068181818182  9.07852564102564 17.1903409090909  8.77403846153846 17.5142045454545  C 8.46955128205128 17.8380681818182  8.10897435897436 18  7.69230769230769 18  L 1.53846153846154 18  C 1.12179487179487 18  0.761217948717949 17.8380681818182  0.456730769230769 17.5142045454545  C 0.15224358974359 17.1903409090909  0 16.8068181818182  0 16.3636363636364  L 0 11.4545454545455  C 0 11.0113636363636  0.15224358974359 10.6278409090909  0.456730769230769 10.3039772727273  C 0.761217948717949 9.98011363636364  1.12179487179487 9.81818181818182  1.53846153846154 9.81818181818182  L 7.69230769230769 9.81818181818182  C 8.10897435897436 9.81818181818182  8.46955128205128 9.98011363636364  8.77403846153846 10.3039772727273  Z M 8.77403846153846 0.485795454545454  C 9.07852564102564 0.80965909090909  9.23076923076923 1.19318181818182  9.23076923076923 1.63636363636364  L 9.23076923076923 6.54545454545455  C 9.23076923076923 6.98863636363636  9.07852564102564 7.37215909090909  8.77403846153846 7.69602272727273  C 8.46955128205128 8.01988636363636  8.10897435897436 8.18181818181818  7.69230769230769 8.18181818181818  L 1.53846153846154 8.18181818181818  C 1.12179487179487 8.18181818181818  0.761217948717949 8.01988636363636  0.456730769230769 7.69602272727273  C 0.15224358974359 7.37215909090909  0 6.98863636363636  0 6.54545454545455  L 0 1.63636363636364  C 0 1.19318181818182  0.15224358974359 0.80965909090909  0.456730769230769 0.485795454545454  C 0.761217948717949 0.161931818181817  1.12179487179487 0  1.53846153846154 0  L 7.69230769230769 0  C 8.10897435897436 0  8.46955128205128 0.161931818181817  8.77403846153846 0.485795454545454  Z M 19.5432692307692 10.3039772727273  C 19.8477564102564 10.6278409090909  20 11.0113636363636  20 11.4545454545455  L 20 16.3636363636364  C 20 16.8068181818182  19.8477564102564 17.1903409090909  19.5432692307692 17.5142045454545  C 19.2387820512821 17.8380681818182  18.8782051282051 18  18.4615384615385 18  L 12.3076923076923 18  C 11.8910256410256 18  11.5304487179487 17.8380681818182  11.2259615384615 17.5142045454545  C 10.9214743589744 17.1903409090909  10.7692307692308 16.8068181818182  10.7692307692308 16.3636363636364  L 10.7692307692308 11.4545454545455  C 10.7692307692308 11.0113636363636  10.9214743589744 10.6278409090909  11.2259615384615 10.3039772727273  C 11.5304487179487 9.98011363636364  11.8910256410256 9.81818181818182  12.3076923076923 9.81818181818182  L 18.4615384615385 9.81818181818182  C 18.8782051282051 9.81818181818182  19.2387820512821 9.98011363636364  19.5432692307692 10.3039772727273  Z M 19.5432692307692 0.485795454545454  C 19.8477564102564 0.80965909090909  20 1.19318181818182  20 1.63636363636364  L 20 6.54545454545455  C 20 6.98863636363636  19.8477564102564 7.37215909090909  19.5432692307692 7.69602272727273  C 19.2387820512821 8.01988636363636  18.8782051282051 8.18181818181818  18.4615384615385 8.18181818181818  L 12.3076923076923 8.18181818181818  C 11.8910256410256 8.18181818181818  11.5304487179487 8.01988636363636  11.2259615384615 7.69602272727273  C 10.9214743589744 7.37215909090909  10.7692307692308 6.98863636363636  10.7692307692308 6.54545454545455  L 10.7692307692308 1.63636363636364  C 10.7692307692308 1.19318181818182  10.9214743589744 0.80965909090909  11.2259615384615 0.485795454545454  C 11.5304487179487 0.161931818181817  11.8910256410256 0  12.3076923076923 0  L 18.4615384615385 0  C 18.8782051282051 0  19.2387820512821 0.161931818181817  19.5432692307692 0.485795454545454  Z " fill-rule="nonzero" fill="#555555" stroke="none" />
  </g>
</svg>