<?xml version="1.0" encoding="utf-8"?>
<svg version="1.1" xmlns:xlink="http://www.w3.org/1999/xlink" width="20px" height="18px" xmlns="http://www.w3.org/2000/svg">
  <g>
    <path d="M 5.40178571428571 13.4488636363636  C 5.61011904761905 13.6875  5.71428571428571 13.9772727272727  5.71428571428571 14.3181818181818  L 5.71428571428571 16.7727272727273  C 5.71428571428571 17.1136363636364  5.61011904761905 17.4034090909091  5.40178571428571 17.6420454545455  C 5.19345238095238 17.8806818181818  4.94047619047619 18  4.64285714285714 18  L 1.07142857142857 18  C 0.773809523809524 18  0.520833333333333 17.8806818181818  0.3125 17.6420454545455  C 0.104166666666667 17.4034090909091  0 17.1136363636364  0 16.7727272727273  L 0 14.3181818181818  C 0 13.9772727272727  0.104166666666667 13.6875  0.3125 13.4488636363636  C 0.520833333333333 13.2102272727273  0.773809523809524 13.0909090909091  1.07142857142857 13.0909090909091  L 4.64285714285714 13.0909090909091  C 4.94047619047619 13.0909090909091  5.19345238095238 13.2102272727273  5.40178571428571 13.4488636363636  Z M 5.40178571428571 6.90340909090909  C 5.61011904761905 7.14204545454545  5.71428571428571 7.43181818181818  5.71428571428571 7.77272727272727  L 5.71428571428571 10.2272727272727  C 5.71428571428571 10.5681818181818  5.61011904761905 10.8579545454545  5.40178571428571 11.0965909090909  C 5.19345238095238 11.3352272727273  4.94047619047619 11.4545454545455  4.64285714285714 11.4545454545455  L 1.07142857142857 11.4545454545455  C 0.773809523809524 11.4545454545455  0.520833333333333 11.3352272727273  0.3125 11.0965909090909  C 0.104166666666667 10.8579545454545  0 10.5681818181818  0 10.2272727272727  L 0 7.77272727272727  C 0 7.43181818181818  0.104166666666667 7.14204545454545  0.3125 6.90340909090909  C 0.520833333333333 6.66477272727273  0.773809523809524 6.54545454545455  1.07142857142857 6.54545454545455  L 4.64285714285714 6.54545454545455  C 4.94047619047619 6.54545454545455  5.19345238095238 6.66477272727273  5.40178571428571 6.90340909090909  Z M 19.6875 13.4488636363636  C 19.8958333333333 13.6875  20 13.9772727272727  20 14.3181818181818  L 20 16.7727272727273  C 20 17.1136363636364  19.8958333333333 17.4034090909091  19.6875 17.6420454545455  C 19.4791666666667 17.8806818181818  19.2261904761905 18  18.9285714285714 18  L 8.21428571428571 18  C 7.91666666666667 18  7.66369047619048 17.8806818181818  7.45535714285714 17.6420454545455  C 7.24702380952381 17.4034090909091  7.14285714285714 17.1136363636364  7.14285714285714 16.7727272727273  L 7.14285714285714 14.3181818181818  C 7.14285714285714 13.9772727272727  7.24702380952381 13.6875  7.45535714285714 13.4488636363636  C 7.66369047619048 13.2102272727273  7.91666666666667 13.0909090909091  8.21428571428571 13  L 18.9285714285714 13  C 19.2261904761905 13.0909090909091  19.4791666666667 13.2102272727273  19.6875 13.4488636363636  Z M 5.40178571428571 0.357954545454546  C 5.61011904761905 0.596590909090908  5.71428571428571 0.886363636363636  5.71428571428571 1.22727272727273  L 5.71428571428571 3.68181818181818  C 5.71428571428571 4.02272727272727  5.61011904761905 4.3125  5.40178571428571 4.55113636363636  C 5.19345238095238 4.78977272727273  4.94047619047619 4.90909090909091  4.64285714285714 4.90909090909091  L 1.07142857142857 4.90909090909091  C 0.773809523809524 4.90909090909091  0.520833333333333 4.78977272727273  0.3125 4.55113636363636  C 0.104166666666667 4.3125  0 4.02272727272727  0 3.68181818181818  L 0 1.22727272727273  C 0 0.886363636363636  0.104166666666667 0.596590909090908  0.3125 0.357954545454546  C 0.520833333333333 0.119318181818181  0.773809523809524 0  1.07142857142857 0  L 4.64285714285714 0  C 4.94047619047619 0  5.19345238095238 0.119318181818181  5.40178571428571 0.357954545454546  Z M 19.6875 6.90340909090909  C 19.8958333333333 7.14204545454545  20 7.43181818181818  20 7.77272727272727  L 20 10.2272727272727  C 20 10.5681818181818  19.8958333333333 10.8579545454545  19.6875 11.0965909090909  C 19.4791666666667 11.3352272727273  19.2261904761905 11.4545454545455  18.9285714285714 11.4545454545455  L 8.21428571428571 11.4545454545455  C 7.91666666666667 11.4545454545455  7.66369047619048 11.3352272727273  7.45535714285714 11.0965909090909  C 7.24702380952381 10.8579545454545  7.14285714285714 10.5681818181818  7.14285714285714 10.2272727272727  L 7.14285714285714 7.77272727272727  C 7.14285714285714 7.43181818181818  7.24702380952381 7.14204545454545  7.45535714285714 6.90340909090909  C 7.66369047619048 6.66477272727273  7.91666666666667 6.54545454545455  8.21428571428571 6.54545454545455  L 18.9285714285714 6.54545454545455  C 19.2261904761905 6.54545454545455  19.4791666666667 6.66477272727273  19.6875 6.90340909090909  Z M 19.6875 0.357954545454546  C 19.8958333333333 0.596590909090908  20 0.886363636363636  20 1.22727272727273  L 20 3.68181818181818  C 20 4.02272727272727  19.8958333333333 4.3125  19.6875 4.55113636363636  C 19.4791666666667 4.78977272727273  19.2261904761905 4.90909090909091  18.9285714285714 5  L 8.21428571428571 5  C 7.91666666666667 4.90909090909091  7.66369047619048 4.78977272727273  7.45535714285714 4.55113636363636  C 7.24702380952381 4.3125  7.14285714285714 4.02272727272727  7.14285714285714 3.68181818181818  L 7.14285714285714 1.22727272727273  C 7.14285714285714 0.886363636363636  7.24702380952381 0.596590909090908  7.45535714285714 0.357954545454546  C 7.66369047619048 0.119318181818181  7.91666666666667 0  8.21428571428571 0  L 18.9285714285714 0  C 19.2261904761905 0  19.4791666666667 0.119318181818181  19.6875 0.357954545454546  Z " fill-rule="nonzero" fill="#555555" stroke="none" />
  </g>
</svg>