<?xml version="1.0" encoding="utf-8"?>
<svg version="1.1" xmlns:xlink="http://www.w3.org/1999/xlink" width="17px" height="8px" xmlns="http://www.w3.org/2000/svg">
  <g transform="matrix(1 0 0 1 -236 -169 )">
    <path d="M 12.6219308035714 6.26736111111111  C 13.8899739583333 5.70486111111111  14.944568452381 4.94907407407407  15.7857142857143 4  C 14.8244047619048 2.90740740740741  13.6196056547619 2.09027777777778  12.1713169642857 1.54861111111111  C 12.5571056547619 2.03009259259259  12.75 2.55092592592593  12.75 3.11111111111111  C 12.75 3.96759259259259  12.3341703869048 4.70023148148148  11.5025111607143 5.30902777777778  C 10.6708519345238 5.91782407407407  9.67001488095238 6.22222222222222  8.5 6.22222222222222  C 7.32998511904762 6.22222222222222  6.32914806547619 5.91782407407407  5.49748883928571 5.30902777777778  C 4.66582961309524 4.70023148148148  4.25 3.96759259259259  4.25 3.11111111111111  C 4.25 2.55092592592593  4.4428943452381 2.03009259259259  4.82868303571429 1.54861111111111  C 3.3803943452381 2.09027777777778  2.17559523809524 2.90740740740741  1.21428571428571 4  C 2.05543154761905 4.94907407407407  3.11002604166667 5.70486111111111  4.37806919642857 6.26736111111111  C 5.64611235119048 6.82986111111111  7.02008928571429 7.11111111111111  8.5 7.11111111111111  C 9.97991071428571 7.11111111111111  11.3538876488095 6.82986111111111  12.6219308035714 6.26736111111111  Z M 8.82254464285714 1.56944444444444  C 8.91108630952381 1.50462962962963  8.95535714285714 1.42592592592593  8.95535714285714 1.33333333333333  C 8.95535714285714 1.24074074074074  8.91108630952381 1.16203703703704  8.82254464285714 1.09722222222222  C 8.73400297619048 1.03240740740741  8.62648809523809 0.999999999999999  8.5 1  C 7.70944940476191 0.999999999999999  7.03115699404762 1.20717592592593  6.46512276785714 1.62152777777778  C 5.89908854166667 2.03587962962963  5.61607142857143 2.53240740740741  5.61607142857143 3.11111111111111  C 5.61607142857143 3.2037037037037  5.66034226190476 3.28240740740741  5.74888392857143 3.34722222222222  C 5.8374255952381 3.41203703703704  5.94494047619048 3.44444444444444  6.07142857142857 3.44444444444444  C 6.19791666666667 3.44444444444444  6.30543154761905 3.41203703703704  6.39397321428571 3.34722222222222  C 6.48251488095238 3.28240740740741  6.52678571428571 3.2037037037037  6.52678571428571 3.11111111111111  C 6.52678571428571 2.71296296296296  6.71968005952381 2.37268518518519  7.10546875 2.09027777777778  C 7.49125744047619 1.80787037037037  7.95610119047619 1.66666666666667  8.5 1.66666666666667  C 8.62648809523809 1.66666666666667  8.73400297619048 1.63425925925926  8.82254464285714 1.56944444444444  Z M 16.8102678571429 3.52083333333333  C 16.936755952381 3.68287037037037  17 3.84259259259259  17 4  C 17 4.15740740740741  16.936755952381 4.31712962962963  16.8102678571429 4.47916666666667  C 15.9248511904762 5.54398148148148  14.7342819940476 6.39699074074074  13.2385602678571 7.03819444444444  C 11.7428385416667 7.67939814814815  10.163318452381 8  8.5 8  C 6.83668154761905 8  5.25716145833333 7.67824074074074  3.76143973214286 7.03472222222222  C 2.26571800595238 6.3912037037037  1.07514880952381 5.53935185185185  0.189732142857143 4.47916666666667  C 0.0632440476190476 4.31712962962963  0 4.15740740740741  0 4  C 0 3.84259259259259  0.0632440476190476 3.68287037037037  0.189732142857143 3.52083333333333  C 1.07514880952381 2.46064814814815  2.26571800595238 1.6087962962963  3.76143973214286 0.965277777777778  C 5.25716145833333 0.321759259259259  6.83668154761905 0  8.5 0  C 10.163318452381 0  11.7428385416667 0.321759259259259  13.2385602678571 0.965277777777778  C 14.7342819940476 1.6087962962963  15.9248511904762 2.46064814814815  16.8102678571429 3.52083333333333  Z " fill-rule="nonzero" fill="#7f7f7f" stroke="none" transform="matrix(1 0 0 1 236 169 )" />
  </g>
</svg>