<?xml version="1.0" encoding="utf-8"?>
<svg version="1.1" xmlns:xlink="http://www.w3.org/1999/xlink" width="19px" height="16px" xmlns="http://www.w3.org/2000/svg">
  <g transform="matrix(1 0 0 1 -10 -12 )">
    <path d="M 3.47767857142857 12.2727272727273  C 3.8735119047619 12.6969696969697  4.07142857142857 13.2121212121212  4.07142857142857 13.8181818181818  C 4.07142857142857 14.4242424242424  3.8735119047619 14.9393939393939  3.47767857142857 15.3636363636364  C 3.08184523809524 15.7878787878788  2.60119047619048 16  2.03571428571429 16  C 1.4702380952381 16  0.989583333333333 15.7878787878788  0.59375 15.3636363636364  C 0.197916666666667 14.9393939393939  0 14.4242424242424  0 13.8181818181818  C 0 13.2121212121212  0.197916666666667 12.6969696969697  0.59375 12.2727272727273  C 0.989583333333333 11.8484848484848  1.4702380952381 11.6363636363636  2.03571428571429 11.6363636363636  C 2.60119047619048 11.6363636363636  3.08184523809524 11.8484848484848  3.47767857142857 12.2727272727273  Z M 3.47767857142857 6.45454545454546  C 3.8735119047619 6.87878787878788  4.07142857142857 7.39393939393939  4.07142857142857 8  C 4.07142857142857 8.60606060606061  3.8735119047619 9.12121212121212  3.47767857142857 9.54545454545455  C 3.08184523809524 9.96969696969697  2.60119047619048 10.1818181818182  2.03571428571429 10.1818181818182  C 1.4702380952381 10.1818181818182  0.989583333333333 9.96969696969697  0.59375 9.54545454545455  C 0.197916666666667 9.12121212121212  0 8.60606060606061  0 8  C 0 7.39393939393939  0.197916666666667 6.87878787878788  0.59375 6.45454545454546  C 0.989583333333333 6.03030303030303  1.4702380952381 5.81818181818182  2.03571428571429 5.81818181818182  C 2.60119047619048 5.81818181818182  3.08184523809524 6.03030303030303  3.47767857142857 6.45454545454546  Z M 18.8992745535714 12.4715909090909  C 18.9664248511905 12.5435606060606  19 12.6287878787879  19 12.7272727272727  L 19 14.9090909090909  C 19 15.0075757575758  18.9664248511905 15.092803030303  18.8992745535714 15.1647727272727  C 18.8321242559524 15.2367424242424  18.7526041666667 15.2727272727273  18.6607142857143 15  L 5.76785714285714 15  C 5.67596726190476 15.2727272727273  5.59644717261905 15.2367424242424  5.529296875 15.1647727272727  C 5.46214657738095 15.092803030303  5.42857142857143 15.0075757575758  5.42857142857143 14.9090909090909  L 5.42857142857143 12.7272727272727  C 5.42857142857143 12.6287878787879  5.46214657738095 12.5435606060606  5.529296875 12.4715909090909  C 5.59644717261905 12.3996212121212  5.67596726190476 12.3636363636364  5.76785714285714 12.3636363636364  L 18.6607142857143 12.3636363636364  C 18.7526041666667 12.3636363636364  18.8321242559524 12.3996212121212  18.8992745535714 12.4715909090909  Z M 3.47767857142857 0.636363636363637  C 3.8735119047619 1.06060606060606  4.07142857142857 1.57575757575757  4.07142857142857 2.18181818181818  C 4.07142857142857 2.78787878787879  3.8735119047619 3.3030303030303  3.47767857142857 3.72727272727273  C 3.08184523809524 4.15151515151515  2.60119047619048 4.36363636363636  2.03571428571429 4.36363636363636  C 1.4702380952381 4.36363636363636  0.989583333333333 4.15151515151515  0.59375 3.72727272727273  C 0.197916666666667 3.3030303030303  0 2.78787878787879  0 2.18181818181818  C 0 1.57575757575757  0.197916666666667 1.06060606060606  0.59375 0.636363636363637  C 0.989583333333333 0.212121212121211  1.4702380952381 0  2.03571428571429 0  C 2.60119047619048 0  3.08184523809524 0.212121212121211  3.47767857142857 0.636363636363637  Z M 18.8992745535714 6.65340909090909  C 18.9664248511905 6.72537878787879  19 6.81060606060606  19 6.90909090909091  L 19 9.09090909090909  C 19 9.18939393939394  18.9664248511905 9.27462121212121  18.8992745535714 9.34659090909091  C 18.8321242559524 9.41856060606061  18.7526041666667 9.45454545454545  18.6607142857143 9.45454545454545  L 5.76785714285714 9.45454545454545  C 5.67596726190476 9.45454545454545  5.59644717261905 9.41856060606061  5.529296875 9.34659090909091  C 5.46214657738095 9.27462121212121  5.42857142857143 9.18939393939394  5.42857142857143 9.09090909090909  L 5.42857142857143 6.90909090909091  C 5.42857142857143 6.81060606060606  5.46214657738095 6.72537878787879  5.529296875 6.65340909090909  C 5.59644717261905 6.58143939393939  5.67596726190476 6.54545454545454  5.76785714285714 6.54545454545454  L 18.6607142857143 6.54545454545454  C 18.7526041666667 6.54545454545454  18.8321242559524 6.58143939393939  18.8992745535714 6.65340909090909  Z M 18.8992745535714 0.835227272727273  C 18.9664248511905 0.907196969696969  19 0.992424242424242  19 1.09090909090909  L 19 3.27272727272727  C 19 3.37121212121212  18.9664248511905 3.45643939393939  18.8992745535714 3.52840909090909  C 18.8321242559524 3.60037878787879  18.7526041666667 3.63636363636364  18.6607142857143 3.63636363636364  L 5.76785714285714 3.63636363636364  C 5.67596726190476 3.63636363636364  5.59644717261905 3.60037878787879  5.529296875 3.52840909090909  C 5.46214657738095 3.45643939393939  5.42857142857143 3.37121212121212  5.42857142857143 3.27272727272727  L 5.42857142857143 1.09090909090909  C 5.42857142857143 0.992424242424242  5.46214657738095 0.907196969696969  5.529296875 0.835227272727273  C 5.59644717261905 0.763257575757574  5.67596726190476 0.727272727272727  5.76785714285714 1  L 18.6607142857143 1  C 18.7526041666667 0.727272727272727  18.8321242559524 0.763257575757574  18.8992745535714 0.835227272727273  Z " fill-rule="nonzero" fill="#ffffff" stroke="none" transform="matrix(1 0 0 1 10 12 )" />
  </g>
</svg>