<?xml version="1.0" encoding="utf-8"?>
<svg version="1.1" xmlns:xlink="http://www.w3.org/1999/xlink" width="20px" height="20px" xmlns="http://www.w3.org/2000/svg">
  <g transform="matrix(1 0 0 1 -291 -117 )">
    <path d="M 12.3567708333334 12.3567708333333  C 13.0078125 11.7057291666667  13.3333333333334 10.9201388888889  13.3333333333334 10  C 13.3333333333334 9.07986111111111  13.0078125 8.29427083333334  12.3567708333334 7.64322916666666  C 11.7057291666666 6.9921875  10.9201388888889 6.66666666666666  10 6.66666666666666  C 9.07986111111114 6.66666666666666  8.29427083333337 6.9921875  7.64322916666663 7.64322916666666  C 6.9921875 8.29427083333334  6.66666666666663 9.07986111111111  6.66666666666663 10  C 6.66666666666663 10.9201388888889  6.9921875 11.7057291666667  7.64322916666663 12.3567708333333  C 8.29427083333337 13.0078125  9.07986111111114 13.3333333333333  10 13.3333333333333  C 10.9201388888889 13.3333333333333  11.7057291666666 13.0078125  12.3567708333334 12.3567708333333  Z M 19.8958333333334 8.27473958333334  C 19.9652777777778 8.36588541666666  20 8.46788194444444  20 8.58072916666666  L 20 11.4713541666667  C 20 11.5755208333333  19.9652777777778 11.6753472222222  19.8958333333334 11.7708333333333  C 19.8263888888889 11.8663194444444  19.7395833333334 11.9227430555556  19.6354166666666 11.9401041666667  L 17.2265625 12.3046875  C 17.0616319444445 12.7734375  16.8923611111111 13.1684027777778  16.71875 13.4895833333333  C 17.0225694444445 13.9236111111111  17.4869791666666 14.5225694444444  18.1119791666666 15.2864583333333  C 18.1987847222222 15.390625  18.2421875 15.4991319444444  18.2421875 15.6119791666667  C 18.2421875 15.7248263888889  18.203125 15.8246527777778  18.125 15.9114583333333  C 17.890625 16.2326388888889  17.4609375 16.7013888888889  16.8359375 17.3177083333333  C 16.2109375 17.9340277777778  15.8029513888889 18.2421875  15.6119791666666 18.2421875  C 15.5078125 18.2421875  15.3949652777778 18.203125  15.2734375 18.125  L 13.4765625 16.71875  C 13.0946180555555 16.9184027777778  12.6996527777778 17.0833333333333  12.2916666666666 17.2135416666667  C 12.1527777777778 18.3940972222222  12.0269097222222 19.2013888888889  11.9140625 19.6354166666667  C 11.8532986111111 19.8784722222222  11.6970486111111 20  11.4453125 20  L 8.5546875 20  C 8.43315972222223 20  8.32682291666663 19.9631076388889  8.23567708333337 19.8893229166667  C 8.14453125 19.8155381944444  8.09461805555554 19.7222222222222  8.0859375 19.609375  L 7.72135416666663 17.2135416666667  C 7.29600694444446 17.0746527777778  6.90538194444446 16.9140625  6.54947916666663 16.7317708333333  L 4.71354166666663 18.125  C 4.62673611111114 18.203125  4.51822916666663 18.2421875  4.38802083333337 18.2421875  C 4.26649305555554 18.2421875  4.15798611111114 18.1944444444444  4.0625 18.0989583333333  C 2.96875 17.109375  2.25260416666663 16.3802083333333  1.9140625 15.9114583333333  C 1.85329861111114 15.8246527777778  1.82291666666663 15.7248263888889  1.82291666666663 15.6119791666667  C 1.82291666666663 15.5078125  1.85763888888886 15.4079861111111  1.92708333333337 15.3125  C 2.05729166666663 15.1302083333333  2.27864583333337 14.8415798611111  2.59114583333337 14.4466145833333  C 2.90364583333337 14.0516493055556  3.13802083333337 13.7456597222222  3.29427083333337 13.5286458333333  C 3.05989583333337 13.0946180555556  2.88194444444446 12.6649305555556  2.76041666666663 12.2395833333333  L 0.377604166666629 11.8880208333333  C 0.264756944444457 11.8706597222222  0.173611111111143 11.81640625  0.104166666666629 11.7252604166667  C 0.0347222222222285 11.6341145833333  0 11.5321180555556  0 11.4192708333333  L 0 8.52864583333334  C 0 8.42447916666666  0.0347222222222285 8.32465277777779  0.104166666666629 8.22916666666666  C 0.173611111111143 8.13368055555556  0.256076388888857 8.07725694444444  0.3515625 8.05989583333334  L 2.7734375 7.6953125  C 2.89496527777777 7.29600694444444  3.06423611111114 6.89670138888889  3.28125 6.49739583333334  C 2.93402777777777 6.00260416666666  2.46961805555554 5.40364583333334  1.88802083333337 4.70052083333334  C 1.80121527777777 4.59635416666666  1.7578125 4.4921875  1.7578125 4.38802083333334  C 1.7578125 4.30121527777779  1.796875 4.20138888888889  1.875 4.08854166666666  C 2.10069444444446 3.77604166666666  2.52821180555554 3.30946180555556  3.15755208333337 2.68880208333334  C 3.78689236111114 2.06814236111111  4.19704861111114 1.7578125  4.38802083333337 1.7578125  C 4.50086805555554 1.7578125  4.61371527777777 1.80121527777779  4.7265625 1.88802083333334  L 6.5234375 3.28125  C 6.90538194444446 3.08159722222221  7.30034722222223 2.91666666666666  7.70833333333337 2.78645833333334  C 7.84722222222223 1.60590277777779  7.97309027777777 0.798611111111114  8.0859375 0.364583333333343  C 8.14670138888886 0.121527777777786  8.30295138888886 0  8.5546875 0  L 11.4453125 0  C 11.5668402777778 0  11.6731770833334 0.0368923611111143  11.7643229166666 0.110677083333343  C 11.85546875 0.184461805555557  11.9053819444445 0.277777777777786  11.9140625 0.390625  L 12.2786458333334 2.78645833333334  C 12.7039930555555 2.92534722222221  13.0946180555555 3.0859375  13.4505208333334 3.26822916666666  L 15.2994791666666 1.875  C 15.3776041666666 1.796875  15.4817708333334 1.7578125  15.6119791666666 1.7578125  C 15.7248263888889 1.7578125  15.8333333333334 1.80121527777779  15.9375 1.88802083333334  C 17.0572916666666 2.92100694444444  17.7734375 3.65885416666666  18.0859375 4.1015625  C 18.1467013888889 4.17100694444444  18.1770833333334 4.26649305555556  18.1770833333334 4.38802083333334  C 18.1770833333334 4.4921875  18.1423611111111 4.59201388888889  18.0729166666666 4.6875  C 17.9427083333334 4.86979166666666  17.7213541666666 5.15842013888889  17.4088541666666 5.55338541666666  C 17.0963541666666 5.94835069444444  16.8619791666666 6.25434027777779  16.7057291666666 6.47135416666666  C 16.9314236111111 6.90538194444444  17.109375 7.33072916666666  17.2395833333334 7.74739583333334  L 19.6223958333334 8.11197916666666  C 19.7352430555555 8.12934027777779  19.8263888888889 8.18359375  19.8958333333334 8.27473958333334  Z " fill-rule="nonzero" fill="#0099ff" stroke="none" transform="matrix(1 0 0 1 291 117 )" />
  </g>
</svg>