<?xml version="1.0" encoding="utf-8"?>
<svg version="1.1" xmlns:xlink="http://www.w3.org/1999/xlink" width="20px" height="16px" xmlns="http://www.w3.org/2000/svg">
  <g transform="matrix(1 0 0 1 -10 -12 )">
    <path d="M 8 10  L 8 11.2  L 12 11.2  L 12 10  L 10.6666666666667 10  L 10.6666666666667 4.4  L 9.47916666666667 4.4  L 7.9375 6.1125  L 8.73958333333333 7.1125  C 9.03125 6.80416666666667  9.22222222222222 6.56666666666667  9.3125 6.4  L 9.33333333333333 6.4  L 9.33333333333333 10  L 8 10  Z M 13.1145833333333 6.225  C 13.2604166666667 6.825  13.3333333333333 7.41666666666667  13.3333333333333 8  C 13.3333333333333 8.58333333333333  13.2604166666667 9.175  13.1145833333333 9.775  C 12.96875 10.375  12.7621527777778 10.9333333333333  12.4947916666667 11.45  C 12.2274305555556 11.9666666666667  11.875 12.3875  11.4375 12.7125  C 11 13.0375  10.5208333333333 13.2  10 13.2  C 9.47916666666667 13.2  9 13.0375  8.5625 12.7125  C 8.125 12.3875  7.77256944444444 11.9666666666667  7.50520833333333 11.45  C 7.23784722222222 10.9333333333333  7.03125 10.375  6.88541666666667 9.775  C 6.73958333333333 9.175  6.66666666666667 8.58333333333333  6.66666666666667 8  C 6.66666666666667 7.41666666666667  6.73958333333333 6.825  6.88541666666667 6.225  C 7.03125 5.625  7.23784722222222 5.06666666666667  7.50520833333333 4.55  C 7.77256944444444 4.03333333333333  8.125 3.6125  8.5625 3.2875  C 9 2.9625  9.47916666666667 2.8  10 2.8  C 10.5208333333333 2.8  11 2.9625  11.4375 3.2875  C 11.875 3.6125  12.2274305555556 4.03333333333333  12.4947916666667 4.55  C 12.7621527777778 5.06666666666667  12.96875 5.625  13.1145833333333 6.225  Z M 16.78125 12.1375  C 17.3020833333333 11.5125  17.9305555555556 11.2  18.6666666666667 11.2  L 18.6666666666667 4.8  C 17.9305555555556 4.8  17.3020833333333 4.4875  16.78125 3.8625  C 16.2604166666667 3.2375  16 2.48333333333333  16 1.6  L 4 1.6  C 4 2.48333333333333  3.73958333333333 3.2375  3.21875 3.8625  C 2.69791666666667 4.4875  2.06944444444444 4.8  1.33333333333333 4.8  L 1.33333333333333 11.2  C 2.06944444444444 11.2  2.69791666666667 11.5125  3.21875 12.1375  C 3.73958333333333 12.7625  4 13.5166666666667  4 14.4  L 16 14.4  C 16 13.5166666666667  16.2604166666667 12.7625  16.78125 12.1375  Z M 19.8020833333333 0.237500000000001  C 19.9340277777778 0.395833333333332  20 0.583333333333332  20 0.800000000000001  L 20 15.2  C 20 15.4166666666667  19.9340277777778 15.6041666666667  19.8020833333333 15.7625  C 19.6701388888889 15.9208333333333  19.5138888888889 16  19.3333333333333 16  L 0.666666666666667 16  C 0.486111111111111 16  0.329861111111111 15.9208333333333  0.197916666666667 15.7625  C 0.0659722222222222 15.6041666666667  0 15.4166666666667  0 15.2  L 0 0.800000000000001  C 0 0.583333333333332  0.0659722222222222 0.395833333333332  0.197916666666667 0.237500000000001  C 0.329861111111111 0.0791666666666657  0.486111111111111 0  0.666666666666667 0  L 19.3333333333333 0  C 19.5138888888889 0  19.6701388888889 0.0791666666666657  19.8020833333333 0.237500000000001  Z " fill-rule="nonzero" fill="#ffffff" stroke="none" transform="matrix(1 0 0 1 10 12 )" />
  </g>
</svg>