<?xml version="1.0" encoding="utf-8"?>
<svg version="1.1" xmlns:xlink="http://www.w3.org/1999/xlink" width="18px" height="18px" xmlns="http://www.w3.org/2000/svg">
  <g transform="matrix(1 0 0 1 -11 -11 )">
    <path d="M 17.3942307692308 6.45368620037807  C 17.7980769230769 6.52173913043478  18 6.69565217391304  18 6.97542533081285  C 18 7.14177693761815  17.90625 7.32325141776937  17.71875 7.51984877126654  L 13.7920673076923 11.5349716446125  L 14.7223557692308 17.2060491493384  C 14.7295673076923 17.2589792060492  14.7331730769231 17.3345935727788  14.7331730769231 17.4328922495274  C 14.7331730769231 17.5916824196597  14.6953125 17.7258979206049  14.6195913461538 17.8355387523629  C 14.5438701923077 17.945179584121  14.4338942307692 18  14.2896634615385 18  C 14.1526442307692 18  14.0084134615385 17.9546313799622  13.8569711538462 17.8638941398866  L 9 15.187145557656  L 4.14302884615385 17.8638941398866  C 3.984375 17.9546313799622  3.84014423076923 18  3.71033653846154 18  C 3.55889423076923 18  3.4453125 17.945179584121  3.36959134615385 17.8355387523629  C 3.29387019230769 17.7258979206049  3.25600961538462 17.5916824196597  3.25600961538462 17.4328922495274  C 3.25600961538462 17.3875236294896  3.26322115384615 17.3119092627599  3.27764423076923 17.2060491493384  L 4.20793269230769 11.5349716446125  L 0.270432692307692 7.51984877126654  C 0.0901442307692308 7.31568998109641  0 7.13421550094518  0 6.97542533081285  C 0 6.69565217391304  0.201923076923077 6.52173913043478  0.605769230769231 6.45368620037807  L 6.03605769230769 5.62570888468809  L 8.46995192307692 0.465028355387523  C 8.60697115384616 0.15500945179584  8.78365384615385 0  9 0  C 9.21634615384615 0  9.39302884615385 0.15500945179584  9.53004807692308 0.465028355387523  L 11.9639423076923 5.62570888468809  L 17.3942307692308 6.45368620037807  Z " fill-rule="nonzero" fill="#ffffff" stroke="none" transform="matrix(1 0 0 1 11 11 )" />
  </g>
</svg>