<?xml version="1.0" encoding="utf-8"?>
<svg version="1.1" xmlns:xlink="http://www.w3.org/1999/xlink" width="18px" height="15px" xmlns="http://www.w3.org/2000/svg">
  <g transform="matrix(1 0 0 1 -11 -13 )">
    <path d="M 8.39461883408072 11.25  L 8.95964125560538 11.25  L 10.1300448430493 10.0142045454545  L 8.59641255605381 8.39488636363636  L 7.42600896860987 9.63068181818182  L 7.42600896860987 10.2272727272727  L 8.39461883408072 10.2272727272727  L 8.39461883408072 11.25  Z M 13.3890134529148 3.93110795454545  C 13.5033632286996 3.81036931818182  13.5067264573991 3.69318181818182  13.3991031390135 3.57954545454545  C 13.2914798206278 3.46590909090909  13.1804932735426 3.46946022727273  13.0661434977578 3.59019886363636  L 9.5347533632287 7.31889204545454  C 9.42040358744395 7.43963068181818  9.41704035874439 7.55681818181818  9.52466367713004 7.67045454545454  C 9.6322869955157 7.78409090909091  9.7432735426009 7.78053977272727  9.85762331838565 7.65980113636364  L 13.3890134529148 3.93110795454545  Z M 14.0044843049327 9.59872159090909  C 14.1390134529148 9.65553977272727  14.2062780269058 9.75852272727273  14.2062780269058 9.90767045454546  L 14.2062780269058 11.9318181818182  C 14.2062780269058 12.7769886363636  13.9220852017937 13.4996448863636  13.3536995515695 14.0997869318182  C 12.7853139013453 14.6999289772727  12.1008968609865 15  11.3004484304933 15  L 2.90582959641256 15  C 2.10538116591928 15  1.42096412556054 14.6999289772727  0.852578475336323 14.0997869318182  C 0.284192825112108 13.4996448863636  0 12.7769886363636  0 11.9318181818182  L 0 3.06818181818182  C 0 2.22301136363636  0.284192825112108 1.50035511363636  0.852578475336323 0.900213068181819  C 1.42096412556054 0.300071022727271  2.10538116591928 0  2.90582959641256 0  L 11.3004484304933 0  C 11.7242152466368 0  12.1177130044843 0.0887784090909083  12.4809417040359 0.266335227272727  C 12.5818385650224 0.316051136363635  12.6423766816143 0.397727272727272  12.6625560538117 0.511363636363636  C 12.682735426009 0.632102272727272  12.652466367713 0.735085227272727  12.5717488789238 0.8203125  L 12.0773542600897 1.34232954545455  C 11.9831838565022 1.44176136363636  11.8755605381166 1.47017045454545  11.7544843049327 1.42755681818182  C 11.5997757847534 1.38494318181818  11.4484304932735 1.36363636363636  11.3004484304933 1.36363636363636  L 2.90582959641256 1.36363636363636  C 2.46188340807175 1.36363636363636  2.08183856502242 1.53053977272727  1.76569506726457 1.86434659090909  C 1.44955156950673 2.19815340909091  1.2914798206278 2.59943181818182  1.2914798206278 3.06818181818182  L 1.2914798206278 11.9318181818182  C 1.2914798206278 12.4005681818182  1.44955156950673 12.8018465909091  1.76569506726457 13.1356534090909  C 2.08183856502242 13.4694602272727  2.46188340807175 13.6363636363636  2.90582959641256 13.6363636363636  L 11.3004484304933 13.6363636363636  C 11.7443946188341 13.6363636363636  12.1244394618834 13.4694602272727  12.4405829596413 13.1356534090909  C 12.7567264573991 12.8018465909091  12.914798206278 12.4005681818182  12.914798206278 11.9318181818182  L 12.914798206278 10.5894886363636  C 12.914798206278 10.4971590909091  12.945067264574 10.4190340909091  13.0056053811659 10.3551136363636  L 13.6513452914798 9.67329545454546  C 13.7522421524664 9.56676136363636  13.8699551569507 9.54190340909091  14.0044843049327 9.59872159090909  Z M 6.45739910313901 9.20454545454546  L 13.237668161435 2.04545454545455  L 16.1434977578475 5.11363636363636  L 9.36322869955157 12.2727272727273  L 6.45739910313901 12.2727272727273  L 6.45739910313901 9.20454545454546  Z M 18 2.72727272727273  C 18 3.01136363636364  17.9058295964126 3.25284090909091  17.7174887892377 3.45170454545455  L 16.7892376681614 4.43181818181818  L 13.8834080717489 1.36363636363636  L 14.8116591928251 0.383522727272727  C 15 0.184659090909089  15.2286995515695 0.0852272727272735  15.4977578475336 0.0852272727272735  C 15.7668161434978 0.0852272727272735  15.9955156950673 0.184659090909089  16.1838565022422 0.383522727272727  L 17.7174887892377 2.00284090909091  C 17.9058295964126 2.20170454545454  18 2.44318181818182  18 2.72727272727273  Z " fill-rule="nonzero" fill="#ffffff" stroke="none" transform="matrix(1 0 0 1 11 13 )" />
  </g>
</svg>