<?xml version="1.0" encoding="utf-8"?>
<svg version="1.1" xmlns:xlink="http://www.w3.org/1999/xlink" width="20px" height="18px" xmlns="http://www.w3.org/2000/svg">
  <g transform="matrix(1 0 0 1 -10 -11 )">
    <path d="M 9.01442307692308 2.255859375  C 9.25480769230769 2.861328125  9.375 3.453125  9.375 4.03125  C 9.375 4.5  9.29887820512821 4.943359375  9.14663461538461 5.361328125  C 8.99439102564103 5.779296875  8.74198717948718 6.140625  8.38942307692308 6.4453125  C 8.03685897435898 6.75  7.6161858974359 6.90234375  7.12740384615385 6.90234375  C 6.51842948717949 6.90234375  5.96554487179487 6.677734375  5.46875 6.228515625  C 4.97195512820513 5.779296875  4.60336538461539 5.25  4.36298076923077 4.640625  C 4.12259615384615 4.03125  4.00240384615385 3.44140625  4.00240384615385 2.87109375  C 4.00240384615385 2.40234375  4.07852564102564 1.958984375  4.23076923076923 1.541015625  C 4.38301282051282 1.123046875  4.63541666666667 0.761718750000001  4.98798076923077 0.45703125  C 5.34054487179487 0.152343749999999  5.76121794871795 0  6.25 0  C 6.86698717948718 0  7.421875 0.224609374999999  7.91466346153846 0.673828125000001  C 8.40745192307692 1.123046875  8.77403846153846 1.650390625  9.01442307692308 2.255859375  Z M 4.84375 7.904296875  C 5.12419871794872 8.517578125  5.26442307692308 9.11328125  5.26442307692308 9.69140625  C 5.26442307692308 10.31640625  5.09615384615385 10.859375  4.75961538461538 11.3203125  C 4.42307692307692 11.78125  3.9463141025641 12.01171875  3.32932692307692 12.01171875  C 2.72035256410256 12.01171875  2.15344551282051 11.794921875  1.62860576923077 11.361328125  C 1.10376602564103 10.927734375  0.701121794871795 10.40625  0.420673076923077 9.796875  C 0.140224358974359 9.1875  0 8.59375  0 8.015625  C 0 7.390625  0.168269230769231 6.845703125  0.504807692307692 6.380859375  C 0.841346153846154 5.916015625  1.31810897435897 5.68359375  1.93509615384615 5.68359375  C 2.54407051282051 5.68359375  3.11097756410256 5.900390625  3.63581730769231 6.333984375  C 4.16065705128205 6.767578125  4.56330128205128 7.291015625  4.84375 7.904296875  Z M 7.68028846153846 10.06640625  C 8.5136217948718 9.60546875  9.28685897435898 9.375  10 9.375  C 10.9455128205128 9.375  11.9671474358974 9.755859375  13.0649038461538 10.517578125  C 14.1626602564103 11.279296875  15.0801282051282 12.205078125  15.8173076923077 13.294921875  C 16.5544871794872 14.384765625  16.9230769230769 15.37890625  16.9230769230769 16.27734375  C 16.9230769230769 16.63671875  16.854967948718 16.935546875  16.71875 17.173828125  C 16.5825320512821 17.412109375  16.3882211538462 17.587890625  16.1358173076923 17.701171875  C 15.8834134615385 17.814453125  15.625 17.892578125  15.3605769230769 17.935546875  C 15.0961538461538 17.978515625  14.7916666666667 18  14.4471153846154 18  C 13.9022435897436 18  13.1510416666667 17.82421875  12.1935096153846 17.47265625  C 11.2359775641026 17.12109375  10.5048076923077 16.9453125  10 16.9453125  C 9.47115384615385 16.9453125  8.69991987179487 17.119140625  7.68629807692308 17.466796875  C 6.67267628205128 17.814453125  5.86939102564103 17.98828125  5.27644230769231 17.98828125  C 3.81009615384615 17.98828125  3.07692307692308 17.41796875  3.07692307692308 16.27734375  C 3.07692307692308 15.60546875  3.30128205128205 14.857421875  3.75 14.033203125  C 4.19871794871795 13.208984375  4.75761217948718 12.45703125  5.42668269230769 11.77734375  C 6.0957532051282 11.09765625  6.84695512820513 10.52734375  7.68028846153846 10.06640625  Z M 14.53125 6.228515625  C 14.0344551282051 6.677734375  13.4815705128205 6.90234375  12.8725961538462 6.90234375  C 12.3838141025641 6.90234375  11.963141025641 6.75  11.6105769230769 6.4453125  C 11.2580128205128 6.140625  11.005608974359 5.779296875  10.8533653846154 5.361328125  C 10.7011217948718 4.943359375  10.625 4.5  10.625 4.03125  C 10.625 3.453125  10.7451923076923 2.861328125  10.9855769230769 2.255859375  C 11.2259615384615 1.650390625  11.5925480769231 1.123046875  12.0853365384615 0.673828125000001  C 12.578125 0.224609374999999  13.1330128205128 0  13.75 0  C 14.2387820512821 0  14.6594551282051 0.152343749999999  15.0120192307692 0.45703125  C 15.3645833333333 0.761718750000001  15.6169871794872 1.123046875  15.7692307692308 1.541015625  C 15.9214743589744 1.958984375  15.9975961538462 2.40234375  15.9975961538462 2.87109375  C 15.9975961538462 3.44140625  15.8774038461538 4.03125  15.6370192307692 4.640625  C 15.3966346153846 5.25  15.0280448717949 5.779296875  14.53125 6.228515625  Z M 16.3641826923077 6.333984375  C 16.8890224358974 5.900390625  17.4559294871795 5.68359375  18.0649038461538 5.68359375  C 18.681891025641 5.68359375  19.1586538461538 5.916015625  19.4951923076923 6.380859375  C 19.8317307692308 6.845703125  20 7.390625  20 8.015625  C 20 8.59375  19.8597756410256 9.1875  19.5793269230769 9.796875  C 19.2988782051282 10.40625  18.896233974359 10.927734375  18.3713942307692 11.361328125  C 17.8465544871795 11.794921875  17.2796474358974 12.01171875  16.6706730769231 12.01171875  C 16.0536858974359 12.01171875  15.5769230769231 11.78125  15.2403846153846 11.3203125  C 14.9038461538462 10.859375  14.7355769230769 10.31640625  14.7355769230769 9.69140625  C 14.7355769230769 9.11328125  14.8758012820513 8.517578125  15.15625 7.904296875  C 15.4366987179487 7.291015625  15.839342948718 6.767578125  16.3641826923077 6.333984375  Z " fill-rule="nonzero" fill="#ffffff" stroke="none" transform="matrix(1 0 0 1 10 11 )" />
  </g>
</svg>