<?xml version="1.0" encoding="utf-8"?>
<svg version="1.1" xmlns:xlink="http://www.w3.org/1999/xlink" width="22px" height="20px" xmlns="http://www.w3.org/2000/svg">
  <g transform="matrix(1 0 0 1 -322 -117 )">
    <path d="M 7.39676339285714 7.15494791666667  C 7.70368303571429 7.48046875  7.85714285714286 7.87326388888889  7.85714285714286 8.33333333333333  C 7.85714285714286 8.79340277777778  7.70368303571429 9.18619791666667  7.39676339285714 9.51171875  C 7.08984375 9.83723958333333  6.71949404761905 10  6.28571428571429 10  C 5.85193452380952 10  5.48158482142857 9.83723958333333  5.17466517857143 9.51171875  C 4.86774553571429 9.18619791666667  4.71428571428571 8.79340277777778  4.71428571428571 8.33333333333333  C 4.71428571428571 7.87326388888889  4.86774553571429 7.48046875  5.17466517857143 7.15494791666667  C 5.48158482142857 6.82942708333333  5.85193452380952 6.66666666666667  6.28571428571429 6.66666666666667  C 6.71949404761905 6.66666666666667  7.08984375 6.82942708333333  7.39676339285714 7.15494791666667  Z M 12.1110491071429 7.15494791666667  C 12.41796875 7.48046875  12.5714285714286 7.87326388888889  12.5714285714286 8.33333333333333  C 12.5714285714286 8.79340277777778  12.41796875 9.18619791666667  12.1110491071429 9.51171875  C 11.8041294642857 9.83723958333333  11.4337797619048 10  11 10  C 10.5662202380952 10  10.1958705357143 9.83723958333333  9.88895089285714 9.51171875  C 9.58203125 9.18619791666667  9.42857142857143 8.79340277777778  9.42857142857143 8.33333333333333  C 9.42857142857143 7.87326388888889  9.58203125 7.48046875  9.88895089285714 7.15494791666667  C 10.1958705357143 6.82942708333333  10.5662202380952 6.66666666666667  11 6.66666666666667  C 11.4337797619048 6.66666666666667  11.8041294642857 6.82942708333333  12.1110491071429 7.15494791666667  Z M 16.8253348214286 7.15494791666667  C 17.1322544642857 7.48046875  17.2857142857143 7.87326388888889  17.2857142857143 8.33333333333333  C 17.2857142857143 8.79340277777778  17.1322544642857 9.18619791666667  16.8253348214286 9.51171875  C 16.5184151785714 9.83723958333333  16.1480654761905 10  15.7142857142857 10  C 15.280505952381 10  14.91015625 9.83723958333333  14.6032366071429 9.51171875  C 14.2963169642857 9.18619791666667  14.1428571428571 8.79340277777778  14.1428571428571 8.33333333333333  C 14.1428571428571 7.87326388888889  14.2963169642857 7.48046875  14.6032366071429 7.15494791666667  C 14.91015625 6.82942708333333  15.280505952381 6.66666666666667  15.7142857142857 6.66666666666667  C 16.1480654761905 6.66666666666667  16.5184151785714 6.82942708333333  16.8253348214286 7.15494791666667  Z M 15.68359375 2.57161458333333  C 14.2308407738095 1.96831597222222  12.6696428571429 1.66666666666667  11 1.66666666666667  C 9.33035714285714 1.66666666666667  7.76915922619048 1.96831597222222  6.31640625 2.57161458333333  C 4.86365327380952 3.17491319444444  3.70963541666667 3.98871527777778  2.85435267857143 5.01302083333333  C 1.99906994047619 6.03732638888889  1.57142857142857 7.14409722222222  1.57142857142857 8.33333333333333  C 1.57142857142857 9.30555555555556  1.86402529761905 10.2322048611111  2.44921875 11.11328125  C 3.03441220238095 11.9943576388889  3.85900297619048 12.7560763888889  4.92299107142857 13.3984375  L 5.99107142857143 14.0494791666667  L 5.65959821428571 15.2994791666667  C 5.46316964285714 16.0894097222222  5.17671130952381 16.8359375  4.80022321428571 17.5390625  C 6.04427083333333 16.9921875  7.16964285714286 16.25  8.17633928571428 15.3125  L 8.70424107142857 14.8177083333333  L 9.40401785714286 14.8958333333333  C 9.96875 14.9652777777778  10.500744047619 15  11 15  C 12.6696428571429 15  14.2308407738095 14.6983506944444  15.68359375 14.0950520833333  C 17.1363467261905 13.4917534722222  18.2903645833333 12.6779513888889  19.1456473214286 11.6536458333333  C 20.0009300595238 10.6293402777778  20.4285714285714 9.52256944444444  20.4285714285714 8.33333333333333  C 20.4285714285714 7.14409722222222  20.0009300595238 6.03732638888889  19.1456473214286 5.01302083333333  C 18.2903645833333 3.98871527777778  17.1363467261905 3.17491319444444  15.68359375 2.57161458333333  Z M 21.1283482142857 5.09765625  C 21.7094494047619 6.12630208333333  22 7.20486111111111  22 8.33333333333333  C 22 9.84375  21.5089285714286 11.2391493055556  20.5267857142857 12.51953125  C 19.5446428571429 13.7999131944444  18.2105654761905 14.8111979166667  16.5245535714286 15.5533854166667  C 14.8385416666667 16.2955729166667  12.9970238095238 16.6666666666667  11 16.6666666666667  C 10.4270833333333 16.6666666666667  9.83370535714286 16.6319444444444  9.21986607142857 16.5625  C 7.59933035714286 18.0815972222222  5.71688988095238 19.1319444444444  3.57254464285714 19.7135416666667  C 3.17150297619048 19.8350694444444  2.70498511904762 19.9305555555556  2.17299107142857 20  L 2.11160714285714 20  C 1.98883928571429 20  1.87834821428571 19.9544270833333  1.78013392857143 19.86328125  C 1.68191964285714 19.7721354166667  1.61644345238095 19.6527777777778  1.58370535714286 19.5052083333333  L 1.58370535714286 19.4921875  C 1.55915178571429 19.4574652777778  1.5571056547619 19.4053819444444  1.57756696428571 19.3359375  C 1.59802827380952 19.2664930555556  1.60621279761905 19.2230902777778  1.60212053571429 19.2057291666667  C 1.59802827380952 19.1883680555556  1.61644345238095 19.1471354166667  1.65736607142857 19.08203125  L 1.73102678571429 18.96484375  C 1.73102678571429 18.96484375  1.75967261904762 18.9279513888889  1.81696428571429 18.8541666666667  C 1.87425595238095 18.7803819444444  1.90699404761905 18.7413194444444  1.91517857142857 18.7369791666667  C 1.97247023809524 18.6675347222222  2.09933035714286 18.5177951388889  2.29575892857143 18.2877604166667  C 2.4921875 18.0577256944444  2.63337053571429 17.8927951388889  2.71930803571429 17.79296875  C 2.80524553571429 17.6931423611111  2.93210565476191 17.5217013888889  3.09988839285714 17.2786458333333  C 3.26767113095238 17.0355902777778  3.40066964285714 16.8142361111111  3.49888392857143 16.6145833333333  C 3.59709821428571 16.4149305555556  3.70758928571429 16.1588541666667  3.83035714285714 15.8463541666667  C 3.953125 15.5338541666667  4.05952380952381 15.2039930555556  4.14955357142857 14.8567708333333  C 2.86458333333333 14.0842013888889  1.85174851190476 13.1293402777778  1.11104910714286 11.9921875  C 0.370349702380952 10.8550347222222  0 9.63541666666667  0 8.33333333333333  C 0 7.20486111111111  0.290550595238095 6.12630208333333  0.871651785714286 5.09765625  C 1.45275297619048 4.06901041666667  2.234375 3.18142361111111  3.21651785714286 2.43489583333333  C 4.19866071428571 1.68836805555555  5.36904761904762 1.09592013888889  6.72767857142857 0.657552083333333  C 8.08630952380952 0.219184027777777  9.51041666666667 0  11 0  C 12.4895833333333 0  13.9136904761905 0.219184027777777  15.2723214285714 0.657552083333333  C 16.6309523809524 1.09592013888889  17.8013392857143 1.68836805555555  18.7834821428571 2.43489583333333  C 19.765625 3.18142361111111  20.5472470238095 4.06901041666667  21.1283482142857 5.09765625  Z " fill-rule="nonzero" fill="#0099ff" stroke="none" transform="matrix(1 0 0 1 322 117 )" />
  </g>
</svg>