<?xml version="1.0" encoding="utf-8"?>
<svg version="1.1" xmlns:xlink="http://www.w3.org/1999/xlink" width="24px" height="23px" xmlns="http://www.w3.org/2000/svg">
  <g transform="matrix(1 0 0 1 -40 -233 )">
    <path d="M 23.9403409090909 17.5719401041667  C 23.9801136363636 18.0760633680555  24 18.5926649305555  24 19.1217447916667  C 24 20.3196614583333  23.5852272727273 21.2655164930555  22.7556818181818 21.9593098958333  C 21.9261363636364 22.6531032986111  20.8238636363636 23  19.4488636363636 23  L 4.55113636363637 23  C 3.17613636363636 23  2.07386363636364 22.6531032986111  1.24431818181819 21.9593098958333  C 0.414772727272734 21.2655164930555  0 20.3196614583333  0 19.1217447916667  C 0 18.5926649305555  0.0198863636363598 18.0760633680555  0.0596590909090935 17.5719401041667  C 0.099431818181813 17.0678168402778  0.17897727272728 16.5237630208333  0.298295454545453 15.9397786458333  C 0.41761363636364 15.3557942708333  0.568181818181813 14.8142361111111  0.75 14.3151041666667  C 0.931818181818187 13.8159722222222  1.17613636363636 13.3293185763889  1.48295454545455 12.8551432291667  C 1.78977272727272 12.3809678819445  2.14204545454547 11.9766710069445  2.53977272727272 11.6422526041667  C 2.9375 11.3078342013889  3.42329545454545 11.0407986111111  3.99715909090909 10.8411458333333  C 4.57102272727272 10.6414930555555  5.20454545454545 10.5416666666667  5.89772727272728 10.5416666666667  C 6 10.5416666666667  6.23863636363637 10.6489800347222  6.61363636363637 10.8636067708333  C 6.98863636363637 11.0782335069445  7.41193181818181 11.3178168402778  7.88352272727272 11.5823567708333  C 8.35511363636364 11.8468967013889  8.96875000000001 12.0864800347222  9.72443181818183 12.3011067708333  C 10.4801136363636 12.5157335069445  11.2386363636364 12.623046875  12 12.623046875  C 12.7613636363636 12.623046875  13.5198863636364 12.5157335069445  14.2755681818182 12.3011067708333  C 15.03125 12.0864800347222  15.6448863636364 11.8468967013889  16.1164772727273 11.5823567708333  C 16.5880681818182 11.3178168402778  17.0113636363636 11.0782335069445  17.3863636363636 10.8636067708333  C 17.7613636363636 10.6489800347222  18 10.5416666666667  18.1022727272727 10.5416666666667  C 18.7954545454545 10.5416666666667  19.4289772727273 10.6414930555555  20.0028409090909 10.8411458333333  C 20.5767045454545 11.0407986111111  21.0625 11.3078342013889  21.4602272727273 11.6422526041667  C 21.8579545454545 11.9766710069445  22.2102272727273 12.3809678819445  22.5170454545455 12.8551432291667  C 22.8238636363636 13.3293185763889  23.0681818181818 13.8159722222222  23.25 14.3151041666667  C 23.4318181818182 14.8142361111111  23.5823863636364 15.3557942708333  23.7017045454545 15.9397786458333  C 23.8210227272727 16.5237630208333  23.9005681818182 17.0678168402778  23.9403409090909 17.5719401041667  Z M 16.6278409090909 1.6845703125  C 17.90625 2.8076171875  18.5454545454545 4.16276041666669  18.5454545454545 5.75  C 18.5454545454545 7.33723958333331  17.90625 8.6923828125  16.6278409090909 9.8154296875  C 15.3494318181818 10.9384765625  13.8068181818182 11.5  12 11.5  C 10.1931818181818 11.5  8.65056818181817 10.9384765625  7.37215909090909 9.8154296875  C 6.09375 8.6923828125  5.45454545454545 7.33723958333331  5.45454545454545 5.75  C 5.45454545454545 4.16276041666669  6.09375 2.8076171875  7.37215909090909 1.6845703125  C 8.65056818181817 0.5615234375  10.1931818181818 0  12 0  C 13.8068181818182 0  15.3494318181818 0.5615234375  16.6278409090909 1.6845703125  Z " fill-rule="nonzero" fill="#ffffff" stroke="none" transform="matrix(1 0 0 1 40 233 )" />
  </g>
</svg>