<?xml version="1.0" encoding="utf-8"?>
<svg version="1.1" xmlns:xlink="http://www.w3.org/1999/xlink" width="18px" height="14px" xmlns="http://www.w3.org/2000/svg">
  <g transform="matrix(1 0 0 1 -28 -410 )">
    <path d="M 4.86160714285714 10.4602272727273  C 5.04910714285715 10.6458333333333  5.14285714285714 10.8712121212121  5.14285714285714 11.1363636363636  L 5.14285714285714 13.0454545454545  C 5.14285714285714 13.3106060606061  5.04910714285715 13.5359848484849  4.86160714285714 13.7215909090909  C 4.67410714285714 13.907196969697  4.44642857142857 14  4.17857142857143 14  L 0.964285714285714 14  C 0.696428571428571 14  0.46875 13.907196969697  0.28125 13.7215909090909  C 0.09375 13.5359848484849  0 13.3106060606061  0 13.0454545454545  L 0 11.1363636363636  C 0 10.8712121212121  0.09375 10.6458333333333  0.28125 10.4602272727273  C 0.46875 10.2746212121212  0.696428571428571 10.1818181818182  0.964285714285714 10.1818181818182  L 4.17857142857143 10.1818181818182  C 4.44642857142857 10.1818181818182  4.67410714285714 10.2746212121212  4.86160714285714 10.4602272727273  Z M 4.86160714285714 5.36931818181818  C 5.04910714285715 5.55492424242424  5.14285714285714 5.78030303030303  5.14285714285714 6.04545454545454  L 5.14285714285714 7.95454545454545  C 5.14285714285714 8.21969696969697  5.04910714285715 8.44507575757576  4.86160714285714 8.63068181818182  C 4.67410714285714 8.81628787878788  4.44642857142857 8.90909090909091  4.17857142857143 8.90909090909091  L 0.964285714285714 8.90909090909091  C 0.696428571428571 8.90909090909091  0.46875 8.81628787878788  0.28125 8.63068181818182  C 0.09375 8.44507575757576  0 8.21969696969697  0 7.95454545454545  L 0 6.04545454545454  C 0 5.78030303030303  0.09375 5.55492424242424  0.28125 5.36931818181818  C 0.46875 5.18371212121212  0.696428571428571 5.09090909090909  0.964285714285714 5.09090909090909  L 4.17857142857143 5.09090909090909  C 4.44642857142857 5.09090909090909  4.67410714285714 5.18371212121212  4.86160714285714 5.36931818181818  Z M 17.71875 10.4602272727273  C 17.90625 10.6458333333333  18 10.8712121212121  18 11.1363636363636  L 18 13.0454545454545  C 18 13.3106060606061  17.90625 13.5359848484849  17.71875 13.7215909090909  C 17.53125 13.907196969697  17.3035714285714 14  17.0357142857143 14  L 7.39285714285714 14  C 7.125 14  6.89732142857143 13.907196969697  6.70982142857143 13.7215909090909  C 6.52232142857143 13.5359848484849  6.42857142857143 13.3106060606061  6.42857142857143 13.0454545454545  L 6.42857142857143 11.1363636363636  C 6.42857142857143 10.8712121212121  6.52232142857143 10.6458333333333  6.70982142857143 10.4602272727273  C 6.89732142857143 10.2746212121212  7.125 10.1818181818182  7.39285714285714 10.1818181818182  L 17.0357142857143 10.1818181818182  C 17.3035714285714 10.1818181818182  17.53125 10.2746212121212  17.71875 10.4602272727273  Z M 4.86160714285714 0.278409090909091  C 5.04910714285715 0.46401515151515  5.14285714285714 0.689393939393939  5.14285714285714 0.954545454545455  L 5.14285714285714 2.86363636363637  C 5.14285714285714 3.12878787878788  5.04910714285715 3.35416666666666  4.86160714285714 3.53977272727273  C 4.67410714285714 3.72537878787879  4.44642857142857 3.81818181818182  4.17857142857143 3.81818181818182  L 0.964285714285714 3.81818181818182  C 0.696428571428571 3.81818181818182  0.46875 3.72537878787879  0.28125 3.53977272727273  C 0.09375 3.35416666666666  0 3.12878787878788  0 2.86363636363637  L 0 0.954545454545455  C 0 0.689393939393939  0.09375 0.46401515151515  0.28125 0.278409090909091  C 0.46875 0.0928030303030294  0.696428571428571 0  0.964285714285714 0  L 4.17857142857143 0  C 4.44642857142857 0  4.67410714285714 0.0928030303030294  4.86160714285714 0.278409090909091  Z M 17.71875 5.36931818181818  C 17.90625 5.55492424242424  18 5.78030303030303  18 6.04545454545454  L 18 7.95454545454545  C 18 8.21969696969697  17.90625 8.44507575757576  17.71875 8.63068181818182  C 17.53125 8.81628787878788  17.3035714285714 8.90909090909091  17.0357142857143 8.90909090909091  L 7.39285714285714 8.90909090909091  C 7.125 8.90909090909091  6.89732142857143 8.81628787878788  6.70982142857143 8.63068181818182  C 6.52232142857143 8.44507575757576  6.42857142857143 8.21969696969697  6.42857142857143 7.95454545454545  L 6.42857142857143 6.04545454545454  C 6.42857142857143 5.78030303030303  6.52232142857143 5.55492424242424  6.70982142857143 5.36931818181818  C 6.89732142857143 5.18371212121212  7.125 5.09090909090909  7.39285714285714 5.09090909090909  L 17.0357142857143 5.09090909090909  C 17.3035714285714 5.09090909090909  17.53125 5.18371212121212  17.71875 5.36931818181818  Z M 17.71875 0.278409090909091  C 17.90625 0.46401515151515  18 0.689393939393939  18 0.954545454545455  L 18 2.86363636363637  C 18 3.12878787878788  17.90625 3.35416666666666  17.71875 3.53977272727273  C 17.53125 3.72537878787879  17.3035714285714 3.81818181818182  17.0357142857143 3.81818181818182  L 7.39285714285714 3.81818181818182  C 7.125 3.81818181818182  6.89732142857143 3.72537878787879  6.70982142857143 3.53977272727273  C 6.52232142857143 3.35416666666666  6.42857142857143 3.12878787878788  6.42857142857143 2.86363636363637  L 6.42857142857143 0.954545454545455  C 6.42857142857143 0.689393939393939  6.52232142857143 0.46401515151515  6.70982142857143 0.278409090909091  C 6.89732142857143 0.0928030303030294  7.125 0  7.39285714285714 0  L 17.0357142857143 0  C 17.3035714285714 0  17.53125 0.0928030303030294  17.71875 0.278409090909091  Z " fill-rule="nonzero" fill="#0099ff" stroke="none" transform="matrix(1 0 0 1 28 410 )" />
  </g>
</svg>