<?xml version="1.0" encoding="utf-8"?>
<svg version="1.1" xmlns:xlink="http://www.w3.org/1999/xlink" width="18px" height="15px" xmlns="http://www.w3.org/2000/svg">
  <g transform="matrix(1 0 0 1 -16 -23 )">
    <path d="M 8.9208984375 8.6474609375  C 8.9736328125 8.99576822916667  9 9.37825520833333  9 9.794921875  C 9 10.2115885416667  8.8916015625 10.5582682291667  8.6748046875 10.8349609375  C 8.4580078125 11.1116536458333  8.19140625 11.25  7.875 11.25  L 3.375 11.25  C 3.05859375 11.25  2.7919921875 11.1116536458333  2.5751953125 10.8349609375  C 2.3583984375 10.5582682291667  2.25 10.2115885416667  2.25 9.794921875  C 2.25 9.37825520833333  2.2763671875 8.99576822916667  2.3291015625 8.6474609375  C 2.3818359375 8.29915364583333  2.46826171875 7.9638671875  2.58837890625 7.6416015625  C 2.70849609375 7.3193359375  2.8857421875 7.0654296875  3.1201171875 6.8798828125  C 3.3544921875 6.6943359375  3.638671875 6.6015625  3.97265625 6.6015625  C 4.0078125 6.62760416666667  4.095703125 6.68619791666667  4.236328125 6.77734375  C 4.376953125 6.86848958333333  4.48681640625 6.9384765625  4.56591796875 6.9873046875  C 4.64501953125 7.0361328125  4.7490234375 7.09309895833333  4.8779296875 7.158203125  C 5.0068359375 7.22330729166667  5.1328125 7.2705078125  5.255859375 7.2998046875  C 5.37890625 7.3291015625  5.501953125 7.34375  5.625 7.34375  C 5.748046875 7.34375  5.87109375 7.3291015625  5.994140625 7.2998046875  C 6.1171875 7.2705078125  6.2431640625 7.22330729166667  6.3720703125 7.158203125  C 6.5009765625 7.09309895833333  6.60498046875 7.0361328125  6.68408203125 6.9873046875  C 6.76318359375 6.9384765625  6.873046875 6.86848958333333  7.013671875 6.77734375  C 7.154296875 6.68619791666667  7.2421875 6.62760416666667  7.27734375 6.6015625  C 7.611328125 6.6015625  7.8955078125 6.6943359375  8.1298828125 6.8798828125  C 8.3642578125 7.0654296875  8.54150390625 7.3193359375  8.66162109375 7.6416015625  C 8.78173828125 7.9638671875  8.8681640625 8.29915364583333  8.9208984375 8.6474609375  Z M 7.03564453125 3.1494140625  C 7.42529296875 3.58235677083333  7.6201171875 4.10481770833333  7.6201171875 4.716796875  C 7.6201171875 5.32877604166667  7.42529296875 5.85123697916667  7.03564453125 6.2841796875  C 6.64599609375 6.71712239583333  6.17578125 6.93359375  5.625 6.93359375  C 5.07421875 6.93359375  4.60400390625 6.71712239583333  4.21435546875 6.2841796875  C 3.82470703125 5.85123697916667  3.6298828125 5.32877604166667  3.6298828125 4.716796875  C 3.6298828125 4.10481770833333  3.82470703125 3.58235677083333  4.21435546875 3.1494140625  C 4.60400390625 2.71647135416667  5.07421875 2.5  5.625 2.5  C 6.17578125 2.5  6.64599609375 2.71647135416667  7.03564453125 3.1494140625  Z M 15.6708984375 8.837890625  C 15.7236328125 8.896484375  15.75 8.97135416666666  15.75 9.0625  L 15.75 9.6875  C 15.75 9.77864583333333  15.7236328125 9.853515625  15.6708984375 9.912109375  C 15.6181640625 9.970703125  15.55078125 10  15.46875 10  L 10.40625 10  C 10.32421875 10  10.2568359375 9.970703125  10.2041015625 9.912109375  C 10.1513671875 9.853515625  10.125 9.77864583333333  10.125 9.6875  L 10.125 9.0625  C 10.125 8.97135416666666  10.1513671875 8.896484375  10.2041015625 8.837890625  C 10.2568359375 8.779296875  10.32421875 8.75  10.40625 8.75  L 15.46875 8.75  C 15.55078125 8.75  15.6181640625 8.779296875  15.6708984375 8.837890625  Z M 15.65771484375 6.3525390625  C 15.71923828125 6.4208984375  15.75 6.50390625  15.75 6.6015625  L 15.75 7.1484375  C 15.75 7.24609375  15.71923828125 7.3291015625  15.65771484375 7.3974609375  C 15.59619140625 7.4658203125  15.521484375 7.5  15.43359375 7.5  L 10.44140625 7.5  C 10.353515625 7.5  10.27880859375 7.4658203125  10.21728515625 7.3974609375  C 10.15576171875 7.3291015625  10.125 7.24609375  10.125 7.1484375  L 10.125 6.6015625  C 10.125 6.50390625  10.15576171875 6.4208984375  10.21728515625 6.3525390625  C 10.27880859375 6.2841796875  10.353515625 6.25  10.44140625 6.25  L 15.43359375 6.25  C 15.521484375 6.25  15.59619140625 6.2841796875  15.65771484375 6.3525390625  Z M 15.6708984375 3.837890625  C 15.7236328125 3.896484375  15.75 3.97135416666666  15.75 4.0625  L 15.75 4.6875  C 15.75 4.77864583333333  15.7236328125 4.853515625  15.6708984375 4.912109375  C 15.6181640625 4.970703125  15.55078125 5  15.46875 5  L 10.40625 5  C 10.32421875 5  10.2568359375 4.970703125  10.2041015625 4.912109375  C 10.1513671875 4.853515625  10.125 4.77864583333333  10.125 4.6875  L 10.125 4.0625  C 10.125 3.97135416666666  10.1513671875 3.896484375  10.2041015625 3.837890625  C 10.2568359375 3.779296875  10.32421875 3.75  10.40625 3.75  L 15.46875 3.75  C 15.55078125 3.75  15.6181640625 3.779296875  15.6708984375 3.837890625  Z M 16.79150390625 13.6572265625  C 16.84716796875 13.5953776041667  16.875 13.5221354166667  16.875 13.4375  L 16.875 1.5625  C 16.875 1.47786458333333  16.84716796875 1.40462239583333  16.79150390625 1.3427734375  C 16.73583984375 1.28092447916667  16.669921875 1.25  16.59375 1.25  L 1.40625 1.25  C 1.330078125 1.25  1.26416015625 1.28092447916667  1.20849609375 1.3427734375  C 1.15283203125 1.40462239583333  1.125 1.47786458333333  1.125 1.5625  L 1.125 13.4375  C 1.125 13.5221354166667  1.15283203125 13.5953776041667  1.20849609375 13.6572265625  C 1.26416015625 13.7190755208333  1.330078125 13.75  1.40625 13.75  L 4.5 13.75  L 4.5 12.8125  C 4.5 12.7213541666667  4.5263671875 12.646484375  4.5791015625 12.587890625  C 4.6318359375 12.529296875  4.69921875 12.5  4.78125 12.5  L 5.34375 12.5  C 5.42578125 12.5  5.4931640625 12.529296875  5.5458984375 12.587890625  C 5.5986328125 12.646484375  5.625 12.7213541666667  5.625 12.8125  L 5.625 13.75  L 12.375 13.75  L 12.375 12.8125  C 12.375 12.7213541666667  12.4013671875 12.646484375  12.4541015625 12.587890625  C 12.5068359375 12.529296875  12.57421875 12.5  12.65625 12.5  L 13.21875 12.5  C 13.30078125 12.5  13.3681640625 12.529296875  13.4208984375 12.587890625  C 13.4736328125 12.646484375  13.5 12.7213541666667  13.5 12.8125  L 13.5 13.75  L 16.59375 13.75  C 16.669921875 13.75  16.73583984375 13.7190755208333  16.79150390625 13.6572265625  Z M 17.5869140625 0.458984375000001  C 17.8623046875 0.764973958333333  18 1.1328125  18 1.5625  L 18 13.4375  C 18 13.8671875  17.8623046875 14.2350260416667  17.5869140625 14.541015625  C 17.3115234375 14.8470052083333  16.98046875 15  16.59375 15  L 1.40625 15  C 1.01953125 15  0.6884765625 14.8470052083333  0.4130859375 14.541015625  C 0.1376953125 14.2350260416667  0 13.8671875  0 13.4375  L 0 1.5625  C 0 1.1328125  0.1376953125 0.764973958333333  0.4130859375 0.458984375000001  C 0.6884765625 0.152994791666665  1.01953125 0  1.40625 0  L 16.59375 0  C 16.98046875 0  17.3115234375 0.152994791666665  17.5869140625 0.458984375000001  Z " fill-rule="nonzero" fill="#5e5e5e" stroke="none" transform="matrix(1 0 0 1 16 23 )" />
  </g>
</svg>