<?xml version="1.0" encoding="utf-8"?>
<svg version="1.1" xmlns:xlink="http://www.w3.org/1999/xlink" width="11px" height="18px" xmlns="http://www.w3.org/2000/svg">
  <g transform="matrix(1 0 0 1 -293 -22 )">
    <path d="M 10.8109965635739 8.58517034068137  C 10.9369988545246 8.70541082164328  11 8.84368737474949  11 9  C 11 9.1563126252505  10.9369988545246 9.29458917835672  10.8109965635739 9.41482965931863  L 2.00343642611686 17.8196392785571  C 1.87743413516611 17.939879759519  1.73253150057273 18  1.56872852233676 18  C 1.40492554410079 18  1.26002290950745 17.939879759519  1.1340206185567 17.8196392785571  L 0.189003436426149 16.9178356713427  C 0.063001145475351 16.7975951903808  0 16.6593186372746  0 16.503006012024  C 0 16.3466933867736  0.063001145475351 16.2084168336673  0.189003436426149 16.0881763527054  L 7.61683848797253 9  L 0.189003436426149 1.91182364729459  C 0.063001145475351 1.79158316633266  0 1.65330661322645  0 1.49699398797596  C 0 1.34068136272545  0.063001145475351 1.20240480961924  0.189003436426149 1.08216432865731  L 1.1340206185567 0.180360721442888  C 1.26002290950745 0.0601202404809555  1.40492554410079 0  1.56872852233676 0  C 1.73253150057273 0  1.87743413516611 0.0601202404809555  2.00343642611686 0.180360721442888  L 10.8109965635739 8.58517034068137  Z " fill-rule="nonzero" fill="#0099ff" stroke="none" transform="matrix(1 0 0 1 293 22 )" />
  </g>
</svg>