<?xml version="1.0" encoding="utf-8"?>
<svg version="1.1" xmlns:xlink="http://www.w3.org/1999/xlink" width="27px" height="12px" xmlns="http://www.w3.org/2000/svg">
  <g transform="matrix(1 0 0 1 -365 -121 )">
    <path d="M 18 9.59999999999999  L 3 9.59999999999999  L 3 2.40000000000001  L 18 2.40000000000001  L 18 9.59999999999999  Z M 25.5 1.5  L 25.5 3  C 25.9140625 3  26.267578125 3.1171875  26.560546875 3.3515625  C 26.853515625 3.5859375  27 3.86875000000001  27 4.19999999999999  L 27 7.80000000000001  C 27 8.13124999999999  26.853515625 8.4140625  26.560546875 8.6484375  C 26.267578125 8.8828125  25.9140625 9  25.5 9  L 25.5 10.5  C 25.5 10.9125  25.3164062500001 11.265625  24.94921875 11.559375  C 24.58203125 11.853125  24.140625 12  23.625 12  L 1.875 12  C 1.359375 12  0.91796875 11.853125  0.55078125 11.559375  C 0.18359375 11.265625  0 10.9125  0 10.5  L 0 1.5  C 0 1.08750000000001  0.18359375 0.734375  0.55078125 0.440625000000011  C 0.91796875 0.146874999999994  1.359375 0  1.875 0  L 23.625 0  C 24.140625 0  24.58203125 0.146874999999994  24.94921875 0.440625000000011  C 25.3164062500001 0.734375  25.5 1.08750000000001  25.5 1.5  Z M 24 7.80000000000001  L 25.5 7.80000000000001  L 25.5 4.19999999999999  L 24 4.19999999999999  L 24 1.5  C 24 1.41249999999999  23.96484375 1.34062499999999  23.89453125 1.28437500000001  C 23.82421875 1.22812500000001  23.7343750000001 1.19999999999999  23.625 1.19999999999999  L 1.875 1.19999999999999  C 1.765625 1.19999999999999  1.67578125 1.22812500000001  1.60546875 1.28437500000001  C 1.53515625 1.34062499999999  1.5 1.41249999999999  1.5 1.5  L 1.5 10.5  C 1.5 10.5875  1.53515625 10.659375  1.60546875 10.715625  C 1.67578125 10.771875  1.765625 10.8  1.875 10.8  L 23.625 10.8  C 23.7343750000001 10.8  23.82421875 10.771875  23.89453125 10.715625  C 23.96484375 10.659375  24 10.5875  24 10.5  L 24 7.80000000000001  Z " fill-rule="nonzero" fill="#ffffff" stroke="none" transform="matrix(1 0 0 1 365 121 )" />
  </g>
</svg>