<?xml version="1.0" encoding="utf-8"?>
<svg version="1.1" xmlns:xlink="http://www.w3.org/1999/xlink" width="20px" height="15px" xmlns="http://www.w3.org/2000/svg">
  <defs>
    <mask fill="white" id="clip189">
      <path d="M 20 2.14019851116625  C 20 2.3014888337469  19.8777348777349 2.4410669975186  19.6332046332046 2.55893300248138  L 9.38223938223939 7.5  L 19.6332046332046 12.4410669975186  C 19.8777348777349 12.5589330024814  20 12.6985111662531  20 12.8598014888338  C 20 13.0210918114144  19.8777348777349 13.1606699751861  19.6332046332046 13.2785359801489  L 16.4285714285714 14.8232009925558  C 16.1840411840411 14.9410669975186  15.8944658944659 15  15.5598455598456 15  C 15.2252252252252 15  14.9356499356499 14.9410669975186  14.6911196911197 14.8232009925558  L 0.366795366795373 7.91873449131513  C 0.122265122265134 7.80086848635236  0 7.66129032258065  0 7.5  C 0 7.33870967741935  0.122265122265134 7.19913151364763  0.366795366795373 7.08126550868487  L 14.6911196911197 0.176799007444174  C 14.9356499356499 0.0589330024813961  15.2252252252252 0  15.5598455598456 0  C 15.8944658944659 0  16.1840411840411 0.0589330024813961  16.4285714285714 0.176799007444174  L 19.6332046332046 1.72146401985111  C 19.8777348777349 1.8393300248139  20 1.97890818858561  20 2.14019851116625  Z " fill-rule="evenodd" />
    </mask>
  </defs>
  <g transform="matrix(1 0 0 1 -11 -66 )">
    <path d="M 20 2.14019851116625  C 20 2.3014888337469  19.8777348777349 2.4410669975186  19.6332046332046 2.55893300248138  L 9.38223938223939 7.5  L 19.6332046332046 12.4410669975186  C 19.8777348777349 12.5589330024814  20 12.6985111662531  20 12.8598014888338  C 20 13.0210918114144  19.8777348777349 13.1606699751861  19.6332046332046 13.2785359801489  L 16.4285714285714 14.8232009925558  C 16.1840411840411 14.9410669975186  15.8944658944659 15  15.5598455598456 15  C 15.2252252252252 15  14.9356499356499 14.9410669975186  14.6911196911197 14.8232009925558  L 0.366795366795373 7.91873449131513  C 0.122265122265134 7.80086848635236  0 7.66129032258065  0 7.5  C 0 7.33870967741935  0.122265122265134 7.19913151364763  0.366795366795373 7.08126550868487  L 14.6911196911197 0.176799007444174  C 14.9356499356499 0.0589330024813961  15.2252252252252 0  15.5598455598456 0  C 15.8944658944659 0  16.1840411840411 0.0589330024813961  16.4285714285714 0.176799007444174  L 19.6332046332046 1.72146401985111  C 19.8777348777349 1.8393300248139  20 1.97890818858561  20 2.14019851116625  Z " fill-rule="nonzero" fill="#ffffff" stroke="none" transform="matrix(1 0 0 1 11 66 )" />
    <path d="M 20 2.14019851116625  C 20 2.3014888337469  19.8777348777349 2.4410669975186  19.6332046332046 2.55893300248138  L 9.38223938223939 7.5  L 19.6332046332046 12.4410669975186  C 19.8777348777349 12.5589330024814  20 12.6985111662531  20 12.8598014888338  C 20 13.0210918114144  19.8777348777349 13.1606699751861  19.6332046332046 13.2785359801489  L 16.4285714285714 14.8232009925558  C 16.1840411840411 14.9410669975186  15.8944658944659 15  15.5598455598456 15  C 15.2252252252252 15  14.9356499356499 14.9410669975186  14.6911196911197 14.8232009925558  L 0.366795366795373 7.91873449131513  C 0.122265122265134 7.80086848635236  0 7.66129032258065  0 7.5  C 0 7.33870967741935  0.122265122265134 7.19913151364763  0.366795366795373 7.08126550868487  L 14.6911196911197 0.176799007444174  C 14.9356499356499 0.0589330024813961  15.2252252252252 0  15.5598455598456 0  C 15.8944658944659 0  16.1840411840411 0.0589330024813961  16.4285714285714 0.176799007444174  L 19.6332046332046 1.72146401985111  C 19.8777348777349 1.8393300248139  20 1.97890818858561  20 2.14019851116625  Z " stroke-width="2" stroke="#9346eb" fill="none" transform="matrix(1 0 0 1 11 66 )" mask="url(#clip189)" />
  </g>
</svg>