<?xml version="1.0" encoding="utf-8"?>
<svg version="1.1" xmlns:xlink="http://www.w3.org/1999/xlink" width="16px" height="16px" xmlns="http://www.w3.org/2000/svg">
  <g transform="matrix(1 0 0 1 -337 -35 )">
    <path d="M 9.07291666666667 10.9270833333333  C 9.13541666666667 10.9895833333333  9.16666666666667 11.0694444444444  9.16666666666667 11.1666666666667  L 9.16666666666667 12.8333333333333  C 9.16666666666667 12.9305555555556  9.13541666666667 13.0104166666667  9.07291666666667 13.0729166666667  C 9.01041666666667 13.1354166666667  8.93055555555556 13.1666666666667  8.83333333333333 13.1666666666667  L 7.16666666666667 13.1666666666667  C 7.06944444444445 13.1666666666667  6.98958333333333 13.1354166666667  6.92708333333333 13.0729166666667  C 6.86458333333333 13.0104166666667  6.83333333333333 12.9305555555556  6.83333333333333 12.8333333333333  L 6.83333333333333 11.1666666666667  C 6.83333333333333 11.0694444444444  6.86458333333333 10.9895833333333  6.92708333333333 10.9270833333333  C 6.98958333333333 10.8645833333333  7.06944444444445 10.8333333333333  7.16666666666667 10.8333333333333  L 8.83333333333333 10.8333333333333  C 8.93055555555556 10.8333333333333  9.01041666666667 10.8645833333333  9.07291666666667 10.9270833333333  Z M 10.6927083333333 3.765625  C 11.453125 4.38715277777778  11.8333333333333 5.13194444444444  11.8333333333333 6  C 11.8333333333333 6.34722222222222  11.78125 6.65972222222222  11.6770833333333 6.9375  C 11.5729166666667 7.21527777777778  11.4149305555556 7.45486111111111  11.203125 7.65625  C 10.9913194444444 7.85763888888889  10.8107638888889 8.01041666666667  10.6614583333333 8.11458333333333  C 10.5121527777778 8.21875  10.3055555555556 8.34375  10.0416666666667 8.48958333333333  C 9.81944444444444 8.61458333333333  9.65798611111111 8.71180555555555  9.55729166666667 8.78125  C 9.45659722222222 8.85069444444444  9.36631944444444 8.93402777777778  9.28645833333333 9.03125  C 9.20659722222222 9.12847222222222  9.16666666666667 9.22916666666667  9.16666666666667 9.33333333333333  L 9.16666666666667 9.66666666666667  C 9.16666666666667 9.76388888888889  9.13541666666667 9.84375  9.07291666666667 9.90625  C 9.01041666666667 9.96875  8.93055555555556 10  8.83333333333333 10  L 7.16666666666667 10  C 7.06944444444445 10  6.98958333333333 9.96875  6.92708333333333 9.90625  C 6.86458333333333 9.84375  6.83333333333333 9.76388888888889  6.83333333333333 9.66666666666667  L 6.83333333333333 8.95833333333333  C 6.83333333333333 8.71527777777778  6.86979166666667 8.49131944444444  6.94270833333333 8.28645833333333  C 7.015625 8.08159722222222  7.09895833333333 7.91666666666667  7.19270833333333 7.79166666666667  C 7.28645833333333 7.66666666666667  7.421875 7.54340277777778  7.59895833333333 7.421875  C 7.77604166666667 7.30034722222222  7.91840277777778 7.21180555555556  8.02604166666667 7.15625  C 8.13368055555556 7.10069444444444  8.28819444444444 7.02777777777778  8.48958333333333 6.9375  C 8.85763888888889 6.76388888888889  9.11805555555556 6.61458333333333  9.27083333333333 6.48958333333333  C 9.42361111111111 6.36458333333333  9.5 6.19444444444444  9.5 5.97916666666667  C 9.5 5.6875  9.34895833333333 5.43923611111111  9.046875 5.234375  C 8.74479166666667 5.02951388888889  8.41319444444444 4.92708333333333  8.05208333333333 4.92708333333333  C 7.66319444444445 4.92708333333333  7.33333333333333 5.02083333333333  7.0625 5.20833333333333  C 6.86111111111111 5.34722222222222  6.58333333333333 5.63541666666667  6.22916666666667 6.07291666666667  C 6.16666666666667 6.15625  6.07986111111111 6.19791666666667  5.96875 6.19791666666667  C 5.89236111111111 6.19791666666667  5.82638888888889 6.17708333333333  5.77083333333333 6.13541666666667  L 4.64583333333333 5.28125  C 4.57638888888889 5.23263888888889  4.53472222222222 5.16319444444444  4.52083333333333 5.07291666666667  C 4.50694444444445 4.98263888888889  4.52430555555556 4.90277777777778  4.57291666666667 4.83333333333333  C 5.42013888888889 3.5  6.63194444444445 2.83333333333333  8.20833333333333 2.83333333333333  C 9.10416666666667 2.83333333333333  9.93229166666667 3.14409722222222  10.6927083333333 3.765625  Z M 10.5885416666667 1.86458333333333  C 9.765625 1.51041666666667  8.90277777777778 1.33333333333333  8 1.33333333333333  C 7.09722222222222 1.33333333333333  6.234375 1.51041666666667  5.41145833333333 1.86458333333333  C 4.58854166666667 2.21875  3.88020833333333 2.69270833333333  3.28645833333333 3.28645833333333  C 2.69270833333333 3.88020833333333  2.21875 4.58854166666667  1.86458333333333 5.41145833333333  C 1.51041666666667 6.234375  1.33333333333333 7.09722222222222  1.33333333333333 8  C 1.33333333333333 8.90277777777778  1.51041666666667 9.765625  1.86458333333333 10.5885416666667  C 2.21875 11.4114583333333  2.69270833333333 12.1197916666667  3.28645833333333 12.7135416666667  C 3.88020833333333 13.3072916666667  4.58854166666667 13.78125  5.41145833333333 14.1354166666667  C 6.234375 14.4895833333333  7.09722222222222 14.6666666666667  8 14.6666666666667  C 8.90277777777778 14.6666666666667  9.765625 14.4895833333333  10.5885416666667 14.1354166666667  C 11.4114583333333 13.78125  12.1197916666667 13.3072916666667  12.7135416666667 12.7135416666667  C 13.3072916666667 12.1197916666667  13.78125 11.4114583333333  14.1354166666667 10.5885416666667  C 14.4895833333333 9.765625  14.6666666666667 8.90277777777778  14.6666666666667 8  C 14.6666666666667 7.09722222222222  14.4895833333333 6.234375  14.1354166666667 5.41145833333333  C 13.78125 4.58854166666667  13.3072916666667 3.88020833333333  12.7135416666667 3.28645833333333  C 12.1197916666667 2.69270833333333  11.4114583333333 2.21875  10.5885416666667 1.86458333333333  Z M 14.9270833333333 3.984375  C 15.6423611111111 5.21006944444444  16 6.54861111111111  16 8  C 16 9.45138888888889  15.6423611111111 10.7899305555556  14.9270833333333 12.015625  C 14.2118055555556 13.2413194444444  13.2413194444444 14.2118055555556  12.015625 14.9270833333333  C 10.7899305555556 15.6423611111111  9.45138888888889 16  8 16  C 6.54861111111111 16  5.21006944444444 15.6423611111111  3.984375 14.9270833333333  C 2.75868055555556 14.2118055555556  1.78819444444444 13.2413194444444  1.07291666666667 12.015625  C 0.357638888888889 10.7899305555556  0 9.45138888888889  0 8  C 0 6.54861111111111  0.357638888888889 5.21006944444444  1.07291666666667 3.984375  C 1.78819444444444 2.75868055555556  2.75868055555556 1.78819444444444  3.984375 1.07291666666667  C 5.21006944444444 0.357638888888888  6.54861111111111 0  8 0  C 9.45138888888889 0  10.7899305555556 0.357638888888888  12.015625 1.07291666666667  C 13.2413194444444 1.78819444444444  14.2118055555556 2.75868055555556  14.9270833333333 3.984375  Z " fill-rule="nonzero" fill="#ffffff" stroke="none" transform="matrix(1 0 0 1 337 35 )" />
  </g>
</svg>