<?xml version="1.0" encoding="utf-8"?>
<svg version="1.1" xmlns:xlink="http://www.w3.org/1999/xlink" width="10px" height="853px" preserveAspectRatio="xMidYMin meet" viewBox="2816 1340  8 853" xmlns="http://www.w3.org/2000/svg">
  <defs>
    <mask fill="white" id="clip2842">
      <path d="M 4772 2153  L 4892 2153  L 4892 2223  L 4772 2223  Z M 2616 1342  L 5330 1342  L 5330 4784  L 2616 4784  Z " fill-rule="evenodd" />
    </mask>
  </defs>
  <path d="M 2616 1345  L 2815 1345  A 5 5 0 0 1 2820 1350 L 2820 2071  A 3 3 0 0 1 2823 2074 A 3 3 0 0 1 2820 2077 L 2820 2183  A 5 5 0 0 0 2825 2188 L 5147.30769230769 2188  A 5 5 0 0 1 5152.30769230769 2193 L 5152.30769230769 4762  A 5 5 0 0 0 5157.30769230769 4767 L 5301 4767  " stroke-width="2" stroke="#0099cc" fill="none" mask="url(#clip2842)" />
  <path d="M 5299 4776.5  L 5313 4767  L 5299 4757.5  L 5299 4776.5  Z " fill-rule="nonzero" fill="#0099cc" stroke="none" mask="url(#clip2842)" />
</svg>