<?xml version="1.0" encoding="utf-8"?>
<svg version="1.1" xmlns:xlink="http://www.w3.org/1999/xlink" width="34px" height="34px" preserveAspectRatio="xMinYMid meet" viewBox="1709 2373  34 32" xmlns="http://www.w3.org/2000/svg">
  <defs>
    <mask fill="white" id="clip2852">
      <path d="M 2123 2232  L 2243 2232  L 2243 2302  L 2123 2302  Z M 1709 1811  L 2316 1811  L 2316 2412  L 1709 2412  Z " fill-rule="evenodd" />
    </mask>
  </defs>
  <path d="M 2313 1811  L 2313 2071  A 3 3 0 0 1 2316 2074 A 3 3 0 0 1 2313 2077 L 2313 2261.69696969697  A 5 5 0 0 1 2308 2266.69696969697 L 1731 2266.69696969697  A 5 5 0 0 0 1726 2271.69696969697 L 1726 2383  " stroke-width="2" stroke="#0099cc" fill="none" mask="url(#clip2852)" />
  <path d="M 1716.5 2381  L 1726 2395  L 1735.5 2381  L 1716.5 2381  Z " fill-rule="nonzero" fill="#0099cc" stroke="none" mask="url(#clip2852)" />
</svg>