<?xml version="1.0" encoding="utf-8"?>
<svg version="1.1" xmlns:xlink="http://www.w3.org/1999/xlink" width="34px" height="34px" preserveAspectRatio="xMinYMid meet" viewBox="3182 2373  34 32" xmlns="http://www.w3.org/2000/svg">
  <defs>
    <mask fill="white" id="clip2861">
      <path d="M 2687 2217  L 2807 2217  L 2807 2287  L 2687 2287  Z M 2631 1770  L 3216 1770  L 3216 2412  L 2631 2412  Z " fill-rule="evenodd" />
    </mask>
  </defs>
  <path d="M 2631 1773  L 2739.61538461538 1773  A 5 5 0 0 1 2744.61538461538 1778 L 2744.61538461538 2071  A 3 3 0 0 1 2747.61538461538 2074 A 3 3 0 0 1 2744.61538461538 2077 L 2744.61538461538 2247.38461538462  A 5 5 0 0 0 2749.61538461538 2252.38461538462 L 3194 2252.38461538462  A 5 5 0 0 1 3199 2257.38461538462 L 3199 2383  " stroke-width="2" stroke="#0099cc" fill="none" mask="url(#clip2861)" />
  <path d="M 3189.5 2381  L 3199 2395  L 3208.5 2381  L 3189.5 2381  Z " fill-rule="nonzero" fill="#0099cc" stroke="none" mask="url(#clip2861)" />
</svg>