<?xml version="1.0" encoding="utf-8"?>
<svg version="1.1" xmlns:xlink="http://www.w3.org/1999/xlink" width="34px" height="34px" preserveAspectRatio="xMinYMid meet" viewBox="2441 181  34 32" xmlns="http://www.w3.org/2000/svg">
  <defs>
    <mask fill="white" id="clip2909">
      <path d="M 4342 2  L 4462 2  L 4462 78  L 4342 78  Z M 2441 2  L 6331 2  L 6331 222  L 2441 222  Z " fill-rule="evenodd" />
    </mask>
  </defs>
  <path d="M 6328 222  L 6328 45  A 5 5 0 0 0 6323 40 L 2463 40  A 5 5 0 0 0 2458 45 L 2458 154  A 3 3 0 0 1 2461 157 A 3 3 0 0 1 2458 160 L 2458 191  " stroke-width="2" stroke="#0099cc" fill="none" mask="url(#clip2909)" />
  <path d="M 2448.5 189  L 2458 203  L 2467.5 189  L 2448.5 189  Z " fill-rule="nonzero" fill="#0099cc" stroke="none" mask="url(#clip2909)" />
</svg>