<?xml version="1.0" encoding="utf-8"?>
<svg version="1.1" xmlns:xlink="http://www.w3.org/1999/xlink" width="10px" height="323px" preserveAspectRatio="xMidYMin meet" viewBox="5183.5 235  8 323" xmlns="http://www.w3.org/2000/svg">
  <defs>
    <mask fill="white" id="clip2894">
      <path d="M 5127 275  L 5247 275  L 5247 329  L 5127 329  Z M 4889 237  L 5313 237  L 5313 570  L 4889 570  Z " fill-rule="evenodd" />
    </mask>
  </defs>
  <path d="M 4889 240  L 5072.75757575758 240  A 3 3 0 0 1 5075.75757575758 237 A 3 3 0 0 1 5078.75757575758 240 L 5182.5 240  A 5 5 0 0 1 5187.5 245 L 5187.5 548  A 5 5 0 0 0 5192.5 553 L 5284 553  " stroke-width="2" stroke="#0099cc" fill="none" mask="url(#clip2894)" />
  <path d="M 5282 562.5  L 5296 553  L 5282 543.5  L 5282 562.5  Z " fill-rule="nonzero" fill="#0099cc" stroke="none" mask="url(#clip2894)" />
</svg>