<?xml version="1.0" encoding="utf-8"?>
<svg version="1.1" xmlns:xlink="http://www.w3.org/1999/xlink" width="11px" height="10px" xmlns="http://www.w3.org/2000/svg">
  <g transform="matrix(1 0 0 1 -351 -2614 )">
    <path d="M 10.8109965635739 4.76953907815631  C 10.9369988545246 4.83633934535738  11 4.91315965263861  11 5  C 11 5.08684034736139  10.9369988545246 5.16366065464262  10.8109965635739 5.23046092184369  L 2.00343642611682 9.8997995991984  C 1.87743413516608 9.96659986639946  1.73253150057275 10  1.56872852233676 10  C 1.40492554410082 10  1.26002290950743 9.96659986639946  1.13402061855669 9.8997995991984  L 0.189003436426106 9.39879759519038  C 0.0630011454753685 9.33199732798931  0 9.25517702070808  0 9.16833667334669  C 0 9.0814963259853  0.0630011454753685 9.00467601870407  0.189003436426106 8.93787575150301  L 7.61683848797253 5  L 0.189003436426106 1.06212424849699  C 0.0630011454753685 0.995323981295925  0 0.918503674014698  0 0.831663326653306  C 0 0.744822979291918  0.0630011454753685 0.668002672010687  0.189003436426106 0.601202404809619  L 1.13402061855669 0.100200400801601  C 1.26002290950743 0.0334001336005336  1.40492554410082 0  1.56872852233676 0  C 1.73253150057275 0  1.87743413516608 0.0334001336005336  2.00343642611682 0.100200400801601  L 10.8109965635739 4.76953907815631  Z " fill-rule="nonzero" fill="#5e5e5e" stroke="none" transform="matrix(1 0 0 1 351 2614 )" />
  </g>
</svg>