<?xml version="1.0" encoding="utf-8"?>
<svg version="1.1" xmlns:xlink="http://www.w3.org/1999/xlink" width="16px" height="14px" xmlns="http://www.w3.org/2000/svg">
  <g transform="matrix(1 0 0 1 -12 -2610 )">
    <path d="M 4.32142857142858 10.4602272727273  C 4.48809523809525 10.6458333333333  4.57142857142858 10.8712121212121  4.57142857142858 11.1363636363636  L 4.57142857142858 13.0454545454545  C 4.57142857142858 13.3106060606061  4.48809523809525 13.5359848484848  4.32142857142858 13.7215909090909  C 4.1547619047619 13.907196969697  3.95238095238095 14  3.71428571428573 14  L 0.857142857142849 14  C 0.619047619047626 14  0.416666666666675 13.907196969697  0.25 13.7215909090909  C 0.083333333333325 13.5359848484848  0 13.3106060606061  0 13.0454545454545  L 0 11.1363636363636  C 0 10.8712121212121  0.083333333333325 10.6458333333333  0.25 10.4602272727273  C 0.416666666666675 10.2746212121212  0.619047619047626 10.1818181818182  0.857142857142849 10.1818181818182  L 3.71428571428573 10.1818181818182  C 3.95238095238095 10.1818181818182  4.1547619047619 10.2746212121212  4.32142857142858 10.4602272727273  Z M 4.32142857142858 5.36931818181818  C 4.48809523809525 5.55492424242424  4.57142857142858 5.78030303030303  4.57142857142858 6.04545454545454  L 4.57142857142858 7.95454545454545  C 4.57142857142858 8.21969696969697  4.48809523809525 8.44507575757575  4.32142857142858 8.63068181818182  C 4.1547619047619 8.81628787878788  3.95238095238095 8.90909090909091  3.71428571428573 8.90909090909091  L 0.857142857142849 8.90909090909091  C 0.619047619047626 8.90909090909091  0.416666666666675 8.81628787878788  0.25 8.63068181818182  C 0.083333333333325 8.44507575757575  0 8.21969696969697  0 7.95454545454545  L 0 6.04545454545454  C 0 5.78030303030303  0.083333333333325 5.55492424242424  0.25 5.36931818181818  C 0.416666666666675 5.18371212121212  0.619047619047626 5.09090909090909  0.857142857142849 5.09090909090909  L 3.71428571428573 5.09090909090909  C 3.95238095238095 5.09090909090909  4.1547619047619 5.18371212121212  4.32142857142858 5.36931818181818  Z M 15.75 10.4602272727273  C 15.9166666666667 10.6458333333333  16 10.8712121212121  16 11.1363636363636  L 16 13.0454545454545  C 16 13.3106060606061  15.9166666666667 13.5359848484848  15.75 13.7215909090909  C 15.5833333333333 13.907196969697  15.3809523809524 14  15.1428571428572 14  L 6.57142857142858 14  C 6.33333333333333 14  6.13095238095237 13.907196969697  5.96428571428573 13.7215909090909  C 5.79761904761905 13.5359848484848  5.71428571428573 13.3106060606061  5.71428571428573 13.0454545454545  L 5.71428571428573 11.1363636363636  C 5.71428571428573 10.8712121212121  5.79761904761905 10.6458333333333  5.96428571428573 10.4602272727273  C 6.13095238095237 10.2746212121212  6.33333333333333 10.1818181818182  6.57142857142858 10.1818181818182  L 15.1428571428572 10.1818181818182  C 15.3809523809524 10.1818181818182  15.5833333333333 10.2746212121212  15.75 10.4602272727273  Z M 4.32142857142858 0.278409090909091  C 4.48809523809525 0.46401515151515  4.57142857142858 0.689393939393939  4.57142857142858 0.954545454545455  L 4.57142857142858 2.86363636363636  C 4.57142857142858 3.12878787878788  4.48809523809525 3.35416666666667  4.32142857142858 3.53977272727273  C 4.1547619047619 3.72537878787879  3.95238095238095 3.81818181818182  3.71428571428573 3.81818181818182  L 0.857142857142849 3.81818181818182  C 0.619047619047626 3.81818181818182  0.416666666666675 3.72537878787879  0.25 3.53977272727273  C 0.083333333333325 3.35416666666667  0 3.12878787878788  0 2.86363636363636  L 0 0.954545454545455  C 0 0.689393939393939  0.083333333333325 0.46401515151515  0.25 0.278409090909091  C 0.416666666666675 0.0928030303030294  0.619047619047626 0  0.857142857142849 0  L 3.71428571428573 0  C 3.95238095238095 0  4.1547619047619 0.0928030303030294  4.32142857142858 0.278409090909091  Z M 15.75 5.36931818181818  C 15.9166666666667 5.55492424242424  16 5.78030303030303  16 6.04545454545454  L 16 7.95454545454545  C 16 8.21969696969697  15.9166666666667 8.44507575757575  15.75 8.63068181818182  C 15.5833333333333 8.81628787878788  15.3809523809524 8.90909090909091  15.1428571428572 8.90909090909091  L 6.57142857142858 8.90909090909091  C 6.33333333333333 8.90909090909091  6.13095238095237 8.81628787878788  5.96428571428573 8.63068181818182  C 5.79761904761905 8.44507575757575  5.71428571428573 8.21969696969697  5.71428571428573 7.95454545454545  L 5.71428571428573 6.04545454545454  C 5.71428571428573 5.78030303030303  5.79761904761905 5.55492424242424  5.96428571428573 5.36931818181818  C 6.13095238095237 5.18371212121212  6.33333333333333 5.09090909090909  6.57142857142858 5.09090909090909  L 15.1428571428572 5.09090909090909  C 15.3809523809524 5.09090909090909  15.5833333333333 5.18371212121212  15.75 5.36931818181818  Z M 15.75 0.278409090909091  C 15.9166666666667 0.46401515151515  16 0.689393939393939  16 0.954545454545455  L 16 2.86363636363636  C 16 3.12878787878788  15.9166666666667 3.35416666666667  15.75 3.53977272727273  C 15.5833333333333 3.72537878787879  15.3809523809524 3.81818181818182  15.1428571428572 3.81818181818182  L 6.57142857142858 3.81818181818182  C 6.33333333333333 3.81818181818182  6.13095238095237 3.72537878787879  5.96428571428573 3.53977272727273  C 5.79761904761905 3.35416666666667  5.71428571428573 3.12878787878788  5.71428571428573 2.86363636363636  L 5.71428571428573 0.954545454545455  C 5.71428571428573 0.689393939393939  5.79761904761905 0.46401515151515  5.96428571428573 0.278409090909091  C 6.13095238095237 0.0928030303030294  6.33333333333333 0  6.57142857142858 0  L 15.1428571428572 0  C 15.3809523809524 0  15.5833333333333 0.0928030303030294  15.75 0.278409090909091  Z " fill-rule="nonzero" fill="#0099ff" stroke="none" transform="matrix(1 0 0 1 12 2610 )" />
  </g>
</svg>