<?xml version="1.0" encoding="utf-8"?>
<svg version="1.1" xmlns:xlink="http://www.w3.org/1999/xlink" width="20px" height="20px" xmlns="http://www.w3.org/2000/svg">
  <g transform="matrix(1 0 0 1 -9 -661 )">
    <path d="M 2.67427884615385 8.359375  C 3.43149038461538 9.08854166666667  4.375 9.57899305555556  5.50480769230769 9.83072916666667  C 4.91185897435897 8.42447916666667  4.61538461538462 6.81423611111111  4.61538461538462 5  L 1.53846153846154 5  L 1.53846153846154 6.25  C 1.53846153846154 6.92708333333333  1.91706730769231 7.63020833333333  2.67427884615385 8.359375  Z M 17.3257211538462 8.359375  C 18.0829326923077 7.63020833333333  18.4615384615385 6.92708333333333  18.4615384615385 6.25  L 18.4615384615385 5  L 15.3846153846154 5  C 15.3846153846154 6.81423611111111  15.088141025641 8.42447916666667  14.4951923076923 9.83072916666667  C 15.625 9.57899305555556  16.5685096153846 9.08854166666667  17.3257211538462 8.359375  Z M 19.6634615384615 3.69791666666667  C 19.8878205128205 3.94097222222222  20 4.23611111111111  20 4.58333333333333  L 20 6.25  C 20 6.86631944444444  19.833733974359 7.48697916666667  19.5012019230769 8.11197916666667  C 19.1686698717949 8.73697916666667  18.7199519230769 9.30121527777778  18.1550480769231 9.8046875  C 17.5901442307692 10.3081597222222  16.8970352564103 10.7313368055556  16.0757211538462 11.07421875  C 15.2544070512821 11.4171006944444  14.3910256410256 11.6102430555556  13.4855769230769 11.6536458333333  C 13.1490384615385 12.1223958333333  12.7684294871795 12.5347222222222  12.34375 12.890625  C 12.0392628205128 13.1857638888889  11.8289262820513 13.5004340277778  11.7127403846154 13.8346354166667  C 11.5965544871795 14.1688368055556  11.5384615384615 14.5572916666667  11.5384615384615 15  C 11.5384615384615 15.46875  11.6606570512821 15.8637152777778  11.9050480769231 16.1848958333333  C 12.1494391025641 16.5060763888889  12.5400641025641 16.6666666666667  13.0769230769231 16.6666666666667  C 13.6778846153846 16.6666666666667  14.2127403846154 16.8641493055556  14.6814903846154 17.2591145833333  C 15.1502403846154 17.6540798611111  15.3846153846154 18.1510416666667  15.3846153846154 18.75  L 15.3846153846154 19.5833333333333  C 15.3846153846154 19.7048611111111  15.3485576923077 19.8046875  15.2764423076923 19.8828125  C 15.2043269230769 19.9609375  15.1121794871795 20  15 20  L 5 20  C 4.88782051282051 20  4.79567307692308 19.9609375  4.72355769230769 19.8828125  C 4.65144230769231 19.8046875  4.61538461538462 19.7048611111111  4.61538461538462 19.5833333333333  L 4.61538461538462 18.75  C 4.61538461538462 18.1510416666667  4.84975961538462 17.6540798611111  5.31850961538462 17.2591145833333  C 5.78725961538462 16.8641493055556  6.32211538461538 16.6666666666667  6.92307692307692 16.6666666666667  C 7.4599358974359 16.6666666666667  7.8505608974359 16.5060763888889  8.09495192307692 16.1848958333333  C 8.33934294871795 15.8637152777778  8.46153846153846 15.46875  8.46153846153846 15  C 8.46153846153846 14.5572916666667  8.40344551282051 14.1688368055556  8.28725961538461 13.8346354166667  C 8.17107371794872 13.5004340277778  7.96073717948718 13.1857638888889  7.65625 12.890625  C 7.23157051282051 12.5347222222222  6.85096153846154 12.1223958333333  6.51442307692308 11.6536458333333  C 5.60897435897436 11.6102430555556  4.74559294871795 11.4171006944444  3.92427884615385 11.07421875  C 3.10296474358974 10.7313368055556  2.40985576923077 10.3081597222222  1.84495192307692 9.8046875  C 1.28004807692308 9.30121527777778  0.831330128205128 8.73697916666667  0.498798076923077 8.11197916666667  C 0.166266025641026 7.48697916666667  0 6.86631944444444  0 6.25  L 0 4.58333333333333  C 0 4.23611111111111  0.112179487179487 3.94097222222222  0.336538461538462 3.69791666666667  C 0.560897435897436 3.45486111111111  0.833333333333333 3.33333333333333  1.15384615384615 3.33333333333333  L 4.61538461538462 3.33333333333333  L 4.61538461538462 2.08333333333333  C 4.61538461538462 1.51041666666667  4.8036858974359 1.01996527777778  5.18028846153846 0.611979166666667  C 5.55689102564103 0.203993055555554  6.00961538461538 0  6.53846153846154 0  L 13.4615384615385 0  C 13.9903846153846 0  14.443108974359 0.203993055555554  14.8197115384615 0.611979166666667  C 15.1963141025641 1.01996527777778  15.3846153846154 1.51041666666667  15.3846153846154 2.08333333333333  L 15.3846153846154 3.33333333333333  L 18.8461538461538 3.33333333333333  C 19.1666666666667 3.33333333333333  19.4391025641026 3.45486111111111  19.6634615384615 3.69791666666667  Z " fill-rule="nonzero" fill="#555555" stroke="none" transform="matrix(1 0 0 1 9 661 )" />
  </g>
</svg>