<?xml version="1.0" encoding="utf-8"?>
<svg version="1.1" xmlns:xlink="http://www.w3.org/1999/xlink" width="20px" height="20px" xmlns="http://www.w3.org/2000/svg">
  <g transform="matrix(1 0 0 1 -9 -575 )">
    <path d="M 19.3269230769231 7.17076244486452  C 19.775641025641 7.2463768115942  20 7.43961352657005  20 7.75047258979206  C 20 7.93530770846461  19.8958333333333 8.13694601974375  19.6875 8.35538752362949  L 15.3245192307692 12.8166351606805  L 16.3581730769231 19.1178323881537  C 16.3661858974359 19.1766435622768  16.3701923076923 19.2606595253098  16.3701923076923 19.3698802772527  C 16.3701923076923 19.5463137996219  16.328125 19.6954421340055  16.2439903846154 19.8172652804033  C 16.1598557692308 19.9390884268011  16.0376602564103 20  15.8774038461538 20  C 15.7251602564103 20  15.5649038461538 19.9495904221802  15.3966346153846 19.8487712665406  L 10 16.8746061751733  L 4.60336538461538 19.8487712665406  C 4.42708333333333 19.9495904221802  4.26682692307692 20  4.12259615384615 20  C 3.95432692307692 20  3.828125 19.9390884268011  3.74399038461538 19.8172652804033  C 3.65985576923077 19.6954421340055  3.61778846153846 19.5463137996219  3.61778846153846 19.3698802772527  C 3.61778846153846 19.3194706994329  3.62580128205128 19.2354547363999  3.64182692307692 19.1178323881537  L 4.67548076923077 12.8166351606805  L 0.300480769230769 8.35538752362949  C 0.100160256410256 8.12854442344045  0 7.92690611216131  0 7.75047258979206  C 0 7.43961352657005  0.224358974358974 7.2463768115942  0.673076923076923 7.17076244486452  L 6.70673076923077 6.25078764965343  L 9.41105769230769 0.516698172652803  C 9.56330128205128 0.1722327242176  9.75961538461539 0  10 0  C 10.2403846153846 0  10.4366987179487 0.1722327242176  10.5889423076923 0.516698172652803  L 13.2932692307692 6.25078764965343  L 19.3269230769231 7.17076244486452  Z " fill-rule="nonzero" fill="#555555" stroke="none" transform="matrix(1 0 0 1 9 575 )" />
  </g>
</svg>