<?xml version="1.0" encoding="utf-8"?>
<svg version="1.1" xmlns:xlink="http://www.w3.org/1999/xlink" width="20px" height="20px" xmlns="http://www.w3.org/2000/svg">
  <g transform="matrix(1 0 0 1 -9 -617 )">
    <path d="M 10.5022321428571 3.38963963963964  C 10.6436011904762 3.246996996997  10.7142857142857 3.07807807807808  10.7142857142857 2.88288288288288  C 10.7142857142857 2.68768768768769  10.6436011904762 2.51876876876877  10.5022321428571 2.37612612612613  C 10.3608630952381 2.23348348348348  10.1934523809524 2.16216216216216  10 2.16216216216216  C 9.80654761904762 2.16216216216216  9.63913690476191 2.23348348348348  9.49776785714286 2.37612612612613  C 9.35639880952381 2.51876876876877  9.28571428571429 2.68768768768769  9.28571428571429 2.88288288288288  C 9.28571428571429 3.07807807807808  9.35639880952381 3.246996996997  9.49776785714286 3.38963963963964  C 9.63913690476191 3.53228228228228  9.80654761904762 3.6036036036036  10 3.6036036036036  C 10.1934523809524 3.6036036036036  10.3608630952381 3.53228228228228  10.5022321428571 3.38963963963964  Z M 19.8995535714286 13.0743243243243  C 19.9665178571429 13.1418918918919  20 13.2282282282282  20 13.3333333333333  L 20 17.2972972972973  C 20 17.4624624624625  19.9255952380952 17.5750750750751  19.7767857142857 17.6351351351351  C 19.7172619047619 17.6501501501502  19.6726190476191 17.6576576576577  19.6428571428571 17.6576576576577  C 19.5535714285714 17.6576576576577  19.468005952381 17.6238738738739  19.3861607142857 17.5563063063063  L 18.3482142857143 16.509009009009  C 17.4627976190476 17.5825825825826  16.2779017857143 18.4328078078078  14.7935267857143 19.0596846846847  C 13.3091517857143 19.6865615615616  11.7113095238095 20  10 20  C 8.28869047619048 20  6.69084821428571 19.6865615615616  5.20647321428571 19.0596846846847  C 3.72209821428571 18.4328078078078  2.53720238095238 17.5825825825826  1.65178571428571 16.509009009009  L 0.613839285714286 17.5563063063063  C 0.546875 17.6238738738739  0.461309523809524 17.6576576576577  0.357142857142857 17.6576576576577  C 0.327380952380952 17.6576576576577  0.282738095238095 17.6501501501502  0.223214285714286 17.6351351351351  C 0.0744047619047619 17.5750750750751  0 17.4624624624625  0 17.2972972972973  L 0 13.3333333333333  C 0 13.2282282282282  0.0334821428571429 13.1418918918919  0.100446428571429 13.0743243243243  C 0.167410714285714 13.0067567567568  0.25297619047619 12.972972972973  0.357142857142857 12.972972972973  L 4.28571428571429 12.972972972973  C 4.44940476190476 12.972972972973  4.56101190476191 13.048048048048  4.62053571428571 13.1981981981982  C 4.68005952380952 13.3408408408408  4.65401785714286 13.4722222222222  4.54241071428571 13.5923423423423  L 3.42633928571429 14.7184684684685  C 3.92485119047619 15.4016516516517  4.62983630952381 15.9778528528529  5.54129464285714 16.4470720720721  C 6.45275297619048 16.9162912912913  7.46279761904762 17.225975975976  8.57142857142857 17.3761261261261  L 8.57142857142857 10.0900900900901  L 6.42857142857143 10.0900900900901  C 6.23511904761905 10.0900900900901  6.06770833333333 10.0187687687688  5.92633928571429 9.87612612612613  C 5.78497023809524 9.73348348348348  5.71428571428571 9.56456456456456  5.71428571428571 9.36936936936937  L 5.71428571428571 7.92792792792793  C 5.71428571428571 7.73273273273273  5.78497023809524 7.56381381381381  5.92633928571429 7.42117117117117  C 6.06770833333333 7.27852852852853  6.23511904761905 7.20720720720721  6.42857142857143 7.20720720720721  L 8.57142857142857 7.20720720720721  L 8.57142857142857 5.37162162162162  C 8.13988095238095 5.11636636636636  7.79389880952381 4.76914414414414  7.53348214285714 4.32995495495495  C 7.27306547619048 3.89076576576577  7.14285714285714 3.40840840840841  7.14285714285714 2.88288288288288  C 7.14285714285714 2.08708708708709  7.421875 1.40765765765766  7.97991071428571 0.844594594594594  C 8.53794642857143 0.281531531531531  9.21130952380952 0  10 0  C 10.7886904761905 0  11.4620535714286 0.281531531531531  12.0200892857143 0.844594594594594  C 12.578125 1.40765765765766  12.8571428571429 2.08708708708709  12.8571428571429 2.88288288288288  C 12.8571428571429 3.40840840840841  12.7269345238095 3.89076576576577  12.4665178571429 4.32995495495495  C 12.2061011904762 4.76914414414414  11.860119047619 5.11636636636636  11.4285714285714 5.37162162162162  L 11.4285714285714 7.20720720720721  L 13.5714285714286 7.20720720720721  C 13.764880952381 7.20720720720721  13.9322916666667 7.27852852852853  14.0736607142857 7.42117117117117  C 14.2150297619048 7.56381381381381  14.2857142857143 7.73273273273273  14.2857142857143 7.92792792792793  L 14.2857142857143 9.36936936936937  C 14.2857142857143 9.56456456456456  14.2150297619048 9.73348348348348  14.0736607142857 9.87612612612613  C 13.9322916666667 10.0187687687688  13.764880952381 10.0900900900901  13.5714285714286 10.0900900900901  L 11.4285714285714 10.0900900900901  L 11.4285714285714 17.3761261261261  C 12.5372023809524 17.225975975976  13.5472470238095 16.9162912912913  14.4587053571429 16.4470720720721  C 15.3701636904762 15.9778528528529  16.0751488095238 15.4016516516517  16.5736607142857 14.7184684684685  L 15.4575892857143 13.5923423423423  C 15.3459821428571 13.4722222222222  15.3199404761905 13.3408408408408  15.3794642857143 13.1981981981982  C 15.4389880952381 13.048048048048  15.5505952380952 12.972972972973  15.7142857142857 12.972972972973  L 19.6428571428571 12.972972972973  C 19.7470238095238 12.972972972973  19.8325892857143 13.0067567567568  19.8995535714286 13.0743243243243  Z " fill-rule="nonzero" fill="#555555" stroke="none" transform="matrix(1 0 0 1 9 617 )" />
  </g>
</svg>