<?xml version="1.0" encoding="utf-8"?>
<svg version="1.1" xmlns:xlink="http://www.w3.org/1999/xlink" width="18px" height="14px" xmlns="http://www.w3.org/2000/svg">
  <g transform="matrix(1 0 0 1 -285 -1942 )">
    <path d="M 17.0816326530612 2.79817708333333  C 17.3553421368547 2.88932291666667  17.5678271308523 3.01996527777778  17.719087635054 3.19010416666667  C 18.0072028811525 3.53645833333333  18.0720288115246 3.92838541666667  17.9135654261705 4.36588541666667  L 14.9423769507803 12.6236979166667  C 14.8055222088836 13.0125868055556  14.5300120048019 13.3391927083333  14.1158463385354 13.603515625  C 13.7016806722689 13.8678385416667  13.2605042016807 14  12.7923169267707 14  L 2.81992797118848 14  C 2.26530612244898 14  1.73049219687875 13.8374565972222  1.21548619447779 13.5123697916667  C 0.700480192076831 13.1872829861111  0.342136854741897 12.7877604166667  0.140456182472989 12.3138020833333  C -0.0324129651860744 11.9066840277778  -0.0396158463385354 11.5208333333333  0.118847539015606 11.15625  C 0.118847539015606 11.1319444444444  0.129651860744298 11.0499131944444  0.151260504201681 10.91015625  C 0.172869147659064 10.7703993055556  0.187274909963986 10.6579861111111  0.194477791116447 10.5729166666667  C 0.201680672268908 10.5243055555556  0.190876350540216 10.458984375  0.162064825930372 10.376953125  C 0.133253301320528 10.294921875  0.122448979591837 10.2356770833333  0.129651860744298 10.19921875  C 0.14405762304922 10.1323784722222  0.172869147659064 10.0685763888889  0.21608643457383 10.0078125  C 0.259303721488595 9.94704861111111  0.318727490996399 9.87565104166667  0.394357743097239 9.79361979166667  C 0.469987995198079 9.71158854166667  0.529411764705882 9.64019097222222  0.572629051620648 9.57942708333333  C 0.738295318127251 9.34852430555555  0.900360144057623 9.07052951388889  1.05882352941176 8.74544270833333  C 1.21728691476591 8.42035590277778  1.32533013205282 8.14236111111111  1.38295318127251 7.91145833333333  C 1.40456182472989 7.85069444444444  1.40636254501801 7.75954861111111  1.38835534213685 7.63802083333333  C 1.3703481392557 7.51649305555556  1.36854741896759 7.43142361111111  1.38295318127251 7.3828125  C 1.40456182472989 7.31597222222222  1.46578631452581 7.23090277777778  1.56662665066026 7.12760416666667  C 1.66746698679472 7.02430555555556  1.72869147659064 6.95442708333333  1.75030012004802 6.91796875  C 1.9015606242497 6.69921875  2.05282112845138 6.41970486111111  2.20408163265306 6.07942708333333  C 2.35534213685474 5.73914930555555  2.4453781512605 5.46571180555555  2.47418967587035 5.25911458333333  C 2.48139255702281 5.20442708333333  2.47238895558223 5.10720486111111  2.44717887154862 4.96744791666667  C 2.42196878751501 4.82769097222222  2.42376950780312 4.74262152777778  2.45258103241297 4.71223958333333  C 2.48139255702281 4.63324652777778  2.56062424969988 4.54058159722222  2.69027611044418 4.43424479166667  C 2.81992797118848 4.32790798611111  2.89915966386555 4.25954861111111  2.92797118847539 4.22916666666667  C 3.06482593037215 4.07118055555555  3.21788715486195 3.814453125  3.38715486194478 3.458984375  C 3.55642256902761 3.103515625  3.65546218487395 2.81032986111111  3.68427370948379 2.57942708333333  C 3.69147659063625 2.53081597222222  3.68067226890756 2.45334201388889  3.65186074429772 2.34700520833333  C 3.62304921968788 2.24066840277778  3.61584633853541 2.16015625  3.63025210084034 2.10546875  C 3.64465786314526 2.05685763888889  3.67707082833133 2.00217013888889  3.72749099639856 1.94140625  C 3.77791116446579 1.88064236111111  3.84273709483794 1.81076388888889  3.92196878751501 1.73177083333333  C 4.00120048019208 1.65277777777778  4.06242496998799 1.58897569444444  4.10564225690276 1.54036458333333  C 4.16326530612245 1.46744791666667  4.22268907563025 1.37478298611111  4.28391356542617 1.26236979166667  C 4.34513805522209 1.14995659722222  4.39915966386555 1.04361979166667  4.44597839135654 0.943359375  C 4.49279711884754 0.843098958333333  4.55042016806723 0.733723958333333  4.61884753901561 0.615234375  C 4.68727490996399 0.496744791666667  4.75750300120048 0.399522569444444  4.82953181272509 0.323567708333333  C 4.9015606242497 0.24761284722222  4.99699879951981 0.176215277777777  5.11584633853541 0.109375  C 5.23469387755102 0.0425347222222203  5.36434573829532 0.00759548611111094  5.50480192076831 0.00455729166666718  C 5.6452581032413 0.00151909722222032  5.81632653061225 0.0182291666666672  6.01800720288115 0.0546875  L 6.00720288115246 0.08203125  C 6.28091236494598 0.02734375  6.46458583433373 0  6.55822328931573 0  L 14.7803121248499 0  C 15.3133253301321 0  15.7238895558223 0.170138888888888  16.0120048019208 0.510416666666667  C 16.3001200480192 0.850694444444444  16.3649459783914 1.24565972222222  16.2064825930372 1.6953125  L 13.2460984393757 9.953125  C 12.9867947178872 10.6762152777778  12.7292917166867 11.142578125  12.4735894357743 11.3522135416667  C 12.2178871548619 11.5618489583333  11.7551020408163 11.6666666666667  11.0852340936375 11.6666666666667  L 1.69627851140456 11.6666666666667  C 1.50180072028812 11.6666666666667  1.36494597839136 11.7122395833333  1.28571428571429 11.8033854166667  C 1.20648259303721 11.9006076388889  1.20288115246098 12.03125  1.27490996398559 12.1953125  C 1.44777911164466 12.6206597222222  1.96638655462185 12.8333333333333  2.83073229291717 12.8333333333333  L 12.8031212484994 12.8333333333333  C 13.0120048019208 12.8333333333333  13.2136854741897 12.7862413194444  13.4081632653061 12.6920572916667  C 13.6026410564226 12.5978732638889  13.7286914765906 12.4717881944444  13.7863145258103 12.3138020833333  L 17.0276110444178 3.31770833333333  C 17.078031212485 3.18402777777778  17.0960384153661 3.01085069444444  17.0816326530612 2.79817708333333  Z M 6.45018007202881 2.625  L 6.22328931572629 3.20833333333333  C 6.19447779111645 3.28732638888889  6.20168067226891 3.35568576388889  6.24489795918367 3.41341145833333  C 6.28811524609844 3.47113715277778  6.36014405762305 3.5  6.4609843937575 3.5  L 13.0300120048019 3.5  C 13.1236494597839 3.5  13.2154861944778 3.47113715277778  13.3055222088836 3.41341145833333  C 13.3955582232893 3.35568576388889  13.4549819927971 3.28732638888889  13.483793517407 3.20833333333333  L 13.7106842737095 2.625  C 13.7394957983193 2.54600694444444  13.7322929171669 2.47764756944444  13.6890756302521 2.419921875  C 13.6458583433373 2.36219618055555  13.5738295318127 2.33333333333333  13.4729891956783 2.33333333333333  L 6.90396158463385 2.33333333333333  C 6.81032412965186 2.33333333333333  6.71848739495798 2.36219618055555  6.62845138055222 2.419921875  C 6.53841536614646 2.47764756944444  6.47899159663866 2.54600694444444  6.45018007202881 2.625  Z M 5.55342136854742 4.95833333333333  L 5.3265306122449 5.54166666666667  C 5.29771908763505 5.62065972222222  5.30492196878752 5.68901909722222  5.34813925570228 5.74674479166667  C 5.39135654261705 5.80447048611111  5.46338535414166 5.83333333333333  5.56422569027611 5.83333333333333  L 12.1332533013205 5.83333333333333  C 12.2268907563025 5.83333333333333  12.3187274909964 5.80447048611111  12.4087635054022 5.74674479166667  C 12.4987995198079 5.68901909722222  12.5582232893157 5.62065972222222  12.5870348139256 5.54166666666667  L 12.8139255702281 4.95833333333333  C 12.8427370948379 4.87934027777778  12.8355342136855 4.81098090277778  12.7923169267707 4.75325520833333  C 12.7490996398559 4.69552951388889  12.6770708283313 4.66666666666667  12.5762304921969 4.66666666666667  L 6.00720288115246 4.66666666666667  C 5.91356542617047 4.66666666666667  5.82172869147659 4.69552951388889  5.73169267707083 4.75325520833333  C 5.64165666266507 4.81098090277778  5.58223289315726 4.87934027777778  5.55342136854742 4.95833333333333  Z " fill-rule="nonzero" fill="#7f7f7f" stroke="none" transform="matrix(1 0 0 1 285 1942 )" />
  </g>
</svg>