<?xml version="1.0" encoding="utf-8"?>
<svg version="1.1" xmlns:xlink="http://www.w3.org/1999/xlink" width="12px" height="10px" xmlns="http://www.w3.org/2000/svg">
  <g transform="matrix(1 0 0 1 -4 -5 )">
    <path d="M 5.59641255605381 7.5  L 5.97309417040359 7.5  L 6.75336322869955 6.67613636363636  L 5.73094170403587 5.59659090909091  L 4.95067264573991 6.42045454545455  L 4.95067264573991 6.81818181818182  L 5.59641255605381 6.81818181818182  L 5.59641255605381 7.5  Z M 8.92600896860987 2.62073863636364  C 9.00224215246637 2.54024621212121  9.00448430493273 2.46212121212121  8.93273542600897 2.38636363636364  C 8.8609865470852 2.31060606060606  8.78699551569507 2.31297348484848  8.71076233183856 2.39346590909091  L 6.35650224215247 4.87926136363636  C 6.28026905829596 4.95975378787879  6.2780269058296 5.03787878787879  6.34977578475336 5.11363636363636  C 6.42152466367713 5.18939393939394  6.49551569506727 5.18702651515151  6.57174887892377 5.10653409090909  L 8.92600896860987 2.62073863636364  Z M 9.33632286995516 6.39914772727273  C 9.42600896860987 6.43702651515151  9.47085201793722 6.50568181818182  9.47085201793722 6.60511363636364  L 9.47085201793722 7.95454545454545  C 9.47085201793722 8.51799242424242  9.28139013452915 8.99976325757576  8.902466367713 9.39985795454545  C 8.52354260089686 9.79995265151515  8.06726457399103 10  7.53363228699552 10  L 1.9372197309417 10  C 1.40358744394619 10  0.947309417040359 9.79995265151515  0.568385650224215 9.39985795454545  C 0.189461883408072 8.99976325757576  0 8.51799242424242  0 7.95454545454545  L 0 2.04545454545455  C 0 1.48200757575757  0.189461883408072 1.00023674242424  0.568385650224215 0.600142045454546  C 0.947309417040359 0.200047348484848  1.40358744394619 0  1.9372197309417 0  L 7.53363228699552 0  C 7.81614349775785 0  8.07847533632287 0.0591856060606055  8.32062780269058 0.177556818181818  C 8.38789237668161 0.210700757575757  8.42825112107623 0.265151515151515  8.44170403587444 0.340909090909091  C 8.45515695067265 0.421401515151515  8.43497757847534 0.490056818181818  8.38116591928251 0.546875  L 8.05156950672646 0.894886363636364  C 7.98878923766816 0.961174242424242  7.9170403587444 0.980113636363636  7.83632286995516 0.951704545454546  C 7.73318385650224 0.923295454545454  7.6322869955157 0.909090909090909  7.53363228699552 0.909090909090909  L 1.9372197309417 0.909090909090909  C 1.64125560538117 0.909090909090909  1.38789237668161 1.02035984848485  1.17713004484305 1.24289772727273  C 0.966367713004485 1.46543560606061  0.860986547085202 1.73295454545455  0.860986547085202 2.04545454545455  L 0.860986547085202 7.95454545454545  C 0.860986547085202 8.26704545454545  0.966367713004485 8.53456439393939  1.17713004484305 8.75710227272727  C 1.38789237668161 8.97964015151515  1.64125560538117 9.09090909090909  1.9372197309417 9.09090909090909  L 7.53363228699552 9.09090909090909  C 7.82959641255605 9.09090909090909  8.08295964125561 8.97964015151515  8.29372197309417 8.75710227272727  C 8.50448430493274 8.53456439393939  8.60986547085202 8.26704545454545  8.60986547085202 7.95454545454545  L 8.60986547085202 7.05965909090909  C 8.60986547085202 6.99810606060606  8.63004484304933 6.94602272727273  8.67040358744395 6.90340909090909  L 9.10089686098655 6.44886363636364  C 9.16816143497758 6.37784090909091  9.24663677130045 6.36126893939394  9.33632286995516 6.39914772727273  Z M 4.30493273542601 6.13636363636364  L 8.82511210762332 1.36363636363636  L 10.762331838565 3.40909090909091  L 6.24215246636771 8.18181818181818  L 4.30493273542601 8.18181818181818  L 4.30493273542601 6.13636363636364  Z M 12 1.81818181818182  C 12 2.00757575757576  11.9372197309417 2.16856060606061  11.8116591928251 2.30113636363636  L 11.1928251121076 2.95454545454545  L 9.25560538116592 0.909090909090909  L 9.87443946188341 0.255681818181818  C 10 0.12310606060606  10.152466367713 0.0568181818181823  10.3318385650224 0.0568181818181823  C 10.5112107623318 0.0568181818181823  10.6636771300448 0.12310606060606  10.7892376681614 0.255681818181818  L 11.8116591928251 1.33522727272727  C 11.9372197309417 1.46780303030303  12 1.62878787878788  12 1.81818181818182  Z " fill-rule="nonzero" fill="#0099ff" stroke="none" transform="matrix(1 0 0 1 4 5 )" />
  </g>
</svg>