<?xml version="1.0" encoding="utf-8"?>
<svg version="1.1" xmlns:xlink="http://www.w3.org/1999/xlink" width="14px" height="14px" xmlns="http://www.w3.org/2000/svg">
  <g transform="matrix(1 0 0 1 -169 -33 )">
    <path d="M 9.56645143186807 8.57466918714555  L 9.97873478793946 8.16005040957782  L 12.1411189208036 5.95463137996219  L 9.14575412975441 5.49590422180214  L 8.5904336909644 5.40768746061752  L 8.33801530969623 4.87838689350978  L 7.00019788897487 2.03780718336483  L 7.00019788897487 10.5330812854442  L 7.49662070546896 10.8065532451166  L 10.1722555469117 12.2885948330183  L 9.66741878437537 9.15689981096408  L 9.56645143186807 8.57466918714555  Z M 13.9837731040613 5.32388153749213  C 14.034256780315 5.48561226633061  13.9669452119768 5.66057550934678  13.7818383990468 5.84877126654065  L 10.7275759857017 8.97164461247638  L 11.4511753453372 13.3824826717076  C 11.4792218321448 13.5765595463138  11.4623939400602 13.7279983196807  11.4006916690836 13.8367989918085  C 11.3389893981069 13.9455996639361  11.2436313429611 14  11.1146175036463 14  C 11.0192594485005 14  10.9070735012702 13.9647132955261  10.7780596619554 13.8941398865785  L 7.00019788897487 11.8122243226213  L 3.22233611599432 13.8941398865785  C 3.09332227667949 13.9647132955261  2.98113632944921 14  2.88577827430342 14  C 2.75676443498858 14  2.66140637984282 13.9455996639361  2.59970410886615 13.8367989918085  C 2.53800183788948 13.7279983196807  2.52117394580495 13.5765595463138  2.54922043261251 13.3824826717076  L 3.27281979224799 8.97164461247638  L 0.210143432860662 5.84877126654065  C 0.0306459172921905 5.66057550934678  -0.0338610023652564 5.48561226633061  0.0166226738883779 5.32388153749213  C 0.0671063501420122 5.16215080865364  0.218557378902943 5.06070153329132  0.470975760171115 5.01953371140517  L 4.69477667339208 4.37555135475741  L 6.58791453290348 0.361688720856975  C 6.70010048013378 0.120562906952316  6.8375282654909 0  7.00019788897487 0  C 7.15725821509727 0  7.29468600045439 0.120562906952316  7.41248124504622 0.361688720856975  L 9.30561910455762 4.37555135475741  L 13.5294200177786 5.01953371140517  C 13.7818383990468 5.06070153329132  13.9332894278077 5.16215080865364  13.9837731040613 5.32388153749213  Z " fill-rule="nonzero" fill="#ff9900" stroke="none" transform="matrix(1 0 0 1 169 33 )" />
  </g>
</svg>