<?xml version="1.0" encoding="utf-8"?>
<svg version="1.1" xmlns:xlink="http://www.w3.org/1999/xlink" width="12px" height="12px" xmlns="http://www.w3.org/2000/svg">
  <g transform="matrix(1 0 0 1 -4 -4 )">
    <path d="M 8.71875 10.5330812854442  L 8.19951923076928 7.34971644612478  L 10.40625 5.10396975425332  L 7.36298076923072 4.63516068052928  L 6 1.74669187145556  L 4.63701923076928 4.63516068052928  L 1.59375 5.10396975425332  L 3.80048076923072 7.34971644612478  L 3.27403846153843 10.5330812854442  L 6 9.02835538752363  L 8.71875 10.5330812854442  Z M 11.5961538461539 4.30245746691871  C 11.8653846153847 4.34782608695651  12 4.46376811594202  12 4.65028355387522  C 12 4.76118462507877  11.9375000000001 4.88216761184624  11.8125 5.01323251417768  L 9.19471153846157 7.6899810964083  L 9.81490384615386 11.4706994328922  C 9.81971153846161 11.5059861373661  9.82211538461529 11.5563957151859  9.82211538461529 11.6219281663516  C 9.82211538461529 11.8739760554505  9.72355769230767 12  9.52644230769229 12  C 9.4350961538461 12  9.33894230769229 11.9697542533081  9.23798076923072 11.9092627599244  L 6 10.124763705104  L 2.76201923076928 11.9092627599244  C 2.65625000000009 11.9697542533081  2.56009615384614 12  2.47355769230771 12  C 2.37259615384614 12  2.296875 11.9634530560807  2.24639423076928 11.890359168242  C 2.19591346153843 11.8172652804033  2.17067307692314 11.7277882797732  2.17067307692314 11.6219281663516  C 2.17067307692314 11.5916824196597  2.17548076923076 11.5412728418399  2.18509615384614 11.4706994328922  L 2.80528846153843 7.6899810964083  L 0.18028846153843 5.01323251417768  C 0.0600961538460982 4.87712665406428  0 4.75614366729678  0 4.65028355387522  C 0 4.46376811594202  0.134615384615335 4.34782608695651  0.403846153846144 4.30245746691871  L 4.02403846153843 3.75047258979206  L 5.64663461538471 0.310018903591685  C 5.73798076923076 0.103339634530539  5.85576923076928 0  6 0  C 6.14423076923072 0  6.26201923076924 0.103339634530539  6.35336538461529 0.310018903591685  L 7.97596153846157 3.75047258979206  L 11.5961538461539 4.30245746691871  Z " fill-rule="nonzero" fill="#ffffff" stroke="none" transform="matrix(1 0 0 1 4 4 )" />
  </g>
</svg>