<?xml version="1.0" encoding="utf-8"?>
<svg version="1.1" xmlns:xlink="http://www.w3.org/1999/xlink" width="12px" height="12px" xmlns="http://www.w3.org/2000/svg">
  <g transform="matrix(1 0 0 1 -4 -4 )">
    <path d="M 11.5961538461538 4.30245746691872  C 11.8653846153846 4.34782608695652  12 4.46376811594203  12 4.65028355387524  C 12 4.76118462507876  11.9375 4.88216761184625  11.8125 5.01323251417769  L 9.19471153846154 7.68998109640832  L 9.81490384615385 11.4706994328923  C 9.81971153846154 11.5059861373661  9.82211538461538 11.5563957151859  9.82211538461538 11.6219281663516  C 9.82211538461538 11.7277882797732  9.796875 11.8172652804033  9.74639423076923 11.890359168242  C 9.69591346153846 11.9634530560807  9.62259615384616 12  9.52644230769231 12  C 9.43509615384615 12  9.33894230769231 11.9697542533081  9.23798076923077 11.9092627599244  L 6 10.124763705104  L 2.76201923076923 11.9092627599244  C 2.65625 11.9697542533081  2.56009615384615 12  2.47355769230769 12  C 2.37259615384615 12  2.296875 11.9634530560807  2.24639423076923 11.890359168242  C 2.19591346153846 11.8172652804033  2.17067307692308 11.7277882797732  2.17067307692308 11.6219281663516  C 2.17067307692308 11.5916824196597  2.17548076923077 11.5412728418399  2.18509615384615 11.4706994328923  L 2.80528846153846 7.68998109640832  L 0.18028846153846 5.01323251417769  C 0.0600961538461533 4.87712665406427  0 4.75614366729679  0 4.65028355387524  C 0 4.46376811594203  0.134615384615382 4.34782608695652  0.403846153846152 4.30245746691872  L 4.02403846153846 3.75047258979206  L 5.64663461538462 0.310018903591682  C 5.73798076923077 0.103339634530561  5.85576923076923 0  6 0  C 6.14423076923077 0  6.26201923076923 0.103339634530561  6.35336538461538 0.310018903591682  L 7.97596153846154 3.75047258979206  L 11.5961538461538 4.30245746691872  Z " fill-rule="nonzero" fill="#0099ff" stroke="none" transform="matrix(1 0 0 1 4 4 )" />
  </g>
</svg>