<?xml version="1.0" encoding="utf-8"?>
<svg version="1.1" xmlns:xlink="http://www.w3.org/1999/xlink" width="14px" height="14px" xmlns="http://www.w3.org/2000/svg">
  <g transform="matrix(1 0 0 1 -192 -33 )">
    <path d="M 10.171875 12.2885948330183  L 9.56610576923077 8.57466918714557  L 12.140625 5.95463137996219  L 8.59014423076923 5.40768746061752  L 7 2.03780718336483  L 5.40985576923077 5.40768746061752  L 1.859375 5.95463137996219  L 4.43389423076923 8.57466918714557  L 3.81971153846155 12.2885948330183  L 7 10.5330812854442  L 10.171875 12.2885948330183  Z M 13.5288461538461 5.01953371140517  C 13.8429487179487 5.07246376811594  14 5.20772946859903  14 5.42533081285445  C 14 5.55471539592523  13.9270833333333 5.69586221382062  13.78125 5.84877126654064  L 10.7271634615385 8.97164461247638  L 11.4507211538461 13.3824826717076  C 11.4563301282051 13.4236504935938  11.4591346153846 13.4824616677169  11.4591346153846 13.5589161940769  C 11.4591346153846 13.8529720646923  11.3441506410256 14  11.1141826923077 14  C 11.0076121794872 14  10.8954326923077 13.9647132955261  10.7776442307692 13.8941398865785  L 7 11.8122243226213  L 3.22235576923077 13.8941398865785  C 3.09895833333334 13.9647132955261  2.98677884615387 14  2.88581730769229 14  C 2.76802884615387 14  2.6796875 13.9573618987608  2.62079326923077 13.8720856962823  C 2.56189903846155 13.7868094938038  2.53245192307693 13.6824196597354  2.53245192307693 13.5589161940769  C 2.53245192307693 13.523629489603  2.53806089743588 13.4648183154799  2.54927884615387 13.3824826717076  L 3.27283653846155 8.97164461247638  L 0.210336538461547 5.84877126654064  C 0.0701121794871824 5.68998109640832  0 5.54883427851291  0 5.42533081285445  C 0 5.20772946859903  0.15705128205127 5.07246376811594  0.471153846153868 5.01953371140517  L 4.69471153846155 4.3755513547574  L 6.58774038461539 0.361688720856961  C 6.69431089743588 0.120562906952316  6.83173076923077 0  7 0  C 7.16826923076923 0  7.30568910256412 0.120562906952316  7.41225961538461 0.361688720856961  L 9.30528846153845 4.3755513547574  L 13.5288461538461 5.01953371140517  Z " fill-rule="nonzero" fill="#ff9900" stroke="none" transform="matrix(1 0 0 1 192 33 )" />
  </g>
</svg>