<?xml version="1.0" encoding="utf-8"?>
<svg version="1.1" xmlns:xlink="http://www.w3.org/1999/xlink" width="12px" height="9px" xmlns="http://www.w3.org/2000/svg">
  <g transform="matrix(1 0 0 1 -341 -84 )">
    <path d="M 11.8797595190381 0.927835051546396  C 11.9599198396793 1.03092783505154  12 1.14948453608247  12 1.28350515463917  C 12 1.41752577319588  11.9599198396793 1.5360824742268  11.8797595190381 1.63917525773196  L 6.27655310621242 8.84536082474226  C 6.19639278557111 8.94845360824742  6.10420841683367 9  6 9  C 5.89579158316633 9  5.80360721442889 8.94845360824742  5.72344689378758 8.84536082474226  L 0.120240480961911 1.63917525773196  C 0.040080160320656 1.5360824742268  0 1.41752577319588  0 1.28350515463917  C 0 1.14948453608247  0.040080160320656 1.03092783505154  0.120240480961911 0.927835051546396  L 0.721442885771523 0.154639175257742  C 0.801603206412835 0.0515463917525665  0.89378757515027 0  0.997995991983942 0  C 1.10220440881767 0  1.1943887775551 0.0515463917525665  1.27454909819642 0.154639175257742  L 6 6.23195876288661  L 10.7254509018036 0.154639175257742  C 10.8056112224449 0.0515463917525665  10.8977955911823 0  11.002004008016 0  C 11.1062124248497 0  11.1983967935872 0.0515463917525665  11.2785571142285 0.154639175257742  L 11.8797595190381 0.927835051546396  Z " fill-rule="nonzero" fill="#5e5e5e" stroke="none" transform="matrix(1 0 0 1 341 84 )" />
  </g>
</svg>