<?xml version="1.0" encoding="utf-8"?>
<svg version="1.1" xmlns:xlink="http://www.w3.org/1999/xlink" width="25px" height="21px" xmlns="http://www.w3.org/2000/svg">
  <g transform="matrix(1 0 0 1 -310 -83 )">
    <path d="M 18.9453125 7.35298295454545  C 19.1356169871795 7.1640625  19.2307692307692 6.94034090909091  19.2307692307692 6.68181818181818  C 19.2307692307692 6.42329545454545  19.1356169871795 6.19957386363636  18.9453125 6.01065340909091  C 18.7550080128205 5.82173295454545  18.5296474358974 5.72727272727273  18.2692307692308 5.72727272727273  C 18.0088141025641 5.72727272727273  17.783453525641 5.82173295454545  17.5931490384615 6.01065340909091  L 15.3846153846154 8.18821022727273  L 15.3846153846154 3.81818181818182  C 15.3846153846154 3.55965909090909  15.2894631410256 3.3359375  15.0991586538462 3.14701704545455  C 14.9088541666667 2.95809659090909  14.6834935897436 2.86363636363636  14.4230769230769 2.86363636363636  C 14.1626602564103 2.86363636363636  13.9372996794872 2.95809659090909  13.7469951923077 3.14701704545455  C 13.5566907051282 3.3359375  13.4615384615385 3.55965909090909  13.4615384615385 3.81818181818182  L 13.4615384615385 8.18821022727273  L 11.2530048076923 6.01065340909091  C 11.0627003205128 5.82173295454545  10.8373397435897 5.72727272727273  10.5769230769231 5.72727272727273  C 10.3165064102564 5.72727272727273  10.0911458333333 5.82173295454545  9.90084134615385 6.01065340909091  C 9.71053685897436 6.19957386363636  9.61538461538462 6.42329545454545  9.61538461538462 6.68181818181818  C 9.61538461538462 6.94034090909091  9.71053685897436 7.1640625  9.90084134615385 7.35298295454545  L 13.7469951923077 11.1711647727273  C 13.9372996794872 11.3600852272727  14.1626602564103 11.4545454545455  14.4230769230769 11.4545454545455  C 14.6834935897436 11.4545454545455  14.9088541666667 11.3600852272727  15.0991586538462 11.1711647727273  L 18.9453125 7.35298295454545  Z M 9.05198317307692 17.7411221590909  C 9.42758413461538 18.1139914772727  9.61538461538462 18.5639204545455  9.61538461538462 19.0909090909091  C 9.61538461538462 19.6178977272727  9.42758413461538 20.0678267045455  9.05198317307692 20.4406960227273  C 8.67638221153846 20.8135653409091  8.22315705128205 21  7.69230769230769 21  C 7.16145833333333 21  6.70823317307692 20.8135653409091  6.33263221153846 20.4406960227273  C 5.95703125 20.0678267045455  5.76923076923077 19.6178977272727  5.76923076923077 19.0909090909091  C 5.76923076923077 18.5639204545455  5.95703125 18.1139914772727  6.33263221153846 17.7411221590909  C 6.70823317307692 17.3682528409091  7.16145833333333 17.1818181818182  7.69230769230769 17.1818181818182  C 8.22315705128205 17.1818181818182  8.67638221153846 17.3682528409091  9.05198317307692 17.7411221590909  Z M 22.5135216346154 17.7411221590909  C 22.8891225961538 18.1139914772727  23.0769230769231 18.5639204545455  23.0769230769231 19.0909090909091  C 23.0769230769231 19.6178977272727  22.8891225961538 20.0678267045455  22.5135216346154 20.4406960227273  C 22.1379206730769 20.8135653409091  21.6846955128205 21  21.1538461538462 21  C 20.6229967948718 21  20.1697716346154 20.8135653409091  19.7941706730769 20.4406960227273  C 19.4185697115385 20.0678267045455  19.2307692307692 19.6178977272727  19.2307692307692 19.0909090909091  C 19.2307692307692 18.5639204545455  19.4185697115385 18.1139914772727  19.7941706730769 17.7411221590909  C 20.1697716346154 17.3682528409091  20.6229967948718 17.1818181818182  21.1538461538462 17.1818181818182  C 21.6846955128205 17.1818181818182  22.1379206730769 17.3682528409091  22.5135216346154 17.7411221590909  Z M 24.7145432692308 2.19247159090909  C 24.9048477564103 2.38139204545454  25 2.60511363636363  25 2.86363636363636  L 25 10.5  C 25 10.7386363636364  24.9198717948718 10.9499289772727  24.7596153846154 11.1338778409091  C 24.599358974359 11.3178267045455  24.394030448718 11.4247159090909  24.1436298076923 11.4545454545455  L 8.45853365384615 13.2741477272727  C 8.46854967948718 13.34375  8.49108573717949 13.4506392045455  8.52614182692308 13.5948153409091  C 8.56119791666667 13.7389914772727  8.59124599358974 13.8707386363636  8.61628605769231 13.9900568181818  C 8.64132612179487 14.109375  8.65384615384615 14.21875  8.65384615384615 14.3181818181818  C 8.65384615384615 14.4772727272727  8.53365384615385 14.7954545454545  8.29326923076923 15  L 22.1153846153846 15  C 22.3758012820513 15.2727272727273  22.6011618589744 15.3671875  22.7914663461538 15.5561079545455  C 22.9817708333333 15.7450284090909  23.0769230769231 15.96875  23.0769230769231 16.2272727272727  C 23.0769230769231 16.4857954545455  22.9817708333333 16.7095170454545  22.7914663461538 16.8984375  C 22.6011618589744 17.0873579545455  22.3758012820513 17.1818181818182  22.1153846153846 17  L 6.73076923076923 17  C 6.47035256410256 17.1818181818182  6.24499198717949 17.0873579545455  6.0546875 16.8984375  C 5.86438301282051 16.7095170454545  5.76923076923077 16.4857954545455  5.76923076923077 16.2272727272727  C 5.76923076923077 16.0880681818182  5.82431891025641 15.8916903409091  5.93449519230769 15.6381392045455  C 6.04467147435898 15.3845880681818  6.1924078525641 15.0887784090909  6.37770432692308 14.7507102272727  C 6.56300080128205 14.4126420454545  6.66566506410256 14.2237215909091  6.68569711538462 14.1839488636364  L 4.02644230769231 1.90909090909091  L 0.961538461538462 1.90909090909091  C 0.701121794871795 1.90909090909091  0.475761217948718 1.81463068181818  0.285456730769231 1.62571022727273  C 0.0951522435897436 1.43678977272727  0 1.21306818181818  0 0.954545454545454  C 0 0.696022727272726  0.0951522435897436 0.472301136363633  0.285456730769231 0.283380681818183  C 0.475761217948718 0.0944602272727253  0.701121794871795 0  0.961538461538462 0  L 4.80769230769231 0  C 4.96794871794872 0  5.11067708333333 0.0323153409090895  5.23587740384615 0.0969460227272732  C 5.36107772435898 0.161576704545454  5.46123798076923 0.238636363636363  5.53635817307692 0.328125  C 5.61147836538461 0.417613636363637  5.67658253205128 0.53941761363636  5.73167067307692 0.693536931818183  C 5.78675881410257 0.847656249999998  5.82431891025641 0.979403409090907  5.84435096153846 1.08877840909091  C 5.86438301282051 1.19815340909091  5.89192708333333 1.34481534090909  5.92698317307692 1.52876420454545  C 5.96203926282051 1.71271306818182  5.98457532051282 1.83948863636363  5.99459134615385 2  L 24.0384615384615 2  C 24.2988782051282 1.90909090909091  24.5242387820513 2.00355113636363  24.7145432692308 2.19247159090909  Z " fill-rule="nonzero" fill="#555555" stroke="none" transform="matrix(1 0 0 1 310 83 )" />
  </g>
</svg>