<?xml version="1.0" encoding="utf-8"?>
<svg version="1.1" xmlns:xlink="http://www.w3.org/1999/xlink" width="30px" height="27px" xmlns="http://www.w3.org/2000/svg">
  <g transform="matrix(1 0 0 1 -14 -738 )">
    <path d="M 10.8533653846154 22.8196022727273  C 11.3100961538462 23.3053977272727  11.5384615384615 23.8806818181818  11.5384615384615 24.5454545454545  C 11.5384615384615 25.2102272727273  11.3100961538462 25.7855113636364  10.8533653846154 26.2713068181818  C 10.3966346153846 26.7571022727273  9.85576923076923 27  9.23076923076923 27  C 8.60576923076923 27  8.06490384615385 26.7571022727273  7.60817307692308 26.2713068181818  C 7.15144230769231 25.7855113636364  6.92307692307692 25.2102272727273  6.92307692307692 24.5454545454545  C 6.92307692307692 23.8806818181818  7.15144230769231 23.3053977272727  7.60817307692308 22.8196022727273  C 8.06490384615385 22.3338068181818  8.60576923076923 22.0909090909091  9.23076923076923 22.0909090909091  C 9.85576923076923 22.0909090909091  10.3966346153846 22.3338068181818  10.8533653846154 22.8196022727273  Z M 27.0072115384615 22.8196022727273  C 27.4639423076923 23.3053977272727  27.6923076923077 23.8806818181818  27.6923076923077 24.5454545454545  C 27.6923076923077 25.2102272727273  27.4639423076923 25.7855113636364  27.0072115384615 26.2713068181818  C 26.5504807692308 26.7571022727273  26.0096153846154 27  25.3846153846154 27  C 24.7596153846154 27  24.21875 26.7571022727273  23.7620192307692 26.2713068181818  C 23.3052884615385 25.7855113636364  23.0769230769231 25.2102272727273  23.0769230769231 24.5454545454545  C 23.0769230769231 23.8806818181818  23.3052884615385 23.3053977272727  23.7620192307692 22.8196022727273  C 24.21875 22.3338068181818  24.7596153846154 22.0909090909091  25.3846153846154 22.0909090909091  C 26.0096153846154 22.0909090909091  26.5504807692308 22.3338068181818  27.0072115384615 22.8196022727273  Z M 29.6574519230769 2.81889204545454  C 29.8858173076923 3.06178977272727  30 3.34943181818181  30 3.68181818181818  L 30 13.5  C 30 13.8068181818182  29.9008413461538 14.0784801136364  29.7025240384615 14.3149857954545  C 29.5042067307692 14.5514914772727  29.2608173076923 14.6889204545455  28.9723557692308 14.7272727272727  L 10.1502403846154 17.0667613636364  C 10.3064903846154 17.8338068181818  10.3846153846154 18.28125  10.3846153846154 18.4090909090909  C 10.3846153846154 18.6136363636364  10.2403846153846 19.0227272727273  9.95192307692308 19.6363636363636  L 26.5384615384615 19.6363636363636  C 26.8509615384615 19.6363636363636  27.1213942307692 19.7578125  27.3497596153846 20.0007102272727  C 27.578125 20.2436079545455  27.6923076923077 20.53125  27.6923076923077 20.8636363636364  C 27.6923076923077 21.1960227272727  27.578125 21.4836647727273  27.3497596153846 21.7265625  C 27.1213942307692 21.9694602272727  26.8509615384615 22.0909090909091  26.5384615384615 22  L 8.07692307692308 22  C 7.76442307692308 22.0909090909091  7.49399038461539 21.9694602272727  7.265625 21.7265625  C 7.03725961538461 21.4836647727273  6.92307692307692 21.1960227272727  6.92307692307692 20.8636363636364  C 6.92307692307692 20.7230113636364  6.97115384615385 20.5216619318182  7.06730769230769 20.2595880681818  C 7.16346153846154 19.9975142045455  7.25961538461539 19.7674005681818  7.35576923076923 19.5692471590909  C 7.45192307692308 19.37109375  7.58112980769231 19.1154119318182  7.74338942307692 18.8022017045455  C 7.90564903846154 18.4889914772727  7.99879807692308 18.3004261363636  8.02283653846154 18.2365056818182  L 4.83173076923077 2.45454545454546  L 1.15384615384615 2.45454545454546  C 0.841346153846154 2.45454545454546  0.570913461538462 2.33309659090909  0.342548076923077 2.09019886363636  C 0.114182692307692 1.84730113636363  0 1.55965909090909  0 1.22727272727273  C 0 0.894886363636362  0.114182692307692 0.607244318181814  0.342548076923077 0.364346590909092  C 0.570913461538462 0.121448863636361  0.841346153846154 0  1.15384615384615 0  L 5.76923076923077 0  C 5.96153846153846 0  6.1328125 0.0415482954545436  6.28305288461538 0.124644886363637  C 6.43329326923077 0.207741477272727  6.55048076923077 0.306818181818182  6.63461538461538 0.421875  C 6.71875 0.536931818181818  6.796875 0.693536931818178  6.86899038461538 0.891690340909092  C 6.94110576923077 1.08984375  6.98918269230769 1.25603693181818  7.01322115384615 1.39026988636364  C 7.03725961538462 1.52450284090909  7.0703125 1.71306818181818  7.11237980769231 1.95596590909091  C 7.15444711538462 2.19886363636363  7.18149038461539 2.36505681818182  7.19350961538462 2.45454545454546  L 28.8461538461538 2.45454545454546  C 29.1586538461539 2.45454545454546  29.4290865384615 2.57599431818182  29.6574519230769 2.81889204545454  Z " fill-rule="nonzero" fill="#5e5e5e" stroke="none" transform="matrix(1 0 0 1 14 738 )" />
  </g>
</svg>