<?xml version="1.0" encoding="utf-8"?>
<svg version="1.1" xmlns:xlink="http://www.w3.org/1999/xlink" width="12px" height="12px" xmlns="http://www.w3.org/2000/svg">
  <defs>
    <mask fill="white" id="clip2658">
      <path d="M 12 1.712158808933  C 12 1.84119106699752  11.9266409266409 1.95285359801488  11.7799227799228 2.04714640198511  L 5.62934362934363 6  L 11.7799227799228 9.9528535980149  C 11.9266409266409 10.0471464019851  12 10.1588089330025  12 10.287841191067  C 12 10.4168734491315  11.9266409266409 10.5285359801489  11.7799227799228 10.6228287841191  L 9.85714285714287 11.8585607940447  C 9.71042471042469 11.9528535980149  9.53667953667952 12  9.33590733590734 12  C 9.13513513513513 12  8.96138996138996 11.9528535980149  8.81467181467183 11.8585607940447  L 0.220077220077224 6.33498759305211  C 0.0733590733590805 6.24069478908189  0 6.12903225806453  0 6  C 0 5.87096774193547  0.0733590733590805 5.7593052109181  0.220077220077224 5.66501240694789  L 8.81467181467183 0.141439205955344  C 8.96138996138996 0.0471464019851169  9.13513513513513 0  9.33590733590734 0  C 9.53667953667952 0  9.71042471042469 0.0471464019851169  9.85714285714287 0.141439205955344  L 11.7799227799228 1.37717121588089  C 11.9266409266409 1.47146401985112  12 1.58312655086849  12 1.712158808933  Z " fill-rule="evenodd" />
    </mask>
  </defs>
  <g transform="matrix(1 0 0 1 -4 -4 )">
    <path d="M 12 1.712158808933  C 12 1.84119106699752  11.9266409266409 1.95285359801488  11.7799227799228 2.04714640198511  L 5.62934362934363 6  L 11.7799227799228 9.9528535980149  C 11.9266409266409 10.0471464019851  12 10.1588089330025  12 10.287841191067  C 12 10.4168734491315  11.9266409266409 10.5285359801489  11.7799227799228 10.6228287841191  L 9.85714285714287 11.8585607940447  C 9.71042471042469 11.9528535980149  9.53667953667952 12  9.33590733590734 12  C 9.13513513513513 12  8.96138996138996 11.9528535980149  8.81467181467183 11.8585607940447  L 0.220077220077224 6.33498759305211  C 0.0733590733590805 6.24069478908189  0 6.12903225806453  0 6  C 0 5.87096774193547  0.0733590733590805 5.7593052109181  0.220077220077224 5.66501240694789  L 8.81467181467183 0.141439205955344  C 8.96138996138996 0.0471464019851169  9.13513513513513 0  9.33590733590734 0  C 9.53667953667952 0  9.71042471042469 0.0471464019851169  9.85714285714287 0.141439205955344  L 11.7799227799228 1.37717121588089  C 11.9266409266409 1.47146401985112  12 1.58312655086849  12 1.712158808933  Z " fill-rule="nonzero" fill="#0099ff" stroke="none" transform="matrix(1 0 0 1 4 4 )" />
    <path d="M 12 1.712158808933  C 12 1.84119106699752  11.9266409266409 1.95285359801488  11.7799227799228 2.04714640198511  L 5.62934362934363 6  L 11.7799227799228 9.9528535980149  C 11.9266409266409 10.0471464019851  12 10.1588089330025  12 10.287841191067  C 12 10.4168734491315  11.9266409266409 10.5285359801489  11.7799227799228 10.6228287841191  L 9.85714285714287 11.8585607940447  C 9.71042471042469 11.9528535980149  9.53667953667952 12  9.33590733590734 12  C 9.13513513513513 12  8.96138996138996 11.9528535980149  8.81467181467183 11.8585607940447  L 0.220077220077224 6.33498759305211  C 0.0733590733590805 6.24069478908189  0 6.12903225806453  0 6  C 0 5.87096774193547  0.0733590733590805 5.7593052109181  0.220077220077224 5.66501240694789  L 8.81467181467183 0.141439205955344  C 8.96138996138996 0.0471464019851169  9.13513513513513 0  9.33590733590734 0  C 9.53667953667952 0  9.71042471042469 0.0471464019851169  9.85714285714287 0.141439205955344  L 11.7799227799228 1.37717121588089  C 11.9266409266409 1.47146401985112  12 1.58312655086849  12 1.712158808933  Z " stroke-width="2" stroke="#7f7f7f" fill="none" transform="matrix(1 0 0 1 4 4 )" mask="url(#clip2658)" />
  </g>
</svg>