<?xml version="1.0" encoding="utf-8"?>
<svg version="1.1" xmlns:xlink="http://www.w3.org/1999/xlink" width="16px" height="16px" xmlns="http://www.w3.org/2000/svg">
  <g transform="matrix(1 0 0 1 -34 -732 )">
    <path d="M 42 732  C 46.48 732  50 735.52  50 740  C 50 744.48  46.48 748  42 748  C 37.52 748  34 744.48  34 740  C 34 735.52  37.52 732  42 732  Z " fill-rule="nonzero" fill="#ff0000" stroke="none" />
    <path d="M 42 732.5  C 46.2 732.5  49.5 735.8  49.5 740  C 49.5 744.2  46.2 747.5  42 747.5  C 37.8 747.5  34.5 744.2  34.5 740  C 34.5 735.8  37.8 732.5  42 732.5  Z " stroke-width="1" stroke="#ff0000" fill="none" />
  </g>
</svg>