<?xml version="1.0" encoding="utf-8"?>
<svg version="1.1" xmlns:xlink="http://www.w3.org/1999/xlink" width="30px" height="30px" xmlns="http://www.w3.org/2000/svg">
  <g transform="matrix(1 0 0 1 -968 0 )">
    <path d="M 22.0703125000001 20.3125  C 22.3177083333333 20.0651041666667  22.44140625 19.765625  22.44140625 19.4140625  C 22.44140625 19.0755208333333  22.3177083333333 18.7825520833333  22.0703125000001 18.53515625  L 18.5351562499999 15  L 22.0703125000001 11.46484375  C 22.3177083333333 11.2174479166667  22.44140625 10.9244791666667  22.44140625 10.5859375  C 22.44140625 10.234375  22.3177083333333 9.93489583333333  22.0703125000001 9.68749999999999  L 20.3125000000001 7.92968749999999  C 20.0651041666666 7.68229166666668  19.7656249999999 7.55859375  19.4140624999999 7.55859375  C 19.0755208333334 7.55859375  18.7825520833334 7.68229166666668  18.5351562499999 7.92968749999999  L 15 11.46484375  L 11.46484375 7.92968749999999  C 11.2174479166667 7.68229166666668  10.9244791666667 7.55859375  10.5859375 7.55859375  C 10.234375 7.55859375  9.93489583333337 7.68229166666668  9.6875 7.92968749999999  L 7.9296875 9.68749999999999  C 7.68229166666652 9.93489583333333  7.55859375 10.234375  7.55859375 10.5859375  C 7.55859375 10.9244791666667  7.68229166666652 11.2174479166667  7.9296875 11.46484375  L 11.46484375 15  L 7.9296875 18.53515625  C 7.68229166666652 18.7825520833333  7.55859375 19.0755208333333  7.55859375 19.4140625  C 7.55859375 19.765625  7.68229166666652 20.0651041666667  7.9296875 20.3125  L 9.6875 22.0703125  C 9.93489583333337 22.3177083333333  10.234375 22.44140625  10.5859375 22.44140625  C 10.9244791666667 22.44140625  11.2174479166667 22.3177083333333  11.46484375 22.0703125  L 15 18.53515625  L 18.5351562499999 22.0703125  C 18.7825520833334 22.3177083333333  19.0755208333334 22.44140625  19.4140624999999 22.44140625  C 19.7656249999999 22.44140625  20.0651041666666 22.3177083333333  20.3125000000001 22.0703125  L 22.0703125000001 20.3125  Z M 27.9882812500001 7.470703125  C 29.3294270833334 9.76888020833334  30 12.2786458333333  30 15  C 30 17.7213541666667  29.3294270833334 20.2311197916667  27.9882812500001 22.529296875  C 26.6471354166669 24.8274739583333  24.8274739583331 26.6471354166667  22.529296875 27.98828125  C 20.2311197916669 29.3294270833333  17.7213541666666 30  15 30  C 12.2786458333333 30  9.76888020833326 29.3294270833333  7.470703125 27.98828125  C 5.17252604166674 26.6471354166667  3.35286458333326 24.8274739583333  2.01171875 22.529296875  C 0.670572916666629 20.2311197916667  0 17.7213541666667  0 15  C 0 12.2786458333333  0.670572916666629 9.76888020833334  2.01171875 7.470703125  C 3.35286458333326 5.17252604166666  5.17252604166674 3.35286458333334  7.470703125 2.01171874999999  C 9.76888020833326 0.67057291666665  12.2786458333333 0  15 0  C 17.7213541666666 0  20.2311197916669 0.67057291666665  22.529296875 2.01171874999999  C 24.8274739583331 3.35286458333334  26.6471354166669 5.17252604166666  27.9882812500001 7.470703125  Z " fill-rule="nonzero" fill="#ff0000" stroke="none" transform="matrix(1 0 0 1 968 0 )" />
  </g>
</svg>