<?xml version="1.0" encoding="utf-8"?>
<svg version="1.1" xmlns:xlink="http://www.w3.org/1999/xlink" width="80px" height="80px" xmlns="http://www.w3.org/2000/svg">
  <g>
    <path d="M 1 5  A 4 4 0 0 1 5 1 L 75 1  A 4 4 0 0 1 79 5 L 79 75  A 4 4 0 0 1 75 79 L 5 79  A 4 4 0 0 1 1 75 L 1 5  Z " fill-rule="nonzero" fill="#f2f2f2" stroke="none" />
    <path d="M 0.5 5  A 4.5 4.5 0 0 1 5 0.5 L 75 0.5  A 4.5 4.5 0 0 1 79.5 5 L 79.5 75  A 4.5 4.5 0 0 1 75 79.5 L 5 79.5  A 4.5 4.5 0 0 1 0.5 75 L 0.5 5  Z " stroke-width="1" stroke-dasharray="9,4" stroke="#0099ff" fill="none" stroke-dashoffset="0.5" />
  </g>
</svg>