<?xml version="1.0" encoding="utf-8"?>
<svg version="1.1" xmlns:xlink="http://www.w3.org/1999/xlink" width="20px" height="20px" xmlns="http://www.w3.org/2000/svg">
  <g transform="matrix(1 0 0 1 -113 -140 )">
    <path d="M 13.666359188383 12.2495274102079  L 14.2553354113421 11.6572148708255  L 17.3444556011479 8.50661625708885  L 13.0653630425063 7.85129174543162  L 12.2720481299491 7.72526780088218  L 11.9114504424232 6.9691241335854  L 10 2.91115311909262  L 10 15.047258979206  L 10.7094581506699 15.4379332073094  L 14.5317936384453 17.5551354757404  L 13.8105982633934 13.0812854442344  L 13.666359188383 12.2495274102079  Z M 19.9768187200876 7.60554505356019  C 20.0489382575928 7.83658895190086  19.9527788742525 8.08653644192397  19.6883405700668 8.3553875236295  L 15.3251085510025 12.8166351606805  L 16.3588219219103 19.1178323881537  C 16.3988883316354 19.3950850661626  16.3748484858003 19.6114261709725  16.2867023844051 19.7668557025835  C 16.1985562830098 19.9222852341945  16.0623304899445 20  15.8780250052089 20  C 15.7417992121436 20  15.5815335732431 19.9495904221802  15.3972280885076 19.8487712665407  L 10.0002826985355 16.8746061751733  L 4.60333730856332 19.8487712665407  C 4.41903182382784 19.9495904221802  4.25876618492745 20  4.12254039186203 20  C 3.93823490712655 20  3.80200911406117 19.9222852341945  3.71386301266593 19.7668557025835  C 3.62571691127069 19.6114261709725  3.60167706543564 19.3950850661626  3.64174347516074 19.1178323881537  L 4.67545684606855 12.8166351606805  L 0.300204904086659 8.3553875236295  C 0.0437798818459864 8.08653644192397  -0.0483728605217948 7.83658895190086  0.023746676983397 7.60554505356019  C 0.0958662144885888 7.37450115521948  0.312224827004205 7.2295736189876  0.672822514530164 7.17076244486453  L 6.70682381913155 6.25078764965345  L 9.4113064755764 0.516698172652821  C 9.57157211447683 0.172232724217594  9.76789752212986 0  10.0002826985355 0  C 10.2246545929961 0  10.4209800006491 0.172232724217594  10.5892589214946 0.516698172652821  L 13.2937415779395 6.25078764965345  L 19.3277428825408 7.17076244486453  C 19.6883405700668 7.2295736189876  19.9046991825824 7.37450115521948  19.9768187200876 7.60554505356019  Z " fill-rule="nonzero" fill="#ff9900" stroke="none" transform="matrix(1 0 0 1 113 140 )" />
  </g>
</svg>