<?xml version="1.0" encoding="utf-8"?>
<svg version="1.1" xmlns:xlink="http://www.w3.org/1999/xlink" width="20px" height="20px" xmlns="http://www.w3.org/2000/svg">
  <g transform="matrix(1 0 0 1 -148 -140 )">
    <path d="M 14.53125 17.5551354757404  L 13.6658653846154 12.249527410208  L 17.34375 8.50661625708885  L 12.2716346153846 7.72526780088218  L 10 2.91115311909262  L 7.72836538461539 7.72526780088218  L 2.65625 8.50661625708885  L 6.33413461538461 12.249527410208  L 5.45673076923078 17.5551354757404  L 10 15.047258979206  L 14.53125 17.5551354757404  Z M 19.326923076923 7.17076244486453  C 19.775641025641 7.2463768115942  20 7.43961352657005  20 7.75047258979207  C 20 7.93530770846461  19.8958333333333 8.13694601974374  19.6875 8.35538752362948  L 15.3245192307692 12.8166351606805  L 16.358173076923 19.1178323881537  C 16.3661858974359 19.1766435622768  16.3701923076923 19.2606595253098  16.3701923076923 19.3698802772527  C 16.3701923076923 19.7899600924175  16.2059294871795 20  15.8774038461538 20  C 15.7251602564103 20  15.5649038461538 19.9495904221802  15.3966346153846 19.8487712665407  L 10 16.8746061751733  L 4.60336538461539 19.8487712665407  C 4.42708333333335 19.9495904221802  4.26682692307695 20  4.12259615384613 20  C 3.95432692307695 20  3.828125 19.9390884268011  3.74399038461539 19.8172652804033  C 3.65985576923078 19.6954421340055  3.61778846153848 19.5463137996219  3.61778846153848 19.3698802772527  C 3.61778846153848 19.3194706994329  3.62580128205126 19.2354547363999  3.64182692307695 19.1178323881537  L 4.67548076923078 12.8166351606805  L 0.300480769230782 8.35538752362948  C 0.100160256410261 8.12854442344045  0 7.9269061121613  0 7.75047258979207  C 0 7.43961352657005  0.224358974358958 7.2463768115942  0.673076923076954 7.17076244486453  L 6.70673076923078 6.25078764965343  L 9.4110576923077 0.516698172652801  C 9.56330128205126 0.172232724217594  9.75961538461539 0  10 0  C 10.2403846153846 0  10.4366987179487 0.172232724217594  10.5889423076923 0.516698172652801  L 13.2932692307692 6.25078764965343  L 19.326923076923 7.17076244486453  Z " fill-rule="nonzero" fill="#ff9900" stroke="none" transform="matrix(1 0 0 1 148 140 )" />
  </g>
</svg>