<?xml version="1.0" encoding="utf-8"?>
<svg version="1.1" xmlns:xlink="http://www.w3.org/1999/xlink" width="11px" height="16px" xmlns="http://www.w3.org/2000/svg">
  <defs>
    <mask fill="white" id="clip2660">
      <path d="M 10.5410415375077 11.8518518518517  C 10.7415375077496 11.8518518518517  10.8799752014879 11.9104938271605  10.9563546187228 12.0277777777778  C 11.0327340359579 12.1450617283949  11.0088654680719 12.2530864197531  10.8847489150651 12.3518518518517  L 5.87234965902041 15.9074074074074  C 5.77687538747682 15.9691358024691  5.66707997520155 16  5.5429634221947 16  C 5.40929944203344 16  5.29473031618102 15.9691358024691  5.19925604463731 15.9074074074074  L 0.115251084934926 12.3518518518517  C -0.00886546807191735 12.2530864197531  -0.0327340359578443 12.1450617283949  0.0436453812771447 12.0277777777778  C 0.129572225666493 11.9104938271605  0.268009919404847 11.8518518518517  0.458958462492262 11.8518518518517  L 3.66689398636083 11.8518518518517  L 3.66689398636083 0.296296296296305  C 3.66689398636083 0.20987654320993  3.70985740855554 0.138888888888687  3.79578425294483 0.0833333333332575  C 3.88171109733412 0.0277777777778283  3.99150650960951 0  4.12517048977065 0  L 6.87482951022935 0  C 7.00849349039049 0  7.11828890266588 0.0277777777778283  7.20421574705517 0.0833333333332575  C 7.29014259144446 0.138888888888687  7.33310601363917 0.20987654320993  7.33310601363917 0.296296296296305  L 7.33310601363917 11.8518518518517  L 10.5410415375077 11.8518518518517  Z " fill-rule="evenodd" />
    </mask>
  </defs>
  <g transform="matrix(1 0 0 1 -144 -902 )">
    <path d="M 10.5410415375077 11.8518518518517  C 10.7415375077496 11.8518518518517  10.8799752014879 11.9104938271605  10.9563546187228 12.0277777777778  C 11.0327340359579 12.1450617283949  11.0088654680719 12.2530864197531  10.8847489150651 12.3518518518517  L 5.87234965902041 15.9074074074074  C 5.77687538747682 15.9691358024691  5.66707997520155 16  5.5429634221947 16  C 5.40929944203344 16  5.29473031618102 15.9691358024691  5.19925604463731 15.9074074074074  L 0.115251084934926 12.3518518518517  C -0.00886546807191735 12.2530864197531  -0.0327340359578443 12.1450617283949  0.0436453812771447 12.0277777777778  C 0.129572225666493 11.9104938271605  0.268009919404847 11.8518518518517  0.458958462492262 11.8518518518517  L 3.66689398636083 11.8518518518517  L 3.66689398636083 0.296296296296305  C 3.66689398636083 0.20987654320993  3.70985740855554 0.138888888888687  3.79578425294483 0.0833333333332575  C 3.88171109733412 0.0277777777778283  3.99150650960951 0  4.12517048977065 0  L 6.87482951022935 0  C 7.00849349039049 0  7.11828890266588 0.0277777777778283  7.20421574705517 0.0833333333332575  C 7.29014259144446 0.138888888888687  7.33310601363917 0.20987654320993  7.33310601363917 0.296296296296305  L 7.33310601363917 11.8518518518517  L 10.5410415375077 11.8518518518517  Z " fill-rule="nonzero" fill="#5e5e5e" stroke="none" transform="matrix(1 0 0 1 144 902 )" />
    <path d="M 10.5410415375077 11.8518518518517  C 10.7415375077496 11.8518518518517  10.8799752014879 11.9104938271605  10.9563546187228 12.0277777777778  C 11.0327340359579 12.1450617283949  11.0088654680719 12.2530864197531  10.8847489150651 12.3518518518517  L 5.87234965902041 15.9074074074074  C 5.77687538747682 15.9691358024691  5.66707997520155 16  5.5429634221947 16  C 5.40929944203344 16  5.29473031618102 15.9691358024691  5.19925604463731 15.9074074074074  L 0.115251084934926 12.3518518518517  C -0.00886546807191735 12.2530864197531  -0.0327340359578443 12.1450617283949  0.0436453812771447 12.0277777777778  C 0.129572225666493 11.9104938271605  0.268009919404847 11.8518518518517  0.458958462492262 11.8518518518517  L 3.66689398636083 11.8518518518517  L 3.66689398636083 0.296296296296305  C 3.66689398636083 0.20987654320993  3.70985740855554 0.138888888888687  3.79578425294483 0.0833333333332575  C 3.88171109733412 0.0277777777778283  3.99150650960951 0  4.12517048977065 0  L 6.87482951022935 0  C 7.00849349039049 0  7.11828890266588 0.0277777777778283  7.20421574705517 0.0833333333332575  C 7.29014259144446 0.138888888888687  7.33310601363917 0.20987654320993  7.33310601363917 0.296296296296305  L 7.33310601363917 11.8518518518517  L 10.5410415375077 11.8518518518517  Z " stroke-width="2" stroke="#ffffff" fill="none" transform="matrix(1 0 0 1 144 902 )" mask="url(#clip2660)" />
  </g>
</svg>