<?xml version="1.0" encoding="utf-8"?>
<svg version="1.1" xmlns:xlink="http://www.w3.org/1999/xlink" width="27px" height="24px" xmlns="http://www.w3.org/2000/svg">
  <g transform="matrix(1 0 0 1 -176 -94 )">
    <path d="M 9.22552250230277 19.197175076888  C 9.63219859628182 19.0483784355524  9.94599187867308 18.7866065665359  10.1669023494765 18.4118594698387  C 10.3777714352434 18.0371123731415  10.4329990529443 17.6568542897282  10.3325852025791 17.2710852195987  C 10.2321713522139 16.8853161494692  10.0062401888922 16.6097668136625  9.65479171261401 16.4444372121784  C 9.31338462137231 16.2901295841266  8.94687406753934 16.2846185974105  8.55526005111506 16.42790425203  C 8.1636460346908 16.5711899066495  7.86240448359516 16.8246952955917  7.65153539782827 17.1884204188567  C 7.43062492702481 17.5631675155539  7.36535592428743 17.9406701056092  7.45572838961613 18.3209281890225  C 7.5461008549448 18.7011862724358  7.76199063322997 18.9794911016007  8.10339772447165 19.155842676517  C 8.44480481571335 19.3321942514334  8.81884640832374 19.3459717182237  9.22552250230277 19.197175076888  Z M 11.2513719334207 16.7172310546271  C 11.4019927089685 16.6566102007496  11.5124479443702 16.5546569465011  11.5827376396259 16.4113712918816  C 11.663068719918 16.2680856372621  11.6806411437319 16.1220444892845  11.6354549110676 15.9732478479488  C 11.5902686784032 15.8244512066132  11.5024065593337 15.7224979523647  11.3718685538589 15.6673880852033  C 11.2312891633476 15.612278218042  11.0881994265772 15.6150337114  10.9425993435477 15.6756545652775  C 10.7969992605182 15.736275419155  10.6890543713756 15.8382286734035  10.6187646761199 15.981514328023  C 10.4480611304991 16.3231955044234  10.5133301332365 16.5711899066495  10.8145716843321 16.7254975347013  C 10.9551510748433 16.7806074018627  11.1007511578729 16.7778519085046  11.2513719334207 16.7172310546271  Z M 14.1658839402706 15.0308691194897  C 14.6428497295053 16.0283577151102  14.655401460801 17.078200684534  14.2035391341576 18.180398027761  C 13.7516768075142 19.3046393178527  12.9584073896291 20.131287325273  11.8237308805024 20.660342050022  C 10.6890543713756 21.189396774771  9.56441924728534 21.2555286153646  8.44982550823158 20.8587375718028  C 7.37539730932394 20.4839904751056  6.63484516288059 19.7868506555145  6.22816906890156 18.7673181130295  C 5.82149297492251 17.7477855705444  5.85412747629118 16.714475561269  6.32607257300762 15.6673880852033  C 6.79801766972406 14.6423445560021  7.55865258624044 13.8763174024593  8.60797732255676 13.3693066245749  C 9.65730205887314 12.8622958466904  10.7141578339669 12.7575870990838  11.778544647838 13.0551803817552  C 12.8931383868917 13.374817611291  13.6889181510359 14.0333805238692  14.1658839402706 15.0308691194897  Z M 16.9071820552406 19.9080923632695  C 18.3782449630908 18.6019885115454  19.0434867217602 17.1443325251276  18.902907331249 15.5351244040161  C 18.8125348659202 14.4770149545181  18.3656932317951 13.5401472127751  17.5623824288735 12.724521178787  C 16.7590716259519 11.908895144799  15.7122572358947 11.3081975927402  14.4219392587019 10.9224285226108  C 13.1316212815091 10.5366594524813  11.7534411852467 10.4209287314425  10.2873989699148 10.5752363594942  C 8.04817010677084 10.8287417484365  6.19302422127373 11.6085463687696  4.72196131342355 12.9146502204937  C 3.25089840557337 14.2207540722178  2.58565664690391 15.6784100586356  2.72623603741519 17.2876181797471  C 2.81660850274386 18.3457276292451  3.26345013686901 19.2825953709881  4.06676093979061 20.0982214049762  C 4.87007174271224 20.9138474389642  5.91688613276941 21.5145449910229  7.20720410996225 21.9003140611524  C 8.49752208715506 22.2860831312819  9.87570218341745 22.4018138523207  11.3417443987494 22.2475062242689  C 13.5809732618933 21.9940008353267  15.4361191473904 21.2141962149936  16.9071820552406 19.9080923632695  Z M 23.0299165812587 13.6751663873204  C 23.3713236725004 14.2538199925146  23.5420272181212 14.8958499449444  23.5420272181212 15.6012562446097  C 23.5420272181212 16.3507504380041  23.3562615949456 17.119533084905  22.9847303485943 17.9076041853124  C 22.6131991022431 18.6956752857197  22.0659436177528 19.4506804658303  21.3429638951233 20.172619725644  C 20.6199841724939 20.8945589854577  19.7739974831671 21.5420999246036  18.8050038271429 22.1152425430817  C 17.8360101711187 22.6883851615598  16.7013336619919 23.145797058999  15.4009742997626 23.4874782353994  C 14.1006149375333 23.8291594117998  12.7425176113439 24  11.3266823211946 24  C 9.91084703104528 24  8.53015658852377 23.8153819450094  7.18461099363006 23.4461458350284  C 5.83906539873641 23.0769097250473  4.63158884809485 22.5643879604467  3.5621813417055 21.9085805412266  C 2.49277383531609 21.2527731220065  1.63172506843449 20.4206141278701  0.979035041060712 19.4121035588173  C 0.326345013686876 18.4035929897645  0 17.3041511398955  0 16.1137780092103  C 0 14.8462510644992  0.348938130019093 13.496059319046  1.04681439005722 12.0632027728508  C 1.74469065009538 10.6303462266556  2.73627742245171 9.20851165389267  4.02157470712626 7.79769905456202  C 5.71856877829816 5.93498554450827  7.43313527328394 4.63439267950031  9.16527419208367 3.89592045953817  C 10.8974131108834 3.15744823957603  12.1350138166345 3.19602514658898  12.878076309337 4.01165118057702  C 13.5307663367107 4.71705748024235  13.6311801870759 5.86885370391464  13.1793178604325 7.4670398515939  C 13.1391523202865 7.62134747964568  13.1341316277682 7.73156721396839  13.1642557828777 7.79769905456202  C 13.1943799379873 7.86383089515564  13.2445868631699 7.90240780216858  13.3148765584255 7.91342977560086  C 13.3851662536812 7.92445174903312  13.4579662951959 7.92169625567507  13.5332766829699 7.90516329552666  C 13.6085870707438 7.88863033537825  13.6763664197403 7.86934188187178  13.7366147299594 7.84729793500723  L 13.8269871952881 7.81423201471043  C 15.2227397153644 7.16393558220645  16.4578300748563 6.83878736595446  17.532258273764 6.83878736595446  C 18.6066864726716 6.83878736595446  19.3748524279654 7.17495755563871  19.8367561396453 7.84729793500723  C 20.2886184662887 8.5416822612403  20.2886184662887 9.52263789671238  19.8367561396453 10.7901648414235  C 19.8166733695723 10.9334504960431  19.7940802532401 11.0436702303657  19.7689767906488 11.1208240443917  C 19.7438733280575 11.1979778584175  19.7664664443897 11.2668651923692  19.8367561396453 11.3274860462467  C 19.907045834901 11.3881069001242  19.9672941451201 11.4294393004952  20.0175010703027 11.4514832473598  C 20.0677079954853 11.4735271942243  20.1530597682957 11.5065931145211  20.2735563887339 11.5506810082502  C 20.8459153358156 11.7490765300311  21.3630466651964 12.0080929056895  21.8249503768763 12.3277301352253  C 22.2868540885562 12.6473673647611  22.688509490017 13.0965127821262  23.0299165812587 13.6751663873204  Z M 20.9061636460347 4.20178022228369  C 21.4986053631894 4.40568673078069  22.0056953075336 4.76665636068756  22.4274334790675 5.28468911200429  C 22.8491716506013 5.80272186332101  23.1227993928465 6.40066392202171  23.248316705803 7.07851528810636  C 23.3738340187595 7.756366654191  23.3411995173908 8.40390759333691  23.1504132016969 9.02113810554408  C 23.0700821214048 9.2746434944863  22.9219716921161 9.4620170428349  22.7060819138309 9.58325875058986  C 22.4901921355458 9.70450045834485  22.2667713184832 9.7265444052094  22.0358194626432 9.6493905911835  C 21.8048676068032 9.56121480372533  21.6341640611824 9.39864069559935  21.5237088257807 9.16166826680552  C 21.413253590379 8.9246958380117  21.3931708203059 8.67945692914367  21.4634605155616 8.42595154020145  C 21.664288216292 7.7315672139684  21.5437915958537 7.11984768847736  21.1019706542469 6.59079296372838  C 20.66014971264 6.06173823897937  20.1229356131861 5.86885370391464  19.4903283558854 6.01213935853416  C 19.2493351150089 6.06724922569551  19.0234039516872 6.02316133196643  18.8125348659202 5.87987567734692  C 18.6016657801534 5.73659002272738  18.4761484671969 5.53268351423037  18.4359829270508 5.26815615185589  C 18.3857760018682 5.00362878948138  18.4259415420142 4.75838988061336  18.556479547489 4.53243942525182  C 18.6870175529638 4.30648896989027  18.8727831761394 4.1659588086288  19.1137764170159 4.11084894146747  C 19.7162595192071 3.96756328684795  20.31372192888 3.99787371378667  20.9061636460347 4.20178022228369  Z M 22.0207573850884 0.366133467853473  C 23.2357649745074 0.779457471563632  24.2800690183054 1.52068518488385  25.1536695164827 2.58981660781409  C 26.0272700146599 3.64792605731209  26.5920979229642 4.87412060165219  26.8481532413954 6.26840024083444  C 27.1042085598267 7.6626798800167  27.0364292108302 8.99358317196339  26.6448151944059 10.2611101166745  C 26.5544427290772 10.5587033993458  26.3837391834564 10.7791428679913  26.1327045575434 10.9224285226108  C 25.8816699316303 11.0657141772303  25.6205939206808 11.0877581240948  25.3494765246948 10.9885603632044  C 25.0783591287088 10.889362602314  24.8775314279784 10.7019890539654  24.7469934225036 10.4264397181586  C 24.6164554170288 10.1508903823518  24.5913519544376 9.86431907311278  24.6716830347297 9.56672579044147  C 24.9528418157523 8.66292396899527  25.0030487409349 7.71503425381999  24.8223038102775 6.72305664491562  C 24.6415588796201 5.73107903601124  24.2399034781593 4.86034313486186  23.6173376058951 4.11084894146747  C 22.9947717336309 3.35033277464078  22.2517092409284 2.82403354324985  21.3881501277876 2.53195124729466  C 20.5245910146469 2.23986895133949  19.6560112089879 2.19302556425235  18.7824107108107 2.39142108603322  C 18.5012519297882 2.45755292662685  18.2401759188386 2.40519855282356  17.9991826779622 2.23435796462336  C 17.7581894370857 2.06351737642316  17.6075686615379 1.82378945427126  17.5473203513187 1.5151741981677  C 17.4870720410996 1.20655894206411  17.5347686200231 0.92274312618315  17.6904100880892 0.663726750524773  C 17.8460515561552 0.404710374866426  18.0644516806995 0.242136266740431  18.3456104617221 0.176004426146804  C 19.5807008212141 -0.110566883092233  20.8057497956695 -0.0471905358566715  22.0207573850884 0.366133467853473  Z " fill-rule="nonzero" fill="#ff0000" stroke="none" transform="matrix(1 0 0 1 176 94 )" />
  </g>
</svg>