<?xml version="1.0" encoding="utf-8"?>
<svg version="1.1" xmlns:xlink="http://www.w3.org/1999/xlink" width="32px" height="24px" xmlns="http://www.w3.org/2000/svg">
  <g transform="matrix(1 0 0 1 -35 -94 )">
    <path d="M 8.671875 6.68345323741008  C 8.93229166666667 6.44844124700239  9.0625 6.13429256594723  9.0625 5.7410071942446  C 9.0625 5.34772182254196  8.93229166666667 5.03117505995203  8.671875 4.79136690647482  C 8.41145833333334 4.55155875299761  8.06770833333334 4.431654676259  7.640625 4.431654676259  C 7.19270833333334 4.431654676259  6.796875 4.55395683453237  6.453125 4.79856115107913  C 6.109375 5.0431654676259  5.9375 5.35731414868104  5.9375 5.7410071942446  C 5.9375 6.11510791366906  6.109375 6.42446043165468  6.453125 6.66906474820144  C 6.796875 6.91366906474821  7.19270833333334 7.03597122302159  7.640625 7.03597122302159  C 8.06770833333334 7.03597122302159  8.41145833333334 6.91846522781775  8.671875 6.68345323741008  Z M 20.2734375 13.7697841726619  C 20.5390625 13.5587529976019  20.671875 13.3141486810552  20.671875 13.0359712230216  C 20.671875 12.7673860911271  20.5390625 12.5275779376499  20.2734375 12.3165467625899  C 20.0078125 12.10551558753  19.6666666666667 12  19.25 12  C 18.96875 12  18.7109375 12.1079136690648  18.4765625 12.3237410071942  C 18.2421875 12.5395683453237  18.125 12.7769784172662  18.125 13.0359712230216  C 18.125 13.3045563549161  18.2421875 13.5467625899281  18.4765625 13.7625899280576  C 18.7109375 13.9784172661871  18.96875 14.0863309352518  19.25 14.0863309352518  C 19.6666666666667 14.0863309352518  20.0078125 13.9808153477218  20.2734375 13.7697841726619  Z M 16.6015625 6.68345323741008  C 16.8567708333333 6.44844124700239  16.984375 6.13429256594723  16.984375 5.7410071942446  C 16.984375 5.34772182254196  16.8567708333333 5.03117505995203  16.6015625 4.79136690647482  C 16.3463541666667 4.55155875299761  16.0052083333333 4.431654676259  15.578125 4.431654676259  C 15.1302083333333 4.431654676259  14.734375 4.55395683453237  14.390625 4.79856115107913  C 14.046875 5.0431654676259  13.875 5.35731414868104  13.875 5.7410071942446  C 13.875 6.11510791366906  14.046875 6.42446043165468  14.390625 6.66906474820144  C 14.734375 6.91366906474821  15.1302083333333 7.03597122302159  15.578125 7.03597122302159  C 16.0052083333333 7.03597122302159  16.3463541666667 6.91846522781775  16.6015625 6.68345323741008  Z M 26.5 13.7697841726619  C 26.7708333333333 13.5587529976019  26.90625 13.3141486810552  26.90625 13.0359712230216  C 26.90625 12.7673860911271  26.7708333333333 12.5275779376499  26.5 12.3165467625899  C 26.2291666666667 12.10551558753  25.890625 12  25.484375 12  C 25.203125 12  24.9453125 12.1079136690648  24.7109375 12.3237410071942  C 24.4765625 12.5395683453237  24.359375 12.7769784172662  24.359375 13.0359712230216  C 24.359375 13.3045563549161  24.4765625 13.5467625899281  24.7109375 13.7625899280576  C 24.9453125 13.9784172661871  25.203125 14.0863309352518  25.484375 14.0863309352518  C 25.890625 14.0863309352518  26.2291666666667 13.9808153477218  26.5 13.7697841726619  Z M 20.6171875 3.57553956834532  C 21.7161458333333 4.69304556354916  22.4270833333333 5.94244604316548  22.75 7.32374100719424  C 22.4270833333333 7.28537170263789  22.0625 7.26618705035972  21.65625 7.26618705035972  C 19.8958333333333 7.26618705035972  18.2760416666667 7.63549160671462  16.796875 8.37410071942446  C 15.3177083333333 9.11270983213429  14.1536458333333 10.1127098321343  13.3046875 11.3741007194245  C 12.4557291666667 12.6354916067146  12.03125 14.0143884892086  12.03125 15.5107913669065  C 12.03125 16.2589928057554  12.1510416666667 16.9880095923261  12.390625 17.6978417266187  C 12.0260416666667 17.726618705036  11.671875 17.7410071942446  11.328125 17.7410071942446  C 11.0572916666667 17.7410071942446  10.796875 17.7338129496403  10.546875 17.7194244604317  C 10.296875 17.705035971223  10.0104166666667 17.673860911271  9.6875 17.6258992805755  C 9.36458333333334 17.5779376498801  9.1328125 17.5443645083933  8.9921875 17.5251798561151  C 8.8515625 17.5059952038369  8.56770833333334 17.4556354916067  8.140625 17.3741007194245  C 7.71354166666667 17.2925659472422  7.453125 17.242206235012  7.359375 17.2230215827338  L 3.40625 19.0503597122302  L 4.53125 15.9136690647482  C 1.51041666666666 13.9664268585132  0 11.6163069544364  0 8.86330935251799  C 0 7.24220623501199  0.5078125 5.75059952038369  1.5234375 4.38848920863309  C 2.5390625 3.02637889688249  3.9140625 1.95443645083932  5.6484375 1.1726618705036  C 7.3828125 0.390887290167868  9.27604166666667 0  11.328125 0  C 13.1614583333333 0  14.8932291666667 0.316546762589923  16.5234375 0.949640287769796  C 18.1536458333333 1.58273381294964  19.5182291666667 2.45803357314148  20.6171875 3.57553956834532  Z M 30.6640625 11.6043165467626  C 31.5546875 12.7697841726619  32 14.0335731414868  32 15.3956834532374  C 32 16.5179856115108  31.6432291666667 17.589928057554  30.9296875 18.6115107913669  C 30.2161458333333 19.6330935251798  29.25 20.5611510791367  28.03125 21.3956834532374  L 28.890625 24  L 25.78125 22.431654676259  C 24.21875 22.7865707434053  23.0833333333333 22.9640287769784  22.375 22.9640287769784  C 20.6145833333333 22.9640287769784  18.9947916666667 22.6258992805755  17.515625 21.9496402877698  C 16.0364583333333 21.273381294964  14.8723958333333 20.3549160671463  14.0234375 19.1942446043166  C 13.1744791666667 18.0335731414868  12.75 16.7673860911271  12.75 15.3956834532374  C 12.75 14.0239808153477  13.1744791666667 12.757793764988  14.0234375 11.5971223021583  C 14.8723958333333 10.4364508393285  16.0364583333333 9.5179856115108  17.515625 8.84172661870504  C 18.9947916666667 8.16546762589928  20.6145833333333 7.8273381294964  22.375 7.8273381294964  C 24.0520833333333 7.8273381294964  25.6302083333333 8.16546762589928  27.109375 8.84172661870504  C 28.5885416666667 9.5179856115108  29.7734375 10.4388489208633  30.6640625 11.6043165467626  Z " fill-rule="nonzero" fill="#00cc00" stroke="none" transform="matrix(1 0 0 1 35 94 )" />
  </g>
</svg>