<?xml version="1.0" encoding="utf-8"?>
<svg version="1.1" xmlns:xlink="http://www.w3.org/1999/xlink" width="23px" height="24px" xmlns="http://www.w3.org/2000/svg">
  <g transform="matrix(1 0 0 1 -248 -94 )">
    <path d="M 14.3700686106347 5.83258928571429  C 15.1130646083476 6.33705357142857  15.4845626072041 6.94642857142857  15.4845626072041 7.66071428571429  C 15.4845626072041 8.37499999999999  15.1097770154374 8.98437499999999  14.360205831904 9.48883928571429  C 13.6106346483705 9.99330357142857  12.7164093767867 10.2455357142857  11.6775300171527 10.2455357142857  C 10.8885077186964 10.2455357142857  10.1586620926244 10.0892857142857  9.48799313893653 9.77678571428571  C 8.67267009719839 10.375  7.91652372784449 11.0267857142857  7.2195540308748 11.7321428571429  C 3.97141223556318 15.0446428571429  2.64322469982847 18.8794642857143  3.23499142367066 23.2366071428571  C 3.2481417953116 23.4330357142857  3.16595197255575 23.6049107142857  2.98842195540308 23.7522321428571  C 2.81089193825042 23.8995535714286  2.58404802744425 23.9821428571429  2.30789022298455 24  L 2.20926243567754 24  C 1.94625500285878 24  1.71612349914236 23.9397321428571  1.51886792452831 23.8191964285714  C 1.32161234991423 23.6986607142857  1.20983419096626 23.5491071428571  1.1835334476844 23.3705357142857  C 0.999428244711254 22.2455357142857  0.976415094339615 21.140625  1.11449399656948 20.0558035714286  C 1.25257289879931 18.9709821428571  1.44654088050314 18.0022321428571  1.69639794168094 17.1495535714286  C 1.94625500285878 16.296875  2.3013150371641 15.4665178571429  2.76157804459692 14.6584821428571  C 3.22184105202973 13.8504464285714  3.67552887364209 13.15625  4.12264150943398 12.5758928571429  C 4.56975414522583 11.9955357142857  5.05631789594054 11.4375  5.58233276157804 10.9017857142857  C 6.38450543167525 10.0982142857143  7.25242995997715 9.36160714285715  8.18610634648371 8.69196428571429  C 7.9757004002287 8.37946428571428  7.87049742710121 8.03571428571429  7.87049742710121 7.66071428571429  C 7.87049742710121 6.94642857142857  8.2419954259577 6.33705357142857  8.98499142367066 5.83258928571429  C 9.72798742138366 5.32812499999999  10.6255002858776 5.07589285714285  11.6775300171527 5.07589285714285  C 12.7295597484277 5.07589285714285  13.6270726129217 5.32812499999999  14.3700686106347 5.83258928571429  Z M 21.4614065180103 3.890625  C 22.4871355060034 5.09151785714286  23 6.39732142857142  23 7.80803571428571  C 23 9.21874999999999  22.4871355060034 10.5223214285714  21.4614065180103 11.71875  C 20.4356775300172 12.9151785714286  19.0384505431675 13.8616071428571  17.2697255574614 14.5580357142857  C 15.5010005717553 15.2544642857143  13.5777587192682 15.6026785714286  11.5 15.6026785714286  C 10.65837621498 15.6026785714286  9.79702687249858 15.5401785714286  8.91595197255575 15.4151785714286  C 8.63979416809605 15.3705357142857  8.42610062893081 15.265625  8.27487135506004 15.1004464285714  C 8.12364208118925 14.9352678571429  8.08090337335619 14.7589285714286  8.14665523156089 14.5714285714286  C 8.21240708976558 14.3928571428571  8.36363636363635 14.2522321428571  8.60034305317325 14.1495535714286  C 8.83704974271012 14.046875  9.09348198970841 14.0133928571429  9.36963979416808 14.0491071428571  C 10.0403087478559 14.1651785714286  10.7504288164666 14.2232142857143  11.5 14.2232142857143  C 12.775586049171 14.2232142857143  13.9985706117782 14.0535714285714  15.1689536878216 13.7142857142857  C 16.3393367638651 13.375  17.3453401943968 12.9196428571429  18.1869639794168 12.3482142857143  C 19.0285877644368 11.7767857142857  19.6992567181246 11.09375  20.1989708404803 10.2991071428572  C 20.6986849628359 9.50446428571428  20.9485420240137 8.67410714285714  20.9485420240137 7.80803571428571  C 20.9485420240137 6.94196428571428  20.6986849628359 6.11160714285714  20.1989708404803 5.31696428571429  C 19.6992567181246 4.52232142857142  19.0285877644368 3.83928571428571  18.1869639794168 3.26785714285715  C 17.3453401943968 2.69642857142858  16.3393367638651 2.24107142857143  15.1689536878216 1.90178571428571  C 13.9985706117782 1.56250000000001  12.775586049171 1.39285714285715  11.5 1.39285714285715  C 10.224413950829 1.39285714285715  9.00142938822182 1.56250000000001  7.83104631217839 1.90178571428571  C 6.66066323613495 2.24107142857143  5.65465980560322 2.69642857142858  4.81303602058318 3.26785714285715  C 3.97141223556318 3.83928571428571  3.30074328187536 4.52232142857142  2.80102915951974 5.31696428571429  C 2.3013150371641 6.11160714285714  2.05145797598627 6.94196428571428  2.05145797598627 7.80803571428571  C 2.05145797598627 8.82589285714285  2.39336763865066 9.79910714285714  3.07718696397941 10.7276785714286  C 3.2086906803888 10.90625  3.23170383076044 11.0848214285714  3.14622641509433 11.2633928571428  C 3.06074899942826 11.4419642857143  2.8930817610063 11.5758928571429  2.64322469982847 11.6651785714286  C 2.39336763865066 11.7544642857143  2.13364779874215 11.7678571428571  1.86406518010293 11.7053571428571  C 1.59448256146371 11.6428571428571  1.39393939393938 11.5267857142857  1.26243567753002 11.3571428571429  C 0.420811892509988 10.2589285714286  0 9.07589285714286  0 7.80803571428571  C 0 6.74553571428571  0.305746140651792 5.73214285714285  0.917238421955403 4.76785714285715  C 1.52873070325901 3.80357142857143  2.34734133790735 2.97321428571429  3.37307032590053 2.27678571428571  C 4.39879931389365 1.58035714285715  5.62178387650087 1.02678571428571  7.04202401372211 0.616071428571431  C 8.46226415094338 0.205357142857139  9.94825614636935 0  11.5 0  C 13.5777587192682 0  15.5010005717553 0.348214285714292  17.2697255574614 1.04464285714285  C 19.0384505431675 1.74107142857143  20.4356775300172 2.68973214285714  21.4614065180103 3.890625  Z " fill-rule="nonzero" fill="#330099" stroke="none" transform="matrix(1 0 0 1 248 94 )" />
  </g>
</svg>