<?xml version="1.0" encoding="utf-8"?>
<svg version="1.1" xmlns:xlink="http://www.w3.org/1999/xlink" width="26px" height="24px" xmlns="http://www.w3.org/2000/svg">
  <g transform="matrix(1 0 0 1 -316 -94 )">
    <path d="M 0 17.0357142857143  C 0 14.5803571428571  1.24373576309802 12.5  3.73120728929382 10.7946428571429  C 3.65223993925588 10.625  3.61275626423691 10.3928571428571  3.61275626423691 10.0982142857143  C 3.61275626423691 9.91964285714286  3.66704631738799 9.70089285714286  3.7756264236902 9.44196428571429  C 3.88420652999241 9.18303571428571  4.00265755504932 8.98214285714286  4.13097949886105 8.83928571428571  C 4.12110858010629 8.64285714285714  4.15812452543662 8.40625  4.24202733485197 8.12946428571429  C 4.32593014426732 7.85267857142857  4.43697798025812 7.66071428571429  4.5751708428246 7.55357142857142  C 4.5751708428246 6.3125  5.03170083523162 5.02455357142857  5.94476082004559 3.68973214285714  C 6.8578208048595 2.35491071428571  7.93128321943811 1.41964285714286  9.16514806378137 0.883928571428584  C 10.5372057706909 0.294642857142861  12.1362946089597 0  13.9624145785877 0  C 15.2752467729689 0  16.58807896735 0.245535714285722  17.9009111617312 0.736607142857139  C 18.3845861807137 0.924107142857139  18.8287775246773 1.13839285714286  19.2334851936218 1.37946428571429  C 19.6381928625665 1.62053571428571  19.9886104783599 1.87053571428571  20.2847380410022 2.12946428571429  C 20.5808656036446 2.38839285714286  20.8523158694001 2.69196428571429  21.0990888382688 3.04017857142858  C 21.3458618071375 3.38839285714286  21.5531511009871 3.71875  21.7209567198178 4.03125  C 21.8887623386485 4.34375  22.0491647684131 4.72098214285714  22.2021640091116 5.16294642857142  C 22.3551632498102 5.60491071428571  22.4810174639332 6.00446428571429  22.5797266514806 6.36160714285714  C 22.6784358390281 6.71875  22.7870159453303 7.15625  22.9054669703872 7.67410714285714  L 22.9202733485194 7.74107142857142  C 23.4631738800304 8.48214285714286  23.7346241457859 9.15178571428571  23.7346241457859 9.75  C 23.7346241457859 9.875  23.6902050113896 10.0535714285714  23.6013667425968 10.2857142857143  C 23.5125284738041 10.5178571428571  23.4681093394078 10.6875  23.4681093394078 10.7946428571429  C 23.4681093394078 10.8035714285714  23.4755125284738 10.8191964285714  23.490318906606 10.8415178571429  C 23.505125284738 10.8638392857143  23.5223993925589 10.8861607142857  23.5421412300684 10.9084821428571  C 23.5618830675779 10.9308035714286  23.5717539863326 10.9464285714286  23.5717539863326 10.9553571428571  C 24.3318147304481 11.9732142857143  24.9265375854214 12.9308035714286  25.3559225512528 13.828125  C 25.7853075170842 14.7254464285714  26 15.65625  26 16.6205357142857  C 26 17.0044642857143  25.9037585421412 17.4508928571429  25.7112756264237 17.9598214285714  C 25.5187927107062 18.46875  25.244874715262 18.7232142857143  24.8895216400912 18.7232142857143  C 24.8006833712984 18.7232142857143  24.7044419134396 18.6897321428571  24.6007972665148 18.6227678571429  C 24.49715261959 18.5558035714286  24.4033788914199 18.4776785714286  24.3194760820046 18.3883928571429  C 24.2355732725892 18.2991071428571  24.1417995444192 18.1830357142857  24.0381548974943 18.0401785714286  C 23.9345102505695 17.8973214285714  23.8555429005315 17.7790178571429  23.8012528473804 17.6852678571429  C 23.7469627942293 17.5915178571429  23.6803340926348 17.4754464285714  23.6013667425968 17.3370535714286  C 23.5223993925589 17.1986607142857  23.4779802581625 17.1205357142857  23.4681093394078 17.1026785714286  C 23.4582384206531 17.09375  23.4434320425209 17.0892857142857  23.4236902050114 17.0892857142857  L 23.3496583143508 17.1428571428571  C 22.7672741078208 18.5178571428571  22.1157934700076 19.5133928571429  21.3952164009112 20.1294642857143  C 21.5926347760061 20.3080357142857  21.8961655277145 20.4799107142857  22.3058086560364 20.6450892857143  C 22.7154517843584 20.8102678571429  23.0559984813971 20.9955357142857  23.3274487471526 21.2008928571429  C 23.5988990129081 21.40625  23.7741078208049 21.6964285714286  23.8530751708428 22.0714285714286  C 23.8333333333333 22.1071428571429  23.8135914958239 22.1785714285714  23.7938496583144 22.2857142857143  C 23.7741078208049 22.3928571428571  23.7395596051633 22.4732142857143  23.6902050113896 22.5267857142857  C 23.0584662110858 23.3928571428571  21.5679574791192 23.8258928571429  19.2186788154898 23.8258928571429  C 18.6955201214882 23.8258928571429  18.1501518602885 23.7857142857143  17.5825740318907 23.7053571428571  C 17.0149962034927 23.625  16.5313211845102 23.5357142857143  16.131548974943 23.4375  C 15.7317767653758 23.3392857142857  15.2160212604404 23.2053571428571  14.5842824601366 23.0357142857143  C 14.4362186788155 22.9910714285714  14.3227031131359 22.9598214285714  14.243735763098 22.9419642857143  C 14.1055429005315 22.90625  13.8785117691723 22.8861607142857  13.5626423690205 22.8816964285714  C 13.2467729688686 22.8772321428571  13.0493545937737 22.8705357142857  12.9703872437358 22.8616071428571  C 12.5656795747911 23.2633928571429  11.9364085041761 23.5535714285714  11.0825740318907 23.7321428571429  C 10.2287395596052 23.9107142857143  9.39711465451785 24  8.58769931662869 24  C 8.24221716021259 24  7.9016704631739 23.9933035714286  7.56605922551256 23.9799107142857  C 7.23044798785122 23.9665178571429  6.77145026575545 23.9263392857143  6.18906605922552 23.859375  C 5.60668185269554 23.7924107142857  5.1082004555808 23.7008928571429  4.69362186788157 23.5848214285714  C 4.27904328018224 23.46875  3.91135155656792 23.2901785714286  3.59054669703875 23.0491071428571  C 3.26974183750946 22.8080357142857  3.10933940774487 22.5223214285714  3.10933940774487 22.1919642857143  C 3.10933940774487 21.8348214285714  3.1586940015186 21.5691964285714  3.25740318906605 21.3950892857143  C 3.35611237661351 21.2209821428571  3.55846621108583 21.0044642857143  3.86446469248295 20.7455357142857  C 3.97304479878505 20.7276785714286  4.17293090356873 20.6696428571429  4.46412300683374 20.5714285714286  C 4.75531511009876 20.4732142857143  4.9996203492787 20.4196428571429  5.19703872437361 20.4107142857143  C 5.23652239939253 20.4107142857143  5.30561883067583 20.4017857142857  5.40432801822323 20.3839285714286  C 5.42406985573268 20.3660714285714  5.43394077448744 20.3482142857143  5.43394077448744 20.3303571428571  L 5.40432801822323 20.2901785714286  C 4.9305239179954 20.1919642857143  4.39749430523915 19.7209821428571  3.80523917995441 18.8772321428571  C 3.21298405466973 18.0334821428571  2.85269552012153 17.3348214285714  2.7243735763098 16.78125  L 2.65034168564921 16.7410714285714  C 2.61085801063024 16.7410714285714  2.5516324981017 16.8303571428571  2.47266514806375 17.0089285714286  C 2.29498861047841 17.375  2.0260060744115 17.7075892857143  1.66571753986335 18.0066964285714  C 1.30542900531515 18.3058035714286  0.92293090356867 18.4732142857143  0.518223234624202 18.5089285714286  L 0.503416856491981 18.5089285714286  C 0.463933181473067 18.5089285714286  0.434320425208853 18.4888392857143  0.414578587699339 18.4486607142857  C 0.394836750189825 18.4084821428571  0.370159453303017 18.3839285714286  0.340546697038747 18.375  C 0.113515565679563 17.8928571428571  0 17.4464285714286  0 17.0357142857143  Z " fill-rule="nonzero" fill="#0099ff" stroke="none" transform="matrix(1 0 0 1 316 94 )" />
  </g>
</svg>