<?xml version="1.0" encoding="utf-8"?>
<svg version="1.1" xmlns:xlink="http://www.w3.org/1999/xlink" width="13px" height="18px" xmlns="http://www.w3.org/2000/svg">
  <g transform="matrix(1 0 0 1 -345 -22 )">
    <path d="M 12.7766323024055 8.58517034068137  C 12.9255441008019 8.70541082164328  13 8.84368737474949  13 9  C 13 9.1563126252505  12.9255441008019 9.29458917835672  12.7766323024055 9.41482965931863  L 2.36769759450175 17.8196392785571  C 2.21878579610541 17.939879759519  2.04753722794959 18  1.85395189003435 18  C 1.66036655211911 18  1.48911798396335 17.939879759519  1.34020618556701 17.8196392785571  L 0.22336769759454 16.9178356713427  C 0.0744558991981421 16.7975951903808  0 16.6593186372746  0 16.503006012024  C 0 16.3466933867736  0.0744558991981421 16.2084168336673  0.22336769759454 16.0881763527054  L 9.00171821305844 9  L 0.22336769759454 1.91182364729459  C 0.0744558991981421 1.79158316633266  0 1.65330661322645  0 1.49699398797596  C 0 1.34068136272545  0.0744558991981421 1.20240480961924  0.22336769759454 1.08216432865731  L 1.34020618556701 0.180360721442888  C 1.48911798396335 0.0601202404809555  1.66036655211911 0  1.85395189003435 0  C 2.04753722794959 0  2.21878579610541 0.0601202404809555  2.36769759450175 0.180360721442888  L 12.7766323024055 8.58517034068137  Z " fill-rule="nonzero" fill="#aeaeae" stroke="none" transform="matrix(1 0 0 1 345 22 )" />
  </g>
</svg>