<?xml version="1.0" encoding="utf-8"?>
<svg version="1.1" xmlns:xlink="http://www.w3.org/1999/xlink" width="13px" height="21px" xmlns="http://www.w3.org/2000/svg">
  <g transform="matrix(1 0 0 1 -340 -46 )">
    <path d="M 12.7766323024055 10.0160320641283  C 12.9255441008018 10.1563126252505  13 10.3176352705411  13 10.5  C 13 10.6823647294589  12.9255441008018 10.8436873747495  12.7766323024055 10.9839679358717  L 2.36769759450172 20.7895791583166  C 2.21878579610538 20.9298597194389  2.0475372279496 21  1.85395189003436 21  C 1.66036655211913 21  1.48911798396334 20.9298597194389  1.34020618556701 20.7895791583166  L 0.223367697594502 19.7374749498998  C 0.0744558991981673 19.5971943887776  0 19.435871743487  0 19.2535070140281  C 0 19.0711422845691  0.0744558991981673 18.9098196392786  0.223367697594502 18.7695390781563  L 9.00171821305842 10.5  L 0.223367697594502 2.23046092184369  C 0.0744558991981673 2.09018036072144  0 1.92885771543086  0 1.74649298597194  C 0 1.56412825651302  0.0744558991981673 1.40280561122244  0.223367697594502 1.2625250501002  L 1.34020618556701 0.210420841683367  C 1.48911798396334 0.0701402805611215  1.66036655211913 0  1.85395189003436 0  C 2.0475372279496 0  2.21878579610538 0.0701402805611215  2.36769759450172 0.210420841683367  L 12.7766323024055 10.0160320641283  Z " fill-rule="nonzero" fill="#5e5e5e" stroke="none" transform="matrix(1 0 0 1 340 46 )" />
  </g>
</svg>