<?xml version="1.0" encoding="utf-8"?>
<svg version="1.1" xmlns:xlink="http://www.w3.org/1999/xlink" width="19px" height="15px" xmlns="http://www.w3.org/2000/svg">
  <g transform="matrix(1 0 0 1 -16 -23 )">
    <path d="M 1.58333333333333 0  L 17.4166666666667 0  C 17.8520833333333 0  18.2248263888889 0.152994791666665  18.5348958333333 0.458984375000001  C 18.8449652777778 0.764973958333333  19 1.1328125  19 1.5625  L 19 13.4375  C 19 13.8671875  18.8449652777778 14.2350260416667  18.5348958333333 14.541015625  C 18.2248263888889 14.8470052083333  17.8520833333333 15  17.4166666666667 15  L 1.58333333333333 15  C 1.14791666666667 15  0.775173611111111 14.8470052083333  0.465104166666667 14.541015625  C 0.155034722222222 14.2350260416667  0 13.8671875  0 13.4375  L 0 1.5625  C 0 1.1328125  0.155034722222222 0.764973958333333  0.465104166666667 0.458984375000001  C 0.775173611111111 0.152994791666665  1.14791666666667 0  1.58333333333333 0  Z M 17.4166666666667 1.25  L 1.58333333333333 1.25  C 1.49756944444444 1.25  1.42335069444444 1.28092447916667  1.36067708333333 1.3427734375  C 1.29800347222222 1.40462239583333  1.26666666666667 1.47786458333333  1.26666666666667 1.5625  L 1.26666666666667 4  L 17.7333333333333 4  L 17.7333333333333 1.5625  C 17.7333333333333 1.47786458333333  17.7019965277778 1.40462239583333  17.6393229166667 1.3427734375  C 17.5766493055556 1.28092447916667  17.5024305555556 1.25  17.4166666666667 1.25  Z M 1.58333333333333 13.75  L 17.4166666666667 13.75  C 17.5024305555556 13.75  17.5766493055556 13.7190755208333  17.6393229166667 13.6572265625  C 17.7019965277778 13.5953776041667  17.7333333333333 13.5221354166667  17.7333333333333 13.4375  L 17.7333333333333 7.5  L 1.26666666666667 7.5  L 1.26666666666667 13.4375  C 1.26666666666667 13.5221354166667  1.29800347222222 13.5953776041667  1.36067708333333 13.6572265625  C 1.42335069444444 13.7190755208333  1.49756944444444 13.75  1.58333333333333 13.75  Z M 5.06666666666667 12.5  L 2.53333333333333 12.5  L 2.53333333333333 11.25  L 5.06666666666667 11.25  L 5.06666666666667 12.5  Z M 10.1333333333333 12.5  L 6.33333333333333 12.5  L 6.33333333333333 11.25  L 10.1333333333333 11.25  L 10.1333333333333 12.5  Z " fill-rule="nonzero" fill="#5e5e5e" stroke="none" transform="matrix(1 0 0 1 16 23 )" />
  </g>
</svg>