<?xml version="1.0" encoding="utf-8"?>
<svg version="1.1" xmlns:xlink="http://www.w3.org/1999/xlink" width="15px" height="15px" xmlns="http://www.w3.org/2000/svg">
  <g transform="matrix(1 0 0 1 0 -2 )">
    <path d="M 12.36328125 6.357421875  C 12.48046875 6.240234375  12.5390625 6.09375  12.5390625 5.91796875  C 12.5390625 5.73567708333333  12.48046875 5.58593749999999  12.36328125 5.46874999999999  L 11.474609375 4.58984374999999  C 11.3509114583333 4.46614583333333  11.2044270833333 4.40429687500001  11.03515625 4.40429687500001  C 10.8658854166667 4.40429687500001  10.7194010416667 4.46614583333333  10.595703125 4.58984374999999  L 6.61132812500002 8.56445312500001  L 4.40429687499998 6.357421875  C 4.2805989583333 6.23372395833333  4.1341145833333 6.17187499999999  3.96484374999998 6.17187499999999  C 3.79557291666665 6.17187499999999  3.64908854166665 6.23372395833333  3.52539062499998 6.357421875  L 2.63671875 7.236328125  C 2.51953125 7.353515625  2.4609375 7.50325520833334  2.4609375 7.68554687500001  C 2.4609375 7.86132812500001  2.51953125 8.00781250000001  2.63671875 8.12500000000001  L 6.17187500000002 11.66015625  C 6.2955729166667 11.7838541666667  6.4420572916667 11.845703125  6.61132812500002 11.845703125  C 6.78710937500002 11.845703125  6.93684895833333 11.7838541666667  7.060546875 11.66015625  L 12.36328125 6.357421875  Z M 13.994140625 3.7353515625  C 14.6647135416667 4.88444010416667  15 6.13932291666667  15 7.5  C 15 8.86067708333333  14.6647135416667 10.1155598958333  13.994140625 11.2646484375  C 13.3235677083333 12.4137369791667  12.4137369791667 13.3235677083333  11.2646484375 13.994140625  C 10.1155598958333 14.6647135416667  8.86067708333335 15  7.5 15  C 6.13932291666665 15  4.88444010416667 14.6647135416667  3.7353515625 13.994140625  C 2.58626302083333 13.3235677083333  1.67643229166667 12.4137369791667  1.00585937500001 11.2646484375  C 0.335286458333348 10.1155598958333  0 8.86067708333333  0 7.5  C 0 6.13932291666667  0.335286458333348 4.88444010416667  1.00585937500001 3.7353515625  C 1.67643229166667 2.58626302083333  2.58626302083333 1.67643229166667  3.7353515625 1.00585937500001  C 4.88444010416667 0.335286458333331  6.13932291666665 0  7.5 0  C 8.86067708333335 0  10.1155598958333 0.335286458333331  11.2646484375 1.00585937500001  C 12.4137369791667 1.67643229166667  13.3235677083333 2.58626302083333  13.994140625 3.7353515625  Z " fill-rule="nonzero" fill="#ff0000" stroke="none" transform="matrix(1 0 0 1 0 2 )" />
  </g>
</svg>